<svg width="24" height="24" viewBox="0 0 24 24" fill="none" xmlns="http://www.w3.org/2000/svg">
<circle cx="11.4502" cy="11.1519" r="7.14848" fill="#D1CDC7"/>
<path fill-rule="evenodd" clip-rule="evenodd" d="M10.3859 9.0268C10.093 8.73391 9.61809 8.73391 9.3252 9.0268C9.03231 9.31969 9.03231 9.79457 9.3252 10.0875L10.4452 11.2075L9.3252 12.3275C9.03231 12.6204 9.03231 13.0952 9.3252 13.3881C9.61809 13.681 10.093 13.681 10.3859 13.3881L11.5059 12.2681L12.6259 13.3881C12.9188 13.681 13.3936 13.681 13.6865 13.3881C13.9794 13.0952 13.9794 12.6204 13.6865 12.3275L12.5665 11.2075L13.6865 10.0875C13.9794 9.79457 13.9794 9.31969 13.6865 9.0268C13.3936 8.73391 12.9188 8.73391 12.6259 9.0268L11.5059 10.1468L10.3859 9.0268Z" fill="#FD0D0D"/>
<path d="M19.8523 4C24.0492 8.27671 24.0492 15.1264 19.8523 19.4031" stroke="#4E4941" stroke-width="1.5" stroke-linecap="round" stroke-linejoin="round"/>
<path d="M4.14771 4C-0.049238 8.27671 -0.049238 15.1264 4.14771 19.4031" stroke="#4E4941" stroke-width="1.5" stroke-linecap="round" stroke-linejoin="round"/>
</svg>
