<svg width="24" height="24" viewBox="0 0 24 24" fill="none" xmlns="http://www.w3.org/2000/svg">
<path fill-rule="evenodd" clip-rule="evenodd" d="M11.4244 13.5842H3.31687C2.70235 13.5844 2.11296 13.3403 1.67843 12.9058C1.2439 12.4713 1.00003 11.8819 1.00003 11.2674V4.31684C1.00003 3.70232 1.2439 3.11293 1.67843 2.6784C2.11296 2.24387 2.70235 1.99983 3.31687 2H19.5347C20.1493 1.99983 20.7386 2.24387 21.1732 2.6784C21.6077 3.11293 21.8516 3.70232 21.8516 4.31684V12.4238" fill="#D1CDC7"/>
<path d="M17.4229 7.58757C17.5361 7.70075 17.5361 7.88424 17.4229 7.99741C17.3097 8.11058 17.1263 8.11058 17.0131 7.99741C16.8999 7.88424 16.8999 7.70075 17.0131 7.58757C17.1264 7.47466 17.3096 7.47466 17.4229 7.58757" stroke="#4E4941" stroke-width="1.5" stroke-linecap="round" stroke-linejoin="round"/>
<path d="M11.6307 7.58757C11.7439 7.70075 11.7439 7.88424 11.6307 7.99741C11.5175 8.11058 11.334 8.11058 11.2208 7.99741C11.1077 7.88424 11.1077 7.70075 11.2208 7.58757C11.3341 7.47466 11.5174 7.47466 11.6307 7.58757" stroke="#4E4941" stroke-width="1.5" stroke-linecap="round" stroke-linejoin="round"/>
<path d="M5.83861 7.58757C5.95178 7.70075 5.95178 7.88424 5.8386 7.99741C5.72543 8.11058 5.54194 8.11058 5.42876 7.99741C5.31559 7.88424 5.31559 7.70075 5.42876 7.58757C5.54205 7.47466 5.72532 7.47466 5.83861 7.58757" stroke="#4E4941" stroke-width="1.5" stroke-linecap="round" stroke-linejoin="round"/>
<path fill-rule="evenodd" clip-rule="evenodd" d="M17.2178 21.6936C14.019 21.6936 11.4258 19.1004 11.4258 15.9015C11.4258 12.7026 14.019 10.1094 17.2178 10.1094C20.4167 10.1094 23.0099 12.7026 23.0099 15.9015C23.0099 17.4376 22.3997 18.9109 21.3135 19.9971C20.2272 21.0833 18.754 21.6936 17.2178 21.6936Z" fill="#FD0D0D"/>
<path d="M17.2184 18.1023C17.1867 18.1023 17.1611 18.128 17.1611 18.1596V18.1603C17.1611 18.1923 17.187 18.2182 17.219 18.2182C17.251 18.2182 17.2769 18.1923 17.2769 18.1603C17.2769 18.1283 17.251 18.1023 17.219 18.1023H17.2184" stroke="white" stroke-width="1.5" stroke-linecap="round" stroke-linejoin="round"/>
<path d="M17.218 15.6867V13.561" stroke="white" stroke-width="1.5" stroke-linecap="round" stroke-linejoin="round"/>
</svg>
