<svg width="24" height="24" viewBox="0 0 24 24" fill="none" xmlns="http://www.w3.org/2000/svg">
<path fill-rule="evenodd" clip-rule="evenodd" d="M14 20H19C20.105 20 21 19.105 21 18V6C21 4.895 20.105 4 19 4H5C3.895 4 3 4.895 3 6V18C3 19.105 3.895 20 5 20H10L12 22L14 20Z" stroke="#0A0A0A" stroke-width="1.5" stroke-linecap="round" stroke-linejoin="round"/>
<path fill-rule="evenodd" clip-rule="evenodd" d="M9.08297 15.9922H7.70097C7.39197 15.9922 7.14197 15.7422 7.14197 15.4332V11.0512C7.14197 10.7422 7.39197 10.4922 7.70097 10.4922H9.08297C9.39197 10.4922 9.64197 10.7422 9.64197 11.0932V15.4752C9.64197 15.7422 9.39197 15.9922 9.08297 15.9922V15.9922Z" stroke="#0A0A0A" stroke-width="1.5" stroke-linecap="round" stroke-linejoin="round"/>
<path d="M9.64197 11.6772L11.488 8.65619C12.199 7.49319 13.99 7.99619 13.99 9.36019V10.9552H14.88H15.5C15.953 10.9552 16.376 11.1822 16.628 11.5612C16.851 11.8962 16.916 12.3132 16.805 12.7002L16.073 15.2622C15.949 15.6942 15.554 15.9922 15.105 15.9922H11.522C11.231 15.9922 10.948 15.8902 10.724 15.7042L9.64197 14.8072" stroke="#0A0A0A" stroke-width="1.5" stroke-linecap="round" stroke-linejoin="round"/>
</svg>
