<svg width="24" height="24" viewBox="0 0 24 24" fill="none" xmlns="http://www.w3.org/2000/svg">
<path d="M21.0037 17.002V18.0024C21.0037 19.6599 19.66 21.0036 18.0025 21.0036H17.0021" stroke="#0A0A0A" stroke-width="1.5" stroke-linecap="round" stroke-linejoin="round"/>
<path d="M6.99791 21.0036H5.9975C4.33995 21.0036 2.99625 19.6599 2.99625 18.0024V17.002" stroke="#0A0A0A" stroke-width="1.5" stroke-linecap="round" stroke-linejoin="round"/>
<path fill-rule="evenodd" clip-rule="evenodd" d="M13.1365 16.5478L15.9556 8.94459C16.0461 8.68996 15.982 8.40598 15.791 8.2149C15.5999 8.02381 15.3159 7.95972 15.0613 8.05022L7.45809 10.8704C7.17532 10.9791 6.9945 11.2573 7.00999 11.5598C7.02547 11.8624 7.23373 12.1207 7.52612 12.1999L10.9535 13.0613L11.8089 16.4777C11.8887 16.7688 12.146 16.9761 12.4474 16.992C12.7488 17.0079 13.0265 16.8288 13.1365 16.5478V16.5478Z" stroke="#0A0A0A" stroke-width="1.5" stroke-linecap="round" stroke-linejoin="round"/>
<path d="M17.0021 2.99609H18.0025C19.66 2.99609 21.0037 4.3398 21.0037 5.99734V6.99776" stroke="#0A0A0A" stroke-width="1.5" stroke-linecap="round" stroke-linejoin="round"/>
<path d="M2.99625 6.99776V5.99734C2.99625 4.3398 4.33995 2.99609 5.9975 2.99609H6.99791" stroke="#0A0A0A" stroke-width="1.5" stroke-linecap="round" stroke-linejoin="round"/>
</svg>
