<svg width="24" height="24" viewBox="0 0 24 24" fill="none" xmlns="http://www.w3.org/2000/svg">
<path d="M7.99829 17.0022H8.99871" stroke="#0A0A0A" stroke-width="1.5" stroke-linecap="round" stroke-linejoin="round"/>
<path d="M13.9413 15.5962V19.6529C13.9413 20.3988 14.546 21.0034 15.2918 21.0034H19.7937C20.1519 21.0034 20.4954 20.8612 20.7487 20.6079C21.002 20.3546 21.1443 20.0111 21.1443 19.6529V15.6611" stroke="#0A0A0A" stroke-width="1.5" stroke-linecap="round" stroke-linejoin="round"/>
<path d="M22.0041 16.3493L18.0647 13.1978C17.7359 12.9347 17.2686 12.9347 16.9398 13.1978L13.0004 16.3493" stroke="#0A0A0A" stroke-width="1.5" stroke-linecap="round" stroke-linejoin="round"/>
<path d="M7.99829 13.5007H10.9995" stroke="#0A0A0A" stroke-width="1.5" stroke-linecap="round" stroke-linejoin="round"/>
<path d="M16.0016 6.99756L13.0004 9.99881L10.2852 7.99798L7.99829 9.99881" stroke="#0A0A0A" stroke-width="1.5" stroke-linecap="round" stroke-linejoin="round"/>
<path d="M16.0017 8.99839V6.99756H14.0009" stroke="#0A0A0A" stroke-width="1.5" stroke-linecap="round" stroke-linejoin="round"/>
<path d="M10.9996 21.0036H5.99754C4.89251 21.0036 3.9967 20.1078 3.9967 19.0028V4.99693C3.9967 3.8919 4.89251 2.99609 5.99754 2.99609H18.0025C19.1076 2.99609 20.0034 3.8919 20.0034 4.99693V10.9994" stroke="#0A0A0A" stroke-width="1.5" stroke-linecap="round" stroke-linejoin="round"/>
</svg>
