<svg width="24" height="24" viewBox="0 0 24 24" fill="none" xmlns="http://www.w3.org/2000/svg">
<path fill-rule="evenodd" clip-rule="evenodd" d="M9.63101 21.0033H3.47044C3.20855 21.0033 2.99625 20.791 2.99625 20.5291V20.145C2.999 19.0499 3.88602 18.1629 4.98107 18.1602H8.11938C9.21443 18.1629 10.1015 19.0499 10.1042 20.145V20.5291C10.1042 20.7906 9.89251 21.0028 9.63101 21.0033Z" stroke="#1F1F1F" stroke-width="1.5" stroke-linecap="round" stroke-linejoin="round"/>
<path d="M14.0008 20.0032H22.0042V19.0028L21.0037 17.002H12" stroke="#1F1F1F" stroke-width="1.5" stroke-linecap="round" stroke-linejoin="round"/>
<path fill-rule="evenodd" clip-rule="evenodd" d="M6.55074 15.7901C5.50441 15.7882 4.65748 14.9389 4.65845 13.8926C4.65942 12.8462 5.50791 11.9985 6.55424 11.9985C7.60057 11.9985 8.44906 12.8462 8.45003 13.8926C8.45099 14.9389 7.60407 15.7882 6.55774 15.7901H6.55074Z" stroke="#1F1F1F" stroke-width="1.5" stroke-linecap="round" stroke-linejoin="round"/>
<path d="M20.0033 17.0019V8.99854" stroke="#1F1F1F" stroke-width="1.5" stroke-linecap="round" stroke-linejoin="round"/>
<path d="M15.6445 8.99854V17.0019" stroke="#1F1F1F" stroke-width="1.5" stroke-linecap="round" stroke-linejoin="round"/>
<path fill-rule="evenodd" clip-rule="evenodd" d="M3.99667 8.99852H22.0042V5.92524L13.0004 1.99561L3.99667 5.92524V8.99852Z" stroke="#1F1F1F" stroke-width="1.5" stroke-linecap="round" stroke-linejoin="round"/>
</svg>
