<svg width="24" height="24" viewBox="0 0 24 24" fill="none" xmlns="http://www.w3.org/2000/svg">
<rect x="3" y="3" width="18" height="18" rx="3" stroke="#1F1F1F" stroke-width="1.5" stroke-linecap="round" stroke-linejoin="round"/>
<path d="M17.3 17.5C17.3 17.5276 17.2776 17.55 17.25 17.55C17.2224 17.55 17.2 17.5276 17.2 17.5C17.2 17.4724 17.2224 17.45 17.25 17.45" stroke="#1F1F1F" stroke-width="1.5" stroke-linecap="round" stroke-linejoin="round"/>
<path d="M13.799 17.5C13.799 17.5276 13.7766 17.55 13.749 17.55C13.7214 17.55 13.699 17.5276 13.699 17.5C13.699 17.4724 13.7214 17.45 13.749 17.45" stroke="#1F1F1F" stroke-width="1.5" stroke-linecap="round" stroke-linejoin="round"/>
<path d="M10.299 17.5C10.299 17.5276 10.2766 17.55 10.249 17.55C10.2214 17.55 10.199 17.5276 10.199 17.5C10.199 17.4724 10.2214 17.45 10.249 17.45" stroke="#1F1F1F" stroke-width="1.5" stroke-linecap="round" stroke-linejoin="round"/>
<path d="M6.79902 17.5C6.79902 17.5276 6.77664 17.55 6.74902 17.55C6.72141 17.55 6.69902 17.5276 6.69902 17.5C6.69902 17.4724 6.72141 17.45 6.74902 17.45" stroke="#1F1F1F" stroke-width="1.5" stroke-linecap="round" stroke-linejoin="round"/>
<path d="M17.25 17.4501C17.2776 17.4501 17.3 17.4725 17.3 17.5001" stroke="#1F1F1F" stroke-width="1.5" stroke-linecap="round" stroke-linejoin="round"/>
<path d="M13.749 17.4501C13.7767 17.4501 13.799 17.4725 13.799 17.5001" stroke="#1F1F1F" stroke-width="1.5" stroke-linecap="round" stroke-linejoin="round"/>
<path d="M10.249 17.4501C10.2767 17.4501 10.299 17.4725 10.299 17.5001" stroke="#1F1F1F" stroke-width="1.5" stroke-linecap="round" stroke-linejoin="round"/>
<path d="M6.74905 17.4501C6.77666 17.4501 6.79905 17.4725 6.79905 17.5001" stroke="#1F1F1F" stroke-width="1.5" stroke-linecap="round" stroke-linejoin="round"/>
<path d="M17.3 14.5C17.3 14.5276 17.2776 14.55 17.25 14.55C17.2224 14.55 17.2 14.5276 17.2 14.5C17.2 14.4724 17.2224 14.45 17.25 14.45" stroke="#1F1F1F" stroke-width="1.5" stroke-linecap="round" stroke-linejoin="round"/>
<path d="M13.799 14.5C13.799 14.5276 13.7766 14.55 13.749 14.55C13.7214 14.55 13.699 14.5276 13.699 14.5C13.699 14.4724 13.7214 14.45 13.749 14.45" stroke="#1F1F1F" stroke-width="1.5" stroke-linecap="round" stroke-linejoin="round"/>
<path d="M10.299 14.5C10.299 14.5276 10.2766 14.55 10.249 14.55C10.2214 14.55 10.199 14.5276 10.199 14.5C10.199 14.4724 10.2214 14.45 10.249 14.45" stroke="#1F1F1F" stroke-width="1.5" stroke-linecap="round" stroke-linejoin="round"/>
<path d="M6.79902 14.5C6.79902 14.5276 6.77664 14.55 6.74902 14.55C6.72141 14.55 6.69902 14.5276 6.69902 14.5C6.69902 14.4724 6.72141 14.45 6.74902 14.45" stroke="#1F1F1F" stroke-width="1.5" stroke-linecap="round" stroke-linejoin="round"/>
<path d="M17.25 14.4501C17.2776 14.4501 17.3 14.4725 17.3 14.5001" stroke="#1F1F1F" stroke-width="1.5" stroke-linecap="round" stroke-linejoin="round"/>
<path d="M13.749 14.4501C13.7767 14.4501 13.799 14.4725 13.799 14.5001" stroke="#1F1F1F" stroke-width="1.5" stroke-linecap="round" stroke-linejoin="round"/>
<path d="M10.249 14.4501C10.2767 14.4501 10.299 14.4725 10.299 14.5001" stroke="#1F1F1F" stroke-width="1.5" stroke-linecap="round" stroke-linejoin="round"/>
<path d="M6.74905 14.4501C6.77666 14.4501 6.79905 14.4725 6.79905 14.5001" stroke="#1F1F1F" stroke-width="1.5" stroke-linecap="round" stroke-linejoin="round"/>
<path d="M17.3 11.5C17.3 11.5276 17.2776 11.55 17.25 11.55C17.2224 11.55 17.2 11.5276 17.2 11.5C17.2 11.4724 17.2224 11.45 17.25 11.45" stroke="#1F1F1F" stroke-width="1.5" stroke-linecap="round" stroke-linejoin="round"/>
<path d="M13.799 11.5C13.799 11.5276 13.7766 11.55 13.749 11.55C13.7214 11.55 13.699 11.5276 13.699 11.5C13.699 11.4724 13.7214 11.45 13.749 11.45" stroke="#1F1F1F" stroke-width="1.5" stroke-linecap="round" stroke-linejoin="round"/>
<path d="M10.299 11.5C10.299 11.5276 10.2766 11.55 10.249 11.55C10.2214 11.55 10.199 11.5276 10.199 11.5C10.199 11.4724 10.2214 11.45 10.249 11.45" stroke="#1F1F1F" stroke-width="1.5" stroke-linecap="round" stroke-linejoin="round"/>
<path d="M17.25 11.4501C17.2776 11.4501 17.3 11.4725 17.3 11.5001" stroke="#1F1F1F" stroke-width="1.5" stroke-linecap="round" stroke-linejoin="round"/>
<path d="M13.749 11.4501C13.7767 11.4501 13.799 11.4725 13.799 11.5001" stroke="#1F1F1F" stroke-width="1.5" stroke-linecap="round" stroke-linejoin="round"/>
<path d="M10.249 11.4501C10.2767 11.4501 10.299 11.4725 10.299 11.5001" stroke="#1F1F1F" stroke-width="1.5" stroke-linecap="round" stroke-linejoin="round"/>
<path d="M21 8H3" stroke="#1F1F1F" stroke-width="1.5" stroke-linecap="round" stroke-linejoin="round"/>
</svg>
