<svg width="24" height="24" viewBox="0 0 24 24" fill="none" xmlns="http://www.w3.org/2000/svg">
<path d="M2.99625 7.24835C2.58203 7.24835 2.24625 7.58414 2.24625 7.99835C2.24625 8.41256 2.58203 8.74835 2.99625 8.74835V7.24835ZM19.0029 8.74835C19.4171 8.74835 19.7529 8.41256 19.7529 7.99835C19.7529 7.58414 19.4171 7.24835 19.0029 7.24835V8.74835ZM15.7512 1.99585C15.7512 1.58164 15.4155 1.24585 15.0012 1.24585C14.587 1.24585 14.2512 1.58164 14.2512 1.99585H15.7512ZM14.2512 3.99668C14.2512 4.4109 14.587 4.74668 15.0012 4.74668C15.4155 4.74668 15.7512 4.4109 15.7512 3.99668H14.2512ZM7.74791 1.99585C7.74791 1.58164 7.41213 1.24585 6.99791 1.24585C6.5837 1.24585 6.24791 1.58164 6.24791 1.99585H7.74791ZM6.24791 3.99668C6.24791 4.4109 6.5837 4.74668 6.99791 4.74668C7.41213 4.74668 7.74791 4.4109 7.74791 3.99668H6.24791ZM18.2529 8.99877C18.2529 9.41298 18.5887 9.74877 19.0029 9.74877C19.4171 9.74877 19.7529 9.41298 19.7529 8.99877H18.2529ZM8.99875 18.7525C9.41296 18.7525 9.74875 18.4167 9.74875 18.0025C9.74875 17.5883 9.41296 17.2525 8.99875 17.2525V18.7525ZM21.0037 18.7238L20.2537 18.7236V18.7238H21.0037ZM20.3195 17.7744L20.0823 18.4859L20.0825 18.486L20.3195 17.7744ZM18.0025 17.0021H17.2525C17.2525 17.3249 17.4591 17.6115 17.7653 17.7136L18.0025 17.0021ZM18.0025 15.0013L17.5995 14.3687C17.3834 14.5064 17.2525 14.745 17.2525 15.0013H18.0025ZM18.7028 14.5551L19.1058 15.1876L19.1075 15.1865L18.7028 14.5551ZM17.9515 12V12.75L17.9533 12.75L17.9515 12ZM15.0503 12L15.05 12.75H15.0503V12ZM14.302 14.5551L13.8972 15.1865L13.8985 15.1873L14.302 14.5551ZM15.0012 15.0013H15.7512C15.7512 14.7452 15.6206 14.5068 15.4047 14.369L15.0012 15.0013ZM15.0012 17.0021L15.2384 17.7136C15.5447 17.6115 15.7512 17.3249 15.7512 17.0021H15.0012ZM12.6843 17.7744L12.9213 18.486L12.9215 18.4859L12.6843 17.7744ZM12 18.7238H12.75V18.7236L12 18.7238ZM12.2931 20.2965L12.8234 19.7661L12.8234 19.7661L12.2931 20.2965ZM12.7073 20.7106L13.2377 20.1804L13.2376 20.1803L12.7073 20.7106ZM20.2965 20.7106L19.7661 20.1803L19.766 20.1804L20.2965 20.7106ZM20.7106 20.2965L20.1804 19.7661L20.1803 19.7661L20.7106 20.2965ZM2.99625 8.74835H19.0029V7.24835H2.99625V8.74835ZM14.2512 1.99585V3.99668H15.7512V1.99585H14.2512ZM6.24791 1.99585V3.99668H7.74791V1.99585H6.24791ZM19.7529 8.99877V5.99752H18.2529V8.99877H19.7529ZM19.7529 5.99752C19.7529 3.92576 18.0734 2.24627 16.0017 2.24627V3.74627C17.245 3.74627 18.2529 4.75418 18.2529 5.99752H19.7529ZM16.0017 2.24627H5.9975V3.74627H16.0017V2.24627ZM5.9975 2.24627C3.92574 2.24627 2.24625 3.92576 2.24625 5.99752H3.74625C3.74625 4.75419 4.75417 3.74627 5.9975 3.74627V2.24627ZM2.24625 5.99752V15.0013H3.74625V5.99752H2.24625ZM2.24625 15.0013C2.24625 17.073 3.92574 18.7525 5.9975 18.7525V17.2525C4.75417 17.2525 3.74625 16.2446 3.74625 15.0013H2.24625ZM5.9975 18.7525H8.99875V17.2525H5.9975V18.7525ZM21.7537 19.5892V18.7238H20.2537V19.5892H21.7537ZM21.7537 18.724C21.7539 17.9703 21.2716 17.301 20.5565 17.0629L20.0825 18.486C20.1848 18.5201 20.2538 18.6158 20.2537 18.7236L21.7537 18.724ZM20.5566 17.0629L18.2397 16.2906L17.7653 17.7136L20.0823 18.4859L20.5566 17.0629ZM18.7525 17.0021V15.0013H17.2525V17.0021H18.7525ZM18.4055 15.6338L19.1058 15.1876L18.2998 13.9226L17.5995 14.3687L18.4055 15.6338ZM19.1075 15.1865C19.8987 14.6793 20.2658 13.7149 20.0122 12.81L18.5679 13.2148C18.6435 13.4848 18.534 13.7724 18.298 13.9237L19.1075 15.1865ZM20.0122 12.8101C19.7532 11.8858 18.9095 11.2477 17.9496 11.25L17.9533 12.75C18.2393 12.7493 18.4907 12.9394 18.5679 13.2148L20.0122 12.8101ZM17.9515 11.25H15.0503V12.75H17.9515V11.25ZM15.0505 11.25C14.0923 11.2497 13.2511 11.8874 12.9925 12.8101L14.4369 13.2148C14.5139 12.9399 14.7646 12.7499 15.05 12.75L15.0505 11.25ZM12.9925 12.81C12.7389 13.7149 13.106 14.6793 13.8972 15.1865L14.7067 13.9237C14.4707 13.7724 14.3612 13.4848 14.4369 13.2148L12.9925 12.81ZM13.8985 15.1873L14.5978 15.6335L15.4047 14.369L14.7054 13.9228L13.8985 15.1873ZM14.2512 15.0013V17.0021H15.7512V15.0013H14.2512ZM14.7641 16.2906L12.4471 17.0629L12.9215 18.4859L15.2384 17.7136L14.7641 16.2906ZM12.4473 17.0629C11.7322 17.301 11.2498 17.9703 11.25 18.724L12.75 18.7236C12.75 18.6158 12.819 18.5201 12.9213 18.486L12.4473 17.0629ZM11.25 18.7238V19.5892H12.75V18.7238H11.25ZM11.25 19.5892C11.25 20.0536 11.4347 20.4988 11.7629 20.8269L12.8234 19.7661C12.7763 19.719 12.75 19.6554 12.75 19.5892H11.25ZM11.7628 20.8268L12.177 21.241L13.2376 20.1803L12.8234 19.7661L11.7628 20.8268ZM12.1769 21.2409C12.505 21.5691 12.9502 21.7538 13.4146 21.7538V20.2538C13.3484 20.2538 13.2847 20.2274 13.2377 20.1804L12.1769 21.2409ZM13.4146 21.7538H19.5892V20.2538H13.4146V21.7538ZM19.5892 21.7538C20.0536 21.7538 20.4987 21.5691 20.8269 21.2409L19.766 20.1804C19.719 20.2274 19.6553 20.2538 19.5892 20.2538V21.7538ZM20.8268 21.241L21.241 20.8268L20.1803 19.7661L19.7661 20.1803L20.8268 21.241ZM21.2409 20.8269C21.5691 20.4988 21.7537 20.0536 21.7537 19.5892H20.2537C20.2537 19.6554 20.2274 19.719 20.1804 19.7661L21.2409 20.8269Z" fill="#1F1F1F"/>
</svg>
