<svg width="24" height="24" viewBox="0 0 24 24" fill="none" xmlns="http://www.w3.org/2000/svg">
<path d="M7 7V7.75C7.26664 7.75 7.51324 7.60843 7.64768 7.37816L7 7ZM8.462 4.496L9.10968 4.87416L9.10991 4.87377L8.462 4.496ZM15.487 4.484L16.1297 4.09749L16.1292 4.09656L15.487 4.484ZM17 7L16.3573 7.38651C16.4929 7.61205 16.7368 7.75 17 7.75V7ZM15.4095 9.63747C15.1166 9.34458 14.6418 9.34458 14.3489 9.63747C14.056 9.93036 14.056 10.4052 14.3489 10.6981L15.4095 9.63747ZM14.3489 10.6981C14.6418 10.991 15.1166 10.991 15.4095 10.6981C15.7024 10.4052 15.7024 9.93036 15.4095 9.63747L14.3489 10.6981ZM20.25 9V18H21.75V9H20.25ZM20.25 18C20.25 18.6908 19.6908 19.25 19 19.25V20.75C20.5192 20.75 21.75 19.5192 21.75 18H20.25ZM19 19.25H5V20.75H19V19.25ZM5 19.25C4.30921 19.25 3.75 18.6908 3.75 18H2.25C2.25 19.5192 3.48079 20.75 5 20.75V19.25ZM3.75 18V9H2.25V18H3.75ZM3.75 9C3.75 8.30921 4.30921 7.75 5 7.75V6.25C3.48079 6.25 2.25 7.48079 2.25 9H3.75ZM5 7.75H7V6.25H5V7.75ZM7.64768 7.37816L9.10968 4.87416L7.81432 4.11784L6.35232 6.62184L7.64768 7.37816ZM9.10991 4.87377C9.15438 4.7975 9.23653 4.75 9.326 4.75V3.25C8.70348 3.25 8.12762 3.5805 7.81409 4.11823L9.10991 4.87377ZM9.326 4.75H14.63V3.25H9.326V4.75ZM14.63 4.75C14.7177 4.75 14.7993 4.79603 14.8448 4.87144L16.1292 4.09656C15.8127 3.57197 15.2443 3.25 14.63 3.25V4.75ZM14.8443 4.87051L16.3573 7.38651L17.6427 6.61349L16.1297 4.09749L14.8443 4.87051ZM17 7.75H19V6.25H17V7.75ZM19 7.75C19.6908 7.75 20.25 8.30921 20.25 9H21.75C21.75 7.48079 20.5192 6.25 19 6.25V7.75ZM14.3489 10.6981C15.613 11.9623 15.613 14.0118 14.3489 15.2759L15.4095 16.3366C17.2594 14.4867 17.2594 11.4874 15.4095 9.63747L14.3489 10.6981ZM14.3489 15.2759C13.0847 16.5401 11.0352 16.5401 9.77106 15.2759L8.7104 16.3366C10.5603 18.1865 13.5596 18.1865 15.4095 16.3366L14.3489 15.2759ZM9.77106 15.2759C8.50693 14.0118 8.50693 11.9623 9.77106 10.6981L8.7104 9.63747C6.86049 11.4874 6.86049 14.4867 8.7104 16.3366L9.77106 15.2759ZM9.77106 10.6981C11.0352 9.434 13.0847 9.434 14.3489 10.6981L15.4095 9.63747C13.5596 7.78756 10.5603 7.78756 8.7104 9.63747L9.77106 10.6981Z" fill="#1F1F1F"/>
</svg>
