<svg width="24" height="24" viewBox="0 0 24 24" fill="none" xmlns="http://www.w3.org/2000/svg">
<path d="M14.0362 18.5106C13.7425 18.8026 13.7411 19.2775 14.0331 19.5712C14.3251 19.865 14.8 19.8664 15.0938 19.5744L14.0362 18.5106ZM16.5599 18.1168C16.8536 17.8248 16.855 17.3499 16.563 17.0562C16.2709 16.7624 15.7961 16.761 15.5023 17.0531L16.5599 18.1168ZM15.5023 21.0319C15.7961 21.3239 16.2709 21.3225 16.563 21.0288C16.855 20.735 16.8536 20.2601 16.5599 19.9681L15.5023 21.0319ZM15.0938 18.5106C14.8 18.2186 14.3251 18.2199 14.0331 18.5137C13.7411 18.8075 13.7425 19.2823 14.0362 19.5744L15.0938 18.5106ZM14.565 18.2925C14.1508 18.2925 13.815 18.6283 13.815 19.0425C13.815 19.4567 14.1508 19.7925 14.565 19.7925V18.2925ZM20.445 15.4C20.445 14.9858 20.1092 14.65 19.695 14.65C19.2808 14.65 18.945 14.9858 18.945 15.4H20.445ZM15.1351 20.6677C15.4289 20.9598 15.9037 20.9584 16.1958 20.6646C16.4878 20.3709 16.4864 19.896 16.1927 19.604L15.1351 20.6677ZM14.565 19.0434L14.0362 18.5115C13.8946 18.6523 13.815 18.8437 13.815 19.0434C13.815 19.243 13.8946 19.4345 14.0362 19.5753L14.565 19.0434ZM16.1927 18.4828C16.4864 18.1907 16.4878 17.7159 16.1958 17.4221C15.9037 17.1284 15.4289 17.127 15.1351 17.419L16.1927 18.4828ZM8.04 12.2702L8.57707 11.7467L8.57657 11.7462L8.04 12.2702ZM9.8706 14.1483L10.4089 13.626L10.4077 13.6248L9.8706 14.1483ZM9.96361 5.48957C10.2575 5.19763 10.259 4.72276 9.96705 4.42892C9.6751 4.13508 9.20023 4.13354 8.90639 4.42548L9.96361 5.48957ZM7.44029 5.88211C7.14645 6.17406 7.14491 6.64893 7.43685 6.94277C7.7288 7.23661 8.20367 7.23815 8.49751 6.9462L7.44029 5.88211ZM18.9012 3.78811L19.4383 3.2646L19.4378 3.26409L18.9012 3.78811ZM20.7318 5.66616L20.1947 6.18966L20.1949 6.1898L20.7318 5.66616ZM8.49767 2.96812C8.20392 2.67608 7.72905 2.67748 7.43702 2.97123C7.14498 3.26498 7.14638 3.73985 7.44013 4.03188L8.49767 2.96812ZM8.90623 5.48941C9.19998 5.78144 9.67485 5.78005 9.96688 5.4863C10.2589 5.19255 10.2575 4.71768 9.96377 4.42564L8.90623 5.48941ZM9.435 5.70753C9.84921 5.70753 10.185 5.37174 10.185 4.95753C10.185 4.54331 9.84921 4.20753 9.435 4.20753V5.70753ZM3.555 8.6C3.555 9.01421 3.89079 9.35 4.305 9.35C4.71921 9.35 5.055 9.01421 5.055 8.6H3.555ZM8.86509 3.33249C8.57146 3.04034 8.09659 3.04154 7.80443 3.33517C7.51228 3.6288 7.51348 4.10367 7.80711 4.39582L8.86509 3.33249ZM9.435 4.95753L9.96377 5.48941C10.1053 5.34867 10.185 5.1573 10.185 4.95768C10.185 4.75806 10.1055 4.56666 9.96399 4.42586L9.435 4.95753ZM7.80733 5.51812C7.51358 5.81015 7.51218 6.28502 7.80422 6.57877C8.09625 6.87252 8.57112 6.87392 8.86487 6.58188L7.80733 5.51812ZM15.0938 19.5744L16.5599 18.1168L15.5023 17.0531L14.0362 18.5106L15.0938 19.5744ZM16.5599 19.9681L15.0938 18.5106L14.0362 19.5744L15.5023 21.0319L16.5599 19.9681ZM14.565 19.7925H16.0311V18.2925H14.565V19.7925ZM16.0311 19.7925C18.4644 19.7925 20.445 17.8297 20.445 15.4H18.945C18.945 16.993 17.6442 18.2925 16.0311 18.2925V19.7925ZM16.1927 19.604L15.0938 18.5115L14.0362 19.5753L15.1351 20.6677L16.1927 19.604ZM15.0938 19.5753L16.1927 18.4828L15.1351 17.419L14.0362 18.5115L15.0938 19.5753ZM9.3888 14.8077V19.5534H10.8888V14.8077H9.3888ZM9.3888 19.5534C9.3888 19.6575 9.30214 19.75 9.1866 19.75V21.25C10.1223 21.25 10.8888 20.4942 10.8888 19.5534H9.3888ZM9.1866 19.75H3.9513V21.25H9.1866V19.75ZM3.9513 19.75C3.83669 19.75 3.75 19.6585 3.75 19.5534H2.25C2.25 20.4933 3.01471 21.25 3.9513 21.25V19.75ZM3.75 19.5534V12.9287H2.25V19.5534H3.75ZM3.75 12.9287C3.75 12.8246 3.83666 12.7321 3.9522 12.7321V11.2321C3.01654 11.2321 2.25 11.9879 2.25 12.9287H3.75ZM3.9522 12.7321H7.356V11.2321H3.9522V12.7321ZM7.356 12.7321C7.41145 12.7321 7.46459 12.7545 7.50343 12.7942L8.57657 11.7462C8.25541 11.4173 7.81535 11.2321 7.356 11.2321V12.7321ZM7.50293 12.7937L9.33353 14.6718L10.4077 13.6248L8.57707 11.7467L7.50293 12.7937ZM9.33234 14.6705C9.36945 14.7088 9.3888 14.7581 9.3888 14.8077H10.8888C10.8888 14.3652 10.7155 13.942 10.4089 13.626L9.33234 14.6705ZM8.90639 4.42548L7.44029 5.88211L8.49751 6.9462L9.96361 5.48957L8.90639 4.42548ZM20.25 6.32468V11.0704H21.75V6.32468H20.25ZM20.25 11.0704C20.25 11.1745 20.1633 11.267 20.0478 11.267V12.767C20.9835 12.767 21.75 12.0112 21.75 11.0704H20.25ZM20.0478 11.267H14.8125V12.767H20.0478V11.267ZM14.8125 11.267C14.697 11.267 14.6103 11.1745 14.6103 11.0704H13.1103C13.1103 12.0112 13.8768 12.767 14.8125 12.767V11.267ZM14.6103 11.0704V4.44663H13.1103V11.0704H14.6103ZM14.6103 4.44663C14.6103 4.34246 14.697 4.25 14.8125 4.25V2.75C13.8768 2.75 13.1103 3.50575 13.1103 4.44663H14.6103ZM14.8125 4.25H18.2172V2.75H14.8125V4.25ZM18.2172 4.25C18.2727 4.25 18.3258 4.27235 18.3646 4.31212L19.4378 3.26409C19.1166 2.93523 18.6765 2.75 18.2172 2.75V4.25ZM18.3641 4.31161L20.1947 6.18966L21.2689 5.14266L19.4383 3.2646L18.3641 4.31161ZM20.1949 6.1898C20.2305 6.22632 20.25 6.27474 20.25 6.32468H21.75C21.75 5.88252 21.5769 5.45853 21.2687 5.14252L20.1949 6.1898ZM7.44013 4.03188L8.90623 5.48941L9.96377 4.42564L8.49767 2.96812L7.44013 4.03188ZM9.435 4.20753H7.9689V5.70753H9.435V4.20753ZM7.9689 4.20753C5.53564 4.20753 3.555 6.17028 3.555 8.6H5.055C5.055 7.00699 6.35576 5.70753 7.9689 5.70753V4.20753ZM7.80711 4.39582L8.90601 5.48919L9.96399 4.42586L8.86509 3.33249L7.80711 4.39582ZM8.90623 4.42564L7.80733 5.51812L8.86487 6.58188L9.96377 5.48941L8.90623 4.42564Z" fill="#1F1F1F"/>
</svg>
