<svg width="24" height="24" viewBox="0 0 24 24" fill="none" xmlns="http://www.w3.org/2000/svg">
<path d="M11.7927 9.20517L15.2068 5.79102" stroke="#0A0A0A" stroke-width="1.5" stroke-linecap="round" stroke-linejoin="round"/>
<path d="M11.5748 5.65469C11.575 5.60917 11.612 5.57238 11.6575 5.57246C11.703 5.57254 11.7399 5.60947 11.7399 5.65499C11.7399 5.70052 11.703 5.73744 11.6575 5.73753C11.612 5.73761 11.575 5.70082 11.5748 5.65529V5.65469" stroke="#0A0A0A" stroke-width="1.5" stroke-linecap="round" stroke-linejoin="round"/>
<path d="M7.99832 6.99793V5.29722C7.99832 3.47393 9.4764 1.99585 11.2997 1.99585H15.7015C17.5248 1.99585 19.0029 3.47393 19.0029 5.29722V9.69906C19.0029 11.5224 17.5248 13.0004 15.7015 13.0004H15.0012" stroke="#0A0A0A" stroke-width="1.5" stroke-linecap="round" stroke-linejoin="round"/>
<path d="M15.4264 9.34182C15.4263 9.38734 15.3893 9.42413 15.3437 9.42405C15.2982 9.42397 15.2614 9.38704 15.2614 9.34152C15.2614 9.29599 15.2982 9.25907 15.3437 9.25898C15.3893 9.2589 15.4263 9.29569 15.4264 9.34122V9.34182" stroke="#0A0A0A" stroke-width="1.5" stroke-linecap="round" stroke-linejoin="round"/>
<path d="M19.0029 16.0017V21.0038" stroke="#0A0A0A" stroke-width="1.5" stroke-linecap="round" stroke-linejoin="round"/>
<path d="M17.0021 18.0025L19.0029 16.0017" stroke="#0A0A0A" stroke-width="1.5" stroke-linecap="round" stroke-linejoin="round"/>
<path d="M21.0038 18.0025L19.0029 16.0017" stroke="#0A0A0A" stroke-width="1.5" stroke-linecap="round" stroke-linejoin="round"/>
<path d="M2.99625 12.6003V19.4032C2.99739 20.287 4.78785 21.0038 6.99791 21.0038C9.20797 21.0038 10.9984 20.287 10.9996 19.4032V12.6003" stroke="#0A0A0A" stroke-width="1.5" stroke-linecap="round" stroke-linejoin="round"/>
<path d="M10.9984 12.6002C10.9984 13.484 9.20683 14.2008 6.99677 14.2008C4.78671 14.2008 2.99625 13.484 2.99625 12.6002C2.99625 11.7152 4.78899 10.9995 6.99791 10.9995C9.20683 10.9995 10.9984 11.7164 10.9996 12.6002" stroke="#0A0A0A" stroke-width="1.5" stroke-linecap="round" stroke-linejoin="round"/>
<path d="M2.99683 16.0017C2.99683 16.8855 4.78729 17.6024 6.99735 17.6024C9.20741 17.6024 10.999 16.8855 10.999 16.0017" stroke="#0A0A0A" stroke-width="1.5" stroke-linecap="round" stroke-linejoin="round"/>
</svg>
