<svg width="24" height="24" viewBox="0 0 24 24" fill="none" xmlns="http://www.w3.org/2000/svg">
<path fill-rule="evenodd" clip-rule="evenodd" d="M2 20.5V20.094C2.0033 18.9389 2.93888 18.0033 4.094 18H7.906C9.06112 18.0033 9.9967 18.9389 10 20.094V20.5C10 20.7761 9.77614 21 9.5 21H2.5C2.22386 21 2 20.7761 2 20.5Z" stroke="#1F1F1F" stroke-width="1.5" stroke-linecap="round" stroke-linejoin="round"/>
<circle cx="6" cy="14" r="2" stroke="#1F1F1F" stroke-width="1.5" stroke-linecap="round" stroke-linejoin="round"/>
<path fill-rule="evenodd" clip-rule="evenodd" d="M11.2505 12.4992V8.50073C11.2505 8.32116 11.3468 8.15537 11.5028 8.06641C11.6588 7.97744 11.8505 7.97896 12.005 8.07038L15.3854 10.0696C15.5376 10.1596 15.6309 10.3232 15.6309 10.5C15.6309 10.6767 15.5376 10.8404 15.3854 10.9303L12.005 12.9296C11.8505 13.021 11.6588 13.0225 11.5028 12.9336C11.3468 12.8446 11.2505 12.6788 11.2505 12.4992Z" stroke="#1F1F1F" stroke-width="1.5" stroke-linecap="round" stroke-linejoin="round"/>
<path d="M4 8V6C4 4.34315 5.34315 3 7 3H19C20.6569 3 22 4.34315 22 6V15C22 16.6569 20.6569 18 19 18H12" stroke="#1F1F1F" stroke-width="1.5" stroke-linecap="round" stroke-linejoin="round"/>
</svg>
