<svg width="24" height="24" viewBox="0 0 24 24" fill="none" xmlns="http://www.w3.org/2000/svg">
<path d="M12.6668 14.6179C12.6394 14.6179 12.6172 14.6401 12.6172 14.6675V14.6675V14.668C12.6172 14.6956 12.6396 14.718 12.6672 14.718C12.6948 14.718 12.7172 14.6956 12.7172 14.668C12.7172 14.6404 12.6949 14.618 12.6673 14.6179" stroke="#0A0A0A" stroke-width="1.5" stroke-linecap="round" stroke-linejoin="round"/>
<path d="M9.33239 13.2832C9.30502 13.2832 9.28283 13.3054 9.28283 13.3328V13.3328V13.3332C9.28283 13.3608 9.30522 13.3832 9.33285 13.3832C9.36048 13.3832 9.38287 13.3608 9.38287 13.3332C9.38287 13.3056 9.36048 13.2832 9.33285 13.2832H9.33239" stroke="#0A0A0A" stroke-width="1.5" stroke-linecap="round" stroke-linejoin="round"/>
<path d="M12.0005 11.9487C11.9873 11.9487 11.9747 11.9539 11.9654 11.9632C11.9561 11.9725 11.9509 11.9851 11.9509 11.9983V11.9992C11.9511 12.0194 11.9635 12.0376 11.9822 12.0451C12.001 12.0527 12.0225 12.0482 12.0366 12.0338C12.0508 12.0193 12.0549 11.9978 12.047 11.9792C12.0391 11.9606 12.0207 11.9485 12.0005 11.9487" stroke="#0A0A0A" stroke-width="1.5" stroke-linecap="round" stroke-linejoin="round"/>
<path d="M9.99911 9.94799C9.98597 9.94787 9.97332 9.95297 9.96393 9.96217C9.95455 9.97138 9.94921 9.98393 9.94909 9.99707V9.99707V9.99848C9.94935 10.026 9.97186 10.0482 9.99942 10.048C10.027 10.0479 10.0492 10.0254 10.0491 9.99786C10.049 9.97029 10.0267 9.94799 9.99911 9.94799" stroke="#0A0A0A" stroke-width="1.5" stroke-linecap="round" stroke-linejoin="round"/>
<path fill-rule="evenodd" clip-rule="evenodd" d="M11.9999 5.99731C11.9999 9.3124 14.6873 11.9998 18.0024 11.9998C18.0024 15.3149 15.315 18.0023 11.9999 18.0023C8.68485 18.0023 5.99744 15.3149 5.99744 11.9998C5.99744 8.68473 8.68485 5.99731 11.9999 5.99731Z" stroke="#0A0A0A" stroke-width="1.5" stroke-linecap="round" stroke-linejoin="round"/>
<path d="M20.5855 9.35174C20.8587 10.2081 20.9997 11.101 21.0037 11.9998C21.0037 16.9725 16.9726 21.0036 12 21.0036C7.02733 21.0036 2.99622 16.9725 2.99622 11.9998C2.99622 7.02721 7.02733 2.99609 12 2.99609C12.8988 3.00009 13.7918 3.1411 14.6481 3.41427" stroke="#0A0A0A" stroke-width="1.5" stroke-linecap="round" stroke-linejoin="round"/>
<path d="M21.0037 4.27148L19.0159 6.25931L17.7394 4.98478" stroke="#0A0A0A" stroke-width="1.5" stroke-linecap="round" stroke-linejoin="round"/>
</svg>
