<svg width="24" height="24" viewBox="0 0 24 24" fill="none" xmlns="http://www.w3.org/2000/svg">
<path d="M9.4 9.73C9.4 10.1442 9.73579 10.48 10.15 10.48C10.5642 10.48 10.9 10.1442 10.9 9.73H9.4ZM13.816 13.521C13.4018 13.521 13.066 13.8568 13.066 14.271C13.066 14.6852 13.4018 15.021 13.816 15.021V13.521ZM8.4 17.77H12.817V16.27H8.4V17.77ZM12.817 17.77C13.7832 17.77 14.567 16.9862 14.567 16.02H13.067C13.067 16.1578 12.9548 16.27 12.817 16.27V17.77ZM14.567 16.02V10.73H13.067V16.02H14.567ZM14.567 10.73C14.567 9.76379 13.7832 8.98 12.817 8.98V10.48C12.9548 10.48 13.067 10.5922 13.067 10.73H14.567ZM12.817 8.98H8.4V10.48H12.817V8.98ZM8.4 8.98C7.43379 8.98 6.65 9.76379 6.65 10.73H8.15C8.15 10.5922 8.26221 10.48 8.4 10.48V8.98ZM6.65 10.73V16.021H8.15V10.73H6.65ZM6.65 16.021C6.65 16.9877 7.43328 17.77 8.4 17.77V16.27C8.26073 16.27 8.15 16.1583 8.15 16.021H6.65ZM10.9 9.73V7.98H9.4V9.73H10.9ZM10.9 7.98C10.9 7.84221 11.0122 7.73 11.15 7.73V6.23C10.1838 6.23 9.4 7.01379 9.4 7.98H10.9ZM11.15 7.73H15.6V6.23H11.15V7.73ZM15.6 7.73C15.7378 7.73 15.85 7.84221 15.85 7.98H17.35C17.35 7.01379 16.5662 6.23 15.6 6.23V7.73ZM15.85 7.98V13.271H17.35V7.98H15.85ZM15.85 13.271C15.85 13.4088 15.7378 13.521 15.6 13.521V15.021C16.5662 15.021 17.35 14.2372 17.35 13.271H15.85ZM15.6 13.521H13.816V15.021H15.6V13.521ZM18 20.25H6V21.75H18V20.25ZM6 20.25C4.75721 20.25 3.75 19.2428 3.75 18H2.25C2.25 20.0712 3.92879 21.75 6 21.75V20.25ZM3.75 18V6H2.25V18H3.75ZM3.75 6C3.75 4.75721 4.75721 3.75 6 3.75V2.25C3.92879 2.25 2.25 3.92879 2.25 6H3.75ZM6 3.75H18V2.25H6V3.75ZM18 3.75C19.2428 3.75 20.25 4.75721 20.25 6H21.75C21.75 3.92879 20.0712 2.25 18 2.25V3.75ZM20.25 6V18H21.75V6H20.25ZM20.25 18C20.25 19.2428 19.2428 20.25 18 20.25V21.75C20.0712 21.75 21.75 20.0712 21.75 18H20.25Z" fill="#1F1F1F"/>
</svg>
