<svg width="24" height="24" viewBox="0 0 24 24" fill="none" xmlns="http://www.w3.org/2000/svg">
<path d="M12 5.711L11.4299 6.19834C11.5724 6.36502 11.7807 6.461 12 6.461C12.2193 6.461 12.4276 6.36502 12.5701 6.19834L12 5.711ZM15.4193 10.5863C15.7122 10.2934 15.7122 9.81856 15.4193 9.52567C15.1264 9.23278 14.6516 9.23278 14.3587 9.52567L15.4193 10.5863ZM11.278 13.667L10.7477 14.1973C10.8883 14.338 11.0791 14.417 11.278 14.417C11.4769 14.417 11.6677 14.338 11.8083 14.1973L11.278 13.667ZM9.64133 10.9697C9.34844 10.6768 8.87356 10.6768 8.58067 10.9697C8.28778 11.2626 8.28778 11.7374 8.58067 12.0303L9.64133 10.9697ZM12.5701 6.19834C13.162 5.5059 14.1617 4.75 15.696 4.75V3.25C13.6003 3.25 12.216 4.3041 11.4299 5.22366L12.5701 6.19834ZM15.696 4.75C18.3469 4.75 20.25 7.27623 20.25 9.755H21.75C21.75 6.68377 19.3931 3.25 15.696 3.25V4.75ZM20.25 9.755C20.25 12.3451 18.6262 14.7196 16.6633 16.4969C15.6935 17.3752 14.6722 18.0778 13.7963 18.557C13.3583 18.7967 12.9659 18.9754 12.6423 19.0924C12.3037 19.2147 12.0929 19.25 12 19.25V20.75C12.3516 20.75 12.7554 20.6464 13.1521 20.5031C13.5638 20.3543 14.0273 20.1405 14.5163 19.8729C15.4946 19.3376 16.6123 18.5667 17.6702 17.6088C19.7628 15.7139 21.75 12.9659 21.75 9.755H20.25ZM12 19.25C11.9071 19.25 11.6963 19.2147 11.3577 19.0924C11.0341 18.9754 10.6417 18.7967 10.2037 18.557C9.32777 18.0778 8.30654 17.3752 7.33666 16.4969C5.37381 14.7196 3.75 12.3451 3.75 9.755H2.25C2.25 12.9659 4.23719 15.7139 6.32984 17.6088C7.38771 18.5667 8.50535 19.3376 9.48365 19.8729C9.97273 20.1405 10.4362 20.3543 10.8479 20.5031C11.2446 20.6464 11.6484 20.75 12 20.75V19.25ZM3.75 9.755C3.75 7.27623 5.65308 4.75 8.304 4.75V3.25C4.60692 3.25 2.25 6.68377 2.25 9.755H3.75ZM8.304 4.75C9.83832 4.75 10.838 5.5059 11.4299 6.19834L12.5701 5.22366C11.784 4.3041 10.3997 3.25 8.304 3.25V4.75ZM14.3587 9.52567L10.7477 13.1367L11.8083 14.1973L15.4193 10.5863L14.3587 9.52567ZM11.8083 13.1367L9.64133 10.9697L8.58067 12.0303L10.7477 14.1973L11.8083 13.1367Z" fill="#1F1F1F"/>
</svg>
