<svg width="24" height="24" viewBox="0 0 24 24" fill="none" xmlns="http://www.w3.org/2000/svg">
<path d="M9.57 11H7" stroke="#6F685D" stroke-width="1.5" stroke-linecap="round" stroke-linejoin="round"/>
<path d="M3 7H21" stroke="#6F685D" stroke-width="1.5" stroke-linecap="round" stroke-linejoin="round"/>
<path d="M11 17H6C4.343 17 3 15.657 3 14V6C3 4.343 4.343 3 6 3H18C19.657 3 21 4.343 21 6V10" stroke="#6F685D" stroke-width="1.5" stroke-linecap="round" stroke-linejoin="round"/>
<path fill-rule="evenodd" clip-rule="evenodd" d="M17.293 20.707L21.707 16.293C22.098 15.902 22.098 15.269 21.707 14.879L20.121 13.293C19.73 12.902 19.097 12.902 18.707 13.293L14.293 17.707C14.105 17.895 14 18.149 14 18.414V21H16.586C16.851 21 17.105 20.895 17.293 20.707V20.707Z" stroke="#6F685D" stroke-width="1.5" stroke-linecap="round" stroke-linejoin="round"/>
</svg>
