<svg width="24" height="24" viewBox="0 0 24 24" fill="none" xmlns="http://www.w3.org/2000/svg">
<path fill-rule="evenodd" clip-rule="evenodd" d="M2 21.1328V20.7268C2.0033 19.5717 2.93888 18.6361 4.094 18.6328H6.906C8.06112 18.6361 8.9967 19.5717 9 20.7268V21.1328C9 21.409 8.77614 21.6328 8.5 21.6328H2.5C2.22386 21.6328 2 21.409 2 21.1328Z" stroke="#1F1F1F" stroke-width="1.5" stroke-linecap="round" stroke-linejoin="round"/>
<path d="M12.9697 15.7554V20.1329C12.9697 20.9613 13.6413 21.6329 14.4697 21.6329H19.5294C20.3578 21.6329 21.0294 20.9613 21.0294 20.1329V15.8332" stroke="#1F1F1F" stroke-width="1.5" stroke-linecap="round" stroke-linejoin="round"/>
<path d="M21.9546 16.6328L17.6085 12.8763C17.233 12.5517 16.6761 12.5517 16.3006 12.8763L11.9546 16.6328" stroke="#1F1F1F" stroke-width="1.5" stroke-linecap="round" stroke-linejoin="round"/>
<circle cx="6" cy="14" r="2" stroke="#1F1F1F" stroke-width="1.5" stroke-linecap="round" stroke-linejoin="round"/>
<path fill-rule="evenodd" clip-rule="evenodd" d="M9.86737 9.63288V11.1319C9.86737 11.3249 9.97843 11.5006 10.1527 11.5835C10.327 11.6663 10.5334 11.6415 10.6831 11.5196L13 9.63288H15.3674C16.4719 9.63288 17.3674 8.73745 17.3674 7.63288V4.63281C17.3674 3.52824 16.4719 2.63281 15.3674 2.63281H9C7.89543 2.63281 7 3.52824 7 4.63281V7.63281C7 8.73738 7.89543 9.63281 9 9.63281L9.86737 9.63288Z" stroke="#1F1F1F" stroke-width="1.5" stroke-linecap="round" stroke-linejoin="round"/>
</svg>
