<svg width="24" height="24" viewBox="0 0 24 24" fill="none" xmlns="http://www.w3.org/2000/svg">
<path fill-rule="evenodd" clip-rule="evenodd" d="M13.8958 20.5296V20.1455C13.8985 19.0504 14.7856 18.1634 15.8806 18.1606H19.0189C20.114 18.1634 21.001 19.0504 21.0037 20.1455V20.5296V20.5296C21.0037 20.7915 20.7914 21.0038 20.5295 21.0038H14.369C14.1075 21.0033 13.8958 20.7911 13.8958 20.5296V20.5296Z" stroke="#1F1F1F" stroke-width="1.5" stroke-linecap="round" stroke-linejoin="round"/>
<path d="M9.54443 20.0035V14.8195C9.54443 14.3674 9.91091 14.001 10.363 14.001H12" stroke="#1F1F1F" stroke-width="1.5" stroke-linecap="round" stroke-linejoin="round"/>
<path fill-rule="evenodd" clip-rule="evenodd" d="M17.4423 15.7906C16.3959 15.7887 15.549 14.9394 15.55 13.8931C15.551 12.8467 16.3994 11.999 17.4458 11.999C18.4921 11.999 19.3406 12.8467 19.3416 13.8931C19.3425 14.9394 18.4956 15.7887 17.4493 15.7906H17.4423Z" stroke="#1F1F1F" stroke-width="1.5" stroke-linecap="round" stroke-linejoin="round"/>
<path d="M2.99625 10.6952L10.9346 3.89071C11.5477 3.36521 12.4523 3.36521 13.0654 3.89071L21.0037 10.6952" stroke="#1F1F1F" stroke-width="1.5" stroke-linecap="round" stroke-linejoin="round"/>
<path d="M4.28228 9.61182V20.0035" stroke="#1F1F1F" stroke-width="1.5" stroke-linecap="round" stroke-linejoin="round"/>
<path d="M10.9996 20.0034H2.99625" stroke="#1F1F1F" stroke-width="1.5" stroke-linecap="round" stroke-linejoin="round"/>
<path d="M19.7177 9.6117V3.81486C19.7177 3.59777 19.6315 3.38958 19.478 3.23608C19.3245 3.08257 19.1163 2.99634 18.8992 2.99634H16.4436C15.9916 2.99634 15.6251 3.3628 15.6251 3.81486V6.10363" stroke="#1F1F1F" stroke-width="1.5" stroke-linecap="round" stroke-linejoin="round"/>
</svg>
