<svg width="24" height="24" viewBox="0 0 24 24" fill="none" xmlns="http://www.w3.org/2000/svg">
<path d="M16.5542 9V5.5C16.5542 4.672 15.8822 4 15.0542 4V4C14.2262 4 13.5542 4.672 13.5542 5.5" stroke="#FD0D0D" stroke-width="1.5" stroke-linecap="round" stroke-linejoin="round"/>
<path d="M13.5542 7.833V3.5C13.5542 2.672 12.8822 2 12.0542 2V2C11.2262 2 10.5542 2.672 10.5542 3.5V10.833" stroke="#FD0D0D" stroke-width="1.5" stroke-linecap="round" stroke-linejoin="round"/>
<path d="M20.5502 5L4.05017 21.5" stroke="#FD0D0D" stroke-width="1.5" stroke-linecap="round" stroke-linejoin="round"/>
<path d="M6.5542 19L6.7732 19.328C7.8862 20.997 9.7592 22 11.7652 22H13.5542C16.8682 22 19.5542 19.314 19.5542 16V10" stroke="#FD0D0D" stroke-width="1.5" stroke-linecap="round" stroke-linejoin="round"/>
<path d="M4.95419 16.6L3.26119 14.06C2.85019 13.444 2.93119 12.623 3.45519 12.099C4.06219 11.492 5.04619 11.492 5.65319 12.099L7.55419 14V5.5C7.55419 4.672 8.22619 4 9.05419 4V4C9.88219 4 10.5542 4.672 10.5542 5.5" stroke="#FD0D0D" stroke-width="1.5" stroke-linecap="round" stroke-linejoin="round"/>
</svg>
