<svg width="25" height="25" viewBox="0 0 25 25" fill="none" xmlns="http://www.w3.org/2000/svg">
<path fill-rule="evenodd" clip-rule="evenodd" d="M13.602 7C11.5838 7 9.87426 8.64221 9.31021 10.8902C8.97902 10.8902 8.64004 10.8902 8.31164 10.8902C8.13972 10.9012 7.99143 11.1029 8.00039 11.3136C8.00934 11.5244 8.17393 11.7061 8.34584 11.6951H9.15974C9.12799 11.9586 9.11187 12.2259 9.11187 12.5C9.11187 12.7729 9.12828 13.0426 9.15974 13.3049C8.87877 13.3049 8.58979 13.3049 8.31164 13.3049C8.13972 13.3158 7.99143 13.5175 8.00039 13.7283C8.00934 13.939 8.17393 14.1208 8.34584 14.1098H9.30679C9.86956 16.3603 11.5823 18 13.602 18C15.0568 18 16.0378 17.1856 16.8953 16.1345C17.0292 15.9891 17.0358 15.7022 16.9088 15.5477C16.7818 15.3932 16.5478 15.4034 16.4302 15.5686C15.6243 16.5565 14.8665 17.1951 13.602 17.1951C11.9415 17.1951 10.532 15.913 9.99759 14.1098H13.8175C13.9909 14.1128 14.1504 13.92 14.1504 13.7073C14.1504 13.4947 13.9909 13.3019 13.8175 13.3049H9.8266C9.78989 13.0434 9.76846 12.7746 9.76846 12.5C9.76846 12.2246 9.78967 11.9574 9.8266 11.6951H13.8175C13.9909 11.6981 14.1504 11.5053 14.1504 11.2927C14.1504 11.08 13.9909 10.8872 13.8175 10.8902H10.001C10.5365 9.08957 11.943 7.80488 13.602 7.80488C14.8665 7.80488 15.6243 8.43929 16.4302 9.42721C16.5478 9.59241 16.7818 9.60263 16.9088 9.44813C17.0358 9.29363 17.0292 9.00674 16.8953 8.86128C16.0378 7.81017 15.0568 7 13.602 7Z" fill="#D1CDC7"/>
<mask id="mask0_102_7782" style="mask-type:luminance" maskUnits="userSpaceOnUse" x="8" y="7" width="9" height="11">
<path fill-rule="evenodd" clip-rule="evenodd" d="M13.602 7C11.5838 7 9.87426 8.64221 9.31021 10.8902C8.97902 10.8902 8.64004 10.8902 8.31164 10.8902C8.13972 10.9012 7.99143 11.1029 8.00039 11.3136C8.00934 11.5244 8.17393 11.7061 8.34584 11.6951H9.15974C9.12799 11.9586 9.11187 12.2259 9.11187 12.5C9.11187 12.7729 9.12828 13.0426 9.15974 13.3049C8.87877 13.3049 8.58979 13.3049 8.31164 13.3049C8.13972 13.3158 7.99143 13.5175 8.00039 13.7283C8.00934 13.939 8.17393 14.1208 8.34584 14.1098H9.30679C9.86956 16.3603 11.5823 18 13.602 18C15.0568 18 16.0378 17.1856 16.8953 16.1345C17.0292 15.9891 17.0358 15.7022 16.9088 15.5477C16.7818 15.3932 16.5478 15.4034 16.4302 15.5686C15.6243 16.5565 14.8665 17.1951 13.602 17.1951C11.9415 17.1951 10.532 15.913 9.99759 14.1098H13.8175C13.9909 14.1128 14.1504 13.92 14.1504 13.7073C14.1504 13.4947 13.9909 13.3019 13.8175 13.3049H9.8266C9.78989 13.0434 9.76846 12.7746 9.76846 12.5C9.76846 12.2246 9.78967 11.9574 9.8266 11.6951H13.8175C13.9909 11.6981 14.1504 11.5053 14.1504 11.2927C14.1504 11.08 13.9909 10.8872 13.8175 10.8902H10.001C10.5365 9.08957 11.943 7.80488 13.602 7.80488C14.8665 7.80488 15.6243 8.43929 16.4302 9.42721C16.5478 9.59241 16.7818 9.60263 16.9088 9.44813C17.0358 9.29363 17.0292 9.00674 16.8953 8.86128C16.0378 7.81017 15.0568 7 13.602 7Z" fill="white"/>
</mask>
<g mask="url(#mask0_102_7782)">
</g>
</svg>
