<svg width="25" height="25" viewBox="0 0 25 25" fill="none" xmlns="http://www.w3.org/2000/svg">
<path d="M11 19H15C16.105 19 17 18.105 17 17V16" stroke="#0A0A0A" stroke-width="1.5" stroke-linecap="round" stroke-linejoin="round"/>
<path d="M15 11H21" stroke="#0A0A0A" stroke-width="1.5" stroke-linecap="round" stroke-linejoin="round"/>
<path d="M19 13L21 11L19 9" stroke="#0A0A0A" stroke-width="1.5" stroke-linecap="round" stroke-linejoin="round"/>
<path fill-rule="evenodd" clip-rule="evenodd" d="M11 19.392V7.50298C11 6.81298 10.645 6.17198 10.06 5.80698L6.06 3.30698C4.728 2.47498 3 3.43198 3 5.00298V16.891C3 17.581 3.355 18.222 3.94 18.587L7.94 21.087C9.272 21.92 11 20.962 11 19.392Z" stroke="#0A0A0A" stroke-width="1.5" stroke-linecap="round" stroke-linejoin="round"/>
<path d="M17 6V5C17 3.895 16.105 3 15 3H5" stroke="#0A0A0A" stroke-width="1.5" stroke-linecap="round" stroke-linejoin="round"/>
</svg>
