<svg width="24" height="24" viewBox="0 0 24 24" fill="none" xmlns="http://www.w3.org/2000/svg">
<path d="M16.5 21H18.75C19.993 21 21 19.993 21 18.75V16.5" stroke="#1F1F1F" stroke-width="1.5" stroke-linecap="round" stroke-linejoin="round"/>
<path d="M3 16.5V18.75C3 19.993 4.007 21 5.25 21H7.5" stroke="#1F1F1F" stroke-width="1.5" stroke-linecap="round" stroke-linejoin="round"/>
<path d="M16.674 17L16.39 16.287C16.246 15.926 16.023 15.601 15.738 15.337V15.337C15.255 14.889 14.62 14.641 13.962 14.641H10.038C9.37905 14.641 8.74505 14.89 8.26205 15.337V15.337C7.97705 15.601 7.75405 15.926 7.61005 16.287L7.32605 17" stroke="#1F1F1F" stroke-width="1.5" stroke-linecap="round" stroke-linejoin="round"/>
<path d="M6 8.93005H18" stroke="#1F1F1F" stroke-width="1.5" stroke-linecap="round" stroke-linejoin="round"/>
<circle cx="12" cy="9" r="3" stroke="#1F1F1F" stroke-width="1.5" stroke-linecap="round" stroke-linejoin="round"/>
<path d="M21 7.5V5.25C21 4.007 19.993 3 18.75 3H16.5" stroke="#1F1F1F" stroke-width="1.5" stroke-linecap="round" stroke-linejoin="round"/>
<path d="M7.5 3H5.25C4.007 3 3 4.007 3 5.25V7.5" stroke="#1F1F1F" stroke-width="1.5" stroke-linecap="round" stroke-linejoin="round"/>
</svg>
