<svg width="24" height="24" viewBox="0 0 24 24" fill="none" xmlns="http://www.w3.org/2000/svg">
<path fill-rule="evenodd" clip-rule="evenodd" d="M19.5833 8.75H12.5796C12.2177 8.75 11.8787 8.56908 11.6783 8.26792L10.1551 5.98317C9.95358 5.68092 9.61558 5.5 9.25375 5.5H4.41667C3.21958 5.5 2.25 6.46958 2.25 7.66667V19.5833C2.25 20.7804 3.21958 21.75 4.41667 21.75H19.5833C20.7804 21.75 21.75 20.7804 21.75 19.5833V10.9167C21.75 9.71958 20.7804 8.75 19.5833 8.75Z" stroke="#6F685D" stroke-width="1.5" stroke-linecap="round" stroke-linejoin="round"/>
<path d="M11.4584 16.875L9.83337 15.25" stroke="#6F685D" stroke-width="1.5" stroke-linecap="round" stroke-linejoin="round"/>
<path d="M14.1667 14.1667L11.4584 16.8751" stroke="#6F685D" stroke-width="1.5" stroke-linecap="round" stroke-linejoin="round"/>
<path d="M4.41663 5.5V4.41667C4.41663 3.21958 5.38621 2.25 6.58329 2.25H17.4166C18.6137 2.25 19.5833 3.21958 19.5833 4.41667V8.75" stroke="#6F685D" stroke-width="1.5" stroke-linecap="round" stroke-linejoin="round"/>
</svg>
