<svg width="24" height="24" viewBox="0 0 24 24" fill="none" xmlns="http://www.w3.org/2000/svg">
<path d="M14 21H17.5C18.8807 21 20 19.8807 20 18.5V8.37167C20 7.57602 19.6839 6.81296 19.1213 6.25035L16.7497 3.87868C16.187 3.31607 15.424 3 14.6283 3H7.5C6.11929 3 5 4.11929 5 5.5V10" stroke="#1F1F1F" stroke-width="1.5" stroke-linecap="round" stroke-linejoin="round"/>
<path d="M19.9764 8H16.5C15.6716 8 15 7.32843 15 6.5V3.02362" stroke="#1F1F1F" stroke-width="1.5" stroke-linecap="round" stroke-linejoin="round"/>
<path d="M13.075 15.5C13.075 17.433 11.508 19 9.57501 19C9.22733 18.9951 8.88238 18.9379 8.55176 18.8302" stroke="#1F1F1F" stroke-width="1.5" stroke-linecap="round" stroke-linejoin="round"/>
<path d="M9.57501 12C11.508 12 13.075 13.567 13.075 15.5" stroke="#1F1F1F" stroke-width="1.5" stroke-linecap="round" stroke-linejoin="round"/>
<path d="M6.24391 16.5203C6.13682 16.1906 6.07988 15.8466 6.07501 15.5C6.07501 13.567 7.64202 12 9.57501 12" stroke="#1F1F1F" stroke-width="1.5" stroke-linecap="round" stroke-linejoin="round"/>
<path d="M6.2439 16.5203L4.34729 18.4199C4.17332 18.5953 4.07549 18.8322 4.07501 19.0792V20.0672C4.07502 20.5824 4.49261 21 5.00775 21H6C6.24762 21.0003 6.48506 20.9015 6.65936 20.7256L8.55176 18.8302" stroke="#1F1F1F" stroke-width="1.5" stroke-linecap="round" stroke-linejoin="round"/>
<path d="M9.55 15.5001C9.54997 15.5277 9.52758 15.55 9.49998 15.55C9.47238 15.55 9.45001 15.5276 9.45 15.5C9.44999 15.4724 9.47234 15.45 9.49994 15.45C9.51322 15.45 9.52596 15.4553 9.53536 15.4646C9.54475 15.474 9.55002 15.4868 9.55 15.5001" stroke="#1F1F1F" stroke-width="1.5" stroke-linecap="round" stroke-linejoin="round"/>
</svg>
