<svg width="24" height="24" viewBox="0 0 24 24" fill="none" xmlns="http://www.w3.org/2000/svg">
<path d="M14.501 18.0024V19.1269C14.501 19.7011 14.1099 20.2013 13.5537 20.3404L11.0526 20.9656C10.2633 21.1627 9.49897 20.5655 9.49897 19.7521V13.5005L4.2898 8.29137C4.10172 8.10429 3.99667 7.84919 3.99667 7.58408V4.997C3.99667 4.44477 4.44486 3.99658 4.99709 3.99658H19.0029C19.5552 3.99658 20.0033 4.44477 20.0033 4.997V5.99742" stroke="#1F1F1F" stroke-width="1.5" stroke-linecap="round" stroke-linejoin="round"/>
<path fill-rule="evenodd" clip-rule="evenodd" d="M17.1151 15.2683L21.3849 10.9995C21.695 10.6893 21.695 10.1861 21.3849 9.87701L20.1254 8.61748C19.8153 8.30736 19.312 8.30736 19.0029 8.61748L14.7341 12.8863C14.5851 13.0353 14.501 13.2374 14.501 13.4475V15.5014H16.5539C16.765 15.5014 16.9661 15.4183 17.1151 15.2683Z" stroke="#1F1F1F" stroke-width="1.5" stroke-linecap="round" stroke-linejoin="round"/>
</svg>
