<svg width="24" height="24" viewBox="0 0 24 24" fill="none" xmlns="http://www.w3.org/2000/svg">
<path fill-rule="evenodd" clip-rule="evenodd" d="M2.99625 2.24628C2.58203 2.24628 2.24625 2.58206 2.24625 2.99628C2.24625 3.41049 2.58203 3.74628 2.99625 3.74628H21.0037C21.418 3.74628 21.7537 3.41049 21.7537 2.99628C21.7537 2.58206 21.418 2.24628 21.0037 2.24628H2.99625ZM2.24625 7.99836C2.24625 7.58415 2.58203 7.24836 2.99625 7.24836H21.0037C21.418 7.24836 21.7537 7.58415 21.7537 7.99836C21.7537 8.41257 21.418 8.74836 21.0037 8.74836H2.99625C2.58203 8.74836 2.24625 8.41257 2.24625 7.99836ZM2.99625 12.2504C2.58203 12.2504 2.24625 12.5862 2.24625 13.0004C2.24625 13.4147 2.58203 13.7504 2.99625 13.7504H7.99833C8.41254 13.7504 8.74833 13.4147 8.74833 13.0004C8.74833 12.5862 8.41254 12.2504 7.99833 12.2504H2.99625Z" fill="#D8D8D8" fill-opacity="0.01"/>
<path d="M2.99625 2.99628V1.49628C2.16782 1.49628 1.49625 2.16785 1.49625 2.99628H2.99625ZM2.99625 2.99628H1.49625C1.49625 3.8247 2.16782 4.49628 2.99625 4.49628V2.99628ZM21.0037 2.99628H2.99625V4.49628H21.0037V2.99628ZM21.0037 2.99628V4.49628C21.8322 4.49628 22.5037 3.8247 22.5037 2.99628H21.0037ZM21.0037 2.99628H22.5037C22.5037 2.16785 21.8322 1.49628 21.0037 1.49628V2.99628ZM2.99625 2.99628H21.0037V1.49628H2.99625V2.99628ZM2.99625 6.49836C2.16782 6.49836 1.49625 7.16993 1.49625 7.99836H2.99625V6.49836ZM21.0037 6.49836H2.99625V7.99836H21.0037V6.49836ZM22.5037 7.99836C22.5037 7.16993 21.8322 6.49836 21.0037 6.49836V7.99836H22.5037ZM21.0037 9.49836C21.8322 9.49836 22.5037 8.82679 22.5037 7.99836H21.0037V9.49836ZM2.99625 9.49836H21.0037V7.99836H2.99625V9.49836ZM1.49625 7.99836C1.49625 8.82679 2.16782 9.49836 2.99625 9.49836V7.99836H1.49625ZM2.99625 13.0004V11.5004C2.16782 11.5004 1.49625 12.172 1.49625 13.0004H2.99625ZM2.99625 13.0004V13.0004H1.49625C1.49625 13.8289 2.16782 14.5004 2.99625 14.5004V13.0004ZM7.99833 13.0004H2.99625V14.5004H7.99833V13.0004ZM7.99833 13.0004V13.0004V14.5004C8.82676 14.5004 9.49833 13.8289 9.49833 13.0004H7.99833ZM7.99833 13.0004H9.49833C9.49833 12.172 8.82676 11.5004 7.99833 11.5004V13.0004ZM2.99625 13.0004H7.99833V11.5004H2.99625V13.0004Z" fill="#1F1F1F"/>
</svg>
