<svg width="24" height="24" viewBox="0 0 24 24" fill="none" xmlns="http://www.w3.org/2000/svg">
<path fill-rule="evenodd" clip-rule="evenodd" d="M7.99832 21.0038V3.99669C7.99832 3.44418 8.44622 2.99628 8.99874 2.99628H15.0012C15.5538 2.99628 16.0017 3.44418 16.0017 3.99669V21.0038M12 19.0029V21.0038V19.0029ZM21.0037 21.0038V7.91132C21.0037 7.40688 20.5948 6.99794 20.0904 6.99794H16.0017M16.0017 16.0017H18.5027H16.0017ZM10.4994 16.0017H13.5006H10.4994ZM16.0017 13.0004H18.5027H16.0017ZM16.0017 9.99919H18.5027H16.0017ZM7.99832 6.99794H3.90962C3.40517 6.99794 2.99624 7.40688 2.99624 7.91132V21.0038M22.0042 21.0038H1.99582H22.0042ZM5.49728 16.0017H7.99832H5.49728ZM10.4994 13.0004H13.5006H10.4994ZM5.49728 13.0004H7.99832H5.49728ZM10.4994 9.99919H13.5006H10.4994ZM5.49728 9.99919H7.99832H5.49728ZM10.4994 6.99794H13.5006H10.4994Z" fill="#D8D8D8" fill-opacity="0.01"/>
<path d="M7.24832 21.0038C7.24832 21.418 7.58411 21.7538 7.99832 21.7538C8.41253 21.7538 8.74832 21.418 8.74832 21.0038H7.24832ZM15.2517 21.0038C15.2517 21.418 15.5874 21.7538 16.0017 21.7538C16.4159 21.7538 16.7517 21.418 16.7517 21.0038H15.2517ZM12.75 19.0029C12.75 18.5887 12.4142 18.2529 12 18.2529C11.5858 18.2529 11.25 18.5887 11.25 19.0029H12.75ZM11.25 21.0038C11.25 21.418 11.5858 21.7538 12 21.7538C12.4142 21.7538 12.75 21.418 12.75 21.0038H11.25ZM20.2537 21.0038C20.2537 21.418 20.5895 21.7538 21.0037 21.7538C21.4179 21.7538 21.7537 21.418 21.7537 21.0038H20.2537ZM16.0017 6.24794C15.5874 6.24794 15.2517 6.58373 15.2517 6.99794C15.2517 7.41216 15.5874 7.74794 16.0017 7.74794V6.24794ZM16.0017 15.2517C15.5874 15.2517 15.2517 15.5875 15.2517 16.0017C15.2517 16.4159 15.5874 16.7517 16.0017 16.7517V15.2517ZM18.5027 16.7517C18.9169 16.7517 19.2527 16.4159 19.2527 16.0017C19.2527 15.5875 18.9169 15.2517 18.5027 15.2517V16.7517ZM10.4994 15.2517C10.0851 15.2517 9.74936 15.5875 9.74936 16.0017C9.74936 16.4159 10.0851 16.7517 10.4994 16.7517V15.2517ZM13.5006 16.7517C13.9148 16.7517 14.2506 16.4159 14.2506 16.0017C14.2506 15.5875 13.9148 15.2517 13.5006 15.2517V16.7517ZM16.0017 12.2504C15.5874 12.2504 15.2517 12.5862 15.2517 13.0004C15.2517 13.4147 15.5874 13.7504 16.0017 13.7504V12.2504ZM18.5027 13.7504C18.9169 13.7504 19.2527 13.4147 19.2527 13.0004C19.2527 12.5862 18.9169 12.2504 18.5027 12.2504V13.7504ZM16.0017 9.24919C15.5874 9.24919 15.2517 9.58498 15.2517 9.99919C15.2517 10.4134 15.5874 10.7492 16.0017 10.7492V9.24919ZM18.5027 10.7492C18.9169 10.7492 19.2527 10.4134 19.2527 9.99919C19.2527 9.58498 18.9169 9.24919 18.5027 9.24919V10.7492ZM7.99832 7.74794C8.41253 7.74794 8.74832 7.41216 8.74832 6.99794C8.74832 6.58373 8.41253 6.24794 7.99832 6.24794V7.74794ZM2.24624 21.0038C2.24624 21.418 2.58202 21.7538 2.99624 21.7538C3.41045 21.7538 3.74624 21.418 3.74624 21.0038H2.24624ZM22.0042 21.7538C22.4184 21.7538 22.7542 21.418 22.7542 21.0038C22.7542 20.5896 22.4184 20.2538 22.0042 20.2538V21.7538ZM1.99582 20.2538C1.58161 20.2538 1.24582 20.5896 1.24582 21.0038C1.24582 21.418 1.58161 21.7538 1.99582 21.7538V20.2538ZM5.49728 15.2517C5.08306 15.2517 4.74728 15.5875 4.74728 16.0017C4.74728 16.4159 5.08306 16.7517 5.49728 16.7517V15.2517ZM7.99832 16.7517C8.41253 16.7517 8.74832 16.4159 8.74832 16.0017C8.74832 15.5875 8.41253 15.2517 7.99832 15.2517V16.7517ZM10.4994 12.2504C10.0851 12.2504 9.74936 12.5862 9.74936 13.0004C9.74936 13.4147 10.0851 13.7504 10.4994 13.7504V12.2504ZM13.5006 13.7504C13.9148 13.7504 14.2506 13.4147 14.2506 13.0004C14.2506 12.5862 13.9148 12.2504 13.5006 12.2504V13.7504ZM5.49728 12.2504C5.08306 12.2504 4.74728 12.5862 4.74728 13.0004C4.74728 13.4147 5.08306 13.7504 5.49728 13.7504V12.2504ZM7.99832 13.7504C8.41253 13.7504 8.74832 13.4147 8.74832 13.0004C8.74832 12.5862 8.41253 12.2504 7.99832 12.2504V13.7504ZM10.4994 9.24919C10.0851 9.24919 9.74936 9.58498 9.74936 9.99919C9.74936 10.4134 10.0851 10.7492 10.4994 10.7492V9.24919ZM13.5006 10.7492C13.9148 10.7492 14.2506 10.4134 14.2506 9.99919C14.2506 9.58498 13.9148 9.24919 13.5006 9.24919V10.7492ZM5.49728 9.24919C5.08306 9.24919 4.74728 9.58498 4.74728 9.99919C4.74728 10.4134 5.08306 10.7492 5.49728 10.7492V9.24919ZM7.99832 10.7492C8.41253 10.7492 8.74832 10.4134 8.74832 9.99919C8.74832 9.58498 8.41253 9.24919 7.99832 9.24919V10.7492ZM10.4994 6.24794C10.0851 6.24794 9.74936 6.58373 9.74936 6.99794C9.74936 7.41216 10.0851 7.74794 10.4994 7.74794V6.24794ZM13.5006 7.74794C13.9148 7.74794 14.2506 7.41216 14.2506 6.99794C14.2506 6.58373 13.9148 6.24794 13.5006 6.24794V7.74794ZM8.74832 21.0038V3.99669H7.24832V21.0038H8.74832ZM8.74832 3.99669C8.74832 3.85839 8.86043 3.74628 8.99874 3.74628V2.24628C8.03201 2.24628 7.24832 3.02997 7.24832 3.99669H8.74832ZM8.99874 3.74628H15.0012V2.24628H8.99874V3.74628ZM15.0012 3.74628C15.1395 3.74628 15.2517 3.85839 15.2517 3.99669H16.7517C16.7517 3.02997 15.968 2.24628 15.0012 2.24628V3.74628ZM15.2517 3.99669V21.0038H16.7517V3.99669H15.2517ZM11.25 19.0029V21.0038H12.75V19.0029H11.25ZM21.7537 21.0038V7.91132H20.2537V21.0038H21.7537ZM21.7537 7.91132C21.7537 6.99266 21.009 6.24794 20.0904 6.24794V7.74794C20.1806 7.74794 20.2537 7.82109 20.2537 7.91132H21.7537ZM20.0904 6.24794H16.0017V7.74794H20.0904V6.24794ZM16.0017 16.7517H18.5027V15.2517H16.0017V16.7517ZM10.4994 16.7517H13.5006V15.2517H10.4994V16.7517ZM16.0017 13.7504H18.5027V12.2504H16.0017V13.7504ZM16.0017 10.7492H18.5027V9.24919H16.0017V10.7492ZM7.99832 6.24794H3.90962V7.74794H7.99832V6.24794ZM3.90962 6.24794C2.99096 6.24794 2.24624 6.99266 2.24624 7.91132H3.74624C3.74624 7.82109 3.81938 7.74794 3.90962 7.74794V6.24794ZM2.24624 7.91132V21.0038H3.74624V7.91132H2.24624ZM22.0042 20.2538H1.99582V21.7538H22.0042V20.2538ZM5.49728 16.7517H7.99832V15.2517H5.49728V16.7517ZM10.4994 13.7504H13.5006V12.2504H10.4994V13.7504ZM5.49728 13.7504H7.99832V12.2504H5.49728V13.7504ZM10.4994 10.7492H13.5006V9.24919H10.4994V10.7492ZM5.49728 10.7492H7.99832V9.24919H5.49728V10.7492ZM10.4994 7.74794H13.5006V6.24794H10.4994V7.74794Z" fill="#1F1F1F"/>
</svg>
