<svg width="24" height="24" viewBox="0 0 24 24" fill="none" xmlns="http://www.w3.org/2000/svg">
<path fill-rule="evenodd" clip-rule="evenodd" d="M19 10V9C19 7.895 18.105 7 17 7H12.535C12.201 7 11.888 6.833 11.703 6.555L10.297 4.446C10.111 4.167 9.799 4 9.465 4H5C3.895 4 3 4.895 3 6V18.853C3 19.487 3.513 20 4.147 20C4.653 20 5.1 19.668 5.245 19.183L7.572 11.426C7.826 10.579 8.605 10 9.488 10H19.329C20.664 10 21.624 11.282 21.248 12.563L19.487 18.563C19.237 19.415 18.456 20 17.568 20H4.147" fill="#D8D8D8" fill-opacity="0.01"/>
<path d="M19 10V9C19 7.895 18.105 7 17 7H12.535C12.201 7 11.888 6.833 11.703 6.555L10.297 4.446C10.111 4.167 9.799 4 9.465 4H5C3.895 4 3 4.895 3 6V18.853C3 19.487 3.513 20 4.147 20V20C4.653 20 5.1 19.668 5.245 19.183L7.572 11.426C7.826 10.579 8.605 10 9.488 10H19.329C20.664 10 21.624 11.282 21.248 12.563L19.487 18.563C19.237 19.415 18.456 20 17.568 20H4.147" stroke="#1F1F1F" stroke-width="1.5" stroke-linecap="round" stroke-linejoin="round"/>
</svg>
