<svg width="24" height="24" viewBox="0 0 24 24" fill="none" xmlns="http://www.w3.org/2000/svg">
<path d="M2.99625 11.25C2.58203 11.25 2.24625 11.5858 2.24625 12C2.24625 12.4142 2.58203 12.75 2.99625 12.75V11.25ZM14.0008 12.75C14.415 12.75 14.7508 12.4142 14.7508 12C14.7508 11.5858 14.415 11.25 14.0008 11.25V12.75ZM11.5299 8.46843C11.237 8.17554 10.7621 8.17554 10.4692 8.46843C10.1764 8.76133 10.1764 9.2362 10.4692 9.52909L11.5299 8.46843ZM14.0008 12L14.5312 12.5303C14.8241 12.2375 14.8241 11.7626 14.5312 11.4697L14.0008 12ZM10.4692 14.4709C10.1764 14.7638 10.1764 15.2387 10.4692 15.5316C10.7621 15.8245 11.237 15.8245 11.5299 15.5316L10.4692 14.4709ZM5.2475 9.13582C5.2475 9.55003 5.58328 9.88582 5.9975 9.88582C6.41171 9.88582 6.7475 9.55003 6.7475 9.13582H5.2475ZM5.9975 7.3981L5.2475 7.39764V7.3981H5.9975ZM7.60617 5.43728L7.75319 6.17285L7.76642 6.16996L7.60617 5.43728ZM18.6107 3.03028L18.5247 2.28523C18.4998 2.28811 18.475 2.29224 18.4505 2.2976L18.6107 3.03028ZM20.2982 3.57159L20.8016 3.01565V3.01565L20.2982 3.57159ZM21.0037 5.19718L20.2537 5.18523V5.19718H21.0037ZM21.0037 19.0029H20.2537V19.0033L21.0037 19.0029ZM18.6638 20.9758L18.5366 21.7149H18.5366L18.6638 20.9758ZM7.65919 19.083L7.78632 18.3438L7.78631 18.3438L7.65919 19.083ZM5.9975 17.1101L6.7475 17.1105V17.1101H5.9975ZM6.7475 14.9723C6.7475 14.558 6.41171 14.2223 5.9975 14.2223C5.58328 14.2223 5.2475 14.558 5.2475 14.9723H6.7475ZM2.99625 12.75H14.0008V11.25H2.99625V12.75ZM10.4692 9.52909L13.4705 12.5303L14.5312 11.4697L11.5299 8.46843L10.4692 9.52909ZM13.4705 11.4697L10.4692 14.4709L11.5299 15.5316L14.5312 12.5303L13.4705 11.4697ZM6.7475 9.13582V7.3981H5.2475V9.13582H6.7475ZM6.7475 7.39855C6.74786 6.80253 7.16871 6.28955 7.75317 6.17273L7.45917 4.70183C6.17382 4.95874 5.24829 6.08688 5.2475 7.39764L6.7475 7.39855ZM7.76642 6.16996L18.771 3.76296L18.4505 2.2976L7.44591 4.7046L7.76642 6.16996ZM18.6968 3.77532C19.0964 3.72916 19.4966 3.85751 19.7948 4.12753L20.8016 3.01565C20.1832 2.45568 19.3534 2.1895 18.5247 2.28523L18.6968 3.77532ZM19.7948 4.12753C20.0929 4.39755 20.2602 4.78301 20.2538 5.18524L21.7537 5.20913C21.7669 4.37499 21.42 3.57561 20.8016 3.01565L19.7948 4.12753ZM20.2537 5.19718V19.0029H21.7537V5.19718H20.2537ZM20.2537 19.0033C20.2539 19.3722 20.0912 19.7224 19.8092 19.9602L20.776 21.107C21.3963 20.584 21.7541 19.8139 21.7537 19.0026L20.2537 19.0033ZM19.8092 19.9602C19.5271 20.198 19.1545 20.2991 18.7909 20.2366L18.5366 21.7149C19.3362 21.8524 20.1558 21.63 20.776 21.107L19.8092 19.9602ZM18.7909 20.2366L7.78632 18.3438L7.53206 19.8221L18.5366 21.7149L18.7909 20.2366ZM7.78631 18.3438C7.1859 18.2406 6.74721 17.7197 6.7475 17.1105L5.2475 17.1098C5.24687 18.4496 6.21163 19.595 7.53206 19.8221L7.78631 18.3438ZM6.7475 17.1101V14.9723H5.2475V17.1101H6.7475Z" fill="#1F1F1F"/>
</svg>
