<svg width="24" height="24" viewBox="0 0 24 24" fill="none" xmlns="http://www.w3.org/2000/svg">
<path fill-rule="evenodd" clip-rule="evenodd" d="M9.70304 4.09475L3.52904 7.52475C2.23104 8.24575 2.23104 10.1117 3.52904 10.8327L9.70304 14.2627C11.131 15.0557 12.868 15.0557 14.297 14.2627L20.471 10.8327C21.769 10.1117 21.769 8.24575 20.471 7.52475L14.297 4.09475C12.868 3.30175 11.132 3.30175 9.70304 4.09475Z" stroke="#1F1F1F" stroke-width="1.419" stroke-linecap="round" stroke-linejoin="round"/>
<path d="M5.99103 12.1997V16.1237C5.99103 17.0727 6.46603 17.9577 7.25503 18.4827L8.86203 19.5517C10.763 20.8157 13.237 20.8157 15.137 19.5517L16.744 18.4827C17.534 17.9577 18.008 17.0717 18.008 16.1237V12.1997" stroke="#1F1F1F" stroke-width="1.4167" stroke-linecap="round" stroke-linejoin="round"/>
</svg>
