<svg width="24" height="24" viewBox="0 0 24 24" fill="none" xmlns="http://www.w3.org/2000/svg">
<path fill-rule="evenodd" clip-rule="evenodd" d="M12.2597 9.12393C13.123 8.27914 14.5077 8.29418 15.3525 9.15751V9.15751C16.2158 10.0396 16.2158 11.4499 15.3525 12.332L13.2375 14.4796L13.2109 14.5061C12.5275 15.1749 11.4314 15.163 10.7626 14.4796L8.6475 12.332C7.78417 11.4499 7.78417 10.0396 8.6475 9.15752V9.15752L8.68106 9.12396C9.09563 8.71826 9.65438 8.49388 10.2344 8.50018C10.8144 8.50647 11.3682 8.74292 11.7738 9.15752L12 9.38709L12.2261 9.1575L12.2597 9.12393Z" stroke="#1F1F1F" stroke-width="1.5" stroke-linecap="round" stroke-linejoin="round"/>
<path fill-rule="evenodd" clip-rule="evenodd" d="M17.6566 5.35101V5.35101C20.7808 8.48997 20.7808 13.5636 17.6566 16.7025V16.7025L14.3448 20.0254C13.0558 21.3205 10.9609 21.3255 9.66581 20.0365L9.65481 20.0254L6.34291 16.7025C3.21877 13.5636 3.21874 8.49001 6.34285 5.35101V5.35101C9.45234 2.22681 14.5057 2.21488 17.6299 5.32436L17.6566 5.35101H17.6566Z" stroke="#1F1F1F" stroke-width="1.5" stroke-linecap="round" stroke-linejoin="round"/>
</svg>
