<svg width="24" height="24" viewBox="0 0 24 24" fill="none" xmlns="http://www.w3.org/2000/svg">
<path d="M16.0054 16.0892V19.3406C16.0054 20.5377 15.035 21.5081 13.8378 21.5081H5.16757C3.97045 21.5081 3 20.5377 3 19.3406V4.16757C3 2.97045 3.97045 2 5.16757 2H6.25135" stroke="#1F1F1F" stroke-width="1.5" stroke-linecap="round" stroke-linejoin="round"/>
<path d="M7.33508 18.2568H11.6702" stroke="#1F1F1F" stroke-width="1.5" stroke-linecap="round" stroke-linejoin="round"/>
<path fill-rule="evenodd" clip-rule="evenodd" d="M13.2959 10.6703V12.2949C13.2959 12.504 13.4163 12.6945 13.6052 12.7843C13.7941 12.8741 14.0178 12.8471 14.18 12.7151L16.691 10.6703H19.2567C20.4539 10.6703 21.4243 9.69982 21.4243 8.50271V4.16757C21.4243 2.97045 20.4539 2 19.2567 2H11.6703C10.4731 2 9.50269 2.97045 9.50269 4.16757V8.50271C9.50269 9.69982 10.4731 10.6703 11.6703 10.6703H13.2959Z" stroke="#1F1F1F" stroke-width="1.5" stroke-linecap="round" stroke-linejoin="round"/>
</svg>
