<svg width="24" height="24" viewBox="0 0 24 24" fill="none" xmlns="http://www.w3.org/2000/svg">
<path d="M16.2574 19.9215C16.6716 19.9215 17.0074 19.5857 17.0074 19.1715C17.0074 18.7573 16.6716 18.4215 16.2574 18.4215V19.9215ZM14.793 19.1715V18.4215C14.3788 18.4215 14.043 18.7573 14.043 19.1715H14.793ZM14.043 20.7183C14.043 21.1325 14.3788 21.4683 14.793 21.4683C15.2072 21.4683 15.543 21.1325 15.543 20.7183H14.043ZM21.7161 18.8876C21.8392 18.4921 21.6185 18.0717 21.223 17.9485C20.8275 17.8254 20.4071 18.0462 20.2839 18.4416L21.7161 18.8876ZM20.2422 19.9764L20.7864 20.4925L20.7907 20.4879L20.2422 19.9764ZM17.426 20.9641L17.5389 20.2227L17.426 20.9641ZM15.6553 18.8322C15.4652 18.4642 15.0127 18.3201 14.6447 18.5103C14.2767 18.7004 14.1326 19.1529 14.3228 19.5209L15.6553 18.8322ZM19.5328 15.0751C19.1186 15.0751 18.7828 15.4109 18.7828 15.8251C18.7828 16.2393 19.1186 16.5751 19.5328 16.5751V15.0751ZM21 15.8251V16.5751C21.4142 16.5751 21.75 16.2393 21.75 15.8251H21ZM21.75 14.2794C21.75 13.8652 21.4142 13.5294 21 13.5294C20.5858 13.5294 20.25 13.8652 20.25 14.2794H21.75ZM20.1386 16.1685C20.3288 16.5364 20.7813 16.6806 21.1492 16.4904C21.5172 16.3002 21.6613 15.8477 21.4711 15.4798L20.1386 16.1685ZM18.3679 14.0365L18.255 14.778L18.3679 14.0365ZM15.5517 15.0243L15.0075 14.5081L15.0046 14.5112L15.5517 15.0243ZM14.073 16.1103C13.9484 16.5054 14.1676 16.9266 14.5626 17.0513C14.9576 17.1759 15.3789 16.9567 15.5035 16.5617L14.073 16.1103ZM7.93006 14.2336C7.58174 14.4578 7.48109 14.9218 7.70525 15.2702C7.92942 15.6185 8.3935 15.7191 8.74182 15.495L7.93006 14.2336ZM11.7989 12.6357L12.2048 13.2664C12.4193 13.1283 12.5489 12.8907 12.5489 12.6357H11.7989ZM12.5489 7.9855C12.5489 7.57128 12.2131 7.2355 11.7989 7.2355C11.3847 7.2355 11.0489 7.57128 11.0489 7.9855H12.5489ZM11.5283 21.7472C11.9425 21.747 12.2782 21.4111 12.278 20.9969C12.2778 20.5827 11.9419 20.247 11.5277 20.2472L11.5283 21.7472ZM19.2511 11.078C19.2947 11.4899 19.664 11.7884 20.0759 11.7448C20.4878 11.7012 20.7864 11.3319 20.7427 10.92L19.2511 11.078ZM16.2574 18.4215H14.793V19.9215H16.2574V18.4215ZM14.043 19.1715V20.7183H15.543V19.1715H14.043ZM20.2839 18.4416C20.1632 18.8295 19.9602 19.1792 19.6938 19.4648L20.7907 20.4879C21.2141 20.0339 21.5298 19.4858 21.7161 18.8876L20.2839 18.4416ZM19.6981 19.4603C19.1226 20.067 18.3223 20.3419 17.5389 20.2227L17.3131 21.7056C18.5973 21.9011 19.884 21.444 20.7864 20.4925L19.6981 19.4603ZM17.5389 20.2227C16.7541 20.1032 16.0507 19.5972 15.6553 18.8322L14.3228 19.5209C14.9278 20.6915 16.0305 21.5103 17.3131 21.7056L17.5389 20.2227ZM19.5328 16.5751H21V15.0751H19.5328V16.5751ZM21.75 15.8251V14.2794H20.25V15.8251H21.75ZM21.4711 15.4798C20.8661 14.3092 19.7634 13.4904 18.4808 13.2951L18.255 14.778C19.0399 14.8975 19.7432 15.4035 20.1386 16.1685L21.4711 15.4798ZM18.4808 13.2951C17.1967 13.0995 15.91 13.5566 15.0075 14.5081L16.0959 15.5404C16.6713 14.9337 17.4717 14.6587 18.255 14.778L18.4808 13.2951ZM15.0046 14.5112C14.5795 14.9645 14.2618 15.5122 14.073 16.1103L15.5035 16.5617C15.6261 16.1732 15.8308 15.8231 16.0988 15.5373L15.0046 14.5112ZM8.74182 15.495L12.2048 13.2664L11.393 12.005L7.93006 14.2336L8.74182 15.495ZM12.5489 12.6357V7.9855H11.0489V12.6357H12.5489ZM11.5277 20.2472C7.38201 20.2488 3.91384 16.7781 3.75558 12.3083L2.25652 12.3614C2.44077 17.5653 6.50313 21.7491 11.5283 21.7472L11.5277 20.2472ZM3.75558 12.3083C3.59726 7.83688 6.81312 4.09822 10.9505 3.77293L10.8329 2.27754C5.82472 2.6713 2.07233 7.15922 2.25652 12.3614L3.75558 12.3083ZM10.9505 3.77293C15.0827 3.44803 18.7805 6.63547 19.2511 11.078L20.7427 10.92C20.1943 5.74203 15.8462 1.88338 10.8329 2.27754L10.9505 3.77293Z" fill="#1F1F1F"/>
</svg>
