<svg width="24" height="24" viewBox="0 0 24 24" fill="none" xmlns="http://www.w3.org/2000/svg">
<path d="M20.9697 22.0303C21.2626 22.3232 21.7374 22.3232 22.0303 22.0303C22.3232 21.7374 22.3232 21.2626 22.0303 20.9697L20.9697 22.0303ZM20.3003 19.2396C20.0074 18.9467 19.5325 18.9467 19.2396 19.2396C18.9467 19.5325 18.9467 20.0074 19.2396 20.3003L20.3003 19.2396ZM16.9864 12.3056C16.5722 12.3056 16.2364 12.6413 16.2364 13.0556C16.2364 13.4698 16.5722 13.8056 16.9864 13.8056V12.3056ZM16.9864 13.8056C17.4007 13.8056 17.7364 13.4698 17.7364 13.0556C17.7364 12.6413 17.4007 12.3056 16.9864 12.3056V13.8056ZM2.01192 10.0731C1.69742 10.3427 1.66099 10.8161 1.93055 11.1306C2.20011 11.4451 2.67358 11.4816 2.98808 11.212L2.01192 10.0731ZM10.6257 3.678L11.1137 4.24745L11.1138 4.24744L10.6257 3.678ZM13.3733 3.678L12.8852 4.24744L12.8852 4.24748L13.3733 3.678ZM21.012 11.212C21.3265 11.4816 21.7999 11.4451 22.0695 11.1306C22.339 10.8161 22.3026 10.3426 21.988 10.0731L21.012 11.212ZM4.60744 9.47933C4.60744 9.06512 4.27166 8.72933 3.85744 8.72933C3.44323 8.72933 3.10744 9.06512 3.10744 9.47933H4.60744ZM10.9444 22.25C11.3587 22.25 11.6944 21.9142 11.6944 21.5C11.6944 21.0858 11.3587 20.75 10.9444 20.75V22.25ZM19.3926 9.47933C19.3926 9.89355 19.7283 10.2293 20.1426 10.2293C20.5568 10.2293 20.8926 9.89355 20.8926 9.47933H19.3926ZM15.3213 5.98967C15.3213 6.40388 15.6571 6.73967 16.0713 6.73967C16.4855 6.73967 16.8213 6.40388 16.8213 5.98967H15.3213ZM22.0303 20.9697L20.3003 19.2396L19.2396 20.3003L20.9697 22.0303L22.0303 20.9697ZM16.9864 13.8056C18.7434 13.8056 20.1673 15.2303 20.1673 16.9864H21.6673C21.6673 14.4021 19.5721 12.3056 16.9864 12.3056V13.8056ZM20.1673 16.9864C20.1673 18.7425 18.7425 20.1673 16.9864 20.1673V21.6673C19.5709 21.6673 21.6673 19.5709 21.6673 16.9864H20.1673ZM16.9864 20.1673C15.2303 20.1673 13.8056 18.7434 13.8056 16.9864H12.3056C12.3056 19.5721 14.4021 21.6673 16.9864 21.6673V20.1673ZM13.8056 16.9864C13.8056 15.2295 15.2303 13.8056 16.9864 13.8056V12.3056C14.4021 12.3056 12.3056 14.4008 12.3056 16.9864H13.8056ZM2.98808 11.212L11.1137 4.24745L10.1376 3.10855L2.01192 10.0731L2.98808 11.212ZM11.1138 4.24744C11.6235 3.81052 12.3754 3.81052 12.8852 4.24744L13.8614 3.10856C12.7899 2.19015 11.2091 2.19015 10.1376 3.10856L11.1138 4.24744ZM12.8852 4.24748L21.012 11.212L21.988 10.0731L13.8613 3.10852L12.8852 4.24748ZM3.10744 9.47933V19.3889H4.60744V9.47933H3.10744ZM3.10744 19.3889C3.10744 20.9695 4.38795 22.25 5.96856 22.25V20.75C5.21638 20.75 4.60744 20.1411 4.60744 19.3889H3.10744ZM5.96856 22.25H10.9444V20.75H5.96856V22.25ZM20.8926 9.47933V3.55556H19.3926V9.47933H20.8926ZM20.8926 3.55556C20.8926 2.55868 20.0839 1.75 19.087 1.75V3.25C19.2555 3.25 19.3926 3.3871 19.3926 3.55556H20.8926ZM19.087 1.75H17.1268V3.25H19.087V1.75ZM17.1268 1.75C16.13 1.75 15.3213 2.55868 15.3213 3.55556H16.8213C16.8213 3.3871 16.9584 3.25 17.1268 3.25V1.75ZM15.3213 3.55556V5.98967H16.8213V3.55556H15.3213Z" fill="#1F1F1F"/>
</svg>
