<svg width="24" height="24" viewBox="0 0 24 24" fill="none" xmlns="http://www.w3.org/2000/svg">
<path fill-rule="evenodd" clip-rule="evenodd" d="M24 18.6667V10.8C24 8.97731 23.1715 7.25343 21.7482 6.1148L15.7482 1.3148C13.5569 -0.438267 10.4431 -0.438267 8.25181 1.3148L2.25181 6.1148C0.828532 7.25343 -7.54781e-08 8.97731 0 10.8V18.6667C0 21.6122 2.38781 24 5.33333 24H18.6667C21.6122 24 24 21.6122 24 18.6667Z" fill="#D1CDC7"/>
<path fill-rule="evenodd" clip-rule="evenodd" d="M11.2939 19.931C8.21575 19.3153 6.00001 16.6126 6 13.4734V11.3342C6 9.49324 7.49238 8.00085 9.33333 8.00085H14.6667C16.5076 8.00085 18 9.49324 18 11.3342V13.4733C18 16.6125 15.7843 19.3152 12.7062 19.9309H12.7061C12.24 20.0241 11.76 20.0242 11.2939 19.931Z" fill="#6F685D"/>
<path d="M10.3333 13.3336L11.6666 14.6669L13.6666 12.6669" stroke="white" stroke-width="1.5" stroke-linecap="round" stroke-linejoin="round"/>
</svg>
