<svg width="24" height="24" viewBox="0 0 24 24" fill="none" xmlns="http://www.w3.org/2000/svg">
<path d="M19.7172 9.611V3.99666C19.7172 3.44443 19.269 2.99625 18.7168 2.99625H16.859C16.3068 2.99625 15.8586 3.44443 15.8586 3.99666V6.30362" stroke="#1F1F1F" stroke-width="1.5" stroke-linecap="round" stroke-linejoin="round"/>
<path d="M2.99625 10.7135L10.6975 4.11271C11.4468 3.47045 12.5522 3.47045 13.3015 4.11271L21.0037 10.7135" stroke="#1F1F1F" stroke-width="1.5" stroke-linecap="round" stroke-linejoin="round"/>
<path d="M4.28278 9.61101V19.0029C4.28278 20.1084 5.17815 21.0038 6.28361 21.0038H10.9996" stroke="#1F1F1F" stroke-width="1.5" stroke-linecap="round" stroke-linejoin="round"/>
<path d="M17.5023 22.0042C15.0163 22.0042 13.0004 19.9883 13.0004 17.5023C13.0004 15.0163 15.0163 13.0004 17.5023 13.0004C19.9893 13.0004 22.0042 15.0163 22.0042 17.5023C22.0042 19.9883 19.9893 22.0042 17.5023 22.0042" stroke="#1F1F1F" stroke-width="1.5" stroke-linecap="round" stroke-linejoin="round"/>
<path d="M19.281 16.6129L17.0581 18.8358L15.7235 17.5023" stroke="#1F1F1F" stroke-width="1.5" stroke-linecap="round" stroke-linejoin="round"/>
</svg>
