<svg width="24" height="24" viewBox="0 0 24 24" fill="none" xmlns="http://www.w3.org/2000/svg">
<path fill-rule="evenodd" clip-rule="evenodd" d="M9.357 17V8.934V17ZM5 8.934V17V8.934ZM12 17H4L3 19V20H12M19 8.934V11V8.934ZM14.643 14V8.934V14ZM18.293 20.7071L21.7071 17.293C21.8947 17.1055 22 16.8511 22 16.5859C22 16.3207 21.8947 16.0663 21.7071 15.8788L20.1213 14.2929C19.9337 14.1054 19.6794 14 19.4142 14C19.1489 14 18.8946 14.1054 18.7071 14.2929L15.2929 17.707C15.1054 17.8945 15 18.1489 15 18.4141V20.5C15 20.7761 15.2239 21 15.5 21H17.5859C17.8511 21 18.1055 20.8946 18.293 20.7071ZM21 5.928L12 2L3 5.928V8.934H21V5.928ZM3 5.928L12 2L21 5.928V8.934H3V5.928Z" fill="#D8D8D8" fill-opacity="0.01"/>
<path d="M8.607 17C8.607 17.4142 8.94279 17.75 9.357 17.75C9.77121 17.75 10.107 17.4142 10.107 17H8.607ZM10.107 8.934C10.107 8.51979 9.77121 8.184 9.357 8.184C8.94279 8.184 8.607 8.51979 8.607 8.934H10.107ZM5.75 8.934C5.75 8.51979 5.41421 8.184 5 8.184C4.58579 8.184 4.25 8.51979 4.25 8.934H5.75ZM4.25 17C4.25 17.4142 4.58579 17.75 5 17.75C5.41421 17.75 5.75 17.4142 5.75 17H4.25ZM12 17.75C12.4142 17.75 12.75 17.4142 12.75 17C12.75 16.5858 12.4142 16.25 12 16.25V17.75ZM4 17V16.25C3.71592 16.25 3.45622 16.4105 3.32918 16.6646L4 17ZM3 19L2.32918 18.6646C2.27711 18.7687 2.25 18.8836 2.25 19H3ZM3 20H2.25C2.25 20.4142 2.58579 20.75 3 20.75V20ZM12 20.75C12.4142 20.75 12.75 20.4142 12.75 20C12.75 19.5858 12.4142 19.25 12 19.25V20.75ZM19.75 8.934C19.75 8.51979 19.4142 8.184 19 8.184C18.5858 8.184 18.25 8.51979 18.25 8.934H19.75ZM18.25 11C18.25 11.4142 18.5858 11.75 19 11.75C19.4142 11.75 19.75 11.4142 19.75 11H18.25ZM13.893 14C13.893 14.4142 14.2288 14.75 14.643 14.75C15.0572 14.75 15.393 14.4142 15.393 14H13.893ZM15.393 8.934C15.393 8.51979 15.0572 8.184 14.643 8.184C14.2288 8.184 13.893 8.51979 13.893 8.934H15.393ZM18.293 20.7071L17.7627 20.1768L17.7627 20.1768L18.293 20.7071ZM21.7071 17.293L22.2375 17.8233V17.8233L21.7071 17.293ZM21.7071 15.8788L21.1768 16.4091L21.1768 16.4091L21.7071 15.8788ZM20.1213 14.2929L19.5909 14.8232V14.8232L20.1213 14.2929ZM18.7071 14.2929L19.2374 14.8232L19.2374 14.8232L18.7071 14.2929ZM15.2929 17.707L15.8232 18.2374L15.8233 18.2373L15.2929 17.707ZM15 18.4141L14.25 18.4141V18.4141H15ZM17.5859 21V21.75H17.5859L17.5859 21ZM12 2L12.3 1.31262C12.1087 1.22913 11.8913 1.22913 11.7 1.31262L12 2ZM3 5.928L2.7 5.24062C2.42668 5.3599 2.25 5.62979 2.25 5.928H3ZM3 8.934H2.25C2.25 9.34821 2.58579 9.684 3 9.684V8.934ZM21 8.934V9.684C21.4142 9.684 21.75 9.34821 21.75 8.934H21ZM12 2L12.3 1.31262C12.1087 1.22913 11.8913 1.22913 11.7 1.31262L12 2ZM21 5.928H21.75C21.75 5.62979 21.5733 5.3599 21.3 5.24062L21 5.928ZM21 8.934V9.684C21.4142 9.684 21.75 9.34821 21.75 8.934H21ZM3 8.934H2.25C2.25 9.34821 2.58579 9.684 3 9.684V8.934ZM10.107 17V8.934H8.607V17H10.107ZM4.25 8.934V17H5.75V8.934H4.25ZM12 16.25H4V17.75H12V16.25ZM3.32918 16.6646L2.32918 18.6646L3.67082 19.3354L4.67082 17.3354L3.32918 16.6646ZM2.25 19V20H3.75V19H2.25ZM3 20.75H12V19.25H3V20.75ZM18.25 8.934V11H19.75V8.934H18.25ZM15.393 14V8.934H13.893V14H15.393ZM18.8233 21.2374L22.2375 17.8233L21.1768 16.7627L17.7627 20.1768L18.8233 21.2374ZM22.2375 17.8233C22.5657 17.4951 22.75 17.05 22.75 16.5859H21.25C21.25 16.6522 21.2237 16.7158 21.1768 16.7627L22.2375 17.8233ZM22.75 16.5859C22.75 16.1218 22.5657 15.6766 22.2375 15.3484L21.1768 16.4091C21.2237 16.456 21.25 16.5196 21.25 16.5859H22.75ZM22.2375 15.3485L20.6516 13.7626L19.5909 14.8232L21.1768 16.4091L22.2375 15.3485ZM20.6516 13.7626C20.3234 13.4344 19.8783 13.25 19.4142 13.25V14.75C19.4805 14.75 19.5441 14.7763 19.5909 14.8232L20.6516 13.7626ZM19.4142 13.25C18.95 13.25 18.5049 13.4344 18.1767 13.7626L19.2374 14.8232C19.2843 14.7763 19.3479 14.75 19.4142 14.75V13.25ZM18.1767 13.7626L14.7626 17.1767L15.8233 18.2373L19.2374 14.8232L18.1767 13.7626ZM14.7626 17.1766C14.4344 17.5048 14.25 17.95 14.25 18.4141L15.75 18.4141C15.75 18.3478 15.7763 18.2842 15.8232 18.2374L14.7626 17.1766ZM14.25 18.4141V20.5H15.75V18.4141H14.25ZM14.25 20.5C14.25 21.1904 14.8096 21.75 15.5 21.75V20.25C15.6381 20.25 15.75 20.3619 15.75 20.5H14.25ZM15.5 21.75H17.5859V20.25H15.5V21.75ZM17.5859 21.75C18.05 21.75 18.4952 21.5656 18.8233 21.2374L17.7627 20.1768C17.7158 20.2237 17.6522 20.25 17.5859 20.25L17.5859 21.75ZM21.3 5.24062L12.3 1.31262L11.7 2.68738L20.7 6.61538L21.3 5.24062ZM11.7 1.31262L2.7 5.24062L3.3 6.61538L12.3 2.68738L11.7 1.31262ZM2.25 5.928V8.934H3.75V5.928H2.25ZM3 9.684H21V8.184H3V9.684ZM21.75 8.934V5.928H20.25V8.934H21.75ZM3.3 6.61538L12.3 2.68738L11.7 1.31262L2.7 5.24062L3.3 6.61538ZM11.7 2.68738L20.7 6.61538L21.3 5.24062L12.3 1.31262L11.7 2.68738ZM20.25 5.928V8.934H21.75V5.928H20.25ZM21 8.184H3V9.684H21V8.184ZM3.75 8.934V5.928H2.25V8.934H3.75Z" fill="#1F1F1F"/>
</svg>
