<svg width="24" height="24" viewBox="0 0 24 24" fill="none" xmlns="http://www.w3.org/2000/svg">
<path d="M17.5 21.5L16 20L17.5 18.5" stroke="#1F1F1F" stroke-width="1.5" stroke-linecap="round" stroke-linejoin="round"/>
<path fill-rule="evenodd" clip-rule="evenodd" d="M10.5 20.5V20C10.5 18.8954 9.60457 18 8.5 18H4.5C3.39543 18 2.5 18.8954 2.5 20V20.5C2.5 20.7761 2.72386 21 3 21H10C10.2761 21 10.5 20.7761 10.5 20.5Z" stroke="#1F1F1F" stroke-width="1.5" stroke-linecap="round" stroke-linejoin="round"/>
<path d="M16 20H18C19.6569 20 21 18.6569 21 17" stroke="#1F1F1F" stroke-width="1.5" stroke-linecap="round" stroke-linejoin="round"/>
<circle cx="6.5" cy="13.5" r="2.5" stroke="#1F1F1F" stroke-width="1.5" stroke-linecap="round" stroke-linejoin="round"/>
<path d="M13.0152 5.1225V9.5C13.0152 10.3284 13.6867 11 14.5152 11H19.5748C20.4032 11 21.0748 10.3284 21.0748 9.5V5.2003" stroke="#1F1F1F" stroke-width="1.5" stroke-linecap="round" stroke-linejoin="round"/>
<path d="M6.5 2.5L8 4L6.5 5.5" stroke="#1F1F1F" stroke-width="1.5" stroke-linecap="round" stroke-linejoin="round"/>
<path d="M8 4H6C4.34315 4 3 5.34315 3 7" stroke="#1F1F1F" stroke-width="1.5" stroke-linecap="round" stroke-linejoin="round"/>
<path d="M22 6L17.6539 2.24345C17.2784 1.91885 16.7216 1.91885 16.3461 2.24345L12 6" stroke="#1F1F1F" stroke-width="1.5" stroke-linecap="round" stroke-linejoin="round"/>
</svg>
