<svg width="24" height="24" viewBox="0 0 24 24" fill="none" xmlns="http://www.w3.org/2000/svg">
<path d="M7.9483 10.4587V15.5015C7.9483 15.7777 8.17225 16.0017 8.44851 16.0017H15.6415C15.9178 16.0017 16.1417 15.7777 16.1417 15.5015V10.5308" stroke="#1F1F1F" stroke-width="1.5" stroke-linecap="round" stroke-linejoin="round"/>
<path d="M17.0021 11.2191L12.625 7.7174C12.2596 7.42509 11.7404 7.42509 11.375 7.7174L6.99792 11.2191" stroke="#1F1F1F" stroke-width="1.5" stroke-linecap="round" stroke-linejoin="round"/>
<path d="M20.5856 9.35192C20.8587 10.2083 20.9997 11.1012 21.0037 12C21.0037 16.9727 16.9726 21.0038 12 21.0038C7.02736 21.0038 2.99625 16.9727 2.99625 12C2.99625 7.02739 7.02736 2.99628 12 2.99628C12.8988 3.00034 13.7918 3.14135 14.6481 3.41445" stroke="#1F1F1F" stroke-width="1.5" stroke-linecap="round" stroke-linejoin="round"/>
<path d="M13.2505 16.0017V13.0005C13.2505 12.7242 13.0266 12.5002 12.7503 12.5002H11.2497C10.9734 12.5002 10.7495 12.7242 10.7495 13.0005V16.0017" stroke="#1F1F1F" stroke-width="1.5" stroke-linecap="round" stroke-linejoin="round"/>
<path d="M19.0149 6.25966L17.7394 4.98413" stroke="#1F1F1F" stroke-width="1.5" stroke-linecap="round" stroke-linejoin="round"/>
<path d="M21.0038 4.27075L19.015 6.25961" stroke="#1F1F1F" stroke-width="1.5" stroke-linecap="round" stroke-linejoin="round"/>
</svg>
