<svg width="24" height="24" viewBox="0 0 24 24" fill="none" xmlns="http://www.w3.org/2000/svg">
<path d="M19.0029 9.99925V4.99717C19.0029 3.89214 18.1071 2.99634 17.0021 2.99634H4.99708C3.89205 2.99634 2.99625 3.89214 2.99625 4.99717V19.003C2.99625 20.108 3.89205 21.0038 4.99708 21.0038H9.99916" stroke="#1F1F1F" stroke-width="1.5" stroke-linecap="round" stroke-linejoin="round"/>
<path fill-rule="evenodd" clip-rule="evenodd" d="M17.1491 20.7106L20.7106 17.1491C21.1012 16.7585 21.1012 16.1252 20.7106 15.7345L19.124 14.1479C18.7333 13.7573 18.1 13.7573 17.7094 14.1479L14.1479 17.7094C13.9603 17.8969 13.8548 18.1514 13.8548 18.4167V21.0037H16.4418C16.7071 21.0037 16.9616 20.8982 17.1491 20.7106Z" stroke="#1F1F1F" stroke-width="1.5" stroke-linecap="round" stroke-linejoin="round"/>
<path d="M10.9996 12V15.0013" stroke="#1F1F1F" stroke-width="1.5" stroke-linecap="round" stroke-linejoin="round"/>
<path d="M12.5002 13.5007H9.49896" stroke="#1F1F1F" stroke-width="1.5" stroke-linecap="round" stroke-linejoin="round"/>
<path d="M7.99832 6.99801H14.0008" stroke="#1F1F1F" stroke-width="1.5" stroke-linecap="round" stroke-linejoin="round"/>
</svg>
