<svg width="24" height="24" viewBox="0 0 24 24" fill="none" xmlns="http://www.w3.org/2000/svg">
<path d="M17.2105 9.10526V6.59032C17.2105 5.97663 16.9662 5.38726 16.532 4.95305L13.2575 1.67853C12.8233 1.24432 12.2339 1 11.6202 1H3.31579C2.03632 1 1 2.03632 1 3.31579V19.5263C1 20.8058 2.03632 21.8421 3.31579 21.8421H7.94737" stroke="#1F1F1F" stroke-width="1.5" stroke-linecap="round" stroke-linejoin="round"/>
<path d="M15.4737 23.0002C12.5963 23.0002 10.2632 20.667 10.2632 17.7896C10.2632 14.9123 12.5963 12.5791 15.4737 12.5791C18.3522 12.5791 20.6842 14.9123 20.6842 17.7896C20.6842 20.667 18.3522 23.0002 15.4737 23.0002" stroke="#1F1F1F" stroke-width="1.5" stroke-linecap="round" stroke-linejoin="round"/>
<path d="M14.9526 15.9473L16.7948 17.7895L14.9526 19.6317" stroke="#1F1F1F" stroke-width="1.5" stroke-linecap="round" stroke-linejoin="round"/>
<path d="M17.2105 6.78947H12.5789C11.9398 6.78947 11.421 6.27074 11.421 5.63158V1" stroke="#1F1F1F" stroke-width="1.5" stroke-linecap="round" stroke-linejoin="round"/>
</svg>
