<svg width="24" height="24" viewBox="0 0 24 24" fill="none" xmlns="http://www.w3.org/2000/svg">
<path fill-rule="evenodd" clip-rule="evenodd" d="M9.99915 3.49623C9.99915 2.66746 10.671 1.99561 11.4998 1.99561H20.5035C21.3323 1.99561 22.0041 2.66746 22.0041 3.49623V9.49873C22.0041 10.3275 21.3323 10.9994 20.5035 10.9994H19.5383V12.9992C19.5383 13.2015 19.4165 13.3839 19.2296 13.4613C19.0426 13.5387 18.8275 13.4959 18.6844 13.3529L16.3309 10.9994H11.4998C10.671 10.9994 9.99915 10.3275 9.99915 9.49873V3.49623Z" stroke="#1F1F1F" stroke-width="1.5" stroke-linecap="round" stroke-linejoin="round"/>
<path d="M13.0004 14.0005V18.0664C13.0004 18.8951 12.3286 19.567 11.4998 19.567H7.63657L5.34725 21.8563C5.20419 21.9994 4.98904 22.0421 4.80214 21.9647C4.61523 21.8873 4.49336 21.7049 4.49335 21.5026V19.567H3.49647C2.6677 19.567 1.99585 18.8951 1.99585 18.0664V11.9996C1.99585 11.1709 2.6677 10.499 3.49647 10.499H6.99793" stroke="#1F1F1F" stroke-width="1.5" stroke-linecap="round" stroke-linejoin="round"/>
<path d="M7.49813 14.3057V13.0322" stroke="#1F1F1F" stroke-width="1.5" stroke-linecap="round" stroke-linejoin="round"/>
<path d="M8.97793 17.0338C8.05576 16.4325 7.49925 15.4065 7.49817 14.3057" stroke="#1F1F1F" stroke-width="1.5" stroke-linecap="round" stroke-linejoin="round"/>
<path d="M7.49819 14.3057C7.4971 15.4065 6.94059 16.4325 6.01843 17.0338" stroke="#1F1F1F" stroke-width="1.5" stroke-linecap="round" stroke-linejoin="round"/>
<path d="M9.24889 14.3059H5.74744" stroke="#1F1F1F" stroke-width="1.5" stroke-linecap="round" stroke-linejoin="round"/>
<path d="M14.2832 7.67648H17.7091" stroke="#1F1F1F" stroke-width="1.5" stroke-linecap="round" stroke-linejoin="round"/>
<path d="M18.0025 8.47628L16.5619 4.47461H15.4415L14.0009 8.47628" stroke="#1F1F1F" stroke-width="1.5" stroke-linecap="round" stroke-linejoin="round"/>
</svg>
