<svg width="24" height="24" viewBox="0 0 24 24" fill="none" xmlns="http://www.w3.org/2000/svg">
<path fill-rule="evenodd" clip-rule="evenodd" d="M14.8867 20.1349H17.6006L21.3226 16.4129C21.6979 16.0376 21.6979 15.4309 21.3226 15.0565L19.9661 13.7C19.5907 13.3246 18.984 13.3246 18.6096 13.7L14.8877 17.4219V20.1349H14.8867Z" stroke="#1F1F1F" stroke-width="1.5" stroke-linecap="round" stroke-linejoin="round"/>
<path d="M19.6742 10.5619V5.77246" stroke="#1F1F1F" stroke-width="1.5" stroke-linecap="round" stroke-linejoin="round"/>
<path d="M11.0391 16.3219H5.28293C4.22309 16.3219 3.36389 15.4627 3.36389 14.4019V5.74561" stroke="#1F1F1F" stroke-width="1.5" stroke-linecap="round" stroke-linejoin="round"/>
<path fill-rule="evenodd" clip-rule="evenodd" d="M17.7456 3.81494H5.29252C4.22692 3.81494 3.36292 4.67894 3.36292 5.7455V5.7455C3.36292 6.38582 3.67972 6.9839 4.20964 7.34294L9.35044 10.8287C10.6608 11.7167 12.3792 11.7167 13.6896 10.8287L18.8285 7.3439C19.3584 6.98486 19.6752 6.38582 19.6752 5.74646V5.7455C19.6743 4.67894 18.8112 3.81494 17.7456 3.81494Z" stroke="#1F1F1F" stroke-width="1.5" stroke-linecap="round" stroke-linejoin="round"/>
</svg>
