<svg width="24" height="24" viewBox="0 0 24 24" fill="none" xmlns="http://www.w3.org/2000/svg">
<path fill-rule="evenodd" clip-rule="evenodd" d="M18.84 13.975L21.752 19.15C22.469 20.424 21.548 22 20.086 22H14.263C12.8 22 11.88 20.426 12.597 19.15L15.509 13.975C16.238 12.675 18.109 12.675 18.84 13.975V13.975Z" stroke="#1F1F1F" stroke-width="1.5" stroke-linecap="round" stroke-linejoin="round"/>
<path d="M17.173 19.557C17.125 19.557 17.086 19.596 17.087 19.644C17.087 19.692 17.126 19.731 17.174 19.731C17.222 19.731 17.26 19.692 17.26 19.644C17.26 19.596 17.221 19.557 17.173 19.557" stroke="#1F1F1F" stroke-width="1.5" stroke-linecap="round" stroke-linejoin="round"/>
<path d="M17.174 17.6222V15.8682" stroke="#1F1F1F" stroke-width="1.5" stroke-linecap="round" stroke-linejoin="round"/>
<path d="M20 11.0002V6.0332" stroke="#1F1F1F" stroke-width="1.5" stroke-linecap="round" stroke-linejoin="round"/>
<path d="M10 18.0002H5C3.343 18.0002 2 16.6572 2 15.0002V6.0332" stroke="#1F1F1F" stroke-width="1.5" stroke-linecap="round" stroke-linejoin="round"/>
<path fill-rule="evenodd" clip-rule="evenodd" d="M9.602 11.264L3.085 7.831C2.418 7.479 2 6.787 2 6.033V6C2 4.895 2.895 4 4 4H17.967C19.09 4 20 4.91 20 6.033V6.053C20 6.795 19.589 7.477 18.932 7.823L12.398 11.265C11.523 11.724 10.477 11.724 9.602 11.264Z" stroke="#1F1F1F" stroke-width="1.5" stroke-linecap="round" stroke-linejoin="round"/>
</svg>
