<svg width="24" height="24" viewBox="0 0 24 24" fill="none" xmlns="http://www.w3.org/2000/svg">
<path d="M5.49927 16.687L7.34604 13.6648C8.05733 12.5013 9.84908 13.0045 9.84908 14.3691V15.9647H10.7394H11.3597C11.8129 15.9647 12.2361 16.1918 12.4882 16.571C12.7113 16.9061 12.7763 17.3233 12.6653 17.7104L11.9329 20.2735C11.8089 20.7057 11.4137 21.0038 10.9645 21.0038H7.38005C7.08893 21.0038 6.80581 20.9018 6.58172 20.7157L5.49927 19.8183" stroke="#1F1F1F" stroke-width="1.5" stroke-linecap="round" stroke-linejoin="round"/>
<path fill-rule="evenodd" clip-rule="evenodd" d="M4.99912 21.0038H3.4985C3.22238 21.0038 2.99829 20.7797 2.99829 20.5035V16.0017C2.99829 15.7256 3.22238 15.5015 3.4985 15.5015H4.99912C5.27524 15.5015 5.49933 15.7256 5.49933 16.0017V20.5035C5.49933 20.7797 5.27524 21.0038 4.99912 21.0038Z" stroke="#1F1F1F" stroke-width="1.5" stroke-linecap="round" stroke-linejoin="round"/>
<path d="M15.0012 21.0036H17.7164C18.8218 21.0036 19.7172 20.1082 19.7172 19.0028V3.99651C19.7172 3.44428 19.269 2.99609 18.7168 2.99609H16.859C16.3068 2.99609 15.8586 3.44428 15.8586 3.99651V6.30347" stroke="#1F1F1F" stroke-width="1.5" stroke-linecap="round" stroke-linejoin="round"/>
<path d="M2.99622 10.7133L10.6974 4.11256C11.4467 3.47029 12.5522 3.47029 13.3015 4.11256L21.0037 10.7133" stroke="#1F1F1F" stroke-width="1.5" stroke-linecap="round" stroke-linejoin="round"/>
</svg>
