<svg width="24" height="24" viewBox="0 0 24 24" fill="none" xmlns="http://www.w3.org/2000/svg">
<path d="M8.99874 4.77734V19.0033" stroke="#1F1F1F" stroke-width="1.5" stroke-linecap="round" stroke-linejoin="round"/>
<path d="M15.0012 3.00635V9.99926" stroke="#1F1F1F" stroke-width="1.5" stroke-linecap="round" stroke-linejoin="round"/>
<path d="M21.0037 10.9998V5.61055C21.0037 5.17937 20.7286 4.79721 20.3194 4.66115L15.6335 3.0995C15.2233 2.96244 14.7791 2.96244 14.368 3.0985L9.63098 4.67716C9.21981 4.81421 8.77662 4.81421 8.36545 4.67716L4.31276 3.32659C3.66549 3.1105 2.99622 3.59271 2.99622 4.27599V15.6197C2.99622 15.9989 3.2103 16.345 3.54945 16.5151L8.10434 18.792C8.66758 19.0742 9.33085 19.0742 9.89409 18.792L12 17.7386" stroke="#1F1F1F" stroke-width="1.5" stroke-linecap="round" stroke-linejoin="round"/>
<path d="M22.0042 20.0034L20.1404 18.1396" stroke="#1F1F1F" stroke-width="1.5" stroke-linecap="round" stroke-linejoin="round"/>
<path d="M18.0025 13.0005C19.6602 13.0005 21.0037 14.344 21.0037 16.0017C21.0037 17.6594 19.6602 19.003 18.0025 19.003C16.3448 19.003 15.0012 17.6594 15.0012 16.0017C15.0012 14.344 16.3448 13.0005 18.0025 13.0005" stroke="#1F1F1F" stroke-width="1.5" stroke-linecap="round" stroke-linejoin="round"/>
</svg>
