<svg width="24" height="24" viewBox="0 0 24 24" fill="none" xmlns="http://www.w3.org/2000/svg">
<path d="M13 17.0001H15.333C15.766 17.0001 16.187 16.8601 16.533 16.6001L18.949 14.7881C19.552 14.3361 20.396 14.3961 20.929 14.9291V14.9291C21.521 15.5211 21.521 16.4801 20.929 17.0711L18.856 19.1441C18.298 19.7021 17.586 20.0831 16.812 20.2381L13.882 20.8241C13.301 20.9401 12.702 20.9261 12.127 20.7821L9.477 20.1201C9.16 20.0401 8.835 20.0001 8.508 20.0001H7" stroke="#1F1F1F" stroke-width="1.5" stroke-linecap="round" stroke-linejoin="round"/>
<path d="M13 17H14.485C15.322 17 16 16.322 16 15.485V15.182C16 14.487 15.527 13.881 14.853 13.713L12.561 13.14C12.188 13.047 11.806 13 11.422 13V13C10.495 13 9.588 13.274 8.817 13.789L7 15" stroke="#1F1F1F" stroke-width="1.5" stroke-linecap="round" stroke-linejoin="round"/>
<path fill-rule="evenodd" clip-rule="evenodd" d="M6 21H4C3.448 21 3 20.552 3 20V14C3 13.448 3.448 13 4 13H6C6.552 13 7 13.448 7 14V20C7 20.552 6.552 21 6 21Z" stroke="#1F1F1F" stroke-width="1.5" stroke-linecap="round" stroke-linejoin="round"/>
<path fill-rule="evenodd" clip-rule="evenodd" d="M10.667 10H19.334C20.254 10 21 9.254 21 8.333V3.667C21 2.746 20.254 2 19.333 2H10.666C9.746 2 9 2.746 9 3.667V8.334C9 9.254 9.746 10 10.667 10Z" stroke="#1F1F1F" stroke-width="1.5" stroke-linecap="round" stroke-linejoin="round"/>
<path d="M16.061 4.93899C16.647 5.52499 16.647 6.47599 16.061 7.06099C15.475 7.64599 14.524 7.64699 13.939 7.06099C13.353 6.47499 13.353 5.52399 13.939 4.93899C14.525 4.35399 15.475 4.35399 16.061 4.93899" stroke="#1F1F1F" stroke-width="1.5" stroke-linecap="round" stroke-linejoin="round"/>
</svg>
