<svg width="24" height="24" viewBox="0 0 24 24" fill="none" xmlns="http://www.w3.org/2000/svg">
<path d="M17.0021 5.99752H16.1556" stroke="#1F1F1F" stroke-width="1.5" stroke-linecap="round" stroke-linejoin="round"/>
<path d="M6.15142 10.9996H6.99792" stroke="#1F1F1F" stroke-width="1.5" stroke-linecap="round" stroke-linejoin="round"/>
<path d="M8.92179 14.0008H4.99708C3.89205 14.0008 2.99625 13.105 2.99625 12V4.99705C2.99625 3.89202 3.89205 2.99622 4.99708 2.99622H18.0025C19.1075 2.99622 20.0033 3.89202 20.0033 4.99705V6.89784" stroke="#1F1F1F" stroke-width="1.5" stroke-linecap="round" stroke-linejoin="round"/>
<path d="M9.99916 14.0008H5.11251C3.94373 14.0008 2.99625 13.0533 2.99625 11.8845V5.11248C2.99625 3.9437 3.94373 2.99622 5.11251 2.99622H17.8871C19.0558 2.99622 20.0033 3.9437 20.0033 5.11248V6.89784" stroke="#1F1F1F" stroke-width="1.5" stroke-linecap="round" stroke-linejoin="round"/>
<path d="M10.085 9.91331C9.30661 9.13143 9.30803 7.86702 10.0882 7.08689C10.8683 6.30675 12.1327 6.30533 12.9146 7.08371" stroke="#1F1F1F" stroke-width="1.5" stroke-linecap="round" stroke-linejoin="round"/>
<path fill-rule="evenodd" clip-rule="evenodd" d="M21.0038 10.9996V20.0033C21.0038 20.5558 20.5559 21.0037 20.0033 21.0037H14.0008C13.4483 21.0037 13.0004 20.5558 13.0004 20.0033V10.9996C13.0004 10.447 13.4483 9.99915 14.0008 9.99915H20.0033C20.5559 9.99915 21.0038 10.447 21.0038 10.9996Z" stroke="#1F1F1F" stroke-width="1.5" stroke-linecap="round" stroke-linejoin="round"/>
<path d="M21.0038 14.0008H13.0004" stroke="#1F1F1F" stroke-width="1.5" stroke-linecap="round" stroke-linejoin="round"/>
<path d="M15.7516 16.3018C15.7239 16.3018 15.7015 16.3241 15.7015 16.3518C15.7015 16.3794 15.7239 16.4018 15.7516 16.4018C15.7792 16.4018 15.8016 16.3794 15.8016 16.3518V16.3518C15.8016 16.3241 15.7792 16.3018 15.7516 16.3018" stroke="#1F1F1F" stroke-width="1.5" stroke-linecap="round" stroke-linejoin="round"/>
<path d="M18.2526 16.3018C18.225 16.3018 18.2026 16.3241 18.2026 16.3518C18.2026 16.3794 18.225 16.4018 18.2526 16.4018C18.2802 16.4018 18.3026 16.3794 18.3026 16.3518V16.3518C18.3026 16.3241 18.2802 16.3018 18.2526 16.3018" stroke="#1F1F1F" stroke-width="1.5" stroke-linecap="round" stroke-linejoin="round"/>
<path d="M15.7516 18.6028C15.7239 18.6028 15.7015 18.6252 15.7015 18.6528C15.7015 18.6804 15.7239 18.7028 15.7516 18.7028C15.7792 18.7028 15.8016 18.6804 15.8016 18.6528V18.6528C15.8016 18.6395 15.7963 18.6268 15.7869 18.6174C15.7775 18.608 15.7648 18.6028 15.7516 18.6028" stroke="#1F1F1F" stroke-width="1.5" stroke-linecap="round" stroke-linejoin="round"/>
<path d="M18.2526 18.6028C18.225 18.6028 18.2026 18.6252 18.2026 18.6528C18.2026 18.6804 18.225 18.7028 18.2526 18.7028C18.2802 18.7028 18.3026 18.6804 18.3026 18.6528V18.6528C18.3026 18.6395 18.2973 18.6268 18.288 18.6174C18.2786 18.608 18.2659 18.6028 18.2526 18.6028" stroke="#1F1F1F" stroke-width="1.5" stroke-linecap="round" stroke-linejoin="round"/>
</svg>
