<svg width="24" height="24" viewBox="0 0 24 24" fill="none" xmlns="http://www.w3.org/2000/svg">
<path d="M17.5023 17.0022V13.0005" stroke="#1F1F1F" stroke-width="1.5" stroke-linecap="round" stroke-linejoin="round"/>
<path d="M10.5853 16.4162C10.013 15.8439 9.84181 14.9833 10.1515 14.2357C10.4612 13.488 11.1908 13.0005 12 13.0005C12.8093 13.0005 13.5389 13.488 13.8486 14.2357C14.1583 14.9833 13.9871 15.8439 13.4148 16.4162C13.0396 16.7914 12.5307 17.0022 12 17.0022C11.4694 17.0022 10.9605 16.7914 10.5853 16.4162" stroke="#1F1F1F" stroke-width="1.5" stroke-linecap="round" stroke-linejoin="round"/>
<path d="M6.49777 17.0022V13.0005" stroke="#1F1F1F" stroke-width="1.5" stroke-linecap="round" stroke-linejoin="round"/>
<path d="M16.0016 8.99854H19.0029C19.5336 8.99839 20.0426 9.20914 20.4178 9.5844C20.7931 9.95967 21.0037 10.4687 21.0037 10.9994V19.0027C21.0037 19.5334 20.7931 20.0424 20.4178 20.4177C20.0426 20.7929 19.5336 21.0037 19.0029 21.0035H4.99705C4.46635 21.0037 3.95735 20.7929 3.58209 20.4177C3.20682 20.0424 2.99622 19.5334 2.99622 19.0027V10.9994C2.99622 10.4687 3.20682 9.95967 3.58209 9.5844C3.95735 9.20914 4.46635 8.99839 4.99705 8.99854H7.9983" stroke="#1F1F1F" stroke-width="1.5" stroke-linecap="round" stroke-linejoin="round"/>
<path d="M12 7.99818V2.99609" stroke="#1F1F1F" stroke-width="1.5" stroke-linecap="round" stroke-linejoin="round"/>
<path d="M14.0008 4.99693L12 2.99609L9.99915 4.99693" stroke="#1F1F1F" stroke-width="1.5" stroke-linecap="round" stroke-linejoin="round"/>
</svg>
