<svg width="24" height="24" viewBox="0 0 24 24" fill="none" xmlns="http://www.w3.org/2000/svg">
<path fill-rule="evenodd" clip-rule="evenodd" d="M7.55913 17.047L9.67702 16.5178C10.3805 16.3419 11.023 15.9781 11.5358 15.4654L16.4378 10.5633C16.8361 10.1655 17.06 9.62564 17.06 9.06269C17.06 8.49974 16.8361 7.95989 16.4378 7.56207V7.56207C16.04 7.16375 15.5002 6.93994 14.9372 6.93994C14.3743 6.93994 13.8344 7.16375 13.4366 7.56207L8.53454 12.4641C8.02179 12.9769 7.65802 13.6194 7.4821 14.3229L6.95288 16.4408C6.91047 16.6111 6.96044 16.7912 7.08457 16.9153C7.20869 17.0395 7.3888 17.0894 7.55913 17.047Z" stroke="#1F1F1F" stroke-width="1.5" stroke-linecap="round" stroke-linejoin="round"/>
<rect x="2.99625" y="2.99622" width="18.0075" height="18.0075" rx="5" stroke="#1F1F1F" stroke-width="1.5" stroke-linecap="round" stroke-linejoin="round"/>
<path d="M14.0008 17.002H17.0021" stroke="#1F1F1F" stroke-width="1.5" stroke-linecap="round" stroke-linejoin="round"/>
</svg>
