<svg width="24" height="24" viewBox="0 0 24 24" fill="none" xmlns="http://www.w3.org/2000/svg">
<path fill-rule="evenodd" clip-rule="evenodd" d="M7.5 3H16.504C18.987 3 21 5.013 21 7.496V16.505C21 18.987 18.987 21 16.504 21H7.496C5.013 21 3 18.987 3 16.504V7.5C3 5.015 5.015 3 7.5 3V3Z" stroke="#1F1F1F" stroke-width="1.5" stroke-linecap="round" stroke-linejoin="round"/>
<path d="M9.65101 14.3459C11.834 16.5299 14.6 17.9219 16.245 16.2839L16.644 15.8849C17.176 15.3539 17.102 14.4739 16.484 14.0449C16.095 13.7739 15.677 13.4829 15.215 13.1579C14.737 12.8219 14.082 12.8749 13.667 13.2859L13.216 13.7339C12.657 13.3799 12.104 12.9249 11.59 12.4119L11.588 12.4099C11.075 11.8969 10.62 11.3429 10.266 10.7839L10.714 10.3329C11.126 9.91894 11.177 9.26294 10.842 8.78494C10.516 8.32294 10.225 7.90494 9.95501 7.51594C9.52601 6.89894 8.64601 6.82494 8.11501 7.35594L7.71601 7.75494C6.07901 9.39994 7.47001 12.1639 9.65301 14.3489" stroke="#1F1F1F" stroke-width="1.5" stroke-linecap="round" stroke-linejoin="round"/>
</svg>
