<svg width="24" height="24" viewBox="0 0 24 24" fill="none" xmlns="http://www.w3.org/2000/svg">
<path d="M6.30005 18.5H10.7" stroke="#1F1F1F" stroke-width="1.5" stroke-linecap="round" stroke-linejoin="round"/>
<path d="M8.30005 14L6.30005 11.999L8.30005 10" stroke="#1F1F1F" stroke-width="1.5" stroke-linecap="round" stroke-linejoin="round"/>
<path d="M6.30005 12H10" stroke="#1F1F1F" stroke-width="1.5" stroke-linecap="round" stroke-linejoin="round"/>
<path fill-rule="evenodd" clip-rule="evenodd" d="M14 9H20C20.553 9 21 9.448 21 10V14C21 14.553 20.552 15 20 15H14C13.447 15 13 14.552 13 14V10C13 9.448 13.448 9 14 9Z" stroke="#1F1F1F" stroke-width="1.5" stroke-linecap="round" stroke-linejoin="round"/>
<path d="M14 18V19C14 20.105 13.105 21 12 21H5C3.895 21 3 20.105 3 19V5C3 3.895 3.895 3 5 3H12C13.105 3 14 3.895 14 5V6" stroke="#1F1F1F" stroke-width="1.5" stroke-linecap="round" stroke-linejoin="round"/>
</svg>
