<svg width="24" height="24" viewBox="0 0 24 24" fill="none" xmlns="http://www.w3.org/2000/svg">
<path d="M18.0025 15.7517H21.0038V18.753" stroke="#1F1F1F" stroke-width="1.5" stroke-linecap="round" stroke-linejoin="round"/>
<path d="M16.5349 4.07279C15.6345 3.55157 14.6371 3.18242 13.5746 2.99634" stroke="#1F1F1F" stroke-width="1.5" stroke-linecap="round" stroke-linejoin="round"/>
<path d="M20.5216 8.82586C20.1554 7.82145 19.6252 6.89806 18.9509 6.09473" stroke="#1F1F1F" stroke-width="1.5" stroke-linecap="round" stroke-linejoin="round"/>
<path d="M10.4254 2.99634C9.36291 3.18242 8.36649 3.55157 7.46512 4.07279" stroke="#1F1F1F" stroke-width="1.5" stroke-linecap="round" stroke-linejoin="round"/>
<path d="M5.04911 6.09473C4.37483 6.89806 3.84461 7.82145 3.47845 8.82586" stroke="#1F1F1F" stroke-width="1.5" stroke-linecap="round" stroke-linejoin="round"/>
<path d="M2.99625 12C2.99625 16.9731 7.02693 21.0037 12 21.0037C15.6315 21.0037 18.7538 18.8489 20.1774 15.7516" stroke="#1F1F1F" stroke-width="1.5" stroke-linecap="round" stroke-linejoin="round"/>
<path fill-rule="evenodd" clip-rule="evenodd" d="M12.6923 15.7257C12.3061 16.0939 11.6949 16.0939 11.3087 15.7257C10.2883 14.7523 8.49954 12.7825 8.49954 10.9387C8.49854 9.03793 10.0662 7.49829 12 7.49829C13.9338 7.49829 15.5015 9.03793 15.5015 10.9377C15.5015 12.7825 13.7127 14.7523 12.6923 15.7257Z" stroke="#1F1F1F" stroke-width="1.5" stroke-linecap="round" stroke-linejoin="round"/>
<path d="M11.999 10.8497C11.8609 10.8497 11.7489 10.9618 11.7499 11.0998C11.7499 11.2379 11.8619 11.3499 12 11.3499C12.1381 11.3499 12.2501 11.2379 12.2501 11.0998C12.2501 10.9618 12.1381 10.8497 11.999 10.8497" stroke="#1F1F1F" stroke-width="1.5" stroke-linecap="round" stroke-linejoin="round"/>
<path d="M2.99625 12C2.99625 16.9731 7.02693 21.0037 12 21.0037" stroke="#1F1F1F" stroke-width="1.5" stroke-linecap="round" stroke-linejoin="round"/>
</svg>
