<svg width="24" height="24" viewBox="0 0 24 24" fill="none" xmlns="http://www.w3.org/2000/svg">
<path fill-rule="evenodd" clip-rule="evenodd" d="M20.6236 16.9416L16.1551 15.4521C15.9554 15.3855 15.7352 15.4375 15.5863 15.5864C15.4375 15.7352 15.3855 15.9554 15.4521 16.1551L16.9416 20.6236C17.0102 20.8295 17.1925 20.9767 17.4082 21.0003C17.624 21.024 17.8338 20.9199 17.9454 20.7338L18.8481 19.2294C18.942 19.0729 19.0729 18.942 19.2294 18.8481L20.7338 17.9454C20.9199 17.8338 21.024 17.624 21.0003 17.4082C20.9766 17.1925 20.8295 17.0103 20.6236 16.9416Z" stroke="#1F1F1F" stroke-width="1.5" stroke-linecap="round" stroke-linejoin="round"/>
<path d="M20.7184 20.7186L19.0153 19.0154" stroke="#1F1F1F" stroke-width="1.5" stroke-linecap="round" stroke-linejoin="round"/>
<path d="M12.3812 19.0511L12.9374 18.5099L12.3812 19.0511" stroke="#1F1F1F" stroke-width="1.5" stroke-linecap="round" stroke-linejoin="round"/>
<path d="M10.9996 15.7157L11.7759 15.7047L10.9996 15.7157" stroke="#1F1F1F" stroke-width="1.5" stroke-linecap="round" stroke-linejoin="round"/>
<path d="M19.0509 12.3813L18.5097 12.9375L19.0509 12.3813" stroke="#1F1F1F" stroke-width="1.5" stroke-linecap="round" stroke-linejoin="round"/>
<path d="M12.3812 12.3812L12.9374 12.9214L12.3812 12.3812" stroke="#1F1F1F" stroke-width="1.5" stroke-linecap="round" stroke-linejoin="round"/>
<path d="M15.716 10.9997L15.726 11.7756" stroke="#1F1F1F" stroke-width="1.5" stroke-linecap="round" stroke-linejoin="round"/>
<path d="M2.99625 7.9985H21.0037" stroke="#1F1F1F" stroke-width="1.5" stroke-linecap="round" stroke-linejoin="round"/>
<path d="M10.8655 5.49228L10.8605 5.49728L10.8655 5.50228L10.8705 5.49728L10.8655 5.49228" stroke="#1F1F1F" stroke-width="1.5" stroke-linecap="round" stroke-linejoin="round"/>
<path d="M8.32546 5.49228L8.32046 5.49728L8.32546 5.50228L8.33047 5.49728L8.32546 5.49228" stroke="#1F1F1F" stroke-width="1.5" stroke-linecap="round" stroke-linejoin="round"/>
<path d="M5.77639 5.48739L5.77139 5.4924L5.77639 5.4974L5.78139 5.4924L5.77639 5.48739" stroke="#1F1F1F" stroke-width="1.5" stroke-linecap="round" stroke-linejoin="round"/>
<path d="M9.99916 21.0038H4.99708C4.46638 21.0038 3.95738 20.7932 3.58212 20.418C3.20686 20.0427 2.99625 19.5337 2.99625 19.003V4.99717C2.99625 4.46647 3.20686 3.95747 3.58212 3.58221C3.95738 3.20695 4.46638 2.99634 4.99708 2.99634H19.0029C19.5336 2.99634 20.0426 3.20695 20.4179 3.58221C20.7931 3.95747 21.0037 4.46647 21.0037 4.99717V9.99925" stroke="#1F1F1F" stroke-width="1.5" stroke-linecap="round" stroke-linejoin="round"/>
</svg>
