<svg width="24" height="24" viewBox="0 0 24 24" fill="none" xmlns="http://www.w3.org/2000/svg">
<path d="M7 19H17" stroke="#1F1F1F" stroke-width="1.5" stroke-linecap="round" stroke-linejoin="round"/>
<path fill-rule="evenodd" clip-rule="evenodd" d="M20 21H18C17.448 21 17 20.552 17 20V18C17 17.448 17.448 17 18 17H20C20.552 17 21 17.448 21 18V20C21 20.552 20.552 21 20 21Z" stroke="#1F1F1F" stroke-width="1.5" stroke-linecap="round" stroke-linejoin="round"/>
<path fill-rule="evenodd" clip-rule="evenodd" d="M6 21H4C3.448 21 3 20.552 3 20V18C3 17.448 3.448 17 4 17H6C6.552 17 7 17.448 7 18V20C7 20.552 6.552 21 6 21Z" stroke="#1F1F1F" stroke-width="1.5" stroke-linecap="round" stroke-linejoin="round"/>
<path d="M19 17V7" stroke="#1F1F1F" stroke-width="1.5" stroke-linecap="round" stroke-linejoin="round"/>
<path d="M5 7V17" stroke="#1F1F1F" stroke-width="1.5" stroke-linecap="round" stroke-linejoin="round"/>
<path d="M17 5H7" stroke="#1F1F1F" stroke-width="1.5" stroke-linecap="round" stroke-linejoin="round"/>
<path fill-rule="evenodd" clip-rule="evenodd" d="M20 7H18C17.448 7 17 6.552 17 6V4C17 3.448 17.448 3 18 3H20C20.552 3 21 3.448 21 4V6C21 6.552 20.552 7 20 7Z" stroke="#1F1F1F" stroke-width="1.5" stroke-linecap="round" stroke-linejoin="round"/>
<path fill-rule="evenodd" clip-rule="evenodd" d="M6 7H4C3.448 7 3 6.552 3 6V4C3 3.448 3.448 3 4 3H6C6.552 3 7 3.448 7 4V6C7 6.552 6.552 7 6 7Z" stroke="#1F1F1F" stroke-width="1.5" stroke-linecap="round" stroke-linejoin="round"/>
</svg>
