<svg width="24" height="24" viewBox="0 0 24 24" fill="none" xmlns="http://www.w3.org/2000/svg">
<path d="M20.0489 9.99925V7.49821C20.0489 5.0119 18.1402 2.99634 15.7857 2.99634H7.2594C4.90493 2.99634 2.99625 5.0119 2.99625 7.49821V16.502C2.99625 18.9883 4.90493 21.0038 7.2594 21.0038H9.62783" stroke="#1F1F1F" stroke-width="1.5" stroke-linecap="round" stroke-linejoin="round"/>
<path d="M13.3609 15.5967V19.6534C13.3609 20.3993 13.9335 21.0039 14.6399 21.0039H18.903C19.2422 21.0039 19.5675 20.8616 19.8074 20.6084C20.0472 20.3551 20.182 20.0116 20.182 19.6534V15.6615" stroke="#1F1F1F" stroke-width="1.5" stroke-linecap="round" stroke-linejoin="round"/>
<path d="M20.9963 16.3493L17.2657 13.1978C16.9543 12.9347 16.5119 12.9347 16.2005 13.1978L12.4699 16.3493" stroke="#1F1F1F" stroke-width="1.5" stroke-linecap="round" stroke-linejoin="round"/>
<path d="M10.5752 12.0002H12.4699" stroke="#1F1F1F" stroke-width="1.5" stroke-linecap="round" stroke-linejoin="round"/>
<path d="M6.78573 12.2503C6.72366 12.2511 6.66384 12.2258 6.61943 12.1801C6.57501 12.1343 6.54963 12.0717 6.54888 12.0062V12.0002C6.54888 11.8621 6.65492 11.7501 6.78573 11.7501C6.91653 11.7501 7.02257 11.8621 7.02257 12.0002C7.02257 12.1383 6.91653 12.2503 6.78573 12.2503" stroke="#1F1F1F" stroke-width="1.5" stroke-linecap="round" stroke-linejoin="round"/>
<path d="M10.5752 7.9985H16.2594" stroke="#1F1F1F" stroke-width="1.5" stroke-linecap="round" stroke-linejoin="round"/>
<path d="M6.78573 8.24859C6.72366 8.2494 6.66384 8.22413 6.61943 8.17835C6.57501 8.13257 6.54963 8.07003 6.54888 8.00449V7.9985C6.54888 7.86036 6.65492 7.74839 6.78573 7.74839C6.91653 7.74839 7.02257 7.86036 7.02257 7.9985C7.02257 8.13662 6.91653 8.24859 6.78573 8.24859" stroke="#1F1F1F" stroke-width="1.5" stroke-linecap="round" stroke-linejoin="round"/>
</svg>
