<svg width="24" height="24" viewBox="0 0 24 24" fill="none" xmlns="http://www.w3.org/2000/svg">
<path d="M17.0021 21.0036H18.0025C19.66 21.0036 21.0037 19.6599 21.0037 18.0023V5.99734C21.0037 4.3398 19.66 2.99609 18.0025 2.99609H5.9975C4.33995 2.99609 2.99625 4.3398 2.99625 5.99734V6.99776" stroke="#1F1F1F" stroke-width="1.5" stroke-linecap="round" stroke-linejoin="round"/>
<path d="M6.99792 2.99609V4.99691" stroke="#1F1F1F" stroke-width="1.5" stroke-linecap="round" stroke-linejoin="round"/>
<path d="M11.4998 2.99609V4.99691" stroke="#1F1F1F" stroke-width="1.5" stroke-linecap="round" stroke-linejoin="round"/>
<path d="M16.0016 2.99609V4.99691" stroke="#1F1F1F" stroke-width="1.5" stroke-linecap="round" stroke-linejoin="round"/>
<path d="M21.0037 8.99874H19.0029" stroke="#1F1F1F" stroke-width="1.5" stroke-linecap="round" stroke-linejoin="round"/>
<path d="M21.0037 13.0002H19.0029" stroke="#1F1F1F" stroke-width="1.5" stroke-linecap="round" stroke-linejoin="round"/>
<path d="M21.0037 17.0022H19.0029" stroke="#1F1F1F" stroke-width="1.5" stroke-linecap="round" stroke-linejoin="round"/>
<path fill-rule="evenodd" clip-rule="evenodd" d="M4.70416 11.2945L12.7054 19.2958C12.9916 19.5819 13.0772 20.0123 12.9224 20.3861C12.7675 20.76 12.4027 21.0037 11.998 21.0037H3.99672C3.44421 21.0037 2.99631 20.5558 2.99631 20.0033V12.002C2.99631 11.5973 3.24003 11.2325 3.61388 11.0776C3.98772 10.9228 4.41804 11.0084 4.70416 11.2945Z" stroke="#1F1F1F" stroke-width="1.5" stroke-linecap="round" stroke-linejoin="round"/>
</svg>
