<svg width="24" height="24" viewBox="0 0 24 24" fill="none" xmlns="http://www.w3.org/2000/svg">
<path d="M6.99791 21.0039V21.0039C4.78785 21.0039 2.99625 19.2123 2.99625 17.0022V17.0022" stroke="#1F1F1F" stroke-width="1.5" stroke-linecap="round" stroke-linejoin="round"/>
<path d="M9.99915 2.9963H14.0008" stroke="#1F1F1F" stroke-width="1.5" stroke-linecap="round" stroke-linejoin="round"/>
<path d="M2.99624 9.99927V14.0009" stroke="#1F1F1F" stroke-width="1.5" stroke-linecap="round" stroke-linejoin="round"/>
<path d="M21.0037 15.5016C21.0037 18.5404 18.5403 21.0039 15.5014 21.0039C12.4626 21.0039 9.99915 18.5404 9.99915 15.5016C9.99915 12.4627 12.4626 9.99927 15.5014 9.99927C18.5403 9.99927 21.0037 12.4627 21.0037 15.5016" stroke="#1F1F1F" stroke-width="1.5" stroke-linecap="round" stroke-linejoin="round"/>
<path d="M15.5015 15.4514C15.4738 15.4514 15.4514 15.4738 15.4514 15.5014C15.4514 15.5291 15.4738 15.5514 15.5015 15.5514C15.5291 15.5514 15.5515 15.5291 15.5515 15.5014C15.5515 15.4738 15.5291 15.4514 15.5015 15.4514" stroke="#1F1F1F" stroke-width="1.5" stroke-linecap="round" stroke-linejoin="round"/>
<path d="M17.9475 15.4514C17.9198 15.4514 17.8975 15.4738 17.8975 15.5014C17.8975 15.5291 17.9198 15.5514 17.9475 15.5514C17.9751 15.5514 17.9975 15.5291 17.9975 15.5014C17.9975 15.4738 17.9751 15.4514 17.9475 15.4514" stroke="#1F1F1F" stroke-width="1.5" stroke-linecap="round" stroke-linejoin="round"/>
<path d="M13.0564 15.4514C13.0288 15.4514 13.0064 15.4738 13.0064 15.5014C13.0064 15.5291 13.0288 15.5514 13.0564 15.5514C13.084 15.5514 13.1064 15.5291 13.1064 15.5014C13.1064 15.4738 13.084 15.4514 13.0564 15.4514" stroke="#1F1F1F" stroke-width="1.5" stroke-linecap="round" stroke-linejoin="round"/>
<path d="M6.99791 21.0036C4.78785 21.0036 2.99625 19.212 2.99625 17.002" stroke="#1F1F1F" stroke-width="1.5" stroke-linecap="round" stroke-linejoin="round"/>
<path d="M17.0021 2.99609C19.2121 2.99609 21.0037 4.7877 21.0037 6.99776" stroke="#1F1F1F" stroke-width="1.5" stroke-linecap="round" stroke-linejoin="round"/>
<path d="M2.99625 6.99776C2.99625 4.7877 4.78785 2.99609 6.99791 2.99609" stroke="#1F1F1F" stroke-width="1.5" stroke-linecap="round" stroke-linejoin="round"/>
</svg>
