<svg width="25" height="25" viewBox="0 0 25 25" fill="none" xmlns="http://www.w3.org/2000/svg">
<path d="M10.4959 9.06682C10.3291 9.26158 10.0781 9.31984 9.86012 9.21445C9.64211 9.10905 9.49998 8.86074 9.5 8.58533C9.4998 8.4047 9.56129 8.23142 9.67084 8.10384L12.5877 4.69941C12.8156 4.43353 13.185 4.43353 13.4128 4.69941L16.3297 8.10384C16.557 8.36987 16.5567 8.80047 16.3291 9.06612C16.1015 9.33176 15.7326 9.33208 15.5046 9.06682L13.0003 6.1438L10.4959 9.06682L9.49999 16.4147C9.49997 16.1393 9.64211 15.8909 9.86012 15.7855C10.0781 15.6801 10.3291 15.7384 10.4959 15.9332L13.0003 18.8562L15.5046 15.9332C15.7326 15.6679 16.1015 15.6682 16.3291 15.9339C16.5567 16.1995 16.557 16.6301 16.3297 16.8962L13.4128 20.3006C13.185 20.5665 12.8156 20.5665 12.5877 20.3006L9.67084 16.8962C9.56128 16.7686 9.4998 16.5953 9.49999 16.4147L10.4959 9.06682Z" fill="#1F1F1F"/>
<mask id="mask0_102_7349" style="mask-type:luminance" maskUnits="userSpaceOnUse" x="9" y="4" width="8" height="17">
<path d="M10.4959 9.06682C10.3291 9.26158 10.0781 9.31984 9.86012 9.21445C9.64211 9.10905 9.49998 8.86074 9.5 8.58533C9.4998 8.4047 9.56129 8.23142 9.67084 8.10384L12.5877 4.69941C12.8156 4.43353 13.185 4.43353 13.4128 4.69941L16.3297 8.10384C16.557 8.36987 16.5567 8.80047 16.3291 9.06612C16.1015 9.33176 15.7326 9.33208 15.5046 9.06682L13.0003 6.1438L10.4959 9.06682L9.49999 16.4147C9.49997 16.1393 9.64211 15.8909 9.86012 15.7855C10.0781 15.6801 10.3291 15.7384 10.4959 15.9332L13.0003 18.8562L15.5046 15.9332C15.7326 15.6679 16.1015 15.6682 16.3291 15.9339C16.5567 16.1995 16.557 16.6301 16.3297 16.8962L13.4128 20.3006C13.185 20.5665 12.8156 20.5665 12.5877 20.3006L9.67084 16.8962C9.56128 16.7686 9.4998 16.5953 9.49999 16.4147L10.4959 9.06682Z" fill="white"/>
</mask>
<g mask="url(#mask0_102_7349)">
</g>
</svg>
