<svg width="24" height="24" viewBox="0 0 24 24" fill="none" xmlns="http://www.w3.org/2000/svg">
<path d="M21.0037 11.9998V16.0015C21.0037 18.7641 18.7642 21.0036 16.0016 21.0036H7.9983C5.23572 21.0036 2.99622 18.7641 2.99622 16.0015V7.99818C2.99622 5.2356 5.23572 2.99609 7.9983 2.99609H10.9995" stroke="#6F685D" stroke-width="1.5" stroke-linecap="round" stroke-linejoin="round"/>
<path fill-rule="evenodd" clip-rule="evenodd" d="M15.9707 4.57396C13.1407 4.89489 11.0018 7.28811 10.9996 10.1363V10.4904C12.2296 9.00852 14.0452 8.13743 15.9707 8.10543V9.97421C15.9708 10.2454 16.1258 10.4928 16.3698 10.6112C16.6139 10.7296 16.9041 10.6982 17.1172 10.5304L21.7441 6.87592C21.9085 6.74656 22.0045 6.54891 22.0045 6.33969C22.0045 6.13048 21.9085 5.93283 21.7441 5.80347L17.1172 2.14995C16.9044 1.98142 16.614 1.9495 16.3697 2.0678C16.1254 2.1861 15.9704 2.43376 15.9707 2.70518V4.57396Z" stroke="#6F685D" stroke-width="1.5" stroke-linecap="round" stroke-linejoin="round"/>
</svg>
