<svg width="24" height="24" viewBox="0 0 24 24" fill="none" xmlns="http://www.w3.org/2000/svg">
<path fill-rule="evenodd" clip-rule="evenodd" d="M10 10.4468H14C14.55 10.4468 15 10.8968 15 11.4468V14.4998C15 15.0518 14.552 15.4998 14 15.4998H10C9.448 15.4998 9 15.0518 9 14.4998V11.4468C9 10.8948 9.448 10.4468 10 10.4468Z" stroke="#1F1F1F" stroke-width="1.5" stroke-linecap="round" stroke-linejoin="round"/>
<path d="M10.316 10.447V9.184C10.316 8.254 11.07 7.5 12 7.5C12.93 7.5 13.684 8.254 13.684 9.184V10.445" stroke="#1F1F1F" stroke-width="1.5" stroke-linecap="round" stroke-linejoin="round"/>
<path fill-rule="evenodd" clip-rule="evenodd" d="M5.973 5.06724L11.315 3.12124C11.757 2.96024 12.242 2.96024 12.684 3.12124L18.026 5.06724C19.212 5.49924 20 6.62524 20 7.88624V12.7582C20 16.3392 18.172 17.8082 12.995 20.7392C12.378 21.0882 11.622 21.0882 11.005 20.7392C5.828 17.8082 4 16.3392 4 12.7582V7.88624C4 6.62524 4.788 5.49924 5.973 5.06724Z" stroke="#1F1F1F" stroke-width="1.5" stroke-linecap="round" stroke-linejoin="round"/>
</svg>
