<svg width="24" height="24" viewBox="0 0 24 24" fill="none" xmlns="http://www.w3.org/2000/svg">
<path d="M10.5068 12.4942C10.5038 12.4942 10.501 12.496 10.4999 12.4988C10.4987 12.5016 10.4994 12.5048 10.5015 12.507C10.5037 12.5091 10.5069 12.5097 10.5097 12.5086C10.5125 12.5074 10.5143 12.5047 10.5143 12.5017C10.5144 12.4997 10.5137 12.4977 10.5122 12.4962C10.5108 12.4948 10.5088 12.4941 10.5068 12.4942" stroke="#1F1F1F" stroke-width="1.5" stroke-linecap="round" stroke-linejoin="round"/>
<path d="M21.0037 12C21.0037 16.9726 16.9726 21.0037 12 21.0037" stroke="#1F1F1F" stroke-width="1.5" stroke-linecap="round" stroke-linejoin="round"/>
<path d="M2.99622 11.9998C2.99622 7.02721 7.02733 2.99609 12 2.99609" stroke="#1F1F1F" stroke-width="1.5" stroke-linecap="round" stroke-linejoin="round"/>
<path d="M2.99622 12.0002C2.99636 13.0549 3.18394 14.1011 3.55021 15.0901C3.71772 15.5494 4.18999 15.823 4.67177 15.7398L5.65837 15.5658C6.45578 15.4252 6.99784 14.6773 6.88333 13.8758L6.58639 11.7972C6.5289 11.3948 6.31063 11.0329 5.98151 10.7944C5.65239 10.5558 5.24058 10.461 4.84027 10.5316L3.07895 10.8422" stroke="#1F1F1F" stroke-width="1.5" stroke-linecap="round" stroke-linejoin="round"/>
<path d="M21.0037 11.9998C21.0037 7.02721 16.9726 2.99609 12 2.99609" stroke="#1F1F1F" stroke-width="1.5" stroke-linecap="round" stroke-linejoin="round"/>
<path d="M13.4931 12.4913C13.4901 12.4913 13.4874 12.4931 13.4862 12.4959C13.4851 12.4987 13.4857 12.5019 13.4878 12.504C13.49 12.5062 13.4932 12.5068 13.496 12.5057C13.4988 12.5045 13.5006 12.5018 13.5006 12.4987C13.5007 12.4967 13.5 12.4948 13.4985 12.4933C13.4971 12.4919 13.4951 12.4912 13.4931 12.4913" stroke="#1F1F1F" stroke-width="1.5" stroke-linecap="round" stroke-linejoin="round"/>
<path d="M21.0037 12.0002C21.0036 13.0549 20.816 14.1011 20.4497 15.0901C20.2822 15.5494 19.8099 15.823 19.3281 15.7398L18.3415 15.5658C17.5441 15.4252 17.0021 14.6773 17.1166 13.8758L17.4135 11.7972C17.471 11.3948 17.6893 11.0329 18.0184 10.7944C18.3475 10.5558 18.7593 10.461 19.1596 10.5316L20.921 10.8422" stroke="#1F1F1F" stroke-width="1.5" stroke-linecap="round" stroke-linejoin="round"/>
</svg>
