<svg width="24" height="24" viewBox="0 0 24 24" fill="none" xmlns="http://www.w3.org/2000/svg">
<rect x="3" y="3" width="18" height="18" rx="5" stroke="#1F1F1F" stroke-width="1.5" stroke-linecap="round" stroke-linejoin="round"/>
<path fill-rule="evenodd" clip-rule="evenodd" d="M9.17683 12.1139L6.81684 14.4789C6.61306 14.6843 6.4984 14.9618 6.49771 15.2512V16.4087C6.49771 17.0126 6.98727 17.5021 7.59117 17.5021H8.75365C9.04389 17.5023 9.32221 17.3867 9.52697 17.181L11.882 14.821C12.3132 14.9713 12.7659 15.0507 13.2225 15.0561C15.121 15.0877 16.8209 13.8851 17.4231 12.0843C18.0252 10.2836 17.3907 8.30033 15.8551 7.18357C14.3195 6.06681 12.2372 6.07427 10.7096 7.202C9.18209 8.32973 8.56178 10.3175 9.17683 12.1139V12.1139Z" stroke="#1F1F1F" stroke-width="1.5" stroke-linecap="round" stroke-linejoin="round"/>
<path d="M13.2225 10.7275C13.1949 10.7275 13.1725 10.7499 13.1725 10.7776C13.1725 10.8052 13.1949 10.8276 13.2225 10.8276C13.2501 10.8276 13.2725 10.8052 13.2725 10.7776C13.2725 10.7499 13.2501 10.7275 13.2225 10.7275" stroke="#1F1F1F" stroke-width="1.5" stroke-linecap="round" stroke-linejoin="round"/>
</svg>
