<svg width="24" height="24" viewBox="0 0 24 24" fill="none" xmlns="http://www.w3.org/2000/svg">
<path d="M10 2H14" stroke="#1F1F1F" stroke-width="1.5" stroke-linecap="round" stroke-linejoin="round"/>
<path d="M17.6569 7.34314C20.7811 10.4673 20.7811 15.5327 17.6569 18.6568C14.5327 21.781 9.46739 21.781 6.3432 18.6568C3.21901 15.5327 3.21901 10.4673 6.3432 7.34314C9.46739 4.21895 14.5327 4.21895 17.6569 7.34314" stroke="#1F1F1F" stroke-width="1.5" stroke-linecap="round" stroke-linejoin="round"/>
<path d="M11.999 7.9999C11.864 7.9999 11.755 8.1089 11.756 8.2439C11.756 8.3789 11.865 8.4879 12 8.4879C12.135 8.4879 12.244 8.3789 12.244 8.2439C12.244 8.1089 12.135 7.9999 11.999 7.9999" stroke="#1F1F1F" stroke-width="1.625" stroke-linecap="round" stroke-linejoin="round"/>
<path d="M11.999 17.5121C11.864 17.5121 11.755 17.6211 11.756 17.7561C11.756 17.8911 11.865 18.0001 12 18.0001C12.135 18.0001 12.244 17.8911 12.244 17.7561C12.244 17.6211 12.135 17.5121 11.999 17.5121" stroke="#1F1F1F" stroke-width="1.625" stroke-linecap="round" stroke-linejoin="round"/>
<path d="M17 12.999C17 12.864 16.891 12.755 16.756 12.756C16.621 12.756 16.512 12.865 16.512 13C16.512 13.135 16.621 13.244 16.756 13.244C16.891 13.244 17 13.135 17 12.999" stroke="#1F1F1F" stroke-width="1.625" stroke-linecap="round" stroke-linejoin="round"/>
<path d="M7.48802 12.999C7.48802 12.864 7.37902 12.755 7.24402 12.756C7.10902 12.756 7.00002 12.865 7.00002 13C7.00002 13.135 7.10902 13.244 7.24402 13.244C7.37902 13.244 7.48802 13.135 7.48802 12.999" stroke="#1F1F1F" stroke-width="1.625" stroke-linecap="round" stroke-linejoin="round"/>
<path d="M15.535 9.4639C15.44 9.3689 15.285 9.3689 15.191 9.4649C15.096 9.5599 15.096 9.7149 15.191 9.8099C15.286 9.9049 15.441 9.9049 15.536 9.8099C15.631 9.7139 15.631 9.5599 15.535 9.4639" stroke="#1F1F1F" stroke-width="1.625" stroke-linecap="round" stroke-linejoin="round"/>
<path d="M8.80901 16.19C8.71401 16.095 8.55901 16.095 8.46501 16.191C8.37001 16.286 8.37001 16.441 8.46501 16.536C8.56001 16.631 8.71501 16.631 8.81001 16.536C8.90501 16.441 8.90501 16.286 8.80901 16.19" stroke="#1F1F1F" stroke-width="1.625" stroke-linecap="round" stroke-linejoin="round"/>
<path d="M15.536 16.5351C15.631 16.4401 15.631 16.2851 15.535 16.1911C15.44 16.0961 15.285 16.0961 15.19 16.1911C15.095 16.2861 15.095 16.4411 15.19 16.5361C15.286 16.6311 15.44 16.6311 15.536 16.5351" stroke="#1F1F1F" stroke-width="1.625" stroke-linecap="round" stroke-linejoin="round"/>
<path d="M8.80999 9.80901C8.90499 9.71401 8.90499 9.55901 8.80899 9.46501C8.71399 9.37001 8.55899 9.37001 8.46399 9.46501C8.36899 9.56001 8.36899 9.71501 8.46399 9.81001C8.55899 9.90501 8.71399 9.90501 8.80999 9.80901" stroke="#1F1F1F" stroke-width="1.625" stroke-linecap="round" stroke-linejoin="round"/>
</svg>
