<svg width="24" height="24" viewBox="0 0 24 24" fill="none" xmlns="http://www.w3.org/2000/svg">
<path fill-rule="evenodd" clip-rule="evenodd" d="M11.4998 12.0001L7.99835 8.49865L11.4998 12.0001ZM5.39726 5.89757C2.51286 9.02939 2.21942 13.7545 4.69416 17.2192C7.1689 20.6838 11.7338 21.9387 15.6318 20.226C19.5298 18.5132 21.693 14.302 20.8148 10.1359C19.9366 5.96971 16.2577 2.98998 12 2.99635V6.99802" fill="#D8D8D8" fill-opacity="0.01"/>
<path d="M10.9695 12.5304C11.2624 12.8233 11.7372 12.8233 12.0301 12.5304C12.323 12.2375 12.323 11.7627 12.0301 11.4698L10.9695 12.5304ZM8.52868 7.96832C8.23578 7.67543 7.76091 7.67543 7.46802 7.96832C7.17512 8.26121 7.17512 8.73609 7.46802 9.02898L8.52868 7.96832ZM5.94894 6.40566C6.22955 6.10098 6.21003 5.6265 5.90535 5.34589C5.60067 5.06528 5.1262 5.08479 4.84559 5.38948L5.94894 6.40566ZM4.69416 17.2192L4.08386 17.6551L4.69416 17.2192ZM15.6318 20.226L15.9335 20.9126L15.6318 20.226ZM12 2.99635L11.9989 2.24635C11.5851 2.24697 11.25 2.58257 11.25 2.99635H12ZM11.25 6.99802C11.25 7.41224 11.5858 7.74802 12 7.74802C12.4142 7.74802 12.75 7.41224 12.75 6.99802H11.25ZM12.0301 11.4698L8.52868 7.96832L7.46802 9.02898L10.9695 12.5304L12.0301 11.4698ZM7.46802 9.02898L10.9695 12.5304L12.0301 11.4698L8.52868 7.96832L7.46802 9.02898ZM4.84559 5.38948C1.72068 8.78243 1.40277 13.9016 4.08386 17.6551L5.30446 16.7833C3.03607 13.6075 3.30504 9.27634 5.94894 6.40566L4.84559 5.38948ZM4.08386 17.6551C6.76495 21.4086 11.7105 22.7682 15.9335 20.9126L15.3301 19.5393C11.7571 21.1093 7.57285 19.959 5.30446 16.7833L4.08386 17.6551ZM15.9335 20.9126C20.1566 19.057 22.5001 14.4947 21.5487 9.98117L20.0809 10.2906C20.8859 14.1093 18.9031 17.9694 15.3301 19.5393L15.9335 20.9126ZM21.5487 9.98117C20.5973 5.46763 16.6116 2.23945 11.9989 2.24635L12.0011 3.74635C15.9038 3.74051 19.276 6.47178 20.0809 10.2906L21.5487 9.98117ZM11.25 2.99635V6.99802H12.75V2.99635H11.25Z" fill="#1F1F1F"/>
</svg>
