<svg width="24" height="24" viewBox="0 0 24 24" fill="none" xmlns="http://www.w3.org/2000/svg">
<path d="M21 20.4855H9" stroke="#1F1F1F" stroke-width="1.5" stroke-linecap="round" stroke-linejoin="round"/>
<path d="M4.749 20.2283C4.61106 20.2289 4.49963 20.3443 4.5 20.4862C4.50037 20.628 4.61239 20.7428 4.75033 20.7426C4.88827 20.7424 5 20.6274 5 20.4855C5.00027 20.417 4.97388 20.3513 4.92672 20.303C4.87956 20.2547 4.81556 20.2278 4.749 20.2283" stroke="#1F1F1F" stroke-width="1.5" stroke-linecap="round" stroke-linejoin="round"/>
<path d="M21 15.3429H9" stroke="#1F1F1F" stroke-width="1.5" stroke-linecap="round" stroke-linejoin="round"/>
<path d="M4.749 15.0858C4.61106 15.0863 4.49963 15.2017 4.5 15.3436C4.50037 15.4855 4.61239 15.6002 4.75033 15.6C4.88827 15.5999 5 15.4848 5 15.3429C5.00027 15.2744 4.97388 15.2087 4.92672 15.1604C4.87956 15.1121 4.81556 15.0852 4.749 15.0858" stroke="#1F1F1F" stroke-width="1.5" stroke-linecap="round" stroke-linejoin="round"/>
<path d="M15 10.1998H21" stroke="#1F1F1F" stroke-width="1.5" stroke-linecap="round" stroke-linejoin="round"/>
<path d="M15 5.05725H21" stroke="#1F1F1F" stroke-width="1.5" stroke-linecap="round" stroke-linejoin="round"/>
<circle cx="7.5" cy="7.5" r="4.5" stroke="#1F1F1F" stroke-width="1.5" stroke-linecap="round" stroke-linejoin="round"/>
<path d="M7.5 7.95557V9.49842" stroke="#1F1F1F" stroke-width="1.5" stroke-linecap="round" stroke-linejoin="round"/>
<path d="M7.5 5.79147C7.47239 5.79147 7.45 5.8145 7.45 5.8429C7.45 5.8713 7.47239 5.89433 7.5 5.89433C7.52761 5.89433 7.55 5.8713 7.55 5.8429C7.55 5.8145 7.52761 5.79147 7.5 5.79147" stroke="#1F1F1F" stroke-width="1.5" stroke-linecap="round" stroke-linejoin="round"/>
</svg>
