<svg width="24" height="24" viewBox="0 0 24 24" fill="none" xmlns="http://www.w3.org/2000/svg">
<path d="M14.363 12.7962C13.064 12.2772 11.54 11.9912 10 11.9912C5.952 11.9912 2 13.9582 2 16.9832V17.9832C2 18.5352 2.448 18.9832 3 18.9832H12.413" stroke="#1F1F1F" stroke-width="1.5" stroke-linecap="round" stroke-linejoin="round"/>
<path d="M17 22C14.239 22 12 19.762 12 17C12 14.296 14.3 11.997 17.004 12C19.764 12.002 22 14.24 22 17C22 19.761 19.762 22 17 22" stroke="#1F1F1F" stroke-width="1.5" stroke-linecap="round" stroke-linejoin="round"/>
<path d="M17.001 19.2498C17.078 19.2498 17.14 19.1878 17.139 19.1108C17.139 19.0338 17.077 18.9718 17 18.9718C16.923 18.9718 16.861 19.0338 16.861 19.1108C16.861 19.1878 16.923 19.2498 17.001 19.2498" stroke="#1F1F1F" stroke-width="1.5" stroke-linecap="round" stroke-linejoin="round"/>
<path d="M17 16.7798V14.7798" stroke="#1F1F1F" stroke-width="1.5" stroke-linecap="round" stroke-linejoin="round"/>
<path d="M12.4692 3.02278C13.8329 4.38649 13.8329 6.5975 12.4692 7.96121C11.1055 9.32492 8.89449 9.32492 7.53078 7.96121C6.16707 6.5975 6.16707 4.38649 7.53078 3.02278C8.89449 1.65907 11.1055 1.65907 12.4692 3.02278" stroke="#1F1F1F" stroke-width="1.5" stroke-linecap="round" stroke-linejoin="round"/>
</svg>
