<svg width="24" height="24" viewBox="0 0 24 24" fill="none" xmlns="http://www.w3.org/2000/svg">
<path fill-rule="evenodd" clip-rule="evenodd" d="M14.275 14.5H12.866V9.5H14.275C15.338 9.5 16.2 10.362 16.2 11.425V12.576C16.199 13.638 15.338 14.5 14.275 14.5V14.5Z" stroke="#1F1F1F" stroke-width="1.5" stroke-linecap="round" stroke-linejoin="round"/>
<path d="M7.80103 10.46C7.96003 9.91 8.44603 9.5 9.04703 9.5C9.77503 9.5 10.366 10.09 10.366 10.819C10.366 11.471 9.83703 12 9.18503 12C9.83703 12 10.366 12.529 10.366 13.181C10.366 13.909 9.77603 14.5 9.04703 14.5C8.44603 14.5 7.96003 14.09 7.80103 13.54" stroke="#1F1F1F" stroke-width="1.5" stroke-linecap="round" stroke-linejoin="round"/>
<path d="M10.1149 5.54416L8.63794 4.06616C11.7759 2.73816 15.5389 3.34716 18.0959 5.90516C21.2039 9.01316 21.4359 13.9002 18.8049 17.2812" stroke="#1F1F1F" stroke-width="1.5" stroke-linecap="round" stroke-linejoin="round"/>
<path d="M5.19499 6.71875C2.56499 10.1007 2.79599 14.9878 5.90399 18.0948C8.46099 20.6518 12.224 21.2618 15.362 19.9338L13.884 18.4558" stroke="#1F1F1F" stroke-width="1.5" stroke-linecap="round" stroke-linejoin="round"/>
</svg>
