<svg width="24" height="24" viewBox="0 0 24 24" fill="none" xmlns="http://www.w3.org/2000/svg">
<path d="M13.9746 7.02499C15.3418 8.39226 15.3418 10.6073 13.9746 11.9745C12.6074 13.3418 10.3926 13.3418 9.02538 11.9745C7.65821 10.6073 7.65821 8.39226 9.02538 7.02499C10.3926 5.65772 12.6087 5.65895 13.9746 7.02499" stroke="#1F1F1F" stroke-width="1.4286" stroke-linecap="round" stroke-linejoin="round"/>
<path d="M17.5 22C15.0149 22 13 19.9851 13 17.5C13 15.0149 15.0149 13 17.5 13C19.9863 13 22 15.0149 22 17.5C22 19.9851 19.9863 22 17.5 22" stroke="#1F1F1F" stroke-width="1.5" stroke-linecap="round" stroke-linejoin="round"/>
<path d="M17.5 16V19" stroke="#1F1F1F" stroke-width="1.5" stroke-linecap="round" stroke-linejoin="round"/>
<path d="M19 17.5H16" stroke="#1F1F1F" stroke-width="1.5" stroke-linecap="round" stroke-linejoin="round"/>
<path d="M18.5 13C19.4411 11.9914 20.2196 11.243 20.8667 10.0372C21.0444 9.70512 21.0444 9.29828 20.8667 8.96623C18.8638 5.22983 15.1822 2 11.5006 2C7.81892 2 4.13617 5.23096 2.13328 8.96623C1.95557 9.29714 1.95557 9.70172 2.13328 10.0326C4.13617 13.769 7.81892 17 11.5017 17C12.1063 17 12.402 16.6621 13 16.5" stroke="#1F1F1F" stroke-width="1.4286" stroke-linecap="round" stroke-linejoin="round"/>
</svg>
