<svg width="24" height="24" viewBox="0 0 24 24" fill="none" xmlns="http://www.w3.org/2000/svg">
<path fill-rule="evenodd" clip-rule="evenodd" d="M13.8557 12.0001L15.4852 14.101C15.6581 14.3234 15.7518 14.5971 15.7515 14.8788V16.3669C15.751 16.7176 15.4669 17.0017 15.1163 17.0022H8.88368C8.53304 17.0017 8.24891 16.7176 8.24841 16.3669V14.8563C8.24861 14.5887 8.33306 14.3279 8.48976 14.111L10.0179 11.9989L8.48976 9.888C8.33307 9.67153 8.24862 9.41117 8.24841 9.14394V7.63331C8.24891 7.28267 8.53304 6.99854 8.88368 6.99805H15.1163C15.4669 6.99854 15.751 7.28267 15.7515 7.63331V9.12018C15.7515 9.4022 15.6578 9.67621 15.4852 9.89926L13.8557 12.0001Z" stroke="#1F1F1F" stroke-width="1.5" stroke-linecap="round" stroke-linejoin="round"/>
<rect x="3" y="3" width="18" height="18" rx="5" stroke="#1F1F1F" stroke-width="1.5" stroke-linecap="round" stroke-linejoin="round"/>
</svg>
