<svg width="24" height="24" viewBox="0 0 24 24" fill="none" xmlns="http://www.w3.org/2000/svg">
<path fill-rule="evenodd" clip-rule="evenodd" d="M5 8.93431C5 5.11053 8.11053 2 11.9343 2C15.7584 2 18.87 5.11053 18.8704 8.93431C18.8704 12.4245 16.2763 15.3124 12.9163 15.7915V17.449H14.8358C15.3781 17.449 15.8174 17.8883 15.8174 18.4306C15.8174 18.9729 15.3781 19.4122 14.8358 19.4122H12.9163V21.0184C12.9163 21.5607 12.4769 22 11.9347 22C11.3924 22 10.9531 21.561 10.9531 21.0184V19.4122H9.03455C8.49228 19.4122 8.05295 18.9732 8.05295 18.4306C8.05295 17.8883 8.49228 17.449 9.03455 17.449H10.9531V15.7915C7.59374 15.312 5 12.4241 5 8.93431ZM6.96289 8.93471C6.96289 11.6764 9.19337 13.9069 11.9344 13.9069C14.6764 13.9069 16.9072 11.6764 16.9072 8.93471C16.9072 6.19337 14.6764 3.96289 11.9344 3.96289C9.19337 3.96289 6.96289 6.19337 6.96289 8.93471Z" fill="#6F685D"/>
</svg>
