<svg width="24" height="24" viewBox="0 0 24 24" fill="none" xmlns="http://www.w3.org/2000/svg">
<path fill-rule="evenodd" clip-rule="evenodd" d="M21.0037 17.0019C21.0037 19.212 19.2121 21.0036 17.002 21.0036H6.99788C4.78782 21.0036 2.99622 19.212 2.99622 17.0019V6.99776C2.99622 4.7877 4.78782 2.99609 6.99788 2.99609H17.002C19.2121 2.99609 21.0037 4.7877 21.0037 6.99776V17.0019Z" stroke="#0A0A0A" stroke-width="1.5" stroke-linecap="round" stroke-linejoin="round"/>
<path d="M2.99622 13.0002L4.29192 11.7045C4.74425 11.2522 5.35776 10.998 5.99747 10.998C6.63716 10.998 7.25067 11.2522 7.70301 11.7045L12 16.0015" stroke="#0A0A0A" stroke-width="1.5" stroke-linecap="round" stroke-linejoin="round"/>
<path d="M7.00085 21.0038L13.2986 14.706C14.2406 13.764 15.7678 13.764 16.7097 14.706L20.6505 18.6468" stroke="#0A0A0A" stroke-width="1.5" stroke-linecap="round" stroke-linejoin="round"/>
</svg>
