<svg width="24" height="24" viewBox="0 0 24 24" fill="none" xmlns="http://www.w3.org/2000/svg">
<path d="M21.0037 10.9994V17.0019C21.0037 19.212 19.2121 21.0036 17.002 21.0036H6.99788C4.78782 21.0036 2.99622 19.212 2.99622 17.0019V6.99776C2.99622 4.7877 4.78782 2.99609 6.99788 2.99609H9.99913" stroke="#0A0A0A" stroke-width="1.5" stroke-linecap="round" stroke-linejoin="round"/>
<path d="M2.99622 13.0002L4.29192 11.7045C4.74425 11.2522 5.35776 10.998 5.99747 10.998C6.63716 10.998 7.25067 11.2522 7.70301 11.7045L12 16.0015" stroke="#0A0A0A" stroke-width="1.5" stroke-linecap="round" stroke-linejoin="round"/>
<path d="M7.00085 21.0038L13.2986 14.706C14.2406 13.764 15.7678 13.764 16.7097 14.706L20.6505 18.6468" stroke="#0A0A0A" stroke-width="1.5" stroke-linecap="round" stroke-linejoin="round"/>
<path d="M15.0012 5.99728H18.0025" stroke="#0A0A0A" stroke-width="1.5" stroke-linecap="round" stroke-linejoin="round"/>
<path d="M18.0024 2.99609C19.6596 2.99711 21.0027 4.34022 21.0037 5.99734V5.99734C21.0027 7.65447 19.6596 8.99757 18.0024 8.99859" stroke="#0A0A0A" stroke-width="1.5" stroke-linecap="round" stroke-linejoin="round"/>
<path d="M15.0013 8.99859C13.3441 8.99757 12.001 7.65447 12 5.99734V5.99734C12.001 4.34022 13.3441 2.99711 15.0013 2.99609" stroke="#0A0A0A" stroke-width="1.5" stroke-linecap="round" stroke-linejoin="round"/>
</svg>
