<svg width="24" height="24" viewBox="0 0 24 24" fill="none" xmlns="http://www.w3.org/2000/svg">
<path d="M6.99302 13.2632H4.00002C3.38602 13.2632 2.91702 13.8112 3.01202 14.4172L3.35602 16.6172C3.66002 18.5652 5.33702 20.0002 7.30802 20.0002H16.692C18.663 20.0002 20.34 18.5652 20.644 16.6182L20.988 14.4182C21.083 13.8122 20.614 13.2642 20 13.2642H12.263" stroke="#0A0A0A" stroke-width="1.5" stroke-linecap="round" stroke-linejoin="round"/>
<path d="M19 20.9998L17.96 19.7998" stroke="#0A0A0A" stroke-width="1.5" stroke-linecap="round" stroke-linejoin="round"/>
<path d="M6.04 19.7998L5 20.9998" stroke="#0A0A0A" stroke-width="1.5" stroke-linecap="round" stroke-linejoin="round"/>
<path fill-rule="evenodd" clip-rule="evenodd" d="M10.158 17.263H9.105C7.943 17.263 7 16.321 7 15.158V13.153C7 12.516 7.516 12 8.153 12H11.11C11.747 12 12.263 12.516 12.263 13.153V15.158C12.263 16.321 11.321 17.263 10.158 17.263Z" stroke="#0A0A0A" stroke-width="1.5" stroke-linecap="round" stroke-linejoin="round"/>
<path fill-rule="evenodd" clip-rule="evenodd" d="M14.527 9.12012H11.474C10.791 9.12012 10.309 8.45112 10.525 7.80412V7.80412C10.86 6.79812 11.801 6.12012 12.861 6.12012H13.139C14.199 6.12012 15.14 6.79812 15.475 7.80412V7.80412C15.691 8.45112 15.209 9.12012 14.527 9.12012V9.12012Z" stroke="#0A0A0A" stroke-width="1.5" stroke-linecap="round" stroke-linejoin="round"/>
<path d="M13 6.12V6C13 4.343 14.343 3 16 3V3C17.657 3 19 4.343 19 6V13.263" stroke="#0A0A0A" stroke-width="1.5" stroke-linecap="round" stroke-linejoin="round"/>
</svg>
