<svg width="24" height="24" viewBox="0 0 24 24" fill="none" xmlns="http://www.w3.org/2000/svg">
<path d="M10.2251 8V8C10.2251 5.239 12.4641 3 15.2251 3V3C17.9861 3 20.2251 5.239 20.2251 8V21" stroke="#0A0A0A" stroke-width="1.5" stroke-linecap="round" stroke-linejoin="round"/>
<path d="M10.2251 20V21" stroke="#0A0A0A" stroke-width="1.5" stroke-linecap="round" stroke-linejoin="round"/>
<path d="M16.2251 19.6499L15.6751 18.8199" stroke="#0A0A0A" stroke-width="1.5" stroke-linecap="round" stroke-linejoin="round"/>
<path d="M4.77512 18.8199L4.22512 19.6499" stroke="#0A0A0A" stroke-width="1.5" stroke-linecap="round" stroke-linejoin="round"/>
<path d="M10.2251 17V16" stroke="#0A0A0A" stroke-width="1.5" stroke-linecap="round" stroke-linejoin="round"/>
<path d="M13.4651 15.5L14.0151 16.33" stroke="#0A0A0A" stroke-width="1.5" stroke-linecap="round" stroke-linejoin="round"/>
<path d="M6.98508 15.5L6.43508 16.33" stroke="#0A0A0A" stroke-width="1.5" stroke-linecap="round" stroke-linejoin="round"/>
<path fill-rule="evenodd" clip-rule="evenodd" d="M12.6412 12.748H7.80917C6.72917 12.748 5.96617 11.69 6.30817 10.665V10.665C6.83817 9.073 8.32717 8 10.0052 8H10.4452C12.1222 8 13.6122 9.073 14.1422 10.665V10.665C14.4842 11.69 13.7212 12.748 12.6412 12.748V12.748Z" stroke="#0A0A0A" stroke-width="1.5" stroke-linecap="round" stroke-linejoin="round"/>
</svg>
