<svg width="24" height="24" viewBox="0 0 24 24" fill="none" xmlns="http://www.w3.org/2000/svg">
<path d="M15 12H4.5C3.67157 12 3 11.3284 3 10.5V10.5C3 9.67157 3.67157 9 4.5 9H15" stroke="#0A0A0A" stroke-width="1.5" stroke-linecap="round" stroke-linejoin="round"/>
<path fill-rule="evenodd" clip-rule="evenodd" d="M16 2H20C20.5523 2 21 2.44772 21 3V11C21 11.5523 20.5523 12 20 12H15V3C15 2.44772 15.4477 2 16 2Z" stroke="#0A0A0A" stroke-width="1.5" stroke-linecap="round" stroke-linejoin="round"/>
<path d="M21 11V11.8377C21 13.7262 19.7916 15.4028 18 16V20C18 20.5523 17.5523 21 17 21H9.28078C8.97284 21 8.68208 20.8581 8.49257 20.6154C8.30306 20.3727 8.23594 20.0562 8.31063 19.7575L9 17L8.88057 16.9701C6.59993 16.4 5 14.3508 5 12" stroke="#0A0A0A" stroke-width="1.5" stroke-linecap="round" stroke-linejoin="round"/>
</svg>
