<svg width="24" height="24" viewBox="0 0 24 24" fill="none" xmlns="http://www.w3.org/2000/svg">
<path d="M19 6V5C19 3.895 18.105 3 17 3V3C15.895 3 15 3.895 15 5V19C15 20.105 14.105 21 13 21H7C5.895 21 5 20.105 5 19V6C5 4.343 6.343 3 8 3H17" stroke="#0A0A0A" stroke-width="1.5" stroke-linecap="round" stroke-linejoin="round"/>
<path d="M19 9V15C19 16.105 18.105 17 17 17H15" stroke="#0A0A0A" stroke-width="1.5" stroke-linecap="round" stroke-linejoin="round"/>
<path d="M15 9H20.5C21.328 9 22 8.328 22 7.5V7.5C22 6.672 21.328 6 20.5 6H15" stroke="#0A0A0A" stroke-width="1.5" stroke-linecap="round" stroke-linejoin="round"/>
<path d="M5 6H3.5C2.672 6 2 6.672 2 7.5V7.5C2 8.328 2.672 9 3.5 9H5" stroke="#0A0A0A" stroke-width="1.5" stroke-linecap="round" stroke-linejoin="round"/>
</svg>
