<svg width="24" height="24" viewBox="0 0 24 24" fill="none" xmlns="http://www.w3.org/2000/svg">
<path d="M13 8C12.3333 7.3 12.3333 6.2 13 5.5C13.6667 4.8 13.6667 3.7 13 3" stroke="#0A0A0A" stroke-width="1.5" stroke-linecap="round" stroke-linejoin="round"/>
<path d="M9.5 8C8.83334 7.3 8.83334 6.2 9.5 5.5C10.1667 4.8 10.1667 3.7 9.5 3" stroke="#0A0A0A" stroke-width="1.5" stroke-linecap="round" stroke-linejoin="round"/>
<path d="M6 8C5.33333 7.3 5.33333 6.2 6 5.5C6.66667 4.8 6.66667 3.7 6 3" stroke="#0A0A0A" stroke-width="1.5" stroke-linecap="round" stroke-linejoin="round"/>
<path d="M22 12H4.0112C3.68306 11.9975 3.37465 12.1565 3.18638 12.4253C2.9981 12.694 2.95404 13.0382 3.06852 13.3457C3.52637 14.4887 4.21394 15.5255 5.08865 16.392C5.47074 16.7772 5.9896 16.9958 6.53215 17H14.6184C15.1609 16.9958 15.6797 16.7773 16.0618 16.3921C17.2761 15.1898 18.1223 13.6662 18.5013 12" stroke="#0A0A0A" stroke-width="1.5" stroke-linecap="round" stroke-linejoin="round"/>
<path d="M3 21H19" stroke="#0A0A0A" stroke-width="1.5" stroke-linecap="round" stroke-linejoin="round"/>
</svg>
