<svg width="24" height="24" viewBox="0 0 24 24" fill="none" xmlns="http://www.w3.org/2000/svg">
<path d="M20.5 18.1729C18.689 19.5679 15.576 20.4999 12 20.4999C8.424 20.4999 5.311 19.5679 3.5 18.1729" stroke="#0A0A0A" stroke-width="1.5" stroke-linecap="round" stroke-linejoin="round"/>
<path d="M20.5 14.001C18.689 15.396 15.576 16.328 12 16.328C8.424 16.328 5.311 15.396 3.5 14.001" stroke="#0A0A0A" stroke-width="1.5" stroke-linecap="round" stroke-linejoin="round"/>
<path d="M18.3639 4.81802C21.8787 6.57538 21.8787 9.42462 18.3639 11.182C14.8492 12.9393 9.15074 12.9393 5.63604 11.182C2.12132 9.42462 2.12132 6.57538 5.63604 4.81802C9.15076 3.06066 14.8492 3.06066 18.3639 4.81802" stroke="#0A0A0A" stroke-width="1.5" stroke-linecap="round" stroke-linejoin="round"/>
<path d="M8.34802 7.5C9.12602 6.901 10.464 6.5 12 6.5C13.536 6.5 14.874 6.901 15.652 7.5" stroke="#0A0A0A" stroke-width="1.5" stroke-linecap="round" stroke-linejoin="round"/>
</svg>
