<svg width="24" height="24" viewBox="0 0 24 24" fill="none" xmlns="http://www.w3.org/2000/svg">
<path fill-rule="evenodd" clip-rule="evenodd" d="M19.0029 21.0036H4.99705C3.89202 21.0036 2.99622 20.1078 2.99622 19.0028V4.99693C2.99622 3.8919 3.89202 2.99609 4.99705 2.99609H19.0029C20.1079 2.99609 21.0037 3.8919 21.0037 4.99693V19.0028C21.0037 20.1078 20.1079 21.0036 19.0029 21.0036Z" stroke="#0A0A0A" stroke-width="1.5" stroke-linecap="round" stroke-linejoin="round"/>
<path fill-rule="evenodd" clip-rule="evenodd" d="M12.4831 12.2408L13.9212 14.1652C14.4652 14.8921 14.5524 15.8638 14.1464 16.6759C13.7404 17.4881 12.9108 18.0015 12.0029 18.0025V18.0025C11.0949 18.0014 10.2654 17.488 9.85928 16.676C9.4532 15.864 9.54013 14.8923 10.0839 14.1652L11.5227 12.2408C11.6358 12.0893 11.8138 12 12.0029 12C12.192 12 12.37 12.0893 12.4831 12.2408V12.2408Z" stroke="#0A0A0A" stroke-width="1.5" stroke-linecap="round" stroke-linejoin="round"/>
<path d="M21.0037 8.99874H2.99622" stroke="#0A0A0A" stroke-width="1.5" stroke-linecap="round" stroke-linejoin="round"/>
<path d="M9.99915 5.99728H14.0008" stroke="#0A0A0A" stroke-width="1.5" stroke-linecap="round" stroke-linejoin="round"/>
</svg>
