<svg width="24" height="24" viewBox="0 0 24 24" fill="none" xmlns="http://www.w3.org/2000/svg">
<path fill-rule="evenodd" clip-rule="evenodd" d="M3.99666 8.65867L3.54854 7.31433C3.44684 7.00925 3.49801 6.67388 3.68605 6.413C3.87409 6.15212 4.17608 5.99756 4.49766 5.99756H17.0021V19.003C17.0021 20.108 16.1063 21.0038 15.0012 21.0038H5.9975C4.89247 21.0038 3.99666 20.108 3.99666 19.003V8.65867Z" stroke="#0A0A0A" stroke-width="1.5" stroke-linecap="round" stroke-linejoin="round"/>
<path fill-rule="evenodd" clip-rule="evenodd" d="M17.0021 15.3835V5.99756H19.0029C20.1079 5.99756 21.0037 6.89336 21.0037 7.99839V13.7647C21.0037 14.5226 20.5756 15.2154 19.8977 15.5543L18.4499 16.2782C18.1398 16.4333 17.7715 16.4167 17.4766 16.2344C17.1816 16.0522 17.0021 15.7302 17.0021 15.3835Z" stroke="#0A0A0A" stroke-width="1.5" stroke-linecap="round" stroke-linejoin="round"/>
<path fill-rule="evenodd" clip-rule="evenodd" d="M13.8385 2.99634H8.16067C6.86884 2.99634 5.72194 3.82297 5.31343 5.04851L4.99707 5.99759H17.0021L16.6857 5.04851C16.2772 3.82297 15.1303 2.99634 13.8385 2.99634Z" stroke="#0A0A0A" stroke-width="1.5" stroke-linecap="round" stroke-linejoin="round"/>
<rect x="8.99878" y="8.99878" width="3.00125" height="9.00375" rx="1.5" stroke="#0A0A0A" stroke-width="1.5" stroke-linecap="round" stroke-linejoin="round"/>
<path d="M12 14.0009H8.99878" stroke="#0A0A0A" stroke-width="1.5" stroke-linecap="round" stroke-linejoin="round"/>
</svg>
