<svg width="24" height="24" viewBox="0 0 24 24" fill="none" xmlns="http://www.w3.org/2000/svg">
<rect x="15.5" y="2" width="3" height="8" rx="1.5" stroke="#0A0A0A" stroke-width="1.5" stroke-linecap="round" stroke-linejoin="round"/>
<path d="M17 10V14" stroke="#0A0A0A" stroke-width="1.5" stroke-linecap="round" stroke-linejoin="round"/>
<path fill-rule="evenodd" clip-rule="evenodd" d="M20.5 18.5V19C20.5 20.1046 19.6046 21 18.5 21H15.5C14.3954 21 13.5 20.1046 13.5 19V18.4999C13.5 17.5135 13.7297 16.5406 14.1708 15.6583V15.6583C14.679 14.642 15.7178 14 16.8541 14H17.1459C18.2822 14 19.321 14.642 19.8292 15.6584V15.6584C20.2703 16.5407 20.5 17.5136 20.5 18.5Z" stroke="#0A0A0A" stroke-width="1.5" stroke-linecap="round" stroke-linejoin="round"/>
<path d="M6.5 10V13" stroke="#0A0A0A" stroke-width="1.5" stroke-linecap="round" stroke-linejoin="round"/>
<rect x="5" y="2" width="3" height="8" rx="1.5" stroke="#0A0A0A" stroke-width="1.5" stroke-linecap="round" stroke-linejoin="round"/>
<path d="M8 5H15.5" stroke="#0A0A0A" stroke-width="1.5" stroke-linecap="round" stroke-linejoin="round"/>
<path d="M19 5H21" stroke="#0A0A0A" stroke-width="1.5" stroke-linecap="round" stroke-linejoin="round"/>
<path d="M3 5H5" stroke="#0A0A0A" stroke-width="1.5" stroke-linecap="round" stroke-linejoin="round"/>
<ellipse cx="6.5" cy="17" rx="3.5" ry="4" stroke="#0A0A0A" stroke-width="1.5" stroke-linecap="round" stroke-linejoin="round"/>
</svg>
