<svg width="24" height="24" viewBox="0 0 24 24" fill="none" xmlns="http://www.w3.org/2000/svg">
<path fill-rule="evenodd" clip-rule="evenodd" d="M19.0029 21.0038H4.99711C3.89208 21.0038 2.99628 20.108 2.99628 19.003V4.99717C2.99628 3.89214 3.89208 2.99634 4.99711 2.99634H19.0029C20.108 2.99634 21.0038 3.89214 21.0038 4.99717V19.003C21.0038 20.108 20.108 21.0038 19.0029 21.0038Z" stroke="#0A0A0A" stroke-width="1.5" stroke-linecap="round" stroke-linejoin="round"/>
<rect x="5.56873" y="12" width="12.8625" height="6.43125" rx="1" stroke="#0A0A0A" stroke-width="1.5" stroke-linecap="round" stroke-linejoin="round"/>
<path d="M21.0038 8.99874H2.99628" stroke="#0A0A0A" stroke-width="1.5" stroke-linecap="round" stroke-linejoin="round"/>
<path d="M14.5511 5.99758C14.5511 6.02519 14.5287 6.04755 14.5011 6.04754C14.4735 6.04753 14.4511 6.02515 14.4511 5.99754C14.4511 5.96993 14.4735 5.94754 14.5011 5.9475C14.5144 5.94749 14.5271 5.95276 14.5365 5.96215C14.5459 5.97155 14.5512 5.9843 14.5511 5.99758" stroke="#0A0A0A" stroke-width="1.5" stroke-linecap="round" stroke-linejoin="round"/>
<path d="M17.5524 5.99758C17.5523 6.02519 17.5299 6.04755 17.5023 6.04754C17.4747 6.04753 17.4523 6.02515 17.4523 5.99754C17.4523 5.96993 17.4747 5.94754 17.5023 5.9475C17.5156 5.94749 17.5283 5.95276 17.5377 5.96215C17.5471 5.97155 17.5524 5.9843 17.5524 5.99758" stroke="#0A0A0A" stroke-width="1.5" stroke-linecap="round" stroke-linejoin="round"/>
<path d="M9.54901 5.99758C9.54898 6.02519 9.52658 6.04755 9.49897 6.04754C9.47136 6.04753 9.44898 6.02515 9.44897 5.99754C9.44896 5.96993 9.47132 5.94754 9.49893 5.9475C9.51221 5.94749 9.52496 5.95276 9.53436 5.96215C9.54375 5.97155 9.54902 5.9843 9.54901 5.99758" stroke="#0A0A0A" stroke-width="1.5" stroke-linecap="round" stroke-linejoin="round"/>
<path d="M6.54779 5.99758C6.54775 6.02519 6.52536 6.04755 6.49775 6.04754C6.47014 6.04753 6.44776 6.02515 6.44775 5.99754C6.44774 5.96993 6.4701 5.94754 6.49771 5.9475C6.51099 5.94749 6.52374 5.95276 6.53314 5.96215C6.54253 5.97155 6.5478 5.9843 6.54779 5.99758" stroke="#0A0A0A" stroke-width="1.5" stroke-linecap="round" stroke-linejoin="round"/>
</svg>
