<svg width="24" height="24" viewBox="0 0 24 24" fill="none" xmlns="http://www.w3.org/2000/svg">
<path d="M21.0038 12H23.0046" stroke="#0A0A0A" stroke-width="1.5" stroke-linecap="round" stroke-linejoin="round"/>
<path fill-rule="evenodd" clip-rule="evenodd" d="M5.99753 8.99878H18.0025C19.6601 8.99878 21.0038 10.3425 21.0038 12V19.0029C21.0038 20.108 20.108 21.0038 19.0029 21.0038H4.99711C3.89208 21.0038 2.99628 20.108 2.99628 19.0029V12C2.99628 10.3425 4.33998 8.99878 5.99753 8.99878Z" stroke="#0A0A0A" stroke-width="1.5" stroke-linecap="round" stroke-linejoin="round"/>
<path d="M21.0038 18.0026H2.99628" stroke="#0A0A0A" stroke-width="1.5" stroke-linecap="round" stroke-linejoin="round"/>
<path d="M5.9975 15.0012H8.99875" stroke="#0A0A0A" stroke-width="1.5" stroke-linecap="round" stroke-linejoin="round"/>
<path d="M6.49774 8.99877V3.99668C6.49774 2.89165 7.39355 1.99585 8.49857 1.99585H15.5015C16.6065 1.99585 17.5023 2.89165 17.5023 3.99668V8.99877" stroke="#0A0A0A" stroke-width="1.5" stroke-linecap="round" stroke-linejoin="round"/>
<path d="M14.0009 4.74707V6.2477" stroke="#0A0A0A" stroke-width="1.5" stroke-linecap="round" stroke-linejoin="round"/>
<path d="M9.99917 4.74707V6.2477" stroke="#0A0A0A" stroke-width="1.5" stroke-linecap="round" stroke-linejoin="round"/>
</svg>
