<svg width="128" height="128" viewBox="0 0 32 32" fill="none" xmlns="http://www.w3.org/2000/svg">
<g id="State=disable">
<g id="Group">
<ellipse id="Ellipse" cx="16.5" cy="30" rx="9.5" ry="3" fill="#181201" fill-opacity="0.3"/>
<path id="Vector" d="M16.4 1C10.6562 1 6 5.73299 6 11.5714C6 20.0286 14.5091 30.6 16.4 30.6C18.2909 30.6 26.8 20.0286 26.8 11.5714C26.8 5.73299 22.1438 1 16.4 1Z" fill="#E1DDD8" stroke="#ABA49B"/>
<path id="Icon_blanc" fill-rule="evenodd" clip-rule="evenodd" d="M15.1308 15.1725L19.9687 10.9814H16.1794L12.4357 14.6332V10.7058C12.4357 8.39478 14.2568 6.51469 16.4951 6.51469C18.7336 6.51469 20.5547 8.39478 20.5547 10.7058L20.5617 16.8453H17.0616L15.1308 15.1725ZM10 10.7058V19.0842C10 19.2385 10.1212 19.3636 10.2706 19.3636H12.1651C12.3146 19.3636 12.4357 19.2385 12.4357 19.0842V15.7118L16.1794 19.3636H19.9687L19.9644 19.3599H20.8349H21.71H22.7294C22.8788 19.3599 23 19.2348 23 19.0805L22.9903 10.7058C22.9903 7.00234 20.0823 4 16.4951 4C12.908 4 10 7.00234 10 10.7058Z" fill="#6F685D"/>
</g>
</g>
</svg>
