<svg width="24" height="24" viewBox="0 0 24 24" fill="none" xmlns="http://www.w3.org/2000/svg">
<path fill-rule="evenodd" clip-rule="evenodd" d="M21.3333 4.0425H12.7053C12.264 4.0425 11.8507 3.817 11.6027 3.44025L9.72933 1.60088C9.48133 1.2255 9.06933 1 8.628 1H2.66667C1.19333 1 0 2.23063 0 3.75V20.25C0 21.7694 1.19333 23 2.66667 23H21.3333C22.8067 23 24 21.7694 24 20.25V6.7925C24 5.2745 22.8067 4.0425 21.3333 4.0425Z" fill="#D1CDC7"/>
<path d="M8.84634 15.228C8.84634 16.056 9.14634 16.752 9.74634 17.316C10.3463 17.868 11.1023 18.144 12.0023 18.144C12.9023 18.144 13.6583 17.868 14.2583 17.316C14.8583 16.752 15.1583 16.056 15.1583 15.228V12.672C15.1583 11.844 14.8583 11.148 14.2583 10.596C13.6583 10.032 12.9023 9.756 12.0023 9.756C11.1023 9.756 10.3463 10.032 9.74634 10.596C9.14634 11.148 8.84634 11.844 8.84634 12.672V15.228ZM10.4903 12.648C10.4903 12.276 10.6343 11.964 10.9223 11.712C11.2223 11.46 11.5823 11.328 12.0023 11.328C12.4223 11.328 12.7823 11.46 13.0703 11.712C13.3703 11.964 13.5143 12.276 13.5143 12.648V15.252C13.5143 15.624 13.3703 15.936 13.0703 16.188C12.7823 16.44 12.4223 16.572 12.0023 16.572C11.5823 16.572 11.2223 16.44 10.9223 16.188C10.6343 15.936 10.4903 15.624 10.4903 15.252V12.648Z" fill="white"/>
</svg>
