<svg width="24" height="24" viewBox="0 0 24 24" fill="none" xmlns="http://www.w3.org/2000/svg">
<path fill-rule="evenodd" clip-rule="evenodd" d="M21.3333 4.0425H12.7053C12.264 4.0425 11.8507 3.817 11.6027 3.44025L9.72933 1.60088C9.48133 1.2255 9.06933 1 8.628 1H2.66667C1.19333 1 0 2.23063 0 3.75V20.25C0 21.7694 1.19333 23 2.66667 23H21.3333C22.8067 23 24 21.7694 24 20.25V6.7925C24 5.2745 22.8067 4.0425 21.3333 4.0425Z" fill="#FD0D0D"/>
<path d="M13.6124 12.312C13.6124 12.768 13.2644 13.332 12.5564 14.004L9.62844 16.776V18H15.3884V16.428H12.1604L13.5644 15.096C14.7284 14.028 15.3164 13.08 15.3164 12.252C15.3164 11.568 15.0404 10.98 14.4764 10.488C13.9124 9.996 13.2284 9.756 12.4244 9.756C11.0924 9.756 9.97644 10.512 9.43644 11.724L10.9604 12.456C11.2484 11.748 11.7644 11.328 12.4244 11.328C13.0844 11.328 13.6124 11.772 13.6124 12.312Z" fill="white"/>
</svg>
