<svg width="50" height="50" viewBox="0 0 50 50" fill="none" xmlns="http://www.w3.org/2000/svg">
<path fill-rule="evenodd" clip-rule="evenodd" d="M34.3333 10.1852H25.4444V15.5185H34.3333V10.1852ZM35.5185 16.1111V9.59259C35.5185 9.26531 35.2532 9 34.9259 9H24.8519H14.7778C14.4505 9 14.1852 9.26531 14.1852 9.59259V16.1111V26.1852C14.1852 26.5125 14.4505 26.7778 14.7778 26.7778C15.1051 26.7778 15.3704 26.5125 15.3704 26.1852V16.7037H24.2593V26.1852C24.2593 26.5125 24.5246 26.7778 24.8519 26.7778C25.1791 26.7778 25.4444 26.5125 25.4444 26.1852V16.7037H34.3333V26.1852C34.3333 26.5125 34.5986 26.7778 34.9259 26.7778C35.2532 26.7778 35.5185 26.5125 35.5185 26.1852V16.1111ZM24.2593 15.5185V10.1852H15.3704V15.5185H24.2593ZM28.4168 27.963H31.9551H31.9723H34.9135L34.9263 27.9628L34.9393 27.963H36.1111C36.4384 27.963 36.7037 28.2283 36.7037 28.5556C36.7037 28.8828 36.4384 29.1481 36.1111 29.1481H35.6849L36.686 33.1526C36.7096 33.2469 36.7096 33.3457 36.686 33.44L35.5185 38.11V40.4074C35.5185 40.7347 35.2532 41 34.9259 41H14.7778C14.4505 41 14.1852 40.7347 14.1852 40.4074V38.11L13.0177 33.44C12.9941 33.3457 12.9941 33.2469 13.0177 33.1526L14.0188 29.1481H13.5926C13.2653 29.1481 13 28.8828 13 28.5556C13 28.2283 13.2653 27.963 13.5926 27.963H14.7644C14.773 27.9628 14.7816 27.9628 14.7902 27.963H17.7314H17.7486H21.2869H21.3042H24.8519H28.3995H28.4168ZM15.2405 29.1481H17.0695L16.5601 33.2228C16.554 33.2716 16.554 33.321 16.5601 33.3698L17.0695 37.4444H15.2377C14.9441 36.2977 14.1906 33.3478 14.199 33.3139L15.2405 29.1481ZM17.7486 38.6296H17.7314H15.3704V39.8148H34.3333V38.6296H31.9723H31.9551H28.4168H28.3995H24.8534L24.8519 38.6296L24.8503 38.6296H21.3042H21.2869H17.7486ZM17.7446 33.3025C17.7424 33.3202 18.11 36.2331 18.2631 37.4444H20.625L20.1157 33.3698C20.1096 33.321 20.1096 33.2716 20.1157 33.2228L20.625 29.1481H18.2639L17.7446 33.3025ZM21.8186 37.4444C21.6655 36.2333 21.2978 33.3213 21.2999 33.304L21.8194 29.1481H24.2593V37.4444H21.8186ZM25.4444 29.1481V37.4444H27.8843L28.4027 33.297C28.4052 33.2774 28.0378 30.3605 27.8849 29.1481H25.4444ZM29.0787 37.4444L29.588 33.3698C29.5941 33.321 29.5941 33.2716 29.588 33.2228L29.0787 29.1481H31.4405C31.5935 30.3602 31.9609 33.2757 31.9585 33.2947L31.4398 37.4444H29.0787ZM33.1436 33.3698L32.6342 37.4444H34.4632L35.5014 33.2919L34.4635 29.1481H32.6342L33.1436 33.2228C33.1497 33.2716 33.1497 33.321 33.1436 33.3698ZM27 24.5C27 24.2239 27.2239 24 27.5 24H28.5C28.7761 24 29 24.2239 29 24.5C29 24.7761 28.7761 25 28.5 25H27.5C27.2239 25 27 24.7761 27 24.5ZM21.5 24C21.2239 24 21 24.2239 21 24.5C21 24.7761 21.2239 25 21.5 25H22.5C22.7761 25 23 24.7761 23 24.5C23 24.2239 22.7761 24 22.5 24H21.5Z" fill="#0A0A0A"/>
</svg>
