<svg width="50" height="50" viewBox="0 0 50 50" fill="none" xmlns="http://www.w3.org/2000/svg">
<path fill-rule="evenodd" clip-rule="evenodd" d="M32.8144 21.5842C33.2752 21.4799 33.7552 21.4277 34.2416 21.4277C37.9664 21.4277 41 24.5181 41 28.3126C41 32.1136 37.9664 35.204 34.2416 35.204C30.5104 35.204 27.4768 32.1136 27.4768 28.3126C27.4768 25.5547 29.0704 23.175 31.3744 22.0732L30.9712 20.854C28.4496 21.2582 26.6896 22.849 24.8336 24.5311C24.0528 25.2418 23.2336 25.9851 22.3248 26.6566C22.4528 27.1912 22.5232 27.7454 22.5232 28.3191C22.5232 32.1202 19.4896 35.2105 15.7584 35.2105C12.0336 35.2105 9 32.1202 9 28.3191C9 24.5181 12.0336 21.4277 15.7584 21.4343C18.3696 21.4343 20.6416 22.9468 21.768 25.157C22.472 24.6094 23.144 24.003 23.8224 23.3837C25.7104 21.669 27.6624 19.9086 30.4784 19.374L29.8192 17.3855C29.6912 17.0008 29.8768 16.5901 30.2352 16.4271L33.2816 15.0644C33.6656 14.8949 34.12 15.071 34.2864 15.4621C34.4592 15.8533 34.28 16.3162 33.896 16.4857L31.4832 17.5615L32.8144 21.5842ZM28.7895 28.3861C28.7895 31.4022 31.2423 33.8632 34.2632 33.8632C37.2774 33.8632 39.7302 31.4089 39.7368 28.3928C39.7368 25.3701 37.284 22.9158 34.2698 22.9158C33.9357 22.9158 33.6082 22.9425 33.2941 23.0027L35.0184 28.1387C35.1587 28.5533 34.9315 29.0014 34.5171 29.1418C34.4302 29.1686 34.35 29.1819 34.2632 29.1819C33.929 29.1819 33.6216 28.9746 33.5079 28.6403L31.7836 23.5043C30.0058 24.4138 28.7895 26.2595 28.7895 28.3861ZM21.2105 28.3895C21.2105 31.4104 18.7495 33.8632 15.7335 33.8632C12.7175 33.8632 10.2632 31.4037 10.2632 28.3895C10.2632 25.3686 12.7175 22.9158 15.7335 22.9158C17.9203 22.9158 19.8128 24.2057 20.6889 26.0637C19.2979 26.9124 17.7197 27.5073 15.7001 27.6008C15.2587 27.6209 14.9176 27.9885 14.9377 28.4296C14.9578 28.8573 15.3122 29.1915 15.7335 29.1915H15.7669C17.9203 29.0979 19.659 28.4764 21.1503 27.6276C21.1905 27.8749 21.2105 28.1288 21.2105 28.3895ZM20.4803 19.8145H19.8664C19.4442 19.8145 19.1053 19.4924 19.1053 19.0914C19.1053 18.6904 19.4442 18.3684 19.8664 18.3684H23.3968C23.8189 18.3684 24.1579 18.6904 24.1579 19.0914C24.1579 19.4924 23.8189 19.8145 23.3968 19.8145H22.0857L22.738 21.625C22.8724 22.0017 22.6613 22.4149 22.2648 22.5425C22.188 22.5668 22.1049 22.5789 22.0217 22.5789C21.7019 22.5789 21.4077 22.3906 21.299 22.0929L20.4803 19.8145Z" fill="#0A0A0A"/>
<mask id="mask0_102_8703" style="mask-type:luminance" maskUnits="userSpaceOnUse" x="9" y="15" width="32" height="21">
<path fill-rule="evenodd" clip-rule="evenodd" d="M32.8144 21.5842C33.2752 21.4799 33.7552 21.4277 34.2416 21.4277C37.9664 21.4277 41 24.5181 41 28.3126C41 32.1136 37.9664 35.204 34.2416 35.204C30.5104 35.204 27.4768 32.1136 27.4768 28.3126C27.4768 25.5547 29.0704 23.175 31.3744 22.0732L30.9712 20.854C28.4496 21.2582 26.6896 22.849 24.8336 24.5311C24.0528 25.2418 23.2336 25.9851 22.3248 26.6566C22.4528 27.1912 22.5232 27.7454 22.5232 28.3191C22.5232 32.1202 19.4896 35.2105 15.7584 35.2105C12.0336 35.2105 9 32.1202 9 28.3191C9 24.5181 12.0336 21.4277 15.7584 21.4343C18.3696 21.4343 20.6416 22.9468 21.768 25.157C22.472 24.6094 23.144 24.003 23.8224 23.3837C25.7104 21.669 27.6624 19.9086 30.4784 19.374L29.8192 17.3855C29.6912 17.0008 29.8768 16.5901 30.2352 16.4271L33.2816 15.0644C33.6656 14.8949 34.12 15.071 34.2864 15.4621C34.4592 15.8533 34.28 16.3162 33.896 16.4857L31.4832 17.5615L32.8144 21.5842ZM28.7895 28.3861C28.7895 31.4022 31.2423 33.8632 34.2632 33.8632C37.2774 33.8632 39.7302 31.4089 39.7368 28.3928C39.7368 25.3701 37.284 22.9158 34.2698 22.9158C33.9357 22.9158 33.6082 22.9425 33.2941 23.0027L35.0184 28.1387C35.1587 28.5533 34.9315 29.0014 34.5171 29.1418C34.4302 29.1686 34.35 29.1819 34.2632 29.1819C33.929 29.1819 33.6216 28.9746 33.5079 28.6403L31.7836 23.5043C30.0058 24.4138 28.7895 26.2595 28.7895 28.3861ZM21.2105 28.3895C21.2105 31.4104 18.7495 33.8632 15.7335 33.8632C12.7175 33.8632 10.2632 31.4037 10.2632 28.3895C10.2632 25.3686 12.7175 22.9158 15.7335 22.9158C17.9203 22.9158 19.8128 24.2057 20.6889 26.0637C19.2979 26.9124 17.7197 27.5073 15.7001 27.6008C15.2587 27.6209 14.9176 27.9885 14.9377 28.4296C14.9578 28.8573 15.3122 29.1915 15.7335 29.1915H15.7669C17.9203 29.0979 19.659 28.4764 21.1503 27.6276C21.1905 27.8749 21.2105 28.1288 21.2105 28.3895ZM20.4803 19.8145H19.8664C19.4442 19.8145 19.1053 19.4924 19.1053 19.0914C19.1053 18.6904 19.4442 18.3684 19.8664 18.3684H23.3968C23.8189 18.3684 24.1579 18.6904 24.1579 19.0914C24.1579 19.4924 23.8189 19.8145 23.3968 19.8145H22.0857L22.738 21.625C22.8724 22.0017 22.6613 22.4149 22.2648 22.5425C22.188 22.5668 22.1049 22.5789 22.0217 22.5789C21.7019 22.5789 21.4077 22.3906 21.299 22.0929L20.4803 19.8145Z" fill="white"/>
</mask>
<g mask="url(#mask0_102_8703)">
</g>
</svg>
