<svg width="50" height="50" viewBox="0 0 50 50" fill="none" xmlns="http://www.w3.org/2000/svg">
<path fill-rule="evenodd" clip-rule="evenodd" d="M30.754 15.4255V19.8683C30.754 20.2484 30.4468 20.581 30.0687 20.581H25.6498V25C25.6498 25.1901 25.5789 25.3564 25.4372 25.4989C25.319 25.6415 25.13 25.7127 24.9409 25.7127H20.5457V30.1318C20.5457 30.5356 20.2385 30.8445 19.8367 30.8445H15.4178V35.2873C15.4178 35.6911 15.1106 36 14.7089 36C14.3072 36 14 35.6911 14 35.2873V30.1793C14 29.7754 14.3072 29.4665 14.7089 29.4665H19.1042V25.0238C19.1042 24.8337 19.1751 24.6674 19.3169 24.5248C19.435 24.3823 19.6241 24.311 19.8131 24.311H24.2084V19.8683C24.2084 19.4644 24.5156 19.1555 24.9173 19.1555H29.3362V14.7127C29.3362 14.5227 29.4071 14.3564 29.5489 14.2138C29.667 14.0713 29.8561 14 30.0451 14H35.1493C35.551 14 35.8582 14.3089 35.8582 14.7127C35.8582 15.1166 35.551 15.4255 35.1493 15.4255H30.754ZM31.841 33.838H35.2438C35.6455 33.838 36 34.1706 36 34.5745C36 34.9784 35.6928 35.2873 35.2911 35.2873H30.1633C30.1396 35.2873 30.116 35.2813 30.0924 35.2754C30.0687 35.2694 30.0451 35.2635 30.0215 35.2635C30.0079 35.2498 30.0021 35.244 29.9952 35.2416C29.99 35.2397 29.9843 35.2397 29.9742 35.2397C29.9506 35.2397 29.9033 35.2397 29.8797 35.216C29.8679 35.216 29.862 35.21 29.8561 35.2041C29.8502 35.1982 29.8443 35.1922 29.8324 35.1922C29.8206 35.1803 29.8088 35.1744 29.797 35.1685C29.7852 35.1625 29.7734 35.1566 29.7615 35.1447C29.7143 35.121 29.667 35.0734 29.6434 35.0497C29.5961 35.0022 29.5725 34.9784 29.5489 34.9309C29.5371 34.919 29.5311 34.9071 29.5252 34.8952C29.5193 34.8834 29.5134 34.8715 29.5016 34.8596C29.5016 34.8477 29.4957 34.8418 29.4898 34.8359C29.4839 34.8299 29.478 34.824 29.478 34.8121C29.478 34.8002 29.4721 34.7824 29.4662 34.7646C29.4603 34.7468 29.4543 34.7289 29.4543 34.7171V34.6933C29.4307 34.6458 29.4307 34.5983 29.4307 34.5508V29.419C29.4307 29.0151 29.7379 28.7063 30.1396 28.7063C30.5414 28.7063 30.8485 29.0151 30.8485 29.419V32.8402L34.7712 28.8963C35.0311 28.6112 35.4801 28.6112 35.7637 28.8963C36.0473 29.1577 36.0473 29.6091 35.7637 29.8942L31.841 33.838Z" fill="#0A0A0A"/>
</svg>
