<svg width="50" height="50" viewBox="0 0 50 50" fill="none" xmlns="http://www.w3.org/2000/svg">
<path d="M34.7227 15.2773C34.4298 14.9844 33.9549 14.9844 33.662 15.2773C33.3691 15.5702 33.3691 16.0451 33.662 16.3379L34.7227 15.2773ZM34.1924 34.1924L33.662 33.662H33.662L34.1924 34.1924ZM15.8076 34.1924L16.3379 33.662L16.3379 33.662L15.8076 34.1924ZM15.8076 15.8076L16.3379 16.3379L16.3379 16.3379L15.8076 15.8076ZM33.662 16.3379C33.9549 16.6308 34.4298 16.6308 34.7227 16.3379C35.0156 16.0451 35.0156 15.5702 34.7227 15.2773L33.662 16.3379ZM24.9999 37.25C24.5857 37.25 24.2499 37.5858 24.2499 38C24.2499 38.4142 24.5857 38.75 24.9999 38.75V37.25ZM37.9999 38.75C38.4141 38.75 38.7499 38.4142 38.7499 38C38.7499 37.5858 38.4141 37.25 37.9999 37.25V38.75ZM25.7499 32.2222C25.7499 31.808 25.4141 31.4722 24.9999 31.4722C24.5857 31.4722 24.2499 31.808 24.2499 32.2222H25.7499ZM24.2499 33.6667C24.2499 34.0809 24.5857 34.4167 24.9999 34.4167C25.4141 34.4167 25.7499 34.0809 25.7499 33.6667H24.2499ZM30.6436 29.583C30.3507 29.2901 29.8758 29.2901 29.5829 29.583C29.29 29.8759 29.29 30.3508 29.5829 30.6437L30.6436 29.583ZM30.594 31.6548C30.8869 31.9477 31.3618 31.9477 31.6547 31.6548C31.9476 31.3619 31.9476 30.887 31.6547 30.5941L30.594 31.6548ZM20.4169 30.6437C20.7098 30.3508 20.7098 29.8759 20.4169 29.583C20.124 29.2901 19.6491 29.2901 19.3563 29.583L20.4169 30.6437ZM18.3451 30.5941C18.0522 30.887 18.0522 31.3619 18.3451 31.6548C18.638 31.9477 19.1129 31.9477 19.4058 31.6548L18.3451 30.5941ZM33.6666 25.75C34.0808 25.75 34.4166 25.4142 34.4166 25C34.4166 24.5858 34.0808 24.25 33.6666 24.25V25.75ZM32.2221 24.25C31.8079 24.25 31.4721 24.5858 31.4721 25C31.4721 25.4142 31.8079 25.75 32.2221 25.75V24.25ZM17.7777 25.75C18.1919 25.75 18.5277 25.4142 18.5277 25C18.5277 24.5858 18.1919 24.25 17.7777 24.25V25.75ZM16.3332 24.25C15.919 24.25 15.5832 24.5858 15.5832 25C15.5832 25.4142 15.919 25.75 16.3332 25.75V24.25ZM27.573 22.4269C27.2801 22.134 26.8052 22.134 26.5123 22.4269C26.2194 22.7198 26.2194 23.1947 26.5123 23.4876L27.573 22.4269ZM27.0427 27.0428L27.573 27.5731H27.573L27.0427 27.0428ZM22.9571 27.0428L22.4268 27.5731L22.4268 27.5731L22.9571 27.0428ZM22.9571 22.9573L22.4268 22.4269V22.4269L22.9571 22.9573ZM26.5123 23.4876C26.8052 23.7805 27.2801 23.7805 27.573 23.4876C27.8659 23.1947 27.8659 22.7198 27.573 22.4269L26.5123 23.4876ZM31.6547 19.4059C31.9476 19.113 31.9476 18.6381 31.6547 18.3452C31.3618 18.0523 30.8869 18.0523 30.594 18.3452L31.6547 19.4059ZM29.5829 19.3563C29.29 19.6492 29.29 20.1241 29.5829 20.417C29.8758 20.7099 30.3507 20.7099 30.6436 20.417L29.5829 19.3563ZM19.4058 18.3452C19.1129 18.0523 18.638 18.0523 18.3451 18.3452C18.0522 18.6381 18.0522 19.113 18.3451 19.4059L19.4058 18.3452ZM19.3563 20.417C19.6491 20.7099 20.124 20.7099 20.4169 20.417C20.7098 20.1241 20.7098 19.6492 20.4169 19.3563L19.3563 20.417ZM25.7499 16.3333C25.7499 15.9191 25.4141 15.5833 24.9999 15.5833C24.5857 15.5833 24.2499 15.9191 24.2499 16.3333H25.7499ZM24.2499 17.7778C24.2499 18.192 24.5857 18.5278 24.9999 18.5278C25.4141 18.5278 25.7499 18.192 25.7499 17.7778H24.2499ZM33.662 16.3379C38.446 21.1219 38.446 28.8781 33.662 33.662L34.7227 34.7227C40.0924 29.353 40.0924 20.647 34.7227 15.2773L33.662 16.3379ZM33.662 33.662C28.8781 38.446 21.1218 38.446 16.3379 33.662L15.2773 34.7227C20.647 40.0924 29.353 40.0924 34.7227 34.7227L33.662 33.662ZM16.3379 33.662C11.554 28.8781 11.554 21.1218 16.3379 16.3379L15.2773 15.2773C9.90757 20.647 9.90757 29.353 15.2773 34.7227L16.3379 33.662ZM16.3379 16.3379C21.1219 11.554 28.8781 11.554 33.662 16.3379L34.7227 15.2773C29.353 9.90757 20.647 9.90757 15.2773 15.2773L16.3379 16.3379ZM24.9999 38.75H37.9999V37.25H24.9999V38.75ZM24.2499 32.2222V33.6667H25.7499V32.2222H24.2499ZM29.5829 30.6437L30.594 31.6548L31.6547 30.5941L30.6436 29.583L29.5829 30.6437ZM19.3563 29.583L18.3451 30.5941L19.4058 31.6548L20.4169 30.6437L19.3563 29.583ZM33.6666 24.25H32.2221V25.75H33.6666V24.25ZM17.7777 24.25H16.3332V25.75H17.7777V24.25ZM26.5123 23.4876C27.3476 24.3229 27.3476 25.6772 26.5123 26.5125L27.573 27.5731C28.9941 26.152 28.9941 23.848 27.573 22.4269L26.5123 23.4876ZM26.5123 26.5125C25.677 27.3477 24.3228 27.3477 23.4875 26.5125L22.4268 27.5731C23.8479 28.9942 26.1519 28.9942 27.573 27.5731L26.5123 26.5125ZM23.4875 26.5125C22.6522 25.6772 22.6522 24.3229 23.4875 23.4876L22.4268 22.4269C21.0057 23.848 21.0057 26.152 22.4268 27.5731L23.4875 26.5125ZM23.4875 23.4876C24.3228 22.6523 25.677 22.6523 26.5123 23.4876L27.573 22.4269C26.1519 21.0059 23.8479 21.0059 22.4268 22.4269L23.4875 23.4876ZM30.594 18.3452L29.5829 19.3563L30.6436 20.417L31.6547 19.4059L30.594 18.3452ZM18.3451 19.4059L19.3563 20.417L20.4169 19.3563L19.4058 18.3452L18.3451 19.4059ZM24.2499 16.3333V17.7778H25.7499V16.3333H24.2499Z" fill="#0A0A0A"/>
</svg>
