<svg width="50" height="50" viewBox="0 0 50 50" fill="none" xmlns="http://www.w3.org/2000/svg">
<path d="M21.75 26.2497C22.1642 26.2497 22.5 25.9139 22.5 25.4997C22.5 25.0855 22.1642 24.7497 21.75 24.7497V26.2497ZM18 25.4997V24.7497C17.5858 24.7497 17.25 25.0855 17.25 25.4997H18ZM17.25 34.2497C17.25 34.6639 17.5858 34.9997 18 34.9997C18.4142 34.9997 18.75 34.6639 18.75 34.2497H17.25ZM21.2638 18.4997C20.8495 18.4997 20.5138 18.8355 20.5138 19.2497C20.5138 19.6639 20.8495 19.9997 21.2638 19.9997V18.4997ZM25.9862 19.9997C26.4005 19.9997 26.7362 19.6639 26.7362 19.2497C26.7362 18.8355 26.4005 18.4997 25.9862 18.4997V19.9997ZM18 34.9997C18.4142 34.9997 18.75 34.6639 18.75 34.2497C18.75 33.8355 18.4142 33.4997 18 33.4997V34.9997ZM13 34.2497H12.25C12.25 34.6639 12.5858 34.9997 13 34.9997V34.2497ZM14.215 17.8885L14.5789 18.5443L14.5792 18.5441L14.215 17.8885ZM22.4788 13.2972L22.843 13.9528L22.843 13.9528L22.4788 13.2972ZM24.7725 13.2972L24.4082 13.9528L24.4083 13.9528L24.7725 13.2972ZM33.0362 17.8885L33.4007 17.233L33.4005 17.2329L33.0362 17.8885ZM33.5 21.7497C33.5 22.1639 33.8358 22.4997 34.25 22.4997C34.6642 22.4997 35 22.1639 35 21.7497H33.5ZM23.75 32.7497C23.75 32.3355 23.4142 31.9997 23 31.9997C22.5858 31.9997 22.25 32.3355 22.25 32.7497H23.75ZM26.7375 35.9235V35.1735C26.3233 35.1735 25.9875 35.5093 25.9875 35.9235H26.7375ZM34.2625 35.9235H35.0125C35.0125 35.5093 34.6767 35.1735 34.2625 35.1735V35.9235ZM38.75 32.7497C38.75 32.3355 38.4142 31.9997 38 31.9997C37.5858 31.9997 37.25 32.3355 37.25 32.7497H38.75ZM37.25 32.7497C37.25 33.1639 37.5858 33.4997 38 33.4997C38.4142 33.4997 38.75 33.1639 38.75 32.7497H37.25ZM22.25 32.7497C22.25 33.1639 22.5858 33.4997 23 33.4997C23.4142 33.4997 23.75 33.1639 23.75 32.7497H22.25ZM35.1975 33.8747C35.6117 33.8747 35.9475 33.5389 35.9475 33.1247C35.9475 32.7105 35.6117 32.3747 35.1975 32.3747V33.8747ZM33.3288 32.3747C32.9145 32.3747 32.5788 32.7105 32.5788 33.1247C32.5788 33.5389 32.9145 33.8747 33.3288 33.8747V32.3747ZM27.6712 33.8747C28.0855 33.8747 28.4212 33.5389 28.4212 33.1247C28.4212 32.7105 28.0855 32.3747 27.6712 32.3747V33.8747ZM25.8025 32.3747C25.3883 32.3747 25.0525 32.7105 25.0525 33.1247C25.0525 33.5389 25.3883 33.8747 25.8025 33.8747V32.3747ZM35.796 29.5001C35.4255 29.6852 35.2752 30.1357 35.4603 30.5062C35.6455 30.8767 36.0959 31.027 36.4665 30.8419L35.796 29.5001ZM38.3352 29.9081C38.7058 29.723 38.8561 29.2725 38.6709 28.902C38.4858 28.5315 38.0353 28.3812 37.6648 28.5663L38.3352 29.9081ZM24.5407 30.8423C24.9114 31.027 25.3617 30.8761 25.5464 30.5053C25.731 30.1345 25.5801 29.6843 25.2093 29.4996L24.5407 30.8423ZM23.3343 28.5659C22.9636 28.3812 22.5133 28.5321 22.3286 28.9029C22.144 29.2737 22.2949 29.7239 22.6657 29.9086L23.3343 28.5659ZM27.4619 26.2497C27.8761 26.2487 28.211 25.912 28.21 25.4978C28.209 25.0836 27.8723 24.7487 27.4581 24.7497L27.4619 26.2497ZM25.64 26.9435L24.9101 26.771L24.9097 26.7726L25.64 26.9435ZM24.1172 30.1601C24.0229 30.5635 24.2733 30.9669 24.6767 31.0613C25.08 31.1556 25.4834 30.9052 25.5778 30.5018L24.1172 30.1601ZM25.64 26.9435L24.9101 26.771L24.9097 26.7726L25.64 26.9435ZM27.46 25.4997V24.7497L27.4581 24.7497L27.46 25.4997ZM33.54 25.4997L33.5419 24.7497H33.54V25.4997ZM35.36 26.9435L36.0903 26.7726L36.0899 26.771L35.36 26.9435ZM35.4222 30.5018C35.5166 30.9052 35.92 31.1556 36.3233 31.0613C36.7267 30.9669 36.9771 30.5635 36.8828 30.1601L35.4222 30.5018ZM21.75 24.7497H18V26.2497H21.75V24.7497ZM17.25 25.4997V34.2497H18.75V25.4997H17.25ZM21.2638 19.9997H25.9862V18.4997H21.2638V19.9997ZM18 33.4997H13V34.9997H18V33.4997ZM13.75 34.2497V19.9522H12.25V34.2497H13.75ZM13.75 19.9522C13.75 19.3671 14.0673 18.8281 14.5789 18.5443L13.8511 17.2327C12.8629 17.781 12.25 18.8222 12.25 19.9522H13.75ZM14.5792 18.5441L22.843 13.9528L22.1145 12.6416L13.8508 17.2329L14.5792 18.5441ZM22.843 13.9528C23.3297 13.6824 23.9215 13.6824 24.4082 13.9528L25.1368 12.6416C24.197 12.1195 23.0542 12.1195 22.1145 12.6416L22.843 13.9528ZM24.4083 13.9528L32.672 18.5441L33.4005 17.2329L25.1367 12.6416L24.4083 13.9528ZM32.6718 18.544C33.183 18.8282 33.5 19.3672 33.5 19.9522H35C35 18.8227 34.3879 17.7819 33.4007 17.233L32.6718 18.544ZM33.5 19.9522V21.7497H35V19.9522H33.5ZM22.25 32.7497V36.7497H23.75V32.7497H22.25ZM22.25 36.7497C22.25 37.8543 23.1454 38.7497 24.25 38.7497V37.2497C23.9739 37.2497 23.75 37.0259 23.75 36.7497H22.25ZM24.25 38.7497H25.4875V37.2497H24.25V38.7497ZM25.4875 38.7497C26.5921 38.7497 27.4875 37.8543 27.4875 36.7497H25.9875C25.9875 37.0259 25.7636 37.2497 25.4875 37.2497V38.7497ZM27.4875 36.7497V35.9235H25.9875V36.7497H27.4875ZM26.7375 36.6735H34.2625V35.1735H26.7375V36.6735ZM33.5125 35.9235V36.7497H35.0125V35.9235H33.5125ZM33.5125 36.7497C33.5125 37.8543 34.4079 38.7497 35.5125 38.7497V37.2497C35.2364 37.2497 35.0125 37.0259 35.0125 36.7497H33.5125ZM35.5125 38.7497H36.75V37.2497H35.5125V38.7497ZM36.75 38.7497C37.8546 38.7497 38.75 37.8543 38.75 36.7497H37.25C37.25 37.0259 37.0261 37.2497 36.75 37.2497V38.7497ZM38.75 36.7497V32.7497H37.25V36.7497H38.75ZM38.75 32.7497C38.75 30.9548 37.2949 29.4997 35.5 29.4997V30.9997C36.4665 30.9997 37.25 31.7832 37.25 32.7497H38.75ZM35.5 29.4997H25.5V30.9997H35.5V29.4997ZM25.5 29.4997C23.7051 29.4997 22.25 30.9548 22.25 32.7497H23.75C23.75 31.7832 24.5335 30.9997 25.5 30.9997V29.4997ZM35.1975 32.3747H33.3288V33.8747H35.1975V32.3747ZM27.6712 32.3747H25.8025V33.8747H27.6712V32.3747ZM36.4665 30.8419L38.3352 29.9081L37.6648 28.5663L35.796 29.5001L36.4665 30.8419ZM25.2093 29.4996L23.3343 28.5659L22.6657 29.9086L24.5407 30.8423L25.2093 29.4996ZM27.4581 24.7497C26.2434 24.7528 25.1895 25.5889 24.9101 26.771L26.3699 27.116C26.4896 26.6094 26.9413 26.251 27.4619 26.2497L27.4581 24.7497ZM24.9097 26.7726L24.1172 30.1601L25.5778 30.5018L26.3703 27.1143L24.9097 26.7726ZM25.5778 30.5018L26.3703 27.1143L24.9097 26.7726L24.1172 30.1601L25.5778 30.5018ZM26.3699 27.116C26.4896 26.6094 26.9413 26.251 27.4619 26.2497L27.4581 24.7497C26.2434 24.7528 25.1895 25.5889 24.9101 26.771L26.3699 27.116ZM27.46 26.2497H33.54V24.7497H27.46V26.2497ZM33.5381 26.2497C34.0587 26.251 34.5104 26.6094 34.6301 27.116L36.0899 26.771C35.8105 25.5889 34.7566 24.7528 33.5419 24.7497L33.5381 26.2497ZM34.6297 27.1143L35.4222 30.5018L36.8828 30.1601L36.0903 26.7726L34.6297 27.1143Z" fill="#0A0A0A"/>
</svg>
