<svg width="50" height="50" viewBox="0 0 50 50" fill="none" xmlns="http://www.w3.org/2000/svg">
<path d="M19.645 26.7533L19.6365 26.0034L19.633 26.0034L19.645 26.7533ZM19.645 39.6817L19.633 40.4317H19.645V39.6817ZM29.2217 31.4967L29.5927 32.1484C29.7794 32.0422 29.9116 31.8609 29.9557 31.6506C29.9998 31.4404 29.9516 31.2213 29.8234 31.0489L29.2217 31.4967ZM20.5488 33.253C20.9573 33.1847 21.2331 32.7981 21.1647 32.3895C21.0963 31.981 20.7097 31.7052 20.3012 31.7736L20.5488 33.253ZM11.0327 37.9327C10.8114 38.2828 10.9158 38.746 11.266 38.9673C11.6161 39.1886 12.0794 39.0842 12.3007 38.734L11.0327 37.9327ZM30 39.25C29.5858 39.25 29.25 39.5858 29.25 40C29.25 40.4142 29.5858 40.75 30 40.75V39.25ZM30.6783 15.51C30.6783 15.9242 31.0141 16.26 31.4283 16.26C31.8425 16.26 32.1783 15.9242 32.1783 15.51H30.6783ZM9.51191 22.2872C9.19741 22.5568 9.16099 23.0303 9.43056 23.3448C9.70012 23.6593 10.1736 23.6957 10.4881 23.4261L9.51191 22.2872ZM22.8333 11.8567L22.3458 11.2867L22.3452 11.2872L22.8333 11.8567ZM27.1667 11.8567L27.6548 11.2872L27.6542 11.2867L27.1667 11.8567ZM39.5119 23.4261C39.8264 23.6957 40.2999 23.6593 40.5694 23.3448C40.839 23.0303 40.8026 22.5568 40.4881 22.2872L39.5119 23.4261ZM19.633 26.0034C15.6939 26.0667 12.5338 29.2779 12.5338 33.2175H14.0338C14.0338 30.097 16.5369 27.5533 19.657 27.5032L19.633 26.0034ZM12.5338 33.2175C12.5338 37.1571 15.6939 40.3683 19.633 40.4316L19.657 38.9318C16.5369 38.8817 14.0338 36.338 14.0338 33.2175H12.5338ZM19.645 40.4317C22.652 40.4317 24.4867 38.5572 25.8788 36.6804C26.2286 36.2088 26.5588 35.7255 26.8734 35.2642C27.1911 34.7983 27.4917 34.3568 27.7953 33.9468C28.4107 33.1158 28.9806 32.4969 29.5927 32.1484L28.8506 30.8449C27.9535 31.3556 27.2302 32.1894 26.5898 33.0542C26.2656 33.4921 25.9478 33.9592 25.6342 34.419C25.3176 34.8832 25.0035 35.3426 24.6741 35.7867C23.3492 37.5728 21.9047 38.9317 19.645 38.9317V40.4317ZM29.8234 31.0489C27.4308 27.8338 23.6439 25.9581 19.6365 26.0034L19.6535 27.5033C23.1808 27.4635 26.5141 29.1144 28.62 31.9444L29.8234 31.0489ZM20.3012 31.7736C16.4759 32.4139 13.1047 34.654 11.0327 37.9327L12.3007 38.734C14.1446 35.8163 17.1446 33.8228 20.5488 33.253L20.3012 31.7736ZM30 40.75H34.5233V39.25H30V40.75ZM34.5233 40.75C36.7785 40.75 38.6067 38.9218 38.6067 36.6667H37.1067C37.1067 38.0934 35.9501 39.25 34.5233 39.25V40.75ZM38.6067 36.6667V11.6667H37.1067V36.6667H38.6067ZM38.6067 11.6667C38.6067 10.332 37.5247 9.25 36.19 9.25V10.75C36.6963 10.75 37.1067 11.1604 37.1067 11.6667H38.6067ZM36.19 9.25H33.095V10.75H36.19V9.25ZM33.095 9.25C31.7603 9.25 30.6783 10.332 30.6783 11.6667H32.1783C32.1783 11.1604 32.5887 10.75 33.095 10.75V9.25ZM30.6783 11.6667V15.51H32.1783V11.6667H30.6783ZM10.4881 23.4261L23.3214 12.4261L22.3452 11.2872L9.51191 22.2872L10.4881 23.4261ZM23.3208 12.4266C24.2876 11.5997 25.7124 11.5997 26.6792 12.4266L27.6542 11.2867C26.1261 9.97969 23.8739 9.97969 22.3458 11.2867L23.3208 12.4266ZM26.6786 12.4261L39.5119 23.4261L40.4881 22.2872L27.6548 11.2872L26.6786 12.4261Z" fill="#0A0A0A"/>
</svg>
