<svg width="50" height="50" viewBox="0 0 50 50" fill="none" xmlns="http://www.w3.org/2000/svg">
<path fill-rule="evenodd" clip-rule="evenodd" d="M19.0637 17.4789C19.0637 17.8187 19.3392 18.0942 19.679 18.0942C20.0188 18.0942 20.2943 17.8187 20.2943 17.4789C20.2895 17.1295 20.4221 16.7922 20.6635 16.5395C21.4896 15.5705 21.4896 14.1449 20.6635 13.1759C20.1686 12.6474 20.1686 11.8256 20.6635 11.2971C21.0702 10.832 21.2908 10.2331 21.2829 9.61531C21.2829 9.27548 21.0074 9 20.6676 9C20.3278 9 20.0523 9.27548 20.0523 9.61531C20.0571 9.96471 19.9245 10.302 19.6831 10.5547C18.8494 11.5235 18.8477 12.9557 19.679 13.9265C20.174 14.455 20.174 15.2768 19.679 15.8053C19.276 16.2691 19.0571 16.8645 19.0637 17.4789ZM24.5153 18.0942C24.1755 18.0942 23.9 17.8187 23.9 17.4789C23.8915 16.8598 24.1121 16.2593 24.5194 15.793C25.0144 15.2645 25.0144 14.4427 24.5194 13.9142C23.6939 12.9465 23.6939 11.5224 24.5194 10.5547C24.7608 10.302 24.8934 9.96471 24.8886 9.61531C24.8886 9.27548 25.1641 9 25.5039 9C25.8437 9 26.1192 9.27548 26.1192 9.61531C26.1271 10.2331 25.9065 10.832 25.4998 11.2971C25.0049 11.8256 25.0049 12.6474 25.4998 13.1759C26.3259 14.1449 26.3259 15.5705 25.4998 16.5395C25.2584 16.7922 25.1258 17.1295 25.1306 17.4789C25.1306 17.8187 24.8551 18.0942 24.5153 18.0942ZM29.3516 18.0942C29.0118 18.0942 28.7363 17.8187 28.7363 17.4789C28.7278 16.8598 28.9484 16.2593 29.3557 15.793C29.8507 15.2645 29.8507 14.4427 29.3557 13.9142C28.5302 12.9465 28.5302 11.5224 29.3557 10.5547C29.5971 10.302 29.7297 9.96471 29.7249 9.61531C29.7249 9.27548 30.0004 9 30.3402 9C30.68 9 30.9555 9.27548 30.9555 9.61531C30.9634 10.2331 30.7428 10.832 30.3361 11.2971C29.8412 11.8256 29.8412 12.6474 30.3361 13.1759C31.1622 14.1449 31.1622 15.5705 30.3361 16.5395C30.0947 16.7922 29.9621 17.1295 29.9669 17.4789C29.9669 17.8187 29.6914 18.0942 29.3516 18.0942ZM35.8123 13.2579H36.28C37.2428 13.2579 38.0233 14.0384 38.0233 15.0013V40.5898C38.0233 40.8163 37.8397 41 37.6131 41H34.4792C34.2526 41 34.069 40.8163 34.069 40.5898V35.0028H15.9544V40.5898C15.9544 40.8163 15.7707 41 15.5442 41H12.4102C12.1837 41 12 40.8163 12 40.5898V15.0013C12 14.0384 12.7805 13.2579 13.7434 13.2579H14.211C15.1738 13.2579 15.9544 14.0384 15.9544 15.0013V19.8458H34.069V15.0013C34.069 14.0384 34.8495 13.2579 35.8123 13.2579ZM25.627 33.7927H34.069V21.0764H25.627V33.7927ZM24.3964 33.7927H15.9544V21.0764H24.3964V33.7927ZM35.2996 39.7694H36.7927V15.0013C36.7927 14.7181 36.5632 14.4885 36.28 14.4885H35.8123C35.5291 14.4885 35.2996 14.7181 35.2996 15.0013V39.7694ZM14.7238 19.8458V39.7694H13.2306V15.0013C13.2306 14.7181 13.4602 14.4885 13.7434 14.4885H14.211C14.4942 14.4885 14.7238 14.7181 14.7238 15.0013V19.8458Z" fill="#0A0A0A"/>
</svg>
