<svg width="50" height="50" viewBox="0 0 50 50" fill="none" xmlns="http://www.w3.org/2000/svg">
<path fill-rule="evenodd" clip-rule="evenodd" d="M38 27.3543C38 26.9551 37.6776 26.6327 37.2783 26.6327H13.4433V15.7567C13.4433 14.4823 14.4772 13.4484 15.7516 13.4484C16.8417 13.4484 17.7528 14.2059 17.9984 15.2244C16.3094 15.5878 15.0146 17.0823 14.9787 18.8736C14.9736 19.0681 15.0402 19.6106 15.7004 19.6106H21.8728C22.6047 19.6106 22.5996 19.0681 22.5945 18.8736C22.5587 17.0465 21.2075 15.5213 19.4622 15.2039C19.1961 13.3921 17.635 12 15.7567 12C13.6839 12 12 13.6839 12 15.7567V27.3543C12 31.587 14.7382 35.1953 18.5307 36.5055V37.2783C18.5307 37.6776 18.8531 38 19.2524 38C19.6516 38 19.974 37.6776 19.974 37.2783V36.8791C20.5268 36.9764 21.0949 37.0327 21.6732 37.0327H28.3165C28.8949 37.0327 29.463 36.9764 30.0157 36.8791V37.2783C30.0157 37.6776 30.3382 38 30.7374 38C31.1366 38 31.4591 37.6776 31.4591 37.2783V36.5055C35.2618 35.1953 38 31.587 38 27.3543ZM28.3217 35.5894H21.6783C17.3843 35.5894 13.8425 32.2831 13.4791 28.076H36.526C36.1575 32.278 32.6209 35.5894 28.3217 35.5894ZM18.7866 16.5807C17.763 16.5807 16.8827 17.2461 16.5551 18.1622H21.0181C20.6906 17.2461 19.8051 16.5807 18.7866 16.5807Z" fill="#0A0A0A"/>
</svg>
