<svg width="50" height="50" viewBox="0 0 50 50" fill="none" xmlns="http://www.w3.org/2000/svg">
<path d="M25.7278 12.02C25.7278 11.6058 25.392 11.27 24.9778 11.27C24.5636 11.27 24.2278 11.6058 24.2278 12.02H25.7278ZM24.2278 37.002C24.2278 37.4162 24.5636 37.752 24.9778 37.752C25.392 37.752 25.7278 37.4162 25.7278 37.002H24.2278ZM14.4679 21.4975C14.176 21.7914 14.1776 22.2662 14.4714 22.5582C14.7652 22.8501 15.2401 22.8486 15.5321 22.5547L14.4679 21.4975ZM24.9611 12L25.4932 11.4714C25.3524 11.3297 25.1609 11.25 24.9611 11.25C24.7614 11.25 24.5699 11.3297 24.4291 11.4714L24.9611 12ZM34.3902 22.5547C34.6822 22.8486 35.157 22.8501 35.4509 22.5582C35.7447 22.2662 35.7463 21.7914 35.4543 21.4975L34.3902 22.5547ZM24.2278 12.02V37.002H25.7278V12.02H24.2278ZM15.5321 22.5547L25.4932 12.5286L24.4291 11.4714L14.4679 21.4975L15.5321 22.5547ZM24.4291 12.5286L34.3902 22.5547L35.4543 21.4975L25.4932 11.4714L24.4291 12.5286Z" fill="#0A0A0A"/>
</svg>
