<svg width="50" height="50" viewBox="0 0 50 50" fill="none" xmlns="http://www.w3.org/2000/svg">
<path d="M19.2222 24.1653C18.808 24.1653 18.4722 24.5011 18.4722 24.9153C18.4722 25.3295 18.808 25.6653 19.2222 25.6653V24.1653ZM30.7778 25.6653C31.192 25.6653 31.5278 25.3295 31.5278 24.9153C31.5278 24.5011 31.192 24.1653 30.7778 24.1653V25.6653ZM19.2222 18.4252C18.808 18.4252 18.4722 18.761 18.4722 19.1752C18.4722 19.5894 18.808 19.9252 19.2222 19.9252V18.4252ZM30.7778 19.9252C31.192 19.9252 31.5278 19.5894 31.5278 19.1752C31.5278 18.761 31.192 18.4252 30.7778 18.4252V19.9252ZM30.0278 27.7854C30.0278 28.1996 30.3636 28.5354 30.7778 28.5354C31.192 28.5354 31.5278 28.1996 31.5278 27.7854H30.0278ZM34.3611 14.1526C34.3611 14.5668 34.6969 14.9026 35.1111 14.9026C35.5253 14.9026 35.8611 14.5668 35.8611 14.1526H34.3611ZM18.4722 27.7854C18.4722 28.1996 18.808 28.5354 19.2222 28.5354C19.6364 28.5354 19.9722 28.1996 19.9722 27.7854H18.4722ZM22.8056 14.1526C22.8056 14.5668 23.1413 14.9026 23.5556 14.9026C23.9698 14.9026 24.3056 14.5668 24.3056 14.1526H22.8056ZM12.3028 37.9686C13.7652 37.3233 15.4348 37.3233 16.8972 37.9686L17.5028 36.5963C15.6546 35.7808 13.5454 35.7808 11.6972 36.5963L12.3028 37.9686ZM16.8972 37.9686C18.7454 38.7842 20.8546 38.7842 22.7028 37.9686L22.0972 36.5963C20.6348 37.2416 18.9652 37.2416 17.5028 36.5963L16.8972 37.9686ZM22.7028 37.9686C24.1652 37.3233 25.8348 37.3233 27.2972 37.9686L27.9028 36.5963C26.0546 35.7808 23.9454 35.7808 22.0972 36.5963L22.7028 37.9686ZM27.2972 37.9686C29.1454 38.7842 31.2546 38.7842 33.1028 37.9686L32.4972 36.5963C31.0348 37.2416 29.3652 37.2416 27.9028 36.5963L27.2972 37.9686ZM33.1028 37.9686C34.5652 37.3233 36.2348 37.3233 37.6972 37.9686L38.3028 36.5963C36.4546 35.7808 34.3454 35.7808 32.4972 36.5963L33.1028 37.9686ZM12.3028 32.2285C13.7652 31.5832 15.4348 31.5832 16.8972 32.2285L17.5028 30.8562C15.6546 30.0406 13.5454 30.0406 11.6972 30.8562L12.3028 32.2285ZM16.8972 32.2285C18.7454 33.044 20.8546 33.044 22.7028 32.2285L22.0972 30.8562C20.6348 31.5015 18.9652 31.5015 17.5028 30.8562L16.8972 32.2285ZM22.7028 32.2285C24.1652 31.5832 25.8348 31.5832 27.2972 32.2285L27.9028 30.8562C26.0546 30.0406 23.9454 30.0406 22.0972 30.8562L22.7028 32.2285ZM27.2972 32.2285C29.1454 33.044 31.2546 33.044 33.1028 32.2285L32.4972 30.8562C31.0348 31.5015 29.3652 31.5015 27.9028 30.8562L27.2972 32.2285ZM33.1028 32.2285C34.5652 31.5832 36.2348 31.5832 37.6972 32.2285L38.3028 30.8562C36.4546 30.0406 34.3454 30.0406 32.4972 30.8562L33.1028 32.2285ZM19.2222 25.6653H30.7778V24.1653H19.2222V25.6653ZM19.2222 19.9252H30.7778V18.4252H19.2222V19.9252ZM31.5278 27.7854V14.1526H30.0278V27.7854H31.5278ZM31.5278 14.1526C31.5278 13.3832 32.158 12.75 32.9444 12.75V11.25C31.3389 11.25 30.0278 12.5455 30.0278 14.1526H31.5278ZM32.9444 12.75C33.7309 12.75 34.3611 13.3832 34.3611 14.1526H35.8611C35.8611 12.5455 34.55 11.25 32.9444 11.25V12.75ZM19.9722 27.7854V14.1526H18.4722V27.7854H19.9722ZM19.9722 14.1526C19.9722 13.3832 20.6025 12.75 21.3889 12.75V11.25C19.7833 11.25 18.4722 12.5455 18.4722 14.1526H19.9722ZM21.3889 12.75C22.1753 12.75 22.8056 13.3832 22.8056 14.1526H24.3056C24.3056 12.5455 22.9945 11.25 21.3889 11.25V12.75Z" fill="#0A0A0A"/>
</svg>
