<svg width="50" height="50" viewBox="0 0 50 50" fill="none" xmlns="http://www.w3.org/2000/svg">
<path fill-rule="evenodd" clip-rule="evenodd" d="M24.9254 10.0035C24.5904 10.0403 24.311 10.3588 24.3182 10.6956V10.7169C22.1164 10.8137 19.1642 11.3741 16.4568 12.7082C13.4606 14.1845 10.7452 16.6538 10.0121 20.4387C9.92995 20.8348 10.2786 21.2607 10.6832 21.2586H24.3182V27.0512H18.8003C18.4652 27.0829 18.181 27.3962 18.1825 27.7327V30.1179C18.1825 30.4747 18.5073 30.7993 18.8642 30.7993H24.3182V38.6364H21.8682C21.5112 38.6531 21.2015 38.993 21.2183 39.3498C21.235 39.7067 21.5751 40.0162 21.9321 39.9994H28.0679C28.4281 40.0045 28.7593 39.6779 28.7593 39.3179C28.7593 38.9578 28.4281 38.6313 28.0679 38.6364H25.6818V30.7993H31.1358C31.4927 30.7993 31.8175 30.4747 31.8175 30.1179V27.7327C31.8175 27.3759 31.4927 27.0512 31.1358 27.0512H25.6818V21.2586H39.3168C39.7214 21.2607 40.07 20.8348 39.9879 20.4387C39.2548 16.6538 36.5394 14.1845 33.5432 12.7081C30.8358 11.3741 27.8836 10.8137 25.6818 10.7169V10.6956C25.6901 10.309 25.3099 9.96116 24.9254 10.0035V10.0035ZM19.546 28.4142H30.454V29.4364H19.546V28.4142ZM38.6777 27.8285C38.7689 27.5783 39.0188 27.3942 39.2848 27.3813C39.7368 27.358 40.1191 27.8857 39.9559 28.3077L39.9538 28.3135C39.2418 30.2172 38.5635 32.0307 37.9 33.866H37.9533C38.3135 33.8609 38.6448 34.1874 38.6448 34.5475C38.6448 34.9076 38.3135 35.2341 37.9533 35.229H37.5379L38.6031 38.4128C38.7174 38.7529 38.5119 39.1663 38.1717 39.2806C37.8314 39.3949 37.4178 39.1895 37.3035 38.8493L36.0998 35.229H33.8628V38.9771C33.8679 39.3372 33.5412 39.6683 33.181 39.6683C32.8208 39.6683 32.4942 39.3372 32.4993 38.9771V35.229H32.1584C31.7982 35.2341 31.4669 34.9076 31.4669 34.5475C31.4669 34.1874 31.7982 33.8609 32.1584 33.866H36.4513C36.5924 33.4701 36.7499 33.0382 36.9066 32.6085L37.0691 32.1623H33.181C32.824 32.1791 32.4839 31.8697 32.4672 31.5128C32.4504 31.1559 32.7601 30.8161 33.1171 30.7993H37.5698C37.9131 29.8718 38.2828 28.8839 38.5517 28.1653L38.6777 27.8285ZM10.6299 27.3813C10.2065 27.4123 9.8904 27.9121 10.0441 28.3077C10.7829 30.2764 11.4193 31.9981 12.1 33.866H11.9828C11.6258 33.8827 11.3161 34.2226 11.3329 34.5795C11.3496 34.9363 11.6897 35.2458 12.0467 35.229H12.4621L11.3969 38.4128C11.2826 38.7529 11.4881 39.1663 11.8283 39.2806C12.1686 39.3949 12.5822 39.1895 12.6965 38.8493L13.9002 35.229H16.1372V38.9771C16.1321 39.3372 16.4588 39.6683 16.819 39.6683C17.1792 39.6683 17.5058 39.3372 17.5007 38.9771V35.229H17.8416C18.2018 35.2341 18.5331 34.9076 18.5331 34.5475C18.5331 34.1874 18.2018 33.8609 17.8416 33.866H13.5487C13.3462 33.3011 13.1171 32.6708 12.9308 32.1623H16.819C17.1791 32.1674 17.5104 31.8409 17.5104 31.4808C17.5104 31.1208 17.1791 30.7943 16.819 30.7993H12.4302C12.0868 29.8716 11.717 28.8833 11.4481 28.1647L11.3223 27.8285C11.2217 27.5512 10.9242 27.359 10.6299 27.3813ZM32.9467 13.9327C30.1928 12.5757 27.0185 12.0586 25 12.0586C22.9815 12.0586 19.8072 12.5757 17.0533 13.9327C14.5353 15.1734 12.4033 17.0726 11.5673 19.8956H38.4327C37.5967 17.0726 35.4647 15.1734 32.9467 13.9327Z" fill="#0A0A0A"/>
</svg>
