<svg width="50" height="50" viewBox="0 0 50 50" fill="none" xmlns="http://www.w3.org/2000/svg">
<path d="M12.5569 32.8744L11.9339 32.4568L11.9337 32.4572L12.5569 32.8744ZM21.697 19.2368L21.074 18.8192L21.074 18.8192L21.697 19.2368ZM26.4906 16.3708L26.4176 15.6244L26.4906 16.3708ZM33.6319 23.5122L34.3784 23.5851L33.6319 23.5122ZM30.7659 28.3057L31.1835 28.9287L31.1835 28.9287L30.7659 28.3057ZM17.1283 37.4458L17.5456 38.069L17.5459 38.0688L17.1283 37.4458ZM21.0134 35.0124C21.3063 35.3053 21.7812 35.3053 22.0741 35.0124C22.367 34.7195 22.367 34.2447 22.0741 33.9518L21.0134 35.0124ZM19.0612 30.9388C18.7683 30.6459 18.2934 30.6459 18.0005 30.9388C17.7076 31.2317 17.7076 31.7066 18.0005 31.9995L19.0612 30.9388ZM30.1932 28.8744C30.4861 29.1673 30.961 29.1673 31.2538 28.8744C31.5467 28.5815 31.5467 28.1066 31.2538 27.8137L30.1932 28.8744ZM28.635 25.1948C28.3421 24.9019 27.8672 24.9019 27.5743 25.1948C27.2814 25.4877 27.2814 25.9626 27.5743 26.2555L28.635 25.1948ZM20.8725 27.2133C21.1654 27.5062 21.6403 27.5062 21.9332 27.2133C22.2261 26.9204 22.2261 26.4455 21.9332 26.1526L20.8725 27.2133ZM19.1214 23.3408C18.8285 23.0479 18.3536 23.0479 18.0607 23.3408C17.7678 23.6337 17.7678 24.1086 18.0607 24.4015L19.1214 23.3408ZM28.5957 16.7164C28.5957 17.1307 28.9315 17.4664 29.3457 17.4664C29.7599 17.4664 30.0957 17.1307 30.0957 16.7164H28.5957ZM33.2671 13.9607L32.5171 13.9613C32.5174 14.2646 32.7002 14.5379 32.9805 14.6538C33.2608 14.7697 33.5833 14.7054 33.7977 14.4908L33.2671 13.9607ZM36.0393 16.7329L35.5092 16.2023C35.2946 16.4167 35.2303 16.7392 35.3462 17.0195C35.4621 17.2998 35.7354 17.4826 36.0387 17.4829L36.0393 16.7329ZM33.2836 19.9043C32.8693 19.9043 32.5336 20.2401 32.5336 20.6543C32.5336 21.0685 32.8693 21.4043 33.2836 21.4043V19.9043ZM13.4972 36.5086C12.6366 35.6497 12.5038 34.302 13.1802 33.2916L11.9337 32.4572C10.8586 34.0631 11.0697 36.2051 12.4376 37.5703L13.4972 36.5086ZM13.18 33.2919L22.32 19.6544L21.074 18.8192L11.9339 32.4568L13.18 33.2919ZM22.32 19.6544C23.2838 18.2165 24.8407 17.2857 26.5635 17.1173L26.4176 15.6244C24.2482 15.8364 22.2877 17.0086 21.074 18.8192L22.32 19.6544ZM26.5635 17.1173C28.2863 16.9489 29.994 17.5607 31.218 18.7847L32.2787 17.7241C30.7374 16.1827 28.587 15.4123 26.4176 15.6244L26.5635 17.1173ZM31.218 18.7847C32.4421 20.0087 33.0539 21.7164 32.8855 23.4392L34.3784 23.5851C34.5904 21.4157 33.82 19.2653 32.2787 17.724L31.218 18.7847ZM32.8855 23.4392C32.7171 25.162 31.7862 26.7189 30.3483 27.6827L31.1835 28.9287C32.9941 27.7151 34.1663 25.7545 34.3784 23.5851L32.8855 23.4392ZM30.3484 27.6827L16.7108 36.8228L17.5459 38.0688L31.1835 28.9287L30.3484 27.6827ZM16.7111 36.8226C15.7022 37.498 14.3566 37.3666 13.4974 36.5087L12.4375 37.5701C13.8031 38.9337 15.9419 39.1426 17.5456 38.069L16.7111 36.8226ZM22.0741 33.9518L19.0612 30.9388L18.0005 31.9995L21.0134 35.0124L22.0741 33.9518ZM31.2538 27.8137L28.635 25.1948L27.5743 26.2555L30.1932 28.8744L31.2538 27.8137ZM21.9332 26.1526L19.1214 23.3408L18.0607 24.4015L20.8725 27.2133L21.9332 26.1526ZM30.0957 16.7164V13.9607H28.5957V16.7164H30.0957ZM30.0957 13.9607C30.0957 13.2921 30.6377 12.75 31.3064 12.75V11.25C29.8093 11.25 28.5957 12.4636 28.5957 13.9607H30.0957ZM31.3059 12.75C31.9746 12.7505 32.5167 13.2925 32.5171 13.9613L34.0171 13.9602C34.0161 12.4638 32.8033 11.251 31.3069 11.25L31.3059 12.75ZM33.7977 14.4908C34.0245 14.2638 34.3323 14.1363 34.6532 14.1363V12.6363C33.9342 12.6363 33.2448 12.922 32.7366 13.4306L33.7977 14.4908ZM34.6532 14.1363C34.9741 14.1363 35.2819 14.2638 35.5087 14.4908L36.5698 13.4306C36.0616 12.922 35.3722 12.6363 34.6532 12.6363V14.1363ZM35.5092 14.4913C35.7362 14.7181 35.8637 15.0259 35.8637 15.3468H37.3637C37.3637 14.6278 37.078 13.9384 36.5694 13.4302L35.5092 14.4913ZM35.8637 15.3468C35.8637 15.6677 35.7362 15.9755 35.5092 16.2023L36.5694 17.2634C37.078 16.7552 37.3637 16.0658 37.3637 15.3468H35.8637ZM36.0387 17.4829C36.7075 17.4833 37.2495 18.0254 37.25 18.6941L38.75 18.6931C38.749 17.1967 37.5362 15.9839 36.0398 15.9829L36.0387 17.4829ZM37.25 18.6936C37.25 19.3623 36.7079 19.9043 36.0393 19.9043V21.4043C37.5364 21.4043 38.75 20.1907 38.75 18.6936H37.25ZM36.0393 19.9043H33.2836V21.4043H36.0393V19.9043Z" fill="#0A0A0A"/>
</svg>
