<svg width="50" height="50" viewBox="0 0 50 50" fill="none" xmlns="http://www.w3.org/2000/svg">
<path d="M27.7054 18.6875L28.2358 18.1572C28.0951 18.0165 27.9044 17.9375 27.7054 17.9375C27.5065 17.9375 27.3158 18.0165 27.1751 18.1572L27.7054 18.6875ZM31.3126 22.2947L31.8429 22.825C32.1358 22.5321 32.1358 22.0572 31.8429 21.7643L31.3126 22.2947ZM22.2937 31.3135L21.7634 31.8439C22.0563 32.1368 22.5312 32.1368 22.8241 31.8439L22.2937 31.3135ZM18.6866 27.7064L18.1562 27.176C18.0156 27.3167 17.9366 27.5075 17.9366 27.7064C17.9366 27.9053 18.0156 28.0961 18.1562 28.2367L18.6866 27.7064ZM12.131 26.5617L11.6007 27.092L12.131 26.5617ZM12.131 25.2436L11.6007 24.7133L12.131 25.2436ZM24.757 37.8696L24.2267 37.3393L24.757 37.8696ZM23.439 37.8696L23.9693 37.3393L23.439 37.8696ZM26.1444 35.1643L26.6747 34.6339L26.1444 35.1643ZM26.1444 36.4823L26.6747 37.0127L26.1444 36.4823ZM14.8364 23.8563L14.3061 24.3866L14.8364 23.8563ZM13.5183 23.8563L14.0487 24.3866L13.5183 23.8563ZM12.1313 31.9738L12.6616 31.4434L12.1313 31.9738ZM12.1313 30.6557L11.6009 30.1254L12.1313 30.6557ZM19.3466 37.871L18.8162 37.3407L19.3466 37.871ZM18.0285 37.871L17.4982 38.4013L18.0285 37.871ZM20.7339 36.4837L21.2642 37.014L20.7339 36.4837ZM14.8366 29.2684L14.3063 29.7987L14.8366 29.2684ZM13.5186 29.2684L14.0489 29.7987L13.5186 29.2684ZM37.8685 23.4413L38.3988 22.9109L37.8685 23.4413ZM37.8685 24.7593L38.3988 25.2896L37.8685 24.7593ZM25.2425 12.1333L25.7728 12.6636L25.2425 12.1333ZM26.5605 12.1333L26.0302 12.6636L26.5605 12.1333ZM23.8551 14.8387L23.3248 15.369L23.8551 14.8387ZM23.8551 13.5206L23.3248 12.9903L23.8551 13.5206ZM35.1631 26.1466L35.6935 25.6163L35.1631 26.1466ZM36.4812 26.1466L35.9508 25.6163L36.4812 26.1466ZM37.869 18.0282L37.3386 18.5585L37.869 18.0282ZM37.869 19.3462L38.3993 19.8766L37.869 19.3462ZM30.6537 12.1309L31.184 12.6613L30.6537 12.1309ZM31.9717 12.1309L32.5021 11.6006L31.9717 12.1309ZM29.2664 14.8363L29.7967 14.306L29.2664 14.8363ZM29.2664 13.5183L28.736 12.9879L29.2664 13.5183ZM35.1636 20.7336L34.6333 21.2639L35.1636 20.7336ZM36.4817 20.7336L35.9513 20.2032L36.4817 20.7336ZM27.1751 19.2178L30.7823 22.825L31.8429 21.7643L28.2358 18.1572L27.1751 19.2178ZM30.7823 21.7643L21.7634 30.7832L22.8241 31.8439L31.8429 22.825L30.7823 21.7643ZM22.8241 30.7832L19.2169 27.176L18.1562 28.2367L21.7634 31.8439L22.8241 30.7832ZM19.2169 28.2367L28.2358 19.2178L27.1751 18.1572L18.1562 27.176L19.2169 28.2367ZM14.3061 24.3866L25.614 35.6946L26.6747 34.6339L15.3667 23.326L14.3061 24.3866ZM25.614 35.952L24.2267 37.3393L25.2874 38.4L26.6747 37.0127L25.614 35.952ZM23.9693 37.3393L12.6613 26.0313L11.6007 27.092L22.9087 38.4L23.9693 37.3393ZM12.6613 25.7739L14.0487 24.3866L12.988 23.326L11.6007 24.7133L12.6613 25.7739ZM12.6613 26.0313C12.5903 25.9603 12.5903 25.845 12.6613 25.7739L11.6007 24.7133C10.9438 25.3701 10.9438 26.4351 11.6007 27.092L12.6613 26.0313ZM24.2267 37.3393C24.1556 37.4104 24.0404 37.4104 23.9693 37.3393L22.9087 38.4C23.5655 39.0568 24.6305 39.0568 25.2874 38.4L24.2267 37.3393ZM25.614 35.6946C25.6851 35.7657 25.6851 35.8809 25.614 35.952L26.6747 37.0127C27.3316 36.3558 27.3316 35.2908 26.6747 34.6339L25.614 35.6946ZM15.3667 23.326C14.7098 22.6691 13.6449 22.6691 12.988 23.326L14.0487 24.3866C14.1197 24.3155 14.235 24.3155 14.3061 24.3866L15.3667 23.326ZM14.3063 29.7987L20.2035 35.696L21.2642 34.6353L15.367 28.7381L14.3063 29.7987ZM20.2036 35.9534L18.8162 37.3407L19.8769 38.4013L21.2642 37.014L20.2036 35.9534ZM18.5588 37.3407L12.6616 31.4434L11.6009 32.5041L17.4982 38.4013L18.5588 37.3407ZM12.6616 31.1861L14.0489 29.7987L12.9883 28.7381L11.6009 30.1254L12.6616 31.1861ZM12.6616 31.4434C12.5905 31.3724 12.5905 31.2571 12.6616 31.1861L11.6009 30.1254C10.9441 30.7823 10.9441 31.8472 11.6009 32.5041L12.6616 31.4434ZM18.8162 37.3407C18.7452 37.4118 18.6299 37.4118 18.5588 37.3407L17.4982 38.4013C18.155 39.0582 19.22 39.0582 19.8769 38.4013L18.8162 37.3407ZM20.2035 35.696C20.2746 35.767 20.2746 35.8823 20.2036 35.9534L21.2642 37.014C21.9211 36.3572 21.9211 35.2922 21.2642 34.6353L20.2035 35.696ZM15.367 28.7381C14.7101 28.0812 13.6451 28.0812 12.9883 28.7381L14.0489 29.7987C14.12 29.7277 14.2352 29.7277 14.3063 29.7987L15.367 28.7381ZM35.6935 25.6163L24.3855 14.3083L23.3248 15.369L34.6328 26.677L35.6935 25.6163ZM24.3855 14.0509L25.7728 12.6636L24.7121 11.603L23.3248 12.9903L24.3855 14.0509ZM26.0302 12.6636L37.3382 23.9716L38.3988 22.9109L27.0908 11.603L26.0302 12.6636ZM37.3382 24.229L35.9508 25.6163L37.0115 26.677L38.3988 25.2896L37.3382 24.229ZM37.3382 23.9716C37.4092 24.0427 37.4092 24.1579 37.3382 24.229L38.3988 25.2896C39.0557 24.6328 39.0557 23.5678 38.3988 22.9109L37.3382 23.9716ZM25.7728 12.6636C25.8439 12.5925 25.9591 12.5925 26.0302 12.6636L27.0908 11.603C26.434 10.9461 25.369 10.9461 24.7121 11.603L25.7728 12.6636ZM24.3855 14.3083C24.3144 14.2372 24.3144 14.122 24.3855 14.0509L23.3248 12.9903C22.6679 13.6471 22.6679 14.7121 23.3248 15.369L24.3855 14.3083ZM34.6328 26.677C35.2897 27.3338 36.3546 27.3338 37.0115 26.677L35.9508 25.6163C35.8798 25.6874 35.7645 25.6874 35.6935 25.6163L34.6328 26.677ZM35.6939 20.2032L29.7967 14.306L28.736 15.3666L34.6333 21.2639L35.6939 20.2032ZM29.7967 14.0486L31.184 12.6613L30.1234 11.6006L28.736 12.9879L29.7967 14.0486ZM31.4414 12.6613L37.3386 18.5585L38.3993 17.4979L32.5021 11.6006L31.4414 12.6613ZM37.3386 18.8159L35.9513 20.2032L37.012 21.2639L38.3993 19.8766L37.3386 18.8159ZM37.3386 18.5585C37.4097 18.6296 37.4097 18.7448 37.3386 18.8159L38.3993 19.8766C39.0562 19.2197 39.0562 18.1547 38.3993 17.4979L37.3386 18.5585ZM31.184 12.6613C31.2551 12.5902 31.3703 12.5902 31.4414 12.6613L32.5021 11.6006C31.8452 10.9437 30.7802 10.9437 30.1234 11.6006L31.184 12.6613ZM29.7967 14.306C29.7256 14.2349 29.7256 14.1197 29.7967 14.0486L28.736 12.9879C28.0792 13.6448 28.0792 14.7098 28.736 15.3666L29.7967 14.306ZM34.6333 21.2639C35.2901 21.9207 36.3551 21.9207 37.012 21.2639L35.9513 20.2032C35.8802 20.2743 35.765 20.2743 35.6939 20.2032L34.6333 21.2639Z" fill="#0A0A0A"/>
</svg>
