<svg width="24" height="24" viewBox="0 0 24 24" fill="none" xmlns="http://www.w3.org/2000/svg">
<path fill-rule="evenodd" clip-rule="evenodd" d="M2.69767 4.39535H3.27907V15.2837V19.9767C3.27907 20.3628 3.5907 20.6744 3.97674 20.6744H6.76744C7.15349 20.6744 7.46512 20.3628 7.46512 19.9767C7.46512 18.1628 6.63721 16.4977 5.25116 15.4093C8.32093 13.6419 10.2558 10.3581 10.2558 6.75349C10.2558 5.95349 10.1581 5.16279 9.97209 4.39535H14.0326C13.8465 5.16279 13.7488 5.95349 13.7488 6.75349C13.7488 10.3581 15.6837 13.6419 18.7535 15.4093C17.3674 16.4977 16.5395 18.1628 16.5395 19.9767C16.5395 20.3628 16.8512 20.6744 17.2372 20.6744H20.0279C20.414 20.6744 20.7256 20.3628 20.7256 19.9767V15.2884V4.39535H21.3023C21.6884 4.39535 22 4.08372 22 3.69767C22 3.31163 21.6884 3 21.3023 3H2.69767C2.31163 3 2 3.31163 2 3.69767C2 4.08372 2.31163 4.39535 2.69767 4.39535ZM19.3256 19.2791H17.986C18.1395 18.307 18.6186 17.4233 19.3256 16.7581V19.2791ZM6.01395 19.2791C5.86047 18.3023 5.38605 17.4233 4.67442 16.7581V19.2791H6.01395ZM15.4744 4.39535H19.3256V14.1349C16.7535 12.5953 15.1395 9.8093 15.1395 6.75349C15.1395 5.94884 15.2558 5.15814 15.4744 4.39535ZM8.52558 4.39535H4.67442V14.1349C7.24651 12.5953 8.86047 9.80465 8.86047 6.75349C8.86047 5.94884 8.74419 5.15814 8.52558 4.39535Z" fill="#0A0A0A"/>
</svg>
