<svg width="24" height="24" viewBox="0 0 24 24" fill="none" xmlns="http://www.w3.org/2000/svg">
<path d="M3.99667 10.9995V21.0037" stroke="#0A0A0A" stroke-width="1.5" stroke-linecap="round" stroke-linejoin="round"/>
<path fill-rule="evenodd" clip-rule="evenodd" d="M9.99919 2.99609H14.0009C15.1059 2.99609 16.0017 3.8919 16.0017 4.99693V10.9994H7.99835V4.99693C7.99835 3.8919 8.89416 2.99609 9.99919 2.99609Z" stroke="#0A0A0A" stroke-width="1.5" stroke-linecap="round" stroke-linejoin="round"/>
<path fill-rule="evenodd" clip-rule="evenodd" d="M7.99834 14.0005H16.0017C16.5542 14.0005 17.0021 14.4484 17.0021 15.0009V15.5011C17.0021 16.3299 16.3302 17.0017 15.5015 17.0017H8.49855C7.66978 17.0017 6.99792 16.3299 6.99792 15.5011V15.0009C6.99792 14.4484 7.44583 14.0005 7.99834 14.0005Z" stroke="#0A0A0A" stroke-width="1.5" stroke-linecap="round" stroke-linejoin="round"/>
<path d="M12 17.002V21.0036" stroke="#0A0A0A" stroke-width="1.5" stroke-linecap="round" stroke-linejoin="round"/>
<path d="M15.0013 21.0036H8.99878" stroke="#0A0A0A" stroke-width="1.5" stroke-linecap="round" stroke-linejoin="round"/>
<path d="M22.0042 10.9992H1.99585" stroke="#0A0A0A" stroke-width="1.5" stroke-linecap="round" stroke-linejoin="round"/>
<path d="M20.0033 21.0037V10.9995" stroke="#0A0A0A" stroke-width="1.5" stroke-linecap="round" stroke-linejoin="round"/>
</svg>
