<svg width="24" height="24" viewBox="0 0 24 24" fill="none" xmlns="http://www.w3.org/2000/svg">
<path d="M18.364 4.63639L17.7276 5.27278" stroke="#0A0A0A" stroke-width="1.5" stroke-linecap="round" stroke-linejoin="round"/>
<path d="M21 11H20.1" stroke="#0A0A0A" stroke-width="1.5" stroke-linecap="round" stroke-linejoin="round"/>
<path d="M3.90001 11H3.00001" stroke="#0A0A0A" stroke-width="1.5" stroke-linecap="round" stroke-linejoin="round"/>
<path d="M6.27242 5.27279L5.63603 4.63639" stroke="#0A0A0A" stroke-width="1.5" stroke-linecap="round" stroke-linejoin="round"/>
<path d="M12 2.9002V2.0002" stroke="#0A0A0A" stroke-width="1.5" stroke-linecap="round" stroke-linejoin="round"/>
<path d="M12 6.50004C9.85075 6.49188 7.93863 7.86319 7.25706 9.90153C6.57548 11.9399 7.27817 14.1855 9.00006 15.4718" stroke="#0A0A0A" stroke-width="1.5" stroke-linecap="round" stroke-linejoin="round"/>
<path d="M12 6.50004C14.1492 6.49187 16.0613 7.86314 16.7429 9.90144C17.4245 11.9397 16.7219 14.1854 15.0001 15.4717" stroke="#0A0A0A" stroke-width="1.5" stroke-linecap="round" stroke-linejoin="round"/>
<path d="M9.00006 15.4718V17.0001C9.00006 17.5523 9.44778 18.0001 10.0001 18.0001H14.0001C14.5523 18.0001 15.0001 17.5523 15.0001 17.0001V15.4717" stroke="#0A0A0A" stroke-width="1.5" stroke-linecap="round" stroke-linejoin="round"/>
<path d="M9.5 21H14.5" stroke="#0A0A0A" stroke-width="1.5" stroke-linecap="round" stroke-linejoin="round"/>
</svg>
