<svg width="24" height="24" viewBox="0 0 24 24" fill="none" xmlns="http://www.w3.org/2000/svg">
<path fill-rule="evenodd" clip-rule="evenodd" d="M22.6243 17.4032L22.4159 17.1253C22.1843 16.8011 22.0685 16.4306 22.0454 16.0601C21.9759 14.9949 21.8833 13.0035 21.9991 11.4983C22.0222 11.1278 22.1612 10.7805 22.3696 10.4795L22.6011 10.1553C23.0874 9.46058 23.1106 8.53434 22.6474 7.86281C22.2769 7.33021 21.6749 7.00603 21.0265 7.00603C20.6097 7.00603 20.216 7.12181 19.8919 7.37652L19.5908 7.58493C19.3129 7.77018 18.9888 7.90912 18.6646 7.95543C18.2941 7.93227 17.9236 7.90912 17.5762 7.88596C17.5762 7.81335 17.5826 7.74074 17.5886 7.67143L17.5886 7.67137C17.5941 7.60809 17.5994 7.54756 17.5994 7.49231C17.6225 7.12181 17.7615 6.77446 17.9699 6.47343L18.2015 6.14925C18.6877 5.45456 18.7109 4.52831 18.2478 3.85678C17.8773 3.32419 17.2752 3 16.6268 3C16.21 3 15.8164 3.11578 15.4922 3.3705L15.1911 3.57891C14.9133 3.76416 14.5891 3.90309 14.2649 3.9494C12.7829 3.83362 11.3009 3.76416 9.8189 3.76416C8.3369 3.76416 6.8549 3.83362 5.37291 3.9494C5.02556 3.90309 4.72453 3.78731 4.44666 3.57891L4.14563 3.3705C3.82144 3.13894 3.40463 3 3.01097 3C2.3626 3 1.76054 3.32419 1.39004 3.85678C0.926913 4.52831 0.926913 5.45456 1.43635 6.14925L1.66791 6.47343C1.87632 6.77446 2.01526 7.14496 2.03841 7.49231C2.08286 8.91456 1.99934 10.8273 1.9516 11.9207L1.94579 12.0541C1.92263 12.4477 1.78369 12.8182 1.57529 13.1193L1.36688 13.3971C1.06585 13.8371 0.950069 14.3465 1.01954 14.8791C1.11216 15.3886 1.41319 15.8517 1.85316 16.1527C2.17735 16.3843 2.571 16.5001 2.96466 16.5001C3.38147 16.5001 3.79828 16.3611 4.14563 16.1296L4.4235 15.9443C4.70138 15.7359 5.02556 15.6201 5.34975 15.5738L5.34979 15.5738C5.69712 15.597 6.04445 15.6201 6.41494 15.6433C6.41494 15.7311 6.40813 15.8122 6.4019 15.8864C6.39664 15.9492 6.39178 16.0071 6.39178 16.0601C6.36862 16.4538 6.22969 16.8243 6.02128 17.1253L5.81287 17.4032C5.51184 17.8431 5.39606 18.3526 5.46553 18.8852C5.55816 19.4178 5.83603 19.8577 6.276 20.1588C6.60019 20.3903 6.99384 20.5061 7.3875 20.5061C7.80431 20.5061 8.22112 20.3672 8.56846 20.1356L8.84634 19.9503C9.12421 19.7419 9.4484 19.6262 9.77259 19.5798C11.2546 19.6956 12.7366 19.7651 14.2186 19.7651C15.7006 19.7651 17.1826 19.6956 18.6646 19.5798C19.0119 19.6262 19.3129 19.7419 19.5908 19.9503L19.8687 20.1356C20.216 20.3903 20.6329 20.5061 21.0497 20.5061C21.4433 20.5061 21.837 20.3903 22.1612 20.1588C22.6011 19.8577 22.879 19.3946 22.9716 18.8852C23.0643 18.3757 22.9253 17.8431 22.6243 17.4032ZM20.7718 16.1296C20.8181 16.7548 21.0265 17.3569 21.3739 17.8663L21.5823 18.1442C21.8138 18.4452 21.7444 18.8852 21.4202 19.1167C21.3044 19.1862 21.1655 19.2325 21.0497 19.2325C20.8876 19.2325 20.7255 19.1862 20.6097 19.0936L20.3318 18.9083C19.8456 18.561 19.2667 18.3526 18.6646 18.3063C17.1826 18.4452 15.7006 18.4915 14.2186 18.4915C12.7366 18.4915 11.2546 18.422 9.7726 18.3063C9.17054 18.3526 8.59164 18.561 8.10536 18.9083L7.82748 19.0936C7.68854 19.1862 7.54961 19.2325 7.38751 19.2325C7.24858 19.2325 7.13279 19.1862 7.01701 19.1167C6.69283 18.8852 6.62336 18.4452 6.85492 18.1442L7.06333 17.8663C7.43383 17.3569 7.64223 16.7548 7.66539 16.1296C7.73486 14.9486 7.82748 12.9572 7.7117 11.4057C7.66539 10.8036 7.45698 10.2247 7.10964 9.73846L6.87808 9.41427C6.71598 9.15955 6.66967 8.83537 6.85492 8.58065C6.99386 8.37224 7.20226 8.27962 7.43383 8.27962C7.57276 8.27962 7.7117 8.32593 7.82748 8.41855L8.12851 8.62696C8.61479 8.9743 9.1937 9.18271 9.79576 9.22902C11.2778 9.09009 12.7598 9.04377 14.2418 9.04377C15.7238 9.04377 17.2057 9.11324 18.6877 9.22902C19.2898 9.18271 19.8687 8.9743 20.355 8.62696L20.656 8.41855C20.7718 8.32593 20.9107 8.27962 21.0497 8.27962C21.2581 8.27962 21.4896 8.37224 21.6286 8.58065C21.7907 8.83537 21.7675 9.15955 21.6054 9.41427L21.3739 9.73846C21.0265 10.2247 20.8181 10.8036 20.7718 11.4057C20.6329 12.9572 20.7023 14.9718 20.7718 16.1296ZM3.47196 15.3126C3.99066 14.9421 4.60816 14.7198 5.25036 14.6704C5.45104 14.6955 5.65173 14.7078 5.85565 14.7203C6.0533 14.7325 6.25398 14.7449 6.46065 14.7692C6.51005 13.7565 6.51005 12.645 6.43595 11.7064C6.41125 11.3359 6.26305 10.9407 6.04075 10.6196L5.79375 10.2738C5.25036 9.53278 5.25036 8.54479 5.74435 7.82849C6.13955 7.26039 6.78175 6.91459 7.47335 6.91459C7.89325 6.91459 8.33785 7.06279 8.68364 7.30979L9.00474 7.53209C9.30114 7.75439 9.62224 7.87789 9.99274 7.92729C11.5735 7.80379 13.1543 7.72969 14.7351 7.72969C15.4514 7.72969 16.1924 7.75439 16.9334 7.77909C16.9334 7.70499 16.9396 7.63089 16.9458 7.55679C16.9519 7.48269 16.9581 7.40859 16.9581 7.33449C17.0075 6.69229 17.2298 6.07479 17.6003 5.5561L17.8473 5.2103C18.0202 4.9386 18.0449 4.5928 17.872 4.3211C17.7238 4.0988 17.4768 4 17.2545 4C17.1063 4 16.9581 4.0494 16.8346 4.1482L16.5135 4.3705C15.9948 4.741 15.3773 4.9633 14.7351 5.0127C13.1543 4.8892 11.5735 4.8151 9.99274 4.8151C8.41195 4.8151 6.83115 4.8645 5.25036 5.0127C4.60816 4.9633 3.99066 4.741 3.47196 4.3705L3.15086 4.1482C3.02736 4.0494 2.87916 4 2.73096 4C2.48396 4 2.26166 4.0988 2.11347 4.3211C1.94057 4.5681 1.96527 4.9386 2.18757 5.2103L2.43456 5.5561C2.80506 6.07479 3.02736 6.69229 3.07676 7.33449C3.20026 8.98938 3.10146 11.1136 3.02736 12.3733C3.00266 13.0402 2.78036 13.6824 2.38516 14.2258L2.16287 14.5222C1.91587 14.8433 1.98997 15.3126 2.33576 15.5596C2.45926 15.6337 2.58276 15.6831 2.73096 15.6831C2.87916 15.6831 3.05206 15.6337 3.17556 15.5102L3.47196 15.3126Z" fill="#0A0A0A"/>
<path d="M22.4159 17.1253L22.0089 17.416L22.0159 17.4253L22.4159 17.1253ZM22.6243 17.4032L23.0369 17.1208C23.0329 17.1148 23.0286 17.109 23.0243 17.1032L22.6243 17.4032ZM22.0454 16.0601L22.5444 16.0289L22.5443 16.0276L22.0454 16.0601ZM21.9991 11.4983L22.4976 11.5367L22.4981 11.5295L21.9991 11.4983ZM22.3696 10.4795L21.9627 10.1888L21.9585 10.1949L22.3696 10.4795ZM22.6011 10.1553L23.008 10.4459L23.0107 10.442L22.6011 10.1553ZM22.6474 7.86281L23.0591 7.57894L23.0579 7.57727L22.6474 7.86281ZM19.8919 7.37652L20.1765 7.78762C20.1847 7.78189 20.1928 7.77591 20.2008 7.76968L19.8919 7.37652ZM19.5908 7.58493L19.8682 8.00102L19.8754 7.99603L19.5908 7.58493ZM18.6646 7.95543L18.6334 8.45446C18.6674 8.45658 18.7015 8.45522 18.7353 8.4504L18.6646 7.95543ZM17.5762 7.88596H17.0762C17.0762 8.14919 17.2803 8.36734 17.543 8.38485L17.5762 7.88596ZM17.5886 7.67143L17.091 7.62167L17.0905 7.62804L17.5886 7.67143ZM17.5886 7.67137L18.0862 7.72113L18.0867 7.71477L17.5886 7.67137ZM17.5994 7.49231L17.1004 7.46112C17.0997 7.4715 17.0994 7.4819 17.0994 7.49231H17.5994ZM17.9699 6.47343L17.563 6.18278L17.5588 6.18883L17.9699 6.47343ZM18.2015 6.14925L18.6083 6.43988L18.6111 6.43598L18.2015 6.14925ZM18.2478 3.85678L18.6594 3.57291L18.6582 3.57125L18.2478 3.85678ZM15.4922 3.3705L15.7768 3.7816C15.7851 3.77586 15.7932 3.76988 15.8011 3.76366L15.4922 3.3705ZM15.1911 3.57891L15.4685 3.99499L15.4757 3.99L15.1911 3.57891ZM14.2649 3.9494L14.2259 4.44789C14.2625 4.45074 14.2993 4.44957 14.3356 4.44438L14.2649 3.9494ZM5.37291 3.9494L5.30682 4.44502C5.34164 4.44966 5.37684 4.45062 5.41185 4.44789L5.37291 3.9494ZM4.44666 3.57891L4.74666 3.17891C4.7416 3.17511 4.73646 3.17141 4.73126 3.16781L4.44666 3.57891ZM4.14563 3.3705L3.85498 3.77741L3.86102 3.7816L4.14563 3.3705ZM1.39004 3.85678L0.979582 3.57125L0.978431 3.57291L1.39004 3.85678ZM1.43635 6.14925L1.84325 5.8586L1.83955 5.85356L1.43635 6.14925ZM1.66791 6.47343L2.07905 6.1888L2.07478 6.18281L1.66791 6.47343ZM2.03841 7.49231L2.53817 7.47669C2.53798 7.4708 2.5377 7.46492 2.5373 7.45905L2.03841 7.49231ZM1.9516 11.9207L1.45208 11.8989L1.45208 11.8989L1.9516 11.9207ZM1.94579 12.0541L2.44498 12.0834L2.44531 12.0759L1.94579 12.0541ZM1.57529 13.1193L1.97529 13.4193C1.97908 13.4142 1.98278 13.4091 1.98638 13.4039L1.57529 13.1193ZM1.36688 13.3971L0.966882 13.0971C0.962536 13.1029 0.958317 13.1088 0.954228 13.1148L1.36688 13.3971ZM1.01954 14.8791L0.523738 14.9438C0.524819 14.9521 0.526108 14.9604 0.527603 14.9686L1.01954 14.8791ZM1.85316 16.1527L2.14384 15.7458L2.1355 15.7401L1.85316 16.1527ZM4.14563 16.1296L3.86828 15.7135H3.86828L4.14563 16.1296ZM4.4235 15.9443L4.70085 16.3603C4.70855 16.3552 4.7161 16.3499 4.7235 16.3443L4.4235 15.9443ZM5.34975 15.5738L5.38301 15.0749C5.34831 15.0726 5.31347 15.0739 5.27904 15.0788L5.34975 15.5738ZM5.34979 15.5738L5.31653 16.0727L5.34979 15.5738ZM6.41494 15.6433H6.91494C6.91494 15.3793 6.70964 15.1607 6.44613 15.1443L6.41494 15.6433ZM6.4019 15.8864L5.90366 15.8446V15.8446L6.4019 15.8864ZM6.39178 16.0601L6.89092 16.0895C6.89149 16.0797 6.89178 16.0699 6.89178 16.0601H6.39178ZM6.02128 17.1253L6.42128 17.4253C6.42508 17.4202 6.42878 17.4151 6.43238 17.4099L6.02128 17.1253ZM5.81287 17.4032L5.41287 17.1032C5.40853 17.109 5.40431 17.1148 5.40022 17.1208L5.81287 17.4032ZM5.46553 18.8852L4.96973 18.9498C4.97065 18.9569 4.97171 18.9639 4.97293 18.9708L5.46553 18.8852ZM6.276 20.1588L6.56668 19.7518L6.55834 19.7461L6.276 20.1588ZM8.56846 20.1356L8.84581 20.5516H8.84581L8.56846 20.1356ZM8.84634 19.9503L9.12369 20.3664C9.13139 20.3612 9.13894 20.3559 9.14634 20.3503L8.84634 19.9503ZM9.77259 19.5798L9.81153 19.0814C9.77496 19.0785 9.73819 19.0797 9.70188 19.0849L9.77259 19.5798ZM18.6646 19.5798L18.7307 19.0842C18.6958 19.0796 18.6606 19.0786 18.6256 19.0814L18.6646 19.5798ZM19.5908 19.9503L19.2908 20.3503C19.2982 20.3559 19.3058 20.3612 19.3135 20.3664L19.5908 19.9503ZM19.8687 20.1356L20.1644 19.7324C20.1584 19.728 20.1523 19.7237 20.146 19.7196L19.8687 20.1356ZM22.1612 20.1588L21.8788 19.746L21.8705 19.7519L22.1612 20.1588ZM21.3739 17.8663L20.9608 18.148C20.965 18.1542 20.9694 18.1603 20.9739 18.1663L21.3739 17.8663ZM20.7718 16.1296L20.2727 16.1595L20.2732 16.1665L20.7718 16.1296ZM21.5823 18.1442L21.1822 18.4442L21.186 18.449L21.5823 18.1442ZM21.4202 19.1167L21.6774 19.5455C21.6888 19.5386 21.7 19.5313 21.7108 19.5236L21.4202 19.1167ZM20.6097 19.0936L20.9221 18.7031C20.9108 18.6941 20.8991 18.6856 20.8871 18.6775L20.6097 19.0936ZM20.3318 18.9083L20.0412 19.3152C20.0456 19.3183 20.05 19.3214 20.0545 19.3243L20.3318 18.9083ZM18.6646 18.3063L18.7029 17.8077C18.6746 17.8056 18.6462 17.8058 18.6179 17.8084L18.6646 18.3063ZM9.7726 18.3063L9.81155 17.8078C9.78582 17.8058 9.75998 17.8058 9.73425 17.8077L9.7726 18.3063ZM8.10536 18.9083L8.38271 19.3243C8.38718 19.3214 8.3916 19.3183 8.39597 19.3152L8.10536 18.9083ZM7.82748 19.0936L8.10483 19.5096H8.10483L7.82748 19.0936ZM7.01701 19.1167L6.72639 19.5236C6.73722 19.5313 6.74835 19.5386 6.75976 19.5455L7.01701 19.1167ZM6.85492 18.1442L7.25126 18.449L7.25492 18.4442L6.85492 18.1442ZM7.06333 17.8663L7.46337 18.1663L7.46769 18.1604L7.06333 17.8663ZM7.66539 16.1296L7.16613 16.1002L7.16573 16.1111L7.66539 16.1296ZM7.7117 11.4057L8.21031 11.3685L8.21023 11.3674L7.7117 11.4057ZM7.10964 9.73846L7.51651 9.44784L7.5165 9.44784L7.10964 9.73846ZM6.87808 9.41427L6.45625 9.68271C6.46103 9.69024 6.46602 9.69763 6.47121 9.70489L6.87808 9.41427ZM6.85492 8.58065L7.25929 8.87473C7.26329 8.86924 7.26717 8.86366 7.27095 8.858L6.85492 8.58065ZM7.82748 8.41855L7.51513 8.80899C7.52414 8.81619 7.53339 8.82309 7.54288 8.82965L7.82748 8.41855ZM8.12851 8.62696L8.41916 8.22005L8.41312 8.21586L8.12851 8.62696ZM9.79576 9.22902L9.75741 9.72755C9.78572 9.72973 9.81416 9.72949 9.84243 9.72684L9.79576 9.22902ZM18.6877 9.22902L18.6488 9.7275C18.6745 9.72951 18.7004 9.72953 18.7261 9.72755L18.6877 9.22902ZM20.355 8.62696L20.0704 8.21582L20.0644 8.22009L20.355 8.62696ZM20.656 8.41855L20.9406 8.82965C20.9501 8.82309 20.9594 8.81619 20.9684 8.80899L20.656 8.41855ZM21.6286 8.58065L22.0505 8.31215L22.0446 8.3033L21.6286 8.58065ZM21.6054 9.41427L22.0123 9.70489C22.0175 9.69763 22.0225 9.69024 22.0273 9.68271L21.6054 9.41427ZM21.3739 9.73846L21.7807 10.0291L21.3739 9.73846ZM20.7718 11.4057L21.2699 11.4503L21.2703 11.4441L20.7718 11.4057ZM5.25036 14.6704L5.31237 14.1742C5.27908 14.1701 5.24546 14.1693 5.21201 14.1718L5.25036 14.6704ZM3.47196 15.3126L3.74931 15.7286C3.75378 15.7256 3.75821 15.7226 3.76258 15.7194L3.47196 15.3126ZM5.85565 14.7203L5.88635 14.2213H5.88635L5.85565 14.7203ZM6.46065 14.7692L6.40223 15.2657C6.53982 15.2819 6.67796 15.2403 6.78371 15.1508C6.88945 15.0613 6.95331 14.9319 6.96006 14.7935L6.46065 14.7692ZM6.43595 11.7064L5.93702 11.7396L5.9375 11.7457L6.43595 11.7064ZM6.04075 10.6196L6.45189 10.3349L6.44762 10.329L6.04075 10.6196ZM5.79375 10.2738L6.20065 9.98314L6.19696 9.9781L5.79375 10.2738ZM5.74435 7.82849L5.3339 7.54295L5.33275 7.54462L5.74435 7.82849ZM8.68364 7.30979L8.39299 7.7167L8.39904 7.72089L8.68364 7.30979ZM9.00474 7.53209L9.30474 7.13209C9.29968 7.12829 9.29455 7.12459 9.28935 7.12099L9.00474 7.53209ZM9.99274 7.92729L9.92666 8.4229C9.96147 8.42754 9.99667 8.4285 10.0317 8.42577L9.99274 7.92729ZM16.9334 7.77909L16.9168 8.27881C17.0522 8.28333 17.1836 8.23268 17.281 8.13848C17.3784 8.04428 17.4334 7.91459 17.4334 7.77909H16.9334ZM16.9458 7.55679L16.4475 7.51527V7.51527L16.9458 7.55679ZM16.9581 7.33449L16.4596 7.29614C16.4586 7.3089 16.4581 7.32169 16.4581 7.33449H16.9581ZM17.6003 5.5561L17.1935 5.26548V5.26548L17.6003 5.5561ZM17.8473 5.2103L18.2542 5.50092C18.2594 5.49366 18.2644 5.48626 18.2691 5.47873L17.8473 5.2103ZM17.872 4.3211L18.2939 4.0526L18.288 4.04375L17.872 4.3211ZM16.8346 4.1482L17.1192 4.5593C17.1287 4.55273 17.138 4.54584 17.147 4.53863L16.8346 4.1482ZM16.5135 4.3705L16.2289 3.95936L16.2229 3.96363L16.5135 4.3705ZM14.7351 5.0127L14.6962 5.51118C14.7219 5.51319 14.7477 5.5132 14.7735 5.51122L14.7351 5.0127ZM5.25036 5.0127L5.21201 5.51122C5.24032 5.5134 5.26876 5.51316 5.29703 5.51051L5.25036 5.0127ZM3.47196 4.3705L3.76261 3.96359L3.75657 3.9594L3.47196 4.3705ZM3.15086 4.1482L2.83851 4.53863C2.84752 4.54584 2.85677 4.55273 2.86626 4.5593L3.15086 4.1482ZM2.11347 4.3211L2.52319 4.6079L2.52949 4.59845L2.11347 4.3211ZM2.18757 5.2103L2.59443 4.91968C2.58809 4.9108 2.58146 4.90212 2.57454 4.89368L2.18757 5.2103ZM2.43456 5.5561L2.0277 5.84671V5.84671L2.43456 5.5561ZM3.07676 7.33449L3.57538 7.29728L3.57529 7.29614L3.07676 7.33449ZM3.02736 12.3733L2.52811 12.3439L2.5277 12.3548L3.02736 12.3733ZM2.38516 14.2258L2.78521 14.5258L2.78953 14.5199L2.38516 14.2258ZM2.16287 14.5222L2.55921 14.827L2.56287 14.8222L2.16287 14.5222ZM2.33576 15.5596L2.04515 15.9664C2.05597 15.9742 2.06711 15.9815 2.07852 15.9883L2.33576 15.5596ZM3.17556 15.5102L2.89821 15.0941C2.87082 15.1124 2.84529 15.1333 2.82201 15.1566L3.17556 15.5102ZM22.0159 17.4253L22.2243 17.7032L23.0243 17.1032L22.8159 16.8253L22.0159 17.4253ZM21.5464 16.0913C21.5747 16.5447 21.7173 17.0075 22.009 17.4159L22.8227 16.8347C22.6514 16.5947 22.5624 16.3165 22.5444 16.0289L21.5464 16.0913ZM21.5005 11.46C21.3818 13.0033 21.4768 15.0253 21.5464 16.0926L22.5443 16.0276C22.475 14.9645 22.3848 13.0037 22.4976 11.5367L21.5005 11.46ZM21.9585 10.1949C21.7076 10.5572 21.5298 10.9906 21.5 11.4671L22.4981 11.5295C22.5146 11.2651 22.6147 11.0038 22.7807 10.7641L21.9585 10.1949ZM22.1943 9.86465L21.9627 10.1888L22.7764 10.7701L23.008 10.4459L22.1943 9.86465ZM22.2358 8.14667C22.5722 8.63433 22.5665 9.33278 22.1915 9.86854L23.0107 10.442C23.6083 9.58839 23.649 8.43435 23.059 7.57894L22.2358 8.14667ZM21.0265 7.50603C21.5061 7.50603 21.957 7.74586 22.237 8.14834L23.0579 7.57727C22.5969 6.91457 21.8437 6.50603 21.0265 6.50603V7.50603ZM20.2008 7.76968C20.4235 7.59465 20.7035 7.50603 21.0265 7.50603V6.50603C20.5159 6.50603 20.0086 6.64896 19.5829 6.98337L20.2008 7.76968ZM19.8754 7.99603L20.1765 7.78762L19.6072 6.96543L19.3062 7.17383L19.8754 7.99603ZM18.7353 8.4504C19.1475 8.39152 19.5413 8.2189 19.8682 8.00096L19.3135 7.16891C19.0846 7.32146 18.83 7.42672 18.5939 7.46046L18.7353 8.4504ZM17.543 8.38485C17.8915 8.40809 18.2631 8.43131 18.6334 8.45446L18.6958 7.4564C18.325 7.43323 17.9556 7.41014 17.6095 7.38707L17.543 8.38485ZM17.0905 7.62804C17.0847 7.69391 17.0762 7.78805 17.0762 7.88596H18.0762C18.0762 7.83864 18.0804 7.78756 18.0867 7.71482L17.0905 7.62804ZM17.0911 7.62162L17.0911 7.62168L18.0861 7.72118L18.0861 7.72112L17.0911 7.62162ZM17.0994 7.49231C17.0994 7.52164 17.0965 7.5593 17.0905 7.62797L18.0867 7.71477C18.0918 7.65688 18.0994 7.57348 18.0994 7.49231H17.0994ZM17.5588 6.18883C17.3079 6.55116 17.1301 6.98453 17.1004 7.46112L18.0984 7.5235C18.1149 7.25908 18.215 6.99776 18.381 6.75804L17.5588 6.18883ZM17.7946 5.85862L17.563 6.18281L18.3768 6.76405L18.6083 6.43987L17.7946 5.85862ZM17.8362 4.14065C18.1725 4.6283 18.1669 5.32675 17.7918 5.86251L18.6111 6.43598C19.2086 5.58236 19.2493 4.42832 18.6594 3.57291L17.8362 4.14065ZM16.6268 3.5C17.1064 3.5 17.5573 3.73983 17.8373 4.14231L18.6582 3.57125C18.1972 2.90854 17.444 2.5 16.6268 2.5V3.5ZM15.8011 3.76366C16.0238 3.58863 16.3038 3.5 16.6268 3.5V2.5C16.1162 2.5 15.6089 2.64293 15.1833 2.97734L15.8011 3.76366ZM15.4757 3.99L15.7768 3.7816L15.2076 2.9594L14.9065 3.16781L15.4757 3.99ZM14.3356 4.44438C14.7478 4.38549 15.1416 4.21288 15.4685 3.99493L14.9138 3.16288C14.685 3.31543 14.4303 3.42069 14.1942 3.45443L14.3356 4.44438ZM9.8189 4.26416C11.2854 4.26416 12.7541 4.3329 14.2259 4.44789L14.3038 3.45092C12.8117 3.33435 11.3164 3.26416 9.8189 3.26416V4.26416ZM5.41185 4.44789C6.88366 4.3329 8.35241 4.26416 9.8189 4.26416V3.26416C8.3214 3.26416 6.82615 3.33435 5.33396 3.45092L5.41185 4.44789ZM4.14666 3.97891C4.49885 4.24305 4.88212 4.38839 5.30682 4.44502L5.43899 3.45379C5.16901 3.41779 4.95022 3.33157 4.74666 3.17891L4.14666 3.97891ZM3.86102 3.7816L4.16205 3.99L4.73126 3.16781L4.43023 2.9594L3.86102 3.7816ZM3.01097 3.5C3.29547 3.5 3.61151 3.60344 3.85501 3.77737L4.43625 2.96363C4.03137 2.67444 3.51378 2.5 3.01097 2.5V3.5ZM1.80049 4.14231C2.08048 3.73983 2.53138 3.5 3.01097 3.5V2.5C2.19382 2.5 1.4406 2.90854 0.979585 3.57125L1.80049 4.14231ZM1.83955 5.85356C1.45608 5.33064 1.45934 4.63698 1.80164 4.14065L0.978431 3.57291C0.394484 4.41964 0.39775 5.57848 1.03315 6.44493L1.83955 5.85356ZM2.07478 6.18281L1.84322 5.85863L1.02948 6.43986L1.26105 6.76405L2.07478 6.18281ZM2.5373 7.45905C2.50745 7.0112 2.33263 6.55517 2.07901 6.18883L1.25682 6.75804C1.42001 6.99376 1.52306 7.27872 1.53952 7.52557L2.5373 7.45905ZM2.45113 11.9425C2.49864 10.8542 2.58331 8.92139 2.53817 7.47669L1.53866 7.50792C1.5824 8.90773 1.50004 10.8004 1.45208 11.8989L2.45113 11.9425ZM2.44531 12.0759L2.45113 11.9425L1.45208 11.8989L1.44626 12.0323L2.44531 12.0759ZM1.98638 13.4039C2.24345 13.0325 2.41603 12.5746 2.44492 12.0834L1.44665 12.0247C1.42923 12.3208 1.32393 12.6039 1.16419 12.8347L1.98638 13.4039ZM1.76688 13.6971L1.97529 13.4193L1.17529 12.8193L0.966882 13.0971L1.76688 13.6971ZM1.51534 14.8145C1.46116 14.3991 1.55062 14.014 1.77953 13.6795L0.954228 13.1148C0.581077 13.6602 0.438983 14.294 0.523738 14.9438L1.51534 14.8145ZM2.1355 15.7401C1.80372 15.5131 1.57977 15.1653 1.51147 14.7897L0.527603 14.9686C0.64456 15.6118 1.02267 16.1903 1.57082 16.5654L2.1355 15.7401ZM2.96466 16.0001C2.66693 16.0001 2.37667 15.9122 2.14378 15.7459L1.56254 16.5596C1.97803 16.8564 2.47508 17.0001 2.96466 17.0001V16.0001ZM3.86828 15.7135C3.59437 15.8962 3.2728 16.0001 2.96466 16.0001V17.0001C3.49014 17.0001 4.0022 16.8261 4.42298 16.5456L3.86828 15.7135ZM4.14615 15.5283L3.86828 15.7135L4.42298 16.5456L4.70085 16.3603L4.14615 15.5283ZM5.27904 15.0788C4.88714 15.1348 4.4801 15.2769 4.1235 15.5443L4.7235 16.3443C4.92265 16.195 5.16398 16.1054 5.42046 16.0688L5.27904 15.0788ZM5.38305 15.0749L5.38301 15.0749L5.31649 16.0727L5.31653 16.0727L5.38305 15.0749ZM6.44613 15.1443C6.07683 15.1212 5.7305 15.0981 5.38305 15.0749L5.31653 16.0727C5.66374 16.0959 6.01207 16.1191 6.38375 16.1423L6.44613 15.1443ZM6.90015 15.9282C6.90623 15.8558 6.91494 15.755 6.91494 15.6433H5.91494C5.91494 15.7073 5.91004 15.7685 5.90366 15.8446L6.90015 15.9282ZM6.89178 16.0601C6.89178 16.0321 6.89444 15.9963 6.90015 15.9282L5.90366 15.8446C5.89884 15.902 5.89178 15.9821 5.89178 16.0601H6.89178ZM6.43238 17.4099C6.68945 17.0386 6.86202 16.5807 6.89092 16.0895L5.89264 16.0307C5.87523 16.3268 5.76993 16.6099 5.61018 16.8407L6.43238 17.4099ZM6.21287 17.7032L6.42128 17.4253L5.62128 16.8253L5.41287 17.1032L6.21287 17.7032ZM5.96133 18.8205C5.90715 18.4051 5.99662 18.0201 6.22553 17.6855L5.40022 17.1208C5.02707 17.6662 4.88498 18.3 4.96973 18.9498L5.96133 18.8205ZM6.55834 19.7461C6.23303 19.5235 6.02835 19.2032 5.95814 18.7995L4.97293 18.9708C5.08796 19.6323 5.43903 20.1919 5.99366 20.5714L6.55834 19.7461ZM7.3875 20.0061C7.08977 20.0061 6.7995 19.9182 6.56662 19.7519L5.98538 20.5656C6.40087 20.8624 6.89792 21.0061 7.3875 21.0061V20.0061ZM8.29111 19.7196C8.01721 19.9022 7.69564 20.0061 7.3875 20.0061V21.0061C7.91298 21.0061 8.42503 20.8321 8.84581 20.5516L8.29111 19.7196ZM8.56899 19.5343L8.29111 19.7196L8.84581 20.5516L9.12369 20.3664L8.56899 19.5343ZM9.70188 19.0849C9.30998 19.1409 8.90294 19.2829 8.54634 19.5504L9.14634 20.3503C9.34549 20.201 9.58682 20.1115 9.8433 20.0748L9.70188 19.0849ZM14.2186 19.2651C12.7521 19.2651 11.2833 19.1964 9.81153 19.0814L9.73364 20.0783C11.2258 20.1949 12.7211 20.2651 14.2186 20.2651V19.2651ZM18.6256 19.0814C17.1538 19.1964 15.6851 19.2651 14.2186 19.2651V20.2651C15.7161 20.2651 17.2113 20.1949 18.7035 20.0783L18.6256 19.0814ZM19.8908 19.5504C19.5386 19.2862 19.1554 19.1409 18.7307 19.0842L18.5985 20.0755C18.8685 20.1115 19.0873 20.1977 19.2908 20.3503L19.8908 19.5504ZM20.146 19.7196L19.8682 19.5343L19.3135 20.3664L19.5913 20.5516L20.146 19.7196ZM21.0497 20.0061C20.724 20.0061 20.4145 19.9158 20.1644 19.7324L19.573 20.5388C20.0176 20.8648 20.5417 21.0061 21.0497 21.0061V20.0061ZM21.8705 19.7519C21.6377 19.9182 21.3474 20.0061 21.0497 20.0061V21.0061C21.5392 21.0061 22.0363 20.8624 22.4518 20.5656L21.8705 19.7519ZM22.4797 18.7957C22.4089 19.185 22.1995 19.5267 21.8788 19.7461L22.4435 20.5714C23.0028 20.1888 23.3491 19.6042 23.4636 18.9746L22.4797 18.7957ZM22.2116 17.6855C22.4496 18.0332 22.5454 18.4342 22.4797 18.7957L23.4636 18.9746C23.5831 18.3173 23.4011 17.653 23.0369 17.1208L22.2116 17.6855ZM21.787 17.5846C21.4902 17.1493 21.3104 16.632 21.2704 16.0926L20.2732 16.1665C20.3258 16.8776 20.5629 17.5644 20.9608 18.148L21.787 17.5846ZM21.9823 17.8442L21.7739 17.5663L20.9739 18.1663L21.1823 18.4442L21.9823 17.8442ZM21.7108 19.5236C22.2535 19.136 22.3915 18.3761 21.9786 17.8393L21.186 18.449C21.2362 18.5143 21.2352 18.6344 21.1296 18.7099L21.7108 19.5236ZM21.0497 19.7325C21.2805 19.7325 21.5079 19.6472 21.6774 19.5455L21.1629 18.688C21.1374 18.7033 21.1091 18.716 21.0833 18.7242C21.056 18.7329 21.0443 18.7325 21.0497 18.7325V19.7325ZM20.2974 19.484C20.5221 19.6638 20.803 19.7325 21.0497 19.7325V18.7325C20.9721 18.7325 20.9289 18.7086 20.9221 18.7031L20.2974 19.484ZM20.0545 19.3243L20.3324 19.5096L20.8871 18.6775L20.6092 18.4923L20.0545 19.3243ZM18.6262 18.8048C19.139 18.8442 19.6304 19.0217 20.0412 19.3152L20.6225 18.5015C20.0608 18.1002 19.3943 17.8609 18.7029 17.8077L18.6262 18.8048ZM14.2186 18.9915C15.7106 18.9915 17.2091 18.9449 18.7113 18.8041L18.6179 17.8084C17.1561 17.9455 15.6906 17.9915 14.2186 17.9915V18.9915ZM9.73366 18.8047C11.2258 18.9213 12.7211 18.9915 14.2186 18.9915V17.9915C12.7521 17.9915 11.2834 17.9228 9.81155 17.8078L9.73366 18.8047ZM8.39597 19.3152C8.80684 19.0217 9.29822 18.8442 9.81095 18.8048L9.73425 17.8077C9.04286 17.8609 8.37643 18.1002 7.81474 18.5015L8.39597 19.3152ZM8.10483 19.5096L8.38271 19.3243L7.828 18.4923L7.55013 18.6775L8.10483 19.5096ZM7.38751 19.7325C7.65897 19.7325 7.89309 19.6508 8.10483 19.5096L7.55013 18.6775C7.48399 18.7216 7.44024 18.7325 7.38751 18.7325V19.7325ZM6.75976 19.5455C6.91985 19.6415 7.12564 19.7325 7.38751 19.7325V18.7325C7.37582 18.7325 7.36547 18.7309 7.35169 18.7263C7.33584 18.721 7.31183 18.7105 7.27426 18.688L6.75976 19.5455ZM6.45861 17.8393C6.04569 18.3761 6.1837 19.136 6.72639 19.5236L7.30763 18.7099C7.20195 18.6344 7.20102 18.5143 7.25123 18.449L6.45861 17.8393ZM6.66333 17.5663L6.45492 17.8442L7.25492 18.4442L7.46333 18.1663L6.66333 17.5663ZM7.16573 16.1111C7.14627 16.6365 6.9713 17.1427 6.65896 17.5722L7.46769 18.1604C7.89635 17.571 8.13819 16.8731 8.16504 16.1481L7.16573 16.1111ZM7.21309 11.4429C7.3261 12.9573 7.23577 14.9183 7.16625 16.1002L8.16452 16.1589C8.23394 14.9789 8.32886 12.9571 8.21031 11.3685L7.21309 11.4429ZM6.70277 10.0291C6.99625 10.4399 7.17373 10.9313 7.21317 11.4441L8.21023 11.3674C8.15704 10.676 7.91771 10.0095 7.51651 9.44784L6.70277 10.0291ZM6.47121 9.70489L6.70277 10.0291L7.5165 9.44784L7.28494 9.12365L6.47121 9.70489ZM6.45055 8.28656C6.10428 8.76269 6.22583 9.32064 6.45625 9.68271L7.29991 9.14583C7.25709 9.07855 7.23818 9.01476 7.23535 8.96751C7.23284 8.92566 7.24206 8.89842 7.25929 8.87473L6.45055 8.28656ZM7.43383 7.77962C7.05661 7.77962 6.6819 7.93879 6.43889 8.3033L7.27095 8.858C7.29367 8.82391 7.31508 8.80828 7.33324 8.79919C7.35318 8.78923 7.38487 8.77962 7.43383 8.77962V7.77962ZM8.13983 8.02812C7.93394 7.86341 7.68443 7.77962 7.43383 7.77962V8.77962C7.46109 8.77962 7.48946 8.78845 7.51513 8.80899L8.13983 8.02812ZM8.41312 8.21586L8.11209 8.00746L7.54288 8.82965L7.84391 9.03806L8.41312 8.21586ZM9.83411 8.73049C9.32138 8.69105 8.83 8.51357 8.41913 8.22009L7.83789 9.03383C8.39959 9.43504 9.06602 9.67437 9.75741 9.72755L9.83411 8.73049ZM14.2418 8.54377C12.7497 8.54377 11.2513 8.59037 9.74909 8.7312L9.84243 9.72684C11.3042 9.5898 12.7698 9.54377 14.2418 9.54377V8.54377ZM18.7267 8.73054C17.2345 8.61396 15.7393 8.54377 14.2418 8.54377V9.54377C15.7082 9.54377 17.177 9.61252 18.6488 9.7275L18.7267 8.73054ZM20.0644 8.22009C19.6535 8.51357 19.1621 8.69105 18.6494 8.73049L18.7261 9.72755C19.4175 9.67437 20.0839 9.43504 20.6456 9.03383L20.0644 8.22009ZM20.3714 8.00746L20.0704 8.21586L20.6396 9.03806L20.9406 8.82965L20.3714 8.00746ZM21.0497 7.77962C20.7991 7.77962 20.5496 7.86341 20.3437 8.02812L20.9684 8.80899C20.994 8.78845 21.0224 8.77962 21.0497 8.77962V7.77962ZM22.0446 8.3033C21.7971 7.93201 21.3945 7.77962 21.0497 7.77962V8.77962C21.1217 8.77962 21.1822 8.81247 21.2126 8.858L22.0446 8.3033ZM22.0273 9.68271C22.2761 9.29169 22.3332 8.75652 22.0504 8.31221L21.2068 8.84908C21.2482 8.91421 21.259 9.02742 21.1836 9.14583L22.0273 9.68271ZM21.7807 10.0291L22.0123 9.70489L21.1986 9.12365L20.967 9.44784L21.7807 10.0291ZM21.2703 11.4441C21.3098 10.9313 21.4873 10.4399 21.7807 10.0291L20.967 9.44784C20.5658 10.0095 20.3265 10.676 20.2733 11.3674L21.2703 11.4441ZM21.2709 16.0996C21.2018 14.9472 21.1343 12.9631 21.2698 11.4503L20.2738 11.3611C20.1314 12.9512 20.2029 14.9963 20.2727 16.1595L21.2709 16.0996ZM5.21201 14.1718C4.48048 14.2281 3.77545 14.4813 3.18134 14.9057L3.76258 15.7194C4.20587 15.4028 4.73584 15.2114 5.2887 15.1689L5.21201 14.1718ZM5.88635 14.2213C5.67981 14.2086 5.49485 14.197 5.31237 14.1742L5.18834 15.1665C5.40723 15.1939 5.62364 15.207 5.82494 15.2194L5.88635 14.2213ZM6.51907 14.2726C6.29641 14.2464 6.08209 14.2333 5.88635 14.2213L5.82494 15.2194C6.0245 15.2317 6.21155 15.2433 6.40223 15.2657L6.51907 14.2726ZM5.9375 11.7457C6.00948 12.6575 6.00993 13.7468 5.96125 14.7448L6.96006 14.7935C7.01018 13.7661 7.01062 12.6324 6.9344 11.667L5.9375 11.7457ZM5.62966 10.9042C5.80674 11.16 5.91906 11.4696 5.93706 11.7396L6.93484 11.6731C6.90344 11.2021 6.71937 10.7214 6.45185 10.335L5.62966 10.9042ZM5.38689 10.5644L5.63389 10.9102L6.44762 10.329L6.20062 9.98316L5.38689 10.5644ZM5.33275 7.54462C4.71793 8.43611 4.72119 9.6567 5.39055 10.5695L6.19696 9.9781C5.77952 9.40887 5.78278 8.65346 6.15596 8.11235L5.33275 7.54462ZM7.47335 6.41459C6.61297 6.41459 5.81961 6.84475 5.3339 7.54296L6.15481 8.11402C6.45949 7.67603 6.95053 7.41459 7.47335 7.41459V6.41459ZM8.97426 6.90292C8.54778 6.59829 8.0024 6.41459 7.47335 6.41459V7.41459C7.78409 7.41459 8.12791 7.52729 8.39303 7.71666L8.97426 6.90292ZM9.28935 7.12099L8.96825 6.89869L8.39904 7.72089L8.72014 7.94318L9.28935 7.12099ZM10.0588 7.43167C9.76568 7.39259 9.52682 7.29865 9.30474 7.13209L8.70474 7.93209C9.07546 8.21013 9.4788 8.36319 9.92666 8.4229L10.0588 7.43167ZM14.7351 7.22969C13.1388 7.22969 11.5448 7.30451 9.9538 7.42881L10.0317 8.42577C11.6023 8.30307 13.1698 8.22969 14.7351 8.22969V7.22969ZM16.9501 7.27937C16.2107 7.25472 15.4612 7.22969 14.7351 7.22969V8.22969C15.4416 8.22969 16.1742 8.25406 16.9168 8.27881L16.9501 7.27937ZM16.4475 7.51527C16.4416 7.58584 16.4334 7.68071 16.4334 7.77909H17.4334C17.4334 7.72927 17.4376 7.67594 17.444 7.59831L16.4475 7.51527ZM16.4581 7.33449C16.4581 7.38431 16.454 7.43764 16.4475 7.51527L17.444 7.59831C17.4499 7.52774 17.4581 7.43287 17.4581 7.33449H16.4581ZM17.1935 5.26548C16.7691 5.85959 16.5159 6.56461 16.4596 7.29614L17.4566 7.37284C17.4992 6.81997 17.6906 6.29 18.0072 5.84671L17.1935 5.26548ZM17.4405 4.91968L17.1935 5.26548L18.0072 5.84671L18.2542 5.50092L17.4405 4.91968ZM17.4502 4.58954C17.5024 4.67164 17.5116 4.80646 17.4255 4.94186L18.2691 5.47873C18.5288 5.07073 18.5874 4.51395 18.2938 4.05266L17.4502 4.58954ZM17.2545 4.5C17.3404 4.5 17.4164 4.53903 17.456 4.59845L18.288 4.04375C18.0313 3.65857 17.6132 3.5 17.2545 3.5V4.5ZM17.147 4.53863C17.1804 4.51192 17.218 4.5 17.2545 4.5V3.5C16.9947 3.5 16.7359 3.58688 16.5223 3.75776L17.147 4.53863ZM16.7981 4.7816L17.1192 4.5593L16.55 3.7371L16.2289 3.9594L16.7981 4.7816ZM14.7735 5.51122C15.505 5.45495 16.21 5.20173 16.8041 4.77737L16.2229 3.96363C15.7796 4.28026 15.2496 4.47164 14.6968 4.51417L14.7735 5.51122ZM9.99274 5.3151C11.558 5.3151 13.1256 5.38847 14.6962 5.51118L14.7741 4.51422C13.1831 4.38992 11.589 4.3151 9.99274 4.3151V5.3151ZM5.29703 5.51051C6.85761 5.36421 8.42197 5.3151 9.99274 5.3151V4.3151C8.40192 4.3151 6.80469 4.36479 5.20369 4.51488L5.29703 5.51051ZM3.18134 4.77737C3.77545 5.20173 4.48048 5.45495 5.21201 5.51122L5.2887 4.51417C4.73584 4.47164 4.20587 4.28026 3.76258 3.96363L3.18134 4.77737ZM2.86626 4.5593L3.18736 4.78159L3.75657 3.9594L3.43547 3.7371L2.86626 4.5593ZM2.73096 4.5C2.76749 4.5 2.80512 4.51192 2.83851 4.53863L3.46321 3.75777C3.24961 3.58688 2.99083 3.5 2.73096 3.5V4.5ZM2.52949 4.59845C2.57362 4.53225 2.62962 4.5 2.73096 4.5V3.5C2.33831 3.5 1.94971 3.66535 1.69744 4.04375L2.52949 4.59845ZM2.57454 4.89368C2.47191 4.76823 2.49764 4.64417 2.52308 4.60783L1.70385 4.03437C1.38349 4.49203 1.45862 5.10896 1.80059 5.52692L2.57454 4.89368ZM2.84143 5.26548L2.59443 4.91968L1.7807 5.50092L2.0277 5.84671L2.84143 5.26548ZM3.57529 7.29614C3.51902 6.56461 3.2658 5.85959 2.84143 5.26548L2.0277 5.84671C2.34433 6.29 2.53571 6.81997 2.57823 7.37284L3.57529 7.29614ZM3.5265 12.4026C3.60054 11.1439 3.70164 8.98928 3.57538 7.29728L2.57815 7.3717C2.69888 8.98949 2.60238 11.0833 2.52823 12.3439L3.5265 12.4026ZM2.78953 14.5199C3.24289 13.8965 3.49863 13.1584 3.52702 12.3918L2.5277 12.3548C2.5067 12.9219 2.31783 13.4683 1.9808 13.9317L2.78953 14.5199ZM2.56287 14.8222L2.78516 14.5258L1.98516 13.9258L1.76287 14.2222L2.56287 14.8222ZM2.62638 15.1527C2.49909 15.0618 2.49353 14.9124 2.55918 14.827L1.76655 14.2173C1.3382 14.7742 1.48084 15.5634 2.04515 15.9664L2.62638 15.1527ZM2.73096 15.1831C2.71464 15.1831 2.70005 15.1807 2.68222 15.1748C2.66231 15.1681 2.63444 15.1557 2.59301 15.1308L2.07852 15.9883C2.24632 16.089 2.45982 16.1831 2.73096 16.1831V15.1831ZM2.82201 15.1566C2.81959 15.159 2.81149 15.1659 2.79317 15.1725C2.77407 15.1794 2.75147 15.1831 2.73096 15.1831V16.1831C2.97583 16.1831 3.28917 16.1037 3.52911 15.8637L2.82201 15.1566ZM3.19461 14.8965L2.89821 15.0941L3.45291 15.9262L3.74931 15.7286L3.19461 14.8965Z" fill="#0A0A0A"/>
</svg>
