<svg width="24" height="24" viewBox="0 0 24 24" fill="none" xmlns="http://www.w3.org/2000/svg">
<rect x="3" y="3" width="18" height="18" rx="3" stroke="#0A0A0A" stroke-width="1.5" stroke-linecap="round" stroke-linejoin="round"/>
<path fill-rule="evenodd" clip-rule="evenodd" d="M16.9963 10.9961C16.9963 11.5484 16.5486 11.9961 15.9963 11.9961C16.5486 11.9961 16.9963 12.4438 16.9963 12.9961C16.9963 12.4438 17.4441 11.9961 17.9963 11.9961C17.4441 11.9961 16.9963 11.5484 16.9963 10.9961Z" stroke="#0A0A0A" stroke-width="1.5" stroke-linecap="round" stroke-linejoin="round"/>
<path fill-rule="evenodd" clip-rule="evenodd" d="M7.99634 10.9961C7.99634 11.5484 7.54862 11.9961 6.99634 11.9961C7.54862 11.9961 7.99634 12.4438 7.99634 12.9961C7.99634 12.4438 8.44405 11.9961 8.99634 11.9961C8.44405 11.9961 7.99634 11.5484 7.99634 10.9961Z" stroke="#0A0A0A" stroke-width="1.5" stroke-linecap="round" stroke-linejoin="round"/>
<path d="M11.9963 2.99609V20.9961" stroke="#0A0A0A" stroke-width="1.5" stroke-linecap="round" stroke-linejoin="round"/>
</svg>
