<svg width="368" height="210" viewBox="0 0 368 210" fill="none" xmlns="http://www.w3.org/2000/svg">
<path d="M193.527 190.814C241.852 190.814 281.227 152.585 281.227 105.632C281.064 58.5201 241.852 20.2913 193.527 20.2913C145.04 20.2913 105.828 58.5201 105.828 105.473C105.828 152.585 145.04 190.814 193.527 190.814Z" fill="#E7E7DE"/>
<path d="M328 185.024C328 198.837 316.58 209.993 302.337 209.993C302.091 209.993 300.004 209.993 284.655 209.993C273.972 209.993 256.902 209.993 229.642 209.993H216.625C199.558 210.359 185.927 197.023 185.927 180.934C185.927 164.719 199.68 151.272 216.995 152.115C231.853 106.713 299.88 113.079 305.651 160.04C318.422 161.599 328 172.166 328 185.024Z" fill="url(#paint0_linear_3521_24253)"/>
<path d="M302.276 209.416C316.431 209.416 328 198.331 328 184.605C328 170.879 316.431 159.778 302.276 159.778C288.12 159.778 276.55 170.879 276.55 184.605C276.55 198.331 288.12 209.416 302.276 209.416Z" fill="url(#paint1_linear_3521_24253)"/>
<path d="M260.18 210C285.31 210 305.783 190.008 305.783 165.325C305.783 140.627 285.31 120.651 260.18 120.651C235.048 120.651 214.575 140.627 214.575 165.325C214.575 190.008 234.926 210 260.18 210Z" fill="url(#paint2_linear_3521_24253)"/>
<path d="M178.172 62.1497C178.172 75.608 167.066 86.4977 153.213 86.4977C152.973 86.4977 150.943 86.4977 136.015 86.4977C125.626 86.4977 109.026 86.4977 82.5148 86.4977H69.8563C53.2566 86.8414 40 73.8534 40 58.1701C40 42.3782 53.3766 29.2635 70.2145 30.0956C84.6636 -14.1506 150.825 -7.94596 156.437 37.8016C168.857 39.3392 178.172 49.632 178.172 62.1497Z" fill="url(#paint3_linear_3521_24253)"/>
<path d="M153.381 86.5045C167.022 86.5045 178.172 75.577 178.172 62.0719C178.172 48.5669 167.022 37.6394 153.381 37.6394C139.739 37.6394 128.589 48.5669 128.589 62.0719C128.589 75.577 139.739 86.5045 153.381 86.5045Z" fill="url(#paint4_linear_3521_24253)"/>
<path d="M112.721 86.5044C137.132 86.5044 157.017 67.149 157.017 43.2522C157.017 19.3373 137.132 0 112.721 0C88.3123 0 68.4277 19.3373 68.4277 43.2522C68.4277 67.149 88.1927 86.5044 112.721 86.5044Z" fill="url(#paint5_linear_3521_24253)"/>
<path d="M304.349 49.7559C304.349 59.1423 296.499 66.7321 286.708 66.7321C286.538 66.7321 285.104 66.7321 274.552 66.7321C267.21 66.7321 255.476 66.7321 236.737 66.7321H227.788C216.055 66.9945 206.685 57.9311 206.685 46.9904C206.685 35.969 216.141 26.8248 228.041 27.4102C238.256 -3.45388 285.021 0.886066 288.987 32.7796C297.766 33.8495 304.349 41.0356 304.349 49.7559Z" fill="url(#paint6_linear_3521_24253)"/>
<path d="M286.457 66.7376C296.303 66.7376 304.349 59.2468 304.349 49.9828C304.349 40.7388 296.303 33.228 286.457 33.228C276.612 33.228 268.564 40.7388 268.564 49.9828C268.564 59.2468 276.612 66.7376 286.457 66.7376Z" fill="url(#paint7_linear_3521_24253)"/>
<path d="M258.871 67.4823C276.127 67.4823 290.184 53.8045 290.184 36.9514C290.184 20.0779 276.127 6.42041 258.871 6.42041C241.616 6.42041 227.56 20.0779 227.56 36.9514C227.56 53.8045 241.531 67.4823 258.871 67.4823Z" fill="url(#paint8_linear_3521_24253)"/>
<path d="M282.688 75.1857C286.403 75.1857 289.412 72.3029 289.412 68.7619C289.412 65.2053 286.403 62.3381 282.688 62.3381C278.976 62.3381 275.965 65.2053 275.965 68.7619C275.965 72.3029 278.976 75.1857 282.688 75.1857Z" fill="#EEEEEE"/>
<path d="M292.336 50.0744C294.92 50.0744 297.013 47.9721 297.013 45.4026C297.013 42.8164 294.92 40.7307 292.336 40.7307C289.753 40.7307 287.658 42.8164 287.658 45.4026C287.658 47.9721 289.753 50.0744 292.336 50.0744Z" fill="#EEEEEE"/>
<path d="M97.9347 162.199C102.617 162.199 106.412 158.536 106.412 154.023C106.412 149.495 102.617 145.847 97.9347 145.847C93.2524 145.847 89.457 149.495 89.457 154.023C89.457 158.536 93.2524 162.199 97.9347 162.199Z" fill="#EEEEEE"/>
<g filter="url(#filter0_d_3521_24253)">
<path d="M240.919 74.547L242.054 163.787C242.054 166.839 239.499 169.207 236.374 169.207H147.174C144.05 169.207 141.492 166.711 141.492 163.787V49.0543C141.492 46.0028 144.05 43.6506 147.174 43.6506H211.802L240.919 74.547Z" fill="white"/>
</g>
<path d="M184.572 149.935H182.604C182.176 149.935 181.834 149.532 181.834 149.059C181.834 148.569 182.176 148.183 182.604 148.183H184.572C185 148.183 185.342 148.569 185.342 149.059C185.342 149.602 185 149.935 184.572 149.935Z" fill="#D6D6D6"/>
<path d="M174.225 149.935H156.7C156.047 149.935 155.524 149.532 155.524 149.059C155.524 148.569 156.047 148.183 156.7 148.183H174.225C174.879 148.183 175.403 148.569 175.403 149.059C175.403 149.602 174.879 149.935 174.225 149.935Z" fill="#DCDCDC"/>
<path d="M199.9 62.9221H157.922C156.946 62.9221 156.109 62.0987 156.109 61.1702C156.109 60.2241 156.946 59.4182 157.922 59.4182H199.9C200.876 59.4182 201.713 60.2241 201.713 61.1702C201.713 62.0987 200.876 62.9221 199.9 62.9221Z" fill="#DCDCDC"/>
<path d="M173.711 72.8496H157.356C156.369 72.8496 155.524 72.0262 155.524 71.0976C155.524 70.1516 156.369 69.3457 157.356 69.3457H173.569C174.556 69.3457 175.403 70.1516 175.403 71.0976C175.403 72.0262 174.556 72.8496 173.711 72.8496Z" fill="#DCDCDC"/>
<path d="M212.236 43.6506V68.8156C212.236 72.3475 215.44 75.1856 219.081 75.1856L241.47 74.3973" fill="#DCDCDC"/>
<path d="M177.008 89.1141C181.137 86.5523 186.005 85.1133 191.192 85.1133C205.377 85.1133 216.914 96.1827 216.914 109.94C216.914 123.682 205.377 134.752 191.192 134.752C177.008 134.752 165.47 123.682 165.47 109.94C165.258 101.211 169.916 93.6209 177.008 89.1141Z" fill="url(#paint9_linear_3521_24253)"/>
<path d="M193.586 98.7396L201.054 106.417C201.932 107.32 201.932 108.893 201.054 109.796C200.176 110.7 198.637 110.7 197.65 109.796L194.245 106.417V118.829C194.245 120.183 193.147 121.32 191.828 121.32C190.51 121.32 189.411 120.183 189.411 118.829V106.417L186.007 109.796C185.129 110.7 183.592 110.7 182.603 109.796C182.053 109.236 181.834 108.675 181.834 108.114C181.834 107.538 182.053 106.76 182.603 106.417L190.071 98.7396C190.4 98.4125 191.169 97.9609 191.719 97.9609C192.267 97.9609 193.256 98.179 193.586 98.7396Z" fill="white"/>
<path d="M165.636 146.899C165.636 155.609 158.325 162.653 149.206 162.653C149.049 162.653 147.713 162.653 137.886 162.653C131.047 162.653 120.12 162.653 102.667 162.653H94.3328C83.4052 162.896 74.6787 154.485 74.6787 144.333C74.6787 134.105 83.4849 125.619 94.5681 126.163C104.082 97.5211 147.635 101.549 151.329 131.145C159.506 132.138 165.636 138.807 165.636 146.899Z" fill="url(#paint10_linear_3521_24253)"/>
<path d="M149.06 162.658C158.182 162.658 165.636 155.643 165.636 146.968C165.636 138.312 158.182 131.279 149.06 131.279C139.94 131.279 132.483 138.312 132.483 146.968C132.483 155.643 139.94 162.658 149.06 162.658Z" fill="url(#paint11_linear_3521_24253)"/>
<path d="M123.557 163.506C139.72 163.506 152.885 150.778 152.885 135.095C152.885 119.393 139.72 106.684 123.557 106.684C107.396 106.684 94.2305 119.393 94.2305 135.095C94.2305 150.778 107.316 163.506 123.557 163.506Z" fill="url(#paint12_linear_3521_24253)"/>
<defs>
<filter id="filter0_d_3521_24253" x="119.492" y="32.6506" width="144.562" height="169.556" filterUnits="userSpaceOnUse" color-interpolation-filters="sRGB">
<feFlood flood-opacity="0" result="BackgroundImageFix"/>
<feColorMatrix in="SourceAlpha" type="matrix" values="0 0 0 0 0 0 0 0 0 0 0 0 0 0 0 0 0 0 127 0" result="hardAlpha"/>
<feOffset dy="11"/>
<feGaussianBlur stdDeviation="11"/>
<feColorMatrix type="matrix" values="0 0 0 0 0.396078 0 0 0 0 0.478431 0 0 0 0 0.576471 0 0 0 0.27 0"/>
<feBlend mode="normal" in2="BackgroundImageFix" result="effect1_dropShadow_3521_24253"/>
<feBlend mode="normal" in="SourceGraphic" in2="effect1_dropShadow_3521_24253" result="shape"/>
</filter>
<linearGradient id="paint0_linear_3521_24253" x1="214.518" y1="157.909" x2="214.499" y2="210.949" gradientUnits="userSpaceOnUse">
<stop stop-color="white"/>
<stop offset="0.9964" stop-color="#F0F0F0"/>
</linearGradient>
<linearGradient id="paint1_linear_3521_24253" x1="261.281" y1="165.434" x2="283.196" y2="190.396" gradientUnits="userSpaceOnUse">
<stop stop-color="#C9C9C9"/>
<stop offset="0.9942" stop-color="white" stop-opacity="0.01"/>
</linearGradient>
<linearGradient id="paint2_linear_3521_24253" x1="203.285" y1="162.358" x2="238.884" y2="176.609" gradientUnits="userSpaceOnUse">
<stop stop-color="#E7E7E7"/>
<stop offset="0.9942" stop-color="white" stop-opacity="0.01"/>
</linearGradient>
<linearGradient id="paint3_linear_3521_24253" x1="67.798" y1="35.725" x2="67.78" y2="87.4239" gradientUnits="userSpaceOnUse">
<stop stop-color="white"/>
<stop offset="0.9964" stop-color="#F0F0F0"/>
</linearGradient>
<linearGradient id="paint4_linear_3521_24253" x1="113.879" y1="43.2224" x2="135.504" y2="67.3338" gradientUnits="userSpaceOnUse">
<stop stop-color="#C9C9C9"/>
<stop offset="0.9942" stop-color="white" stop-opacity="0.01"/>
</linearGradient>
<linearGradient id="paint5_linear_3521_24253" x1="57.4594" y1="40.3682" x2="92.0047" y2="54.2455" gradientUnits="userSpaceOnUse">
<stop stop-color="#E7E7E7"/>
<stop offset="0.9942" stop-color="white" stop-opacity="0.01"/>
</linearGradient>
<linearGradient id="paint6_linear_3521_24253" x1="226.331" y1="31.3368" x2="226.319" y2="67.3886" gradientUnits="userSpaceOnUse">
<stop stop-color="white"/>
<stop offset="0.9964" stop-color="#F0F0F0"/>
</linearGradient>
<linearGradient id="paint7_linear_3521_24253" x1="257.937" y1="37.0487" x2="272.667" y2="54.3493" gradientUnits="userSpaceOnUse">
<stop stop-color="#C9C9C9"/>
<stop offset="0.9942" stop-color="white" stop-opacity="0.01"/>
</linearGradient>
<linearGradient id="paint8_linear_3521_24253" x1="219.804" y1="34.9111" x2="244.216" y2="44.7341" gradientUnits="userSpaceOnUse">
<stop stop-color="#E7E7E7"/>
<stop offset="0.9942" stop-color="white" stop-opacity="0.01"/>
</linearGradient>
<linearGradient id="paint9_linear_3521_24253" x1="176.752" y1="86.8369" x2="176.752" y2="114.7" gradientUnits="userSpaceOnUse">
<stop stop-color="#B9B9B9"/>
<stop offset="1" stop-color="#9D9D9D"/>
</linearGradient>
<linearGradient id="paint10_linear_3521_24253" x1="92.9757" y1="129.806" x2="92.9646" y2="163.262" gradientUnits="userSpaceOnUse">
<stop stop-color="white"/>
<stop offset="0.9964" stop-color="#F0F0F0"/>
</linearGradient>
<linearGradient id="paint11_linear_3521_24253" x1="122.639" y1="134.857" x2="136.454" y2="150.911" gradientUnits="userSpaceOnUse">
<stop stop-color="#C9C9C9"/>
<stop offset="0.9942" stop-color="white" stop-opacity="0.01"/>
</linearGradient>
<linearGradient id="paint12_linear_3521_24253" x1="86.9666" y1="133.196" x2="109.789" y2="142.44" gradientUnits="userSpaceOnUse">
<stop stop-color="#E7E7E7"/>
<stop offset="0.9942" stop-color="white" stop-opacity="0.01"/>
</linearGradient>
</defs>
</svg>
