<svg width="24" height="24" viewBox="0 0 24 24" fill="none" xmlns="http://www.w3.org/2000/svg">
<path d="M14.9114 4.06784L14.381 4.59817L14.381 4.59817L14.9114 4.06784ZM14.9114 9.22383L14.381 8.6935L14.9114 9.22383ZM9.75536 4.06784L10.2857 4.59817V4.59817L9.75536 4.06784ZM14.381 4.59817C15.5119 5.72907 15.5119 7.5626 14.381 8.6935L15.4417 9.75416C17.1584 8.03748 17.1584 5.2542 15.4417 3.53751L14.381 4.59817ZM10.2857 4.59817C11.4166 3.46728 13.2501 3.46728 14.381 4.59817L15.4417 3.53751C13.725 1.82083 10.9417 1.82083 9.22503 3.53751L10.2857 4.59817ZM10.2857 8.6935C9.1548 7.5626 9.1548 5.72907 10.2857 4.59817L9.22503 3.53751C7.50835 5.2542 7.50835 8.03748 9.22503 9.75416L10.2857 8.6935ZM14.381 8.6935C13.2501 9.8244 11.4166 9.8244 10.2857 8.6935L9.22503 9.75416C10.9417 11.4708 13.725 11.4708 15.4417 9.75416L14.381 8.6935ZM3.25 18.625V19.6667H4.75V18.625H3.25ZM12.3333 12.675C10.1161 12.675 7.89776 13.2111 6.20808 14.1948C4.52514 15.1745 3.25 16.6802 3.25 18.625H4.75C4.75 17.4177 5.53319 16.3234 6.96275 15.4911C8.38557 14.6628 10.3339 14.175 12.3333 14.175V12.675ZM21.4167 18.625C21.4167 16.6802 20.1415 15.1745 18.4586 14.1948C16.7689 13.2111 14.5506 12.675 12.3333 12.675V14.175C14.3328 14.175 16.2811 14.6628 17.7039 15.4911C19.1335 16.3234 19.9167 17.4177 19.9167 18.625H21.4167ZM21.4167 19.6667V18.625H19.9167V19.6667H21.4167ZM19.625 21.4583C20.6142 21.4583 21.4167 20.6559 21.4167 19.6667H19.9167C19.9167 19.8275 19.7858 19.9583 19.625 19.9583V21.4583ZM5.04167 21.4583H19.625V19.9583H5.04167V21.4583ZM3.25 19.6667C3.25 20.6559 4.05245 21.4583 5.04167 21.4583V19.9583C4.88088 19.9583 4.75 19.8275 4.75 19.6667H3.25Z" fill="#1F1F1F"/>
</svg>
