<svg width="24" height="24" viewBox="0 0 24 24" fill="none" xmlns="http://www.w3.org/2000/svg">
<path fill-rule="evenodd" clip-rule="evenodd" d="M7.40606 18.7034C10.4559 19.0989 13.5441 19.0989 16.5939 18.7034C18.2097 18.503 19.6275 17.5304 20.3961 16.0952C21.1648 14.6599 21.1886 12.9408 20.4599 11.4848L18.0591 6.72772C16.9047 4.44132 14.5613 2.99963 12 3V3C9.43867 2.99963 7.09532 4.44132 5.94086 6.72772L3.54 11.4848C2.81136 12.9408 2.83517 14.66 3.60384 16.0952C4.37252 17.5305 5.79032 18.503 7.40606 18.7034V18.7034Z" stroke="#0A0A0A" stroke-width="1.5" stroke-linecap="round" stroke-linejoin="round"/>
<path d="M8 15.25C10.6563 15.5833 13.3437 15.5833 16 15.25" stroke="#0A0A0A" stroke-width="1.5" stroke-linecap="round" stroke-linejoin="round"/>
<path d="M18 21L16.8289 18.6577" stroke="#0A0A0A" stroke-width="1.5" stroke-linecap="round" stroke-linejoin="round"/>
<path d="M7.17114 18.6577L6 21" stroke="#0A0A0A" stroke-width="1.5" stroke-linecap="round" stroke-linejoin="round"/>
</svg>
