<svg width="24" height="24" viewBox="0 0 24 24" fill="none" xmlns="http://www.w3.org/2000/svg">
<path d="M15.5014 22.0038V20.0029" stroke="#0A0A0A" stroke-width="1.5" stroke-linecap="round" stroke-linejoin="round"/>
<path d="M8.49856 22.0038V20.0029" stroke="#0A0A0A" stroke-width="1.5" stroke-linecap="round" stroke-linejoin="round"/>
<path fill-rule="evenodd" clip-rule="evenodd" d="M16.767 22.0038H7.23302C6.66383 22.0038 6.12155 21.7615 5.74194 21.3374C5.36232 20.9133 5.1813 20.3475 5.2442 19.7818L5.60235 16.5595C5.82763 14.5332 7.54025 13.0003 9.579 13H14.421C16.4617 12.9977 18.1772 14.5313 18.4027 16.5595L18.7608 19.7818C18.8238 20.3484 18.6421 20.9149 18.2614 21.3392C17.8807 21.7635 17.3371 22.0053 16.767 22.0038V22.0038Z" stroke="#0A0A0A" stroke-width="1.5" stroke-linecap="round" stroke-linejoin="round"/>
<path d="M12 22.0038V20.0029" stroke="#0A0A0A" stroke-width="1.5" stroke-linecap="round" stroke-linejoin="round"/>
<path fill-rule="evenodd" clip-rule="evenodd" d="M14.2509 13.0003H9.74904C9.41446 13.0003 9.10201 12.8331 8.91647 12.5546C8.73092 12.2762 8.69684 11.9235 8.82565 11.6147L9.24283 10.6143C9.39827 10.2417 9.76247 9.99899 10.1662 9.99902H13.8337C14.2375 9.99899 14.6017 10.2417 14.7571 10.6143L15.1743 11.6147C15.3031 11.9235 15.269 12.2762 15.0835 12.5546C14.8979 12.8331 14.5855 13.0003 14.2509 13.0003V13.0003Z" stroke="#0A0A0A" stroke-width="1.5" stroke-linecap="round" stroke-linejoin="round"/>
<path fill-rule="evenodd" clip-rule="evenodd" d="M12 1.99561V1.99561C12.8288 1.99561 13.5006 2.66746 13.5006 3.49623V9.49873C13.5006 9.77499 13.2767 9.99894 13.0004 9.99894H10.9996C10.7233 9.99894 10.4994 9.77499 10.4994 9.49873V3.49623C10.4994 2.66746 11.1712 1.99561 12 1.99561Z" stroke="#0A0A0A" stroke-width="1.5" stroke-linecap="round" stroke-linejoin="round"/>
</svg>
