<svg width="24" height="24" viewBox="0 0 24 24" fill="none" xmlns="http://www.w3.org/2000/svg">
<path fill-rule="evenodd" clip-rule="evenodd" d="M12 8.99859L8.96886 9.75637C8.43284 9.89038 7.88968 9.56448 7.75567 9.02847L7.13921 6.56258C7.04692 6.19342 7.06181 5.80559 7.18214 5.44459L7.7703 3.68014C7.90647 3.27163 8.28877 2.99609 8.71937 2.99609H15.2806C15.7112 2.99609 16.0935 3.27164 16.2297 3.68015L16.9099 5.721C16.9701 5.9015 16.9776 6.09542 16.9314 6.28L16.2443 9.0285C16.1103 9.56451 15.5671 9.89041 15.0311 9.7564L12 8.99859Z" stroke="#0A0A0A" stroke-width="1.5" stroke-linecap="round" stroke-linejoin="round"/>
<path d="M7.0803 5.99756H5.99753C4.33998 5.99756 2.99628 7.34126 2.99628 8.99881V18.0026C2.99628 19.6601 4.33998 21.0038 5.99753 21.0038H18.0025C19.6601 21.0038 21.0038 19.6601 21.0038 18.0026V8.99881C21.0038 7.34126 19.6601 5.99756 18.0025 5.99756H16.9613" stroke="#0A0A0A" stroke-width="1.5" stroke-linecap="round" stroke-linejoin="round"/>
<path d="M15.5015 14.0007H17.5023" stroke="#0A0A0A" stroke-width="1.5" stroke-linecap="round" stroke-linejoin="round"/>
<path d="M15.8716 3.19141L12 8.99883L8.12842 3.19141" stroke="#0A0A0A" stroke-width="1.5" stroke-linecap="round" stroke-linejoin="round"/>
<path d="M12.0204 21.0035V8.99854" stroke="#0A0A0A" stroke-width="1.5" stroke-linecap="round" stroke-linejoin="round"/>
</svg>
