<svg width="24" height="24" viewBox="0 0 24 24" fill="none" xmlns="http://www.w3.org/2000/svg">
<path d="M8.85671 20.4576C7.86978 20.1002 6.95293 19.5731 6.14758 18.8999" stroke="#0A0A0A" stroke-width="1.5" stroke-linecap="round" stroke-linejoin="round"/>
<path d="M3.0733 13.5669C3.25396 14.602 3.61528 15.5972 4.14075 16.5071" stroke="#0A0A0A" stroke-width="1.5" stroke-linecap="round" stroke-linejoin="round"/>
<path d="M3.0733 10.4426C3.25407 9.4079 3.61539 8.41301 4.14075 7.50342" stroke="#0A0A0A" stroke-width="1.5" stroke-linecap="round" stroke-linejoin="round"/>
<path d="M6.14758 5.11038C6.95244 4.43653 7.86942 3.9093 8.85671 3.55273" stroke="#0A0A0A" stroke-width="1.5" stroke-linecap="round" stroke-linejoin="round"/>
<path d="M11.933 3.00146C16.9056 3.00146 20.9367 7.03258 20.9367 12.0052C20.9367 16.9778 16.9056 21.009 11.933 21.009" stroke="#0A0A0A" stroke-width="1.5" stroke-linecap="round" stroke-linejoin="round"/>
<path d="M16.0067 16.0068C15.2179 15.4094 14.1854 15.2391 13.2465 15.5516L10.7635 16.379C9.82484 16.6918 8.79229 16.5219 8.00336 15.9248" stroke="#0A0A0A" stroke-width="1.5" stroke-linecap="round" stroke-linejoin="round"/>
<path d="M17.0071 12.056C16.021 11.3094 14.7302 11.0968 13.5567 11.4878L10.4554 12.5222C9.28129 12.9141 7.98948 12.7015 7.00293 11.954" stroke="#0A0A0A" stroke-width="1.5" stroke-linecap="round" stroke-linejoin="round"/>
<path d="M16.0067 8.08543C15.2179 7.48798 14.1854 7.3177 13.2465 7.63024L10.7635 8.45759C9.82484 8.77042 8.79229 8.60051 8.00336 8.0034" stroke="#0A0A0A" stroke-width="1.5" stroke-linecap="round" stroke-linejoin="round"/>
</svg>
