<svg width="24" height="24" viewBox="0 0 24 24" fill="none" xmlns="http://www.w3.org/2000/svg">
<path fill-rule="evenodd" clip-rule="evenodd" d="M9.49895 10.7495H14.501C15.0536 10.7495 15.5015 11.1974 15.5015 11.7499V13.0004C15.5015 14.2436 14.4937 15.2514 13.2505 15.2514H10.7495C9.50631 15.2514 8.49854 14.2436 8.49854 13.0004V11.7499C8.49854 11.1974 8.94644 10.7495 9.49895 10.7495Z" stroke="#0A0A0A" stroke-width="1.5" stroke-linecap="round" stroke-linejoin="round"/>
<path d="M13.9648 10.7495V8.49854" stroke="#0A0A0A" stroke-width="1.5" stroke-linecap="round" stroke-linejoin="round"/>
<path d="M10.0352 10.7495V8.49854" stroke="#0A0A0A" stroke-width="1.5" stroke-linecap="round" stroke-linejoin="round"/>
<path d="M16.0016 20.0545C19.9742 18.0782 21.9131 13.501 20.5688 9.27246C19.2245 5.04396 14.9984 2.42669 10.6138 3.10727C6.22931 3.78785 2.99544 7.56308 2.99622 12.0001C2.99411 14.4861 3.9819 16.8706 5.74137 18.6269V18.6269C7.05061 19.9312 8.82334 20.6637 10.6714 20.6637V20.6637C11.4049 20.6632 11.9994 20.0687 12 19.3352V15.2515" stroke="#0A0A0A" stroke-width="1.5" stroke-linecap="round" stroke-linejoin="round"/>
</svg>
