<svg width="24" height="24" viewBox="0 0 24 24" fill="none" xmlns="http://www.w3.org/2000/svg">
<path d="M16 12.5V5C16 3.89543 15.1046 3 14 3H13C12.4477 3 12 3.44772 12 4V9C12 9.55228 12.4477 10 13 10H13.5C14.8807 10 16 11.1193 16 12.5V12.5C16 13.8807 14.8807 15 13.5 15H4C3.44772 15 3 14.5523 3 14V6.5C3 5.67157 3.67157 5 4.5 5H12" stroke="#0A0A0A" stroke-width="1.5" stroke-linecap="round" stroke-linejoin="round"/>
<path d="M3 18V19.5C3 20.3284 3.67157 21 4.5 21H19.5C20.3284 21 21 20.3284 21 19.5V7.5C21 6.67157 20.3284 6 19.5 6H19" stroke="#0A0A0A" stroke-width="1.5" stroke-linecap="round" stroke-linejoin="round"/>
<path d="M18 18H16.6667" stroke="#0A0A0A" stroke-width="1.5" stroke-linecap="round" stroke-linejoin="round"/>
<path d="M12.6667 18H11.3333" stroke="#0A0A0A" stroke-width="1.5" stroke-linecap="round" stroke-linejoin="round"/>
<path d="M7.33333 18H6" stroke="#0A0A0A" stroke-width="1.5" stroke-linecap="round" stroke-linejoin="round"/>
</svg>
