<svg width="24" height="24" viewBox="0 0 24 24" fill="none" xmlns="http://www.w3.org/2000/svg">
<path d="M18.3666 18.1017L17.73 17.4651" stroke="#0A0A0A" stroke-width="1.5" stroke-linecap="round" stroke-linejoin="round"/>
<path d="M6.27008 17.4651L5.63341 18.1017" stroke="#0A0A0A" stroke-width="1.5" stroke-linecap="round" stroke-linejoin="round"/>
<path d="M14.6893 15.8161H9.31311" stroke="#0A0A0A" stroke-width="1.5" stroke-linecap="round" stroke-linejoin="round"/>
<path d="M21.0038 11.7351H20.1034" stroke="#0A0A0A" stroke-width="1.5" stroke-linecap="round" stroke-linejoin="round"/>
<path d="M3.89662 11.7351H2.99625" stroke="#0A0A0A" stroke-width="1.5" stroke-linecap="round" stroke-linejoin="round"/>
<path fill-rule="evenodd" clip-rule="evenodd" d="M9.0688 15.5662C7.25847 14.2886 6.48406 11.9857 7.15458 9.87379C7.82509 7.76191 9.78611 6.32748 12.0019 6.32813C14.2176 6.32877 16.1778 7.76434 16.8471 9.8766C17.5164 11.9889 16.7407 14.2913 14.9296 15.5679C14.6927 15.7264 14.5482 15.9906 14.5423 16.2755V18.6204C14.5424 19.1823 14.3192 19.7212 13.9219 20.1185C13.5246 20.5158 12.9857 20.7389 12.4238 20.7389H11.5763C11.0144 20.7389 10.4755 20.5158 10.0782 20.1185C9.68086 19.7212 9.45768 19.1823 9.45776 18.6204V16.2789C9.45214 15.9921 9.30696 15.7261 9.0688 15.5662Z" stroke="#0A0A0A" stroke-width="1.5" stroke-linecap="round" stroke-linejoin="round"/>
<path d="M18.3666 5.36865L17.73 6.0053" stroke="#0A0A0A" stroke-width="1.5" stroke-linecap="round" stroke-linejoin="round"/>
<path d="M6.27007 6.00531L5.63342 5.36864" stroke="#0A0A0A" stroke-width="1.5" stroke-linecap="round" stroke-linejoin="round"/>
<path d="M12 3.63179V2.73142" stroke="#0A0A0A" stroke-width="1.5" stroke-linecap="round" stroke-linejoin="round"/>
</svg>
