<svg width="24" height="24" viewBox="0 0 24 24" fill="none" xmlns="http://www.w3.org/2000/svg">
<path fill-rule="evenodd" clip-rule="evenodd" d="M12 8.99884L8.96886 9.75661C8.43284 9.89062 7.88968 9.56473 7.75567 9.02871L7.13921 6.56282C7.04692 6.19366 7.06181 5.80583 7.18214 5.44484L7.7703 3.68038C7.90647 3.27188 8.28877 2.99634 8.71937 2.99634H15.2806C15.7112 2.99634 16.0935 3.27188 16.2297 3.68039L16.9099 5.72124C16.9701 5.90174 16.9776 6.09566 16.9314 6.28025L16.2443 9.02874C16.1103 9.56476 15.5671 9.89065 15.0311 9.75664L12 8.99884Z" stroke="#1F1F1F" stroke-width="1.5" stroke-linecap="round" stroke-linejoin="round"/>
<path d="M21.0038 12.0001V8.99881C21.0038 7.34126 19.6601 5.99756 18.0025 5.99756H16.9613" stroke="#1F1F1F" stroke-width="1.5" stroke-linecap="round" stroke-linejoin="round"/>
<path d="M7.08027 5.99756H5.9975C4.33995 5.99756 2.99625 7.34126 2.99625 8.99881V18.0026C2.99625 19.6601 4.33995 21.0038 5.9975 21.0038H13.0004" stroke="#1F1F1F" stroke-width="1.5" stroke-linecap="round" stroke-linejoin="round"/>
<path d="M15.8716 3.19141L12 8.99883L8.12839 3.19141" stroke="#1F1F1F" stroke-width="1.5" stroke-linecap="round" stroke-linejoin="round"/>
<path d="M12.05 15.0014C12.05 15.0291 12.0276 15.0514 12 15.0514C11.9724 15.0514 11.95 15.0291 11.95 15.0014C11.95 14.9738 11.9724 14.9514 12 14.9514" stroke="#1F1F1F" stroke-width="1.5" stroke-linecap="round" stroke-linejoin="round"/>
<path d="M12 14.9513C12.0276 14.9513 12.05 14.9737 12.05 15.0013V15.0013" stroke="#1F1F1F" stroke-width="1.5" stroke-linecap="round" stroke-linejoin="round"/>
<path d="M12.05 12.0002C12.05 12.0278 12.0276 12.0502 12 12.0502C11.9724 12.0502 11.95 12.0278 11.95 12.0002C11.95 11.9726 11.9724 11.9502 12 11.9502" stroke="#1F1F1F" stroke-width="1.5" stroke-linecap="round" stroke-linejoin="round"/>
<path d="M12 11.9501C12.0276 11.9501 12.05 11.9724 12.05 12.0001V12.0001" stroke="#1F1F1F" stroke-width="1.5" stroke-linecap="round" stroke-linejoin="round"/>
<path fill-rule="evenodd" clip-rule="evenodd" d="M18.5027 21.5041C18.5027 19.5703 16.9351 18.0027 15.0013 18.0027C16.9351 18.0027 18.5027 16.435 18.5027 14.5012C18.5027 16.435 20.0704 18.0027 22.0042 18.0027C20.0704 18.0027 18.5027 19.5703 18.5027 21.5041Z" stroke="#1F1F1F" stroke-width="1.5" stroke-linecap="round" stroke-linejoin="round"/>
</svg>
