<svg width="24" height="24" viewBox="0 0 24 24" fill="none" xmlns="http://www.w3.org/2000/svg">
<path fill-rule="evenodd" clip-rule="evenodd" d="M3.46565 6.38051L11.2629 3.28822C11.7366 3.10119 12.2638 3.10119 12.7375 3.28822L20.5348 6.38051C20.6111 6.41069 20.6613 6.48447 20.6613 6.56659C20.6613 6.64871 20.6111 6.72248 20.5348 6.75267L12.7375 9.84495C12.2638 10.032 11.7366 10.032 11.2629 9.84495L3.46565 6.75267C3.38928 6.72248 3.33911 6.64871 3.33911 6.56659C3.33911 6.48447 3.38928 6.41069 3.46565 6.38051Z" stroke="#0A0A0A" stroke-width="1.5" stroke-linecap="round" stroke-linejoin="round"/>
<path fill-rule="evenodd" clip-rule="evenodd" d="M13.5007 20.5496V12.7463C13.5005 12.6429 13.5642 12.5502 13.6608 12.5132L20.6637 9.79509C20.7406 9.76542 20.8272 9.77553 20.8951 9.82212C20.9631 9.8687 21.0038 9.94578 21.0039 10.0282V17.8314C21.004 17.9348 20.9403 18.0276 20.8438 18.0645L13.8409 20.7827C13.764 20.8123 13.6774 20.8022 13.6095 20.7556C13.5415 20.7091 13.5008 20.632 13.5007 20.5496Z" stroke="#0A0A0A" stroke-width="1.5" stroke-linecap="round" stroke-linejoin="round"/>
<path fill-rule="evenodd" clip-rule="evenodd" d="M2.99634 9.93617V17.5483C2.99642 17.6307 3.03708 17.7078 3.10506 17.7544C3.17304 17.801 3.2596 17.8111 3.33648 17.7814L10.3394 15.0633C10.436 15.0264 10.4996 14.9336 10.4995 14.8302V12.7133C10.4996 12.6108 10.4368 12.5187 10.3414 12.4812L3.33848 9.70408C3.26154 9.67362 3.17452 9.6832 3.10604 9.72965C3.03756 9.77611 2.99649 9.85342 2.99634 9.93617Z" stroke="#0A0A0A" stroke-width="1.5" stroke-linecap="round" stroke-linejoin="round"/>
</svg>
