<svg width="24" height="24" viewBox="0 0 24 24" fill="none" xmlns="http://www.w3.org/2000/svg">
<path fill-rule="evenodd" clip-rule="evenodd" d="M4.545 18H7.454C8.30783 18 9 18.6922 9 19.546V20C9 20.5523 8.55228 21 8 21H4C3.44772 21 3 20.5523 3 20V19.546C3 18.6926 3.69156 18.0006 4.545 18Z" stroke="#0A0A0A" stroke-width="1.5" stroke-linecap="round" stroke-linejoin="round"/>
<path d="M13 16.5V12C13 10.8954 13.8954 10 15 10H16C18.7614 10 21 12.2386 21 15V19C21 20.1046 20.1046 21 19 21H14.5" stroke="#0A0A0A" stroke-width="1.5" stroke-linecap="round" stroke-linejoin="round"/>
<circle cx="14.5" cy="18.5" r="2.5" stroke="#0A0A0A" stroke-width="1.5" stroke-linecap="round" stroke-linejoin="round"/>
<path d="M6 18V7.5C6 5.01472 8.01472 3 10.5 3V3C12.9853 3 15 5.01472 15 7.5V10" stroke="#0A0A0A" stroke-width="1.5" stroke-linecap="round" stroke-linejoin="round"/>
</svg>
