<svg width="24" height="24" viewBox="0 0 24 24" fill="none" xmlns="http://www.w3.org/2000/svg">
<path fill-rule="evenodd" clip-rule="evenodd" d="M5 21H18.779C19.884 21 20.779 20.105 20.779 19V5C20.779 3.895 19.884 3 18.779 3H5C3.895 3 3 3.895 3 5V19C3 20.105 3.895 21 5 21Z" stroke="#0A0A0A" stroke-width="1.5" stroke-linecap="round" stroke-linejoin="round"/>
<path d="M8.53599 16.5V16.5C8.03499 15.632 8.28999 14.525 9.11999 13.964L9.12099 13.963C9.78699 13.512 10.664 13.527 11.314 14L12.686 14.999C13.336 15.472 14.213 15.487 14.879 15.036L14.88 15.035C15.71 14.474 15.964 13.367 15.464 12.499V12.499" stroke="#0A0A0A" stroke-width="1.5" stroke-linecap="round" stroke-linejoin="round"/>
<path d="M14.8284 11.6716C16.3905 13.2337 16.3905 15.7663 14.8284 17.3284C13.2663 18.8905 10.7337 18.8905 9.17157 17.3284C7.60947 15.7663 7.60947 13.2337 9.17157 11.6716C10.7337 10.1095 13.2663 10.1095 14.8284 11.6716" stroke="#0A0A0A" stroke-width="1.5" stroke-linecap="round" stroke-linejoin="round"/>
<path d="M20.78 8H3" stroke="#0A0A0A" stroke-width="1.5" stroke-linecap="round" stroke-linejoin="round"/>
<path d="M16 5.5H18" stroke="#0A0A0A" stroke-width="1.5" stroke-linecap="round" stroke-linejoin="round"/>
</svg>
