<svg width="24" height="24" viewBox="0 0 24 24" fill="none" xmlns="http://www.w3.org/2000/svg">
<path fill-rule="evenodd" clip-rule="evenodd" d="M12 21C16.9706 21 21 16.9706 21 12C21 7.02944 16.9706 3 12 3C7.02944 3 3 7.02944 3 12C3 16.9706 7.02944 21 12 21ZM12.0556 6.99712C12.7442 7.01903 13.2857 7.55221 13.2702 8.19298C13.2546 8.83376 12.6877 9.34363 11.9987 9.33657C11.3097 9.32951 10.755 8.80816 10.7546 8.16722C10.7529 7.84939 10.8909 7.54471 11.1365 7.32377C11.3821 7.10284 11.7141 6.98484 12.0556 6.99712ZM13.9962 16.4229C13.9976 16.575 13.9337 16.7213 13.8186 16.8293C13.7035 16.9373 13.5468 16.998 13.3834 16.998H10.6686C10.5052 16.998 10.3485 16.9373 10.2334 16.8293C10.1183 16.7213 10.0544 16.575 10.0558 16.4229V16.3579C10.0581 16.0817 10.2695 15.8453 10.5611 15.7929H10.6256C10.9155 15.7448 11.1277 15.5118 11.1309 15.2378V13.9627V13.3627V12.5826C11.1275 12.2981 10.8972 12.0603 10.5934 12.0276H10.5342C10.2267 11.9899 9.9967 11.7461 9.99665 11.4575V11.3375C9.98743 11.0993 10.1371 10.8806 10.373 10.7875L12.1953 10.1124C12.3846 10.046 12.5966 10.0683 12.7652 10.1724C12.9471 10.2806 13.052 10.4719 13.0393 10.6724L13.0017 12.2826V13.9627V15.2478C13.0018 15.5194 13.2095 15.7524 13.4963 15.8029C13.7847 15.8577 13.9917 16.0941 13.9908 16.3679L13.9962 16.4229Z" fill="#0A0A0A"/>
</svg>
