<svg width="24" height="24" viewBox="0 0 24 24" fill="none" xmlns="http://www.w3.org/2000/svg">
<circle cx="12" cy="12" r="12" fill="#D1CDC7"/>
<path fill-rule="evenodd" clip-rule="evenodd" d="M12.8437 13.2112V13.8686H11.378V12.9147C11.378 12.7084 11.3985 12.5344 11.4395 12.3926C11.4806 12.2508 11.5442 12.1198 11.6305 11.9995C11.7167 11.8791 11.8316 11.7567 11.9753 11.6321L12.4865 11.1744C12.6754 11.0026 12.8396 10.8285 12.9792 10.6524C13.1188 10.4762 13.1886 10.2506 13.1886 9.97561C13.1886 9.61467 13.0736 9.32892 12.8437 9.11838C12.6138 8.90783 12.3428 8.80255 12.0308 8.80255C11.8583 8.80255 11.6982 8.83693 11.5504 8.90568C11.4026 8.97443 11.2671 9.06466 11.1439 9.17638C11.0208 9.2881 10.912 9.41916 10.8175 9.56955C10.7231 9.71994 10.6471 9.87678 10.5897 10.0401L9.33331 9.4342C9.41543 9.17638 9.53449 8.92072 9.69051 8.6672C9.84653 8.41368 10.0374 8.18809 10.2633 7.99044C10.4891 7.79278 10.7477 7.63379 11.0392 7.51348C11.3307 7.39316 11.6613 7.33301 12.0308 7.33301C12.4003 7.33301 12.7472 7.39961 13.0716 7.53281C13.3959 7.66602 13.6751 7.84864 13.9091 8.08067C14.1432 8.3127 14.3279 8.58986 14.4634 8.91212C14.5989 9.23439 14.6666 9.58459 14.6666 9.96272C14.6666 10.2377 14.6317 10.4805 14.562 10.691C14.4922 10.9016 14.3957 11.0971 14.2725 11.2776C14.1493 11.458 14.0056 11.6321 13.8414 11.7997C13.6772 11.9672 13.4965 12.1413 13.2994 12.3217L13.0469 12.5667C12.9854 12.6268 12.9402 12.6848 12.9115 12.7407C12.8827 12.7965 12.8642 12.861 12.856 12.934C12.8478 13.0071 12.8437 13.0995 12.8437 13.2112ZM12.8067 16.3703C12.6179 16.5679 12.388 16.6668 12.117 16.6668C11.846 16.6668 11.6161 16.5679 11.4272 16.3703C11.2384 16.1726 11.1439 15.932 11.1439 15.6484C11.1439 15.3648 11.2384 15.1242 11.4272 14.9265C11.6161 14.7289 11.846 14.63 12.117 14.63C12.388 14.63 12.6179 14.7289 12.8067 14.9265C12.9956 15.1242 13.09 15.3648 13.09 15.6484C13.09 15.932 12.9956 16.1726 12.8067 16.3703Z" fill="#6F685D"/>
</svg>
