<svg width="24" height="24" viewBox="0 0 24 24" fill="none" xmlns="http://www.w3.org/2000/svg">
<circle cx="12" cy="12" r="12" fill="#FFB00F"/>
<path fill-rule="evenodd" clip-rule="evenodd" d="M12.9365 13.2983V14.0028H11.2928V12.9807C11.2928 12.7597 11.3158 12.5732 11.3619 12.4213C11.4079 12.2693 11.4793 12.1289 11.576 12C11.6727 11.8711 11.8016 11.7399 11.9627 11.6064L12.5359 11.116C12.7477 10.9319 12.9319 10.7454 13.0884 10.5566C13.2449 10.3679 13.3232 10.1262 13.3232 9.83149C13.3232 9.44475 13.1943 9.13858 12.9365 8.91298C12.6786 8.68739 12.3748 8.57459 12.0249 8.57459C11.8315 8.57459 11.6519 8.61142 11.4862 8.68508C11.3204 8.75875 11.1685 8.85543 11.0304 8.97514C10.8923 9.09484 10.7703 9.23527 10.6644 9.39641C10.5585 9.55755 10.4733 9.7256 10.4088 9.90055L9 9.25138C9.09208 8.97514 9.2256 8.7012 9.40055 8.42956C9.57551 8.15792 9.78959 7.91621 10.0428 7.70442C10.296 7.49263 10.5861 7.32228 10.913 7.19337C11.2399 7.06446 11.6105 7 12.0249 7C12.4392 7 12.8283 7.07136 13.192 7.21409C13.5557 7.35681 13.8688 7.55249 14.1312 7.8011C14.3936 8.04972 14.6008 8.34669 14.7528 8.69199C14.9047 9.03729 14.9807 9.41252 14.9807 9.81768C14.9807 10.1123 14.9415 10.3725 14.8633 10.5981C14.785 10.8237 14.6768 11.0331 14.5387 11.2265C14.4006 11.4199 14.2394 11.6064 14.0552 11.7859C13.8711 11.9655 13.6685 12.1519 13.4475 12.3453L13.1644 12.6077C13.0953 12.6722 13.0447 12.7343 13.0124 12.7942C12.9802 12.8541 12.9595 12.9231 12.9503 13.0014C12.9411 13.0796 12.9365 13.1786 12.9365 13.2983ZM12.895 16.6823C12.6832 16.8941 12.4254 17 12.1215 17C11.8177 17 11.5599 16.8941 11.3481 16.6823C11.1363 16.4705 11.0304 16.2127 11.0304 15.9088C11.0304 15.605 11.1363 15.3471 11.3481 15.1354C11.5599 14.9236 11.8177 14.8177 12.1215 14.8177C12.4254 14.8177 12.6832 14.9236 12.895 15.1354C13.1068 15.3471 13.2127 15.605 13.2127 15.9088C13.2127 16.2127 13.1068 16.4705 12.895 16.6823Z" fill="white"/>
</svg>
