<svg width="24" height="24" viewBox="0 0 24 24" fill="none" xmlns="http://www.w3.org/2000/svg">
<path fill-rule="evenodd" clip-rule="evenodd" d="M8.88 12.825L13.728 9.795C14.519 9.3 15 8.433 15 7.5V7.5C15 6.119 13.881 5 12.5 5V5C11.119 5 10 6.119 10 7.5V7.5C10 8.328 9.328 9 8.5 9V9C7.672 9 7 8.328 7 7.5V7.5C7 4.462 9.462 2 12.5 2V2C15.538 2 18 4.462 18 7.5V20C18 21.105 17.105 22 16 22H9C7.895 22 7 21.105 7 20V16.217C7 14.838 7.71 13.556 8.88 12.825Z" stroke="#0A0A0A" stroke-width="1.5" stroke-linecap="round" stroke-linejoin="round"/>
<path d="M11.25 15.75L13.75 18.25" stroke="#0A0A0A" stroke-width="1.5" stroke-linecap="round" stroke-linejoin="round"/>
<path d="M11.25 18.25L13.75 15.75" stroke="#0A0A0A" stroke-width="1.5" stroke-linecap="round" stroke-linejoin="round"/>
</svg>
