<svg width="24" height="24" viewBox="0 0 24 24" fill="none" xmlns="http://www.w3.org/2000/svg">
<path fill-rule="evenodd" clip-rule="evenodd" d="M18 21H6C4.343 21 3 19.657 3 18V6C3 4.343 4.343 3 6 3H18C19.657 3 21 4.343 21 6V18C21 19.657 19.657 21 18 21Z" stroke="#0A0A0A" stroke-width="1.5" stroke-linecap="round" stroke-linejoin="round"/>
<path d="M10.333 15.0002C10.743 14.6602 11.337 14.4442 12 14.4442C12.663 14.4442 13.257 14.6592 13.667 15.0002" stroke="#0A0A0A" stroke-width="1.5" stroke-linecap="round" stroke-linejoin="round"/>
<path d="M8.66699 12.8888C9.48699 12.2088 10.674 11.7778 12 11.7778C13.326 11.7778 14.513 12.2088 15.333 12.8888" stroke="#0A0A0A" stroke-width="1.5" stroke-linecap="round" stroke-linejoin="round"/>
<path d="M7 10.852C8.23 9.718 10.011 9 12 9C13.989 9 15.77 9.718 17 10.852" stroke="#0A0A0A" stroke-width="1.5" stroke-linecap="round" stroke-linejoin="round"/>
</svg>
