<svg width="24" height="24" viewBox="0 0 24 24" fill="none" xmlns="http://www.w3.org/2000/svg">
<path fill-rule="evenodd" clip-rule="evenodd" d="M13.8933 11.1931V2H18.6364V22L17.9473 21.8881C16.7298 21.6904 15.4854 21.5505 14.2489 21.4723L13.899 21.4502L9.7431 12.7014V21.4475L9.19111 21.4853C8.02044 21.5653 6.84215 21.7008 5.68899 21.8881L5 22L5.00004 2H9.52685L13.8933 11.1931ZM6.18579 20.6263C6.97115 20.5132 7.76493 20.4234 8.55736 20.3579V10.2052L6.18583 5.21281L6.18579 20.6263ZM14.6752 20.3266L6.52618 3.17183H8.77352L17.0366 20.5691C16.2532 20.4649 15.4632 20.3835 14.6752 20.3266ZM15.079 13.6897L17.4506 18.6828V3.17183H15.079V13.6897Z" fill="#0A0A0A"/>
</svg>
