<svg width="24" height="24" viewBox="0 0 24 24" fill="none" xmlns="http://www.w3.org/2000/svg">
<path d="M17.5 22.5L16 21L17.5 19.5" stroke="#0A0A0A" stroke-width="1.5" stroke-linecap="round" stroke-linejoin="round"/>
<path d="M16 21H18.0004C19.657 21 21 19.657 21 18.0004V18" stroke="#0A0A0A" stroke-width="1.5" stroke-linecap="round" stroke-linejoin="round"/>
<path d="M3.44037 15.1226V20.0001C3.44037 20.5523 3.88808 21.0001 4.44037 21.0001H10.5C11.0523 21.0001 11.5 20.5523 11.5 20.0001V15.2004" stroke="#0A0A0A" stroke-width="1.5" stroke-linecap="round" stroke-linejoin="round"/>
<path d="M11 10V7C11 5.34315 12.3431 4 14 4H18C19.6569 4 21 5.34315 21 7V11C21 12.6569 19.6569 14 18 14H15" stroke="#0A0A0A" stroke-width="1.5" stroke-linecap="round" stroke-linejoin="round"/>
<path d="M12.4252 16L8.07911 12.2435C7.70357 11.9188 7.14676 11.9188 6.77122 12.2435L2.42517 16" stroke="#0A0A0A" stroke-width="1.5" stroke-linecap="round" stroke-linejoin="round"/>
<path d="M14.5004 10.5L17.5004 7.5" stroke="#0A0A0A" stroke-width="1.5" stroke-linecap="round" stroke-linejoin="round"/>
<path d="M17.75 10.6503C17.7498 10.7054 17.7049 10.75 17.6498 10.7499C17.5946 10.7498 17.55 10.7051 17.55 10.6499C17.55 10.5947 17.5946 10.55 17.6498 10.5499C17.7049 10.5498 17.7498 10.5944 17.75 10.6495V10.6503" stroke="#0A0A0A" stroke-width="1.5" stroke-linecap="round" stroke-linejoin="round"/>
<path d="M14.25 7.34973C14.2502 7.29457 14.295 7.25 14.3502 7.2501C14.4053 7.2502 14.45 7.29494 14.45 7.3501C14.45 7.40525 14.4053 7.45 14.3502 7.4501C14.295 7.4502 14.2502 7.40562 14.25 7.35047V7.34973" stroke="#0A0A0A" stroke-width="1.5" stroke-linecap="round" stroke-linejoin="round"/>
<path d="M6.5 2.5L8 4L6.5 5.5" stroke="#0A0A0A" stroke-width="1.5" stroke-linecap="round" stroke-linejoin="round"/>
<path d="M8 4H5.99962C4.34298 4.00001 3.00001 5.34298 3 6.99962V7" stroke="#0A0A0A" stroke-width="1.5" stroke-linecap="round" stroke-linejoin="round"/>
</svg>
