<svg width="24" height="24" viewBox="0 0 24 24" fill="none" xmlns="http://www.w3.org/2000/svg">
<path d="M18.0092 9.98157C15.8052 9.98157 14.0184 8.19484 14.0184 5.99079C14.0184 3.78674 15.8052 2 18.0092 2C20.2133 2 22 3.78674 22 5.99079C22 7.04921 21.5795 8.06428 20.8311 8.8127C20.0827 9.56112 19.0676 9.98157 18.0092 9.98157" stroke="#0A0A0A" stroke-width="1.5" stroke-linecap="round" stroke-linejoin="round"/>
<path d="M14.0244 5.75621C10.2819 4.05379 5.85743 5.27289 3.51505 8.65192C1.17267 12.0309 1.58342 16.6019 4.4907 19.5092C7.39799 22.4165 11.9689 22.8272 15.348 20.4848C18.727 18.1425 19.9461 13.718 18.2437 9.97547" stroke="#0A0A0A" stroke-width="1.5" stroke-linecap="round" stroke-linejoin="round"/>
<path fill-rule="evenodd" clip-rule="evenodd" d="M11.1032 10.1602L12.8292 12.4699C13.4823 13.3424 13.587 14.5089 13.0996 15.4838C12.6123 16.4587 11.6164 17.075 10.5265 17.0762V17.0762C9.4364 17.0754 8.44018 16.4592 7.95259 15.4842C7.465 14.5093 7.56959 13.3426 8.22282 12.4699L9.94983 10.1602C10.0856 9.97811 10.2994 9.87085 10.5265 9.87085C10.7536 9.87085 10.9674 9.97811 11.1032 10.1602V10.1602Z" stroke="#0A0A0A" stroke-width="1.5" stroke-linecap="round" stroke-linejoin="round"/>
<path d="M19.3661 5.29248L17.67 6.98856L16.6503 5.97191" stroke="#0A0A0A" stroke-width="1.5" stroke-linecap="round" stroke-linejoin="round"/>
</svg>
