<svg width="24" height="24" viewBox="0 0 24 24" fill="none" xmlns="http://www.w3.org/2000/svg">
<path d="M21.7501 23C21.7501 23.4142 22.0859 23.75 22.5001 23.75C22.9143 23.75 23.2501 23.4142 23.2501 23H21.7501ZM10.3637 22.0833C10.3637 21.6691 10.0279 21.3333 9.61371 21.3333C9.19949 21.3333 8.86371 21.6691 8.86371 22.0833H10.3637ZM8.86371 23C8.86371 23.4142 9.19949 23.75 9.61371 23.75C10.0279 23.75 10.3637 23.4142 10.3637 23H8.86371ZM16.8953 21.5147C17.1305 21.8556 17.5976 21.9413 17.9385 21.7061C18.2795 21.4708 18.3651 21.0037 18.1299 20.6628L16.8953 21.5147ZM17.6049 19.902C17.3696 19.561 16.9025 19.4754 16.5616 19.7106C16.2207 19.9459 16.135 20.4129 16.3703 20.7539L17.6049 19.902ZM2.85714 20.7539C3.09239 20.4129 3.00673 19.9459 2.6658 19.7106C2.32488 19.4754 1.85779 19.561 1.62254 19.902L2.85714 20.7539ZM1.09754 20.6628C0.862293 21.0037 0.94796 21.4708 1.28889 21.7061C1.62981 21.9413 2.09689 21.8556 2.33214 21.5147L1.09754 20.6628ZM14.7412 16.2353C14.506 15.8944 14.0389 15.8087 13.698 16.0439C13.3571 16.2792 13.2714 16.7463 13.5066 17.0872L14.7412 16.2353ZM14.0316 17.848C14.2669 18.189 14.734 18.2746 15.0749 18.0394C15.4158 17.8041 15.5015 17.337 15.2662 16.9961L14.0316 17.848ZM8.86371 17.5C8.86371 17.9142 9.19949 18.25 9.61371 18.25C10.0279 18.25 10.3637 17.9142 10.3637 17.5H8.86371ZM10.3637 16.5833C10.3637 16.1691 10.0279 15.8333 9.61371 15.8333C9.19949 15.8333 8.86371 16.1691 8.86371 16.5833H10.3637ZM6.67533 17.0872C6.91058 16.7463 6.82491 16.2792 6.48398 16.0439C6.14306 15.8087 5.67597 15.8944 5.44072 16.2353L6.67533 17.0872ZM4.91572 16.9961C4.68047 17.337 4.76614 17.8041 5.10707 18.0394C5.44799 18.2746 5.91508 18.189 6.15033 17.848L4.91572 16.9961ZM12.974 13.0833C12.5598 13.0833 12.224 13.4191 12.224 13.8333C12.224 14.2475 12.5598 14.5833 12.974 14.5833V13.0833ZM9.88643 7.11111C9.88643 4.21239 12.4783 1.75 15.8183 1.75V0.25C11.7788 0.25 8.38643 3.26072 8.38643 7.11111H9.88643ZM15.8183 1.75C19.1582 1.75 21.7501 4.21239 21.7501 7.11111H23.2501C23.2501 3.26072 19.8577 0.25 15.8183 0.25V1.75ZM21.7501 7.11111V23H23.2501V7.11111H21.7501ZM8.86371 22.0833V23H10.3637V22.0833H8.86371ZM18.1299 20.6628L17.6049 19.902L16.3703 20.7539L16.8953 21.5147L18.1299 20.6628ZM1.62254 19.902L1.09754 20.6628L2.33214 21.5147L2.85714 20.7539L1.62254 19.902ZM13.5066 17.0872L14.0316 17.848L15.2662 16.9961L14.7412 16.2353L13.5066 17.0872ZM10.3637 17.5V16.5833H8.86371V17.5H10.3637ZM5.44072 16.2353L4.91572 16.9961L6.15033 17.848L6.67533 17.0872L5.44072 16.2353ZM12.974 13.0833H7.20795V14.5833H12.974V13.0833ZM7.20795 13.0833C6.54218 13.0833 5.83313 12.259 6.13622 11.2302L4.69737 10.8063C4.18424 12.548 5.29617 14.5833 7.20795 14.5833V13.0833ZM6.13635 11.2298C6.69023 9.3456 8.20999 8.16667 9.82845 8.16667V6.66667C7.44218 6.66667 5.40827 8.38794 4.69724 10.8068L6.13635 11.2298ZM9.82845 8.16667H10.3535V6.66667H9.82845V8.16667ZM10.3535 8.16667C11.9709 8.16667 13.4918 9.34572 14.0456 11.2298L15.4847 10.8068C14.7737 8.38782 12.7385 6.66667 10.3535 6.66667V8.16667ZM14.0457 11.2302C14.3488 12.259 13.6398 13.0833 12.974 13.0833V14.5833C14.8858 14.5833 15.9977 12.548 15.4846 10.8063L14.0457 11.2302Z" fill="#0A0A0A"/>
</svg>
