<svg width="24" height="24" viewBox="0 0 24 24" fill="none" xmlns="http://www.w3.org/2000/svg">
<path d="M21.75 18.067C21.75 17.6528 21.4142 17.317 21 17.317C20.5858 17.317 20.25 17.6528 20.25 18.067H21.75ZM20.25 19.997C20.25 20.4112 20.5858 20.747 21 20.747C21.4142 20.747 21.75 20.4112 21.75 19.997H20.25ZM3.75001 18.067C3.75001 17.6528 3.41422 17.317 3.00001 17.317C2.5858 17.317 2.25001 17.6528 2.25001 18.067H3.75001ZM2.25001 19.997C2.25001 20.4112 2.5858 20.747 3.00001 20.747C3.41422 20.747 3.75001 20.4112 3.75001 19.997H2.25001ZM3.24999 12.067C3.24999 12.4812 3.58578 12.817 3.99999 12.817C4.4142 12.817 4.74999 12.4812 4.74999 12.067H3.24999ZM19.25 12.067C19.25 12.4812 19.5858 12.817 20 12.817C20.4142 12.817 20.75 12.4812 20.75 12.067H19.25ZM20.25 18.067V19.997H21.75V18.067H20.25ZM2.25001 18.067V19.997H3.75001V18.067H2.25001ZM20 11.317H4V12.817H20V11.317ZM4 11.317C2.48079 11.317 1.25 12.5478 1.25 14.067H2.75C2.75 13.3762 3.30921 12.817 4 12.817V11.317ZM1.25 14.067V17H2.75V14.067H1.25ZM1.25 17C1.25 17.9662 2.03379 18.75 3 18.75V17.25C2.86221 17.25 2.75 17.1378 2.75 17H1.25ZM3 18.75H21V17.25H3V18.75ZM21 18.75C21.9662 18.75 22.75 17.9662 22.75 17H21.25C21.25 17.1378 21.1378 17.25 21 17.25V18.75ZM22.75 17V14.067H21.25V17H22.75ZM22.75 14.067C22.75 12.5478 21.5192 11.317 20 11.317V12.817C20.6908 12.817 21.25 13.3762 21.25 14.067H22.75ZM4.74999 12.067V7H3.24999V12.067H4.74999ZM4.74999 7C4.74999 5.75721 5.75721 4.75 6.99999 4.75V3.25C4.92878 3.25 3.24999 4.92879 3.24999 7H4.74999ZM6.99999 4.75H17V3.25H6.99999V4.75ZM17 4.75C18.2428 4.75 19.25 5.75721 19.25 7H20.75C20.75 4.92879 19.0712 3.25 17 3.25V4.75ZM19.25 7V12.067H20.75V7H19.25ZM8.25001 12.067C8.25001 10.8242 9.25722 9.817 10.5 9.817V8.317C8.4288 8.317 6.75001 9.99579 6.75001 12.067H8.25001ZM10.5 9.817H13.5V8.317H10.5V9.817ZM13.5 9.817C14.7428 9.817 15.75 10.8242 15.75 12.067H17.25C17.25 9.99579 15.5712 8.317 13.5 8.317V9.817Z" fill="#0A0A0A"/>
</svg>
