<svg width="25" height="24" viewBox="0 0 25 24" fill="none" xmlns="http://www.w3.org/2000/svg">
<path d="M4.00001 20.7305V21.9999" stroke="#0A0A0A" stroke-width="1.5" stroke-linecap="round" stroke-linejoin="round"/>
<path d="M14.0003 14.5V13C14.0003 11.3431 12.6571 10 11.0002 10H8.00015C6.34324 10 5.00006 11.3431 5.00006 13V14.5" stroke="#0A0A0A" stroke-width="1.5" stroke-linecap="round" stroke-linejoin="round"/>
<path d="M15.0003 20.7285V21.9998" stroke="#0A0A0A" stroke-width="1.5" stroke-linecap="round" stroke-linejoin="round"/>
<path fill-rule="evenodd" clip-rule="evenodd" d="M5.50007 21H14.0003C15.1049 21 16.0004 20.1046 16.0004 19V16C16.0004 15.1716 15.3288 14.5 14.5003 14.5H14.0003C13.1719 14.5 12.5003 15.1716 12.5003 16V18H6.5001V16C6.5001 15.1716 5.82851 14.5 5.00006 14.5H4.50004C3.67159 14.5 3 15.1716 3 16V19C3 20.1046 3.89546 21 5.00006 21H5.50007Z" stroke="#0A0A0A" stroke-width="1.5" stroke-linecap="round" stroke-linejoin="round"/>
<path d="M20.0005 21V10" stroke="#0A0A0A" stroke-width="1.5" stroke-linecap="round" stroke-linejoin="round"/>
<path fill-rule="evenodd" clip-rule="evenodd" d="M21.5714 3H18.4296C17.9831 3 17.5907 3.29598 17.4681 3.72528L16.0395 8.72527C15.9533 9.02699 16.0137 9.35168 16.2026 9.60219C16.3916 9.85271 16.6872 9.99999 17.001 9.99999H23C23.3138 9.99999 23.6094 9.85271 23.7983 9.60219C23.9873 9.35168 24.0477 9.02699 23.9615 8.72527L22.5329 3.72528C22.4102 3.29598 22.0179 3 21.5714 3Z" stroke="#0A0A0A" stroke-width="1.5" stroke-linecap="round" stroke-linejoin="round"/>
</svg>
