<svg width="27" height="27" viewBox="0 0 27 27" fill="none" xmlns="http://www.w3.org/2000/svg">
<path fill-rule="evenodd" clip-rule="evenodd" d="M21.8604 8.67552C21.9868 8.81567 22.2052 8.82652 22.3442 8.70324L24.8855 6.44945C25.0263 6.32461 25.0399 6.11194 24.9115 5.96964L24.4622 5.47154C24.3358 5.33139 24.1174 5.32054 23.9784 5.44382L21.437 7.69761C21.2962 7.82245 21.2827 8.03512 21.411 8.17742L21.8604 8.67552ZM5.5616 7.69761C5.70061 7.82088 5.714 8.03727 5.58758 8.17742L5.13825 8.67552C5.00988 8.81782 4.79521 8.82808 4.65444 8.70324L2.11307 6.44945C1.97406 6.32617 1.96067 6.10979 2.0871 5.96964L2.53643 5.47154C2.66479 5.32923 2.87946 5.31898 3.02023 5.44382L5.5616 7.69761ZM13.1603 10.4725C7.76583 10.7397 4.34586 14.2031 4.34586 18.9118C4.34586 19.2854 4.64943 19.5882 5.02389 19.5882H22.6528C23.0272 19.5882 23.3308 19.2854 23.3308 18.9118C23.3308 14.2031 19.9108 10.7397 14.5164 10.4725V9.77941H16.2146C16.4001 9.77941 16.5505 9.62945 16.5505 9.43801V8.76787C16.5505 8.57932 16.3997 8.42647 16.2111 8.42647H11.4655C11.2781 8.42647 11.1262 8.57643 11.1262 8.76787V9.43801C11.1262 9.62656 11.2791 9.77941 11.4621 9.77941H13.1603V10.4725ZM14.1742 6.05882C14.3632 6.05882 14.5164 5.90467 14.5164 5.71975V2.33907C14.5164 2.15181 14.3661 2 14.1742 2H13.5025C13.3135 2 13.1603 2.15415 13.1603 2.33907V5.71975C13.1603 5.90702 13.3106 6.05882 13.5025 6.05882H14.1742ZM3.67803 24.9971C3.30357 24.9971 3 24.6942 3 24.3206C3 21.6924 4.19446 20.6 6.72918 20.6H20.9679C23.5026 20.6 24.6971 21.6924 24.6971 24.3206C24.6971 24.6942 24.3935 24.9971 24.019 24.9971H3.67803Z" fill="#1F1F1F"/>
<mask id="mask0_102_7109" style="mask-type:luminance" maskUnits="userSpaceOnUse" x="2" y="2" width="23" height="23">
<path fill-rule="evenodd" clip-rule="evenodd" d="M21.8604 8.67552C21.9868 8.81567 22.2052 8.82652 22.3442 8.70324L24.8855 6.44945C25.0263 6.32461 25.0399 6.11194 24.9115 5.96964L24.4622 5.47154C24.3358 5.33139 24.1174 5.32054 23.9784 5.44382L21.437 7.69761C21.2962 7.82245 21.2827 8.03512 21.411 8.17742L21.8604 8.67552ZM5.5616 7.69761C5.70061 7.82088 5.714 8.03727 5.58758 8.17742L5.13825 8.67552C5.00988 8.81782 4.79521 8.82808 4.65444 8.70324L2.11307 6.44945C1.97406 6.32617 1.96067 6.10979 2.0871 5.96964L2.53643 5.47154C2.66479 5.32923 2.87946 5.31898 3.02023 5.44382L5.5616 7.69761ZM13.1603 10.4725C7.76583 10.7397 4.34586 14.2031 4.34586 18.9118C4.34586 19.2854 4.64943 19.5882 5.02389 19.5882H22.6528C23.0272 19.5882 23.3308 19.2854 23.3308 18.9118C23.3308 14.2031 19.9108 10.7397 14.5164 10.4725V9.77941H16.2146C16.4001 9.77941 16.5505 9.62945 16.5505 9.43801V8.76787C16.5505 8.57932 16.3997 8.42647 16.2111 8.42647H11.4655C11.2781 8.42647 11.1262 8.57643 11.1262 8.76787V9.43801C11.1262 9.62656 11.2791 9.77941 11.4621 9.77941H13.1603V10.4725ZM14.1742 6.05882C14.3632 6.05882 14.5164 5.90467 14.5164 5.71975V2.33907C14.5164 2.15181 14.3661 2 14.1742 2H13.5025C13.3135 2 13.1603 2.15415 13.1603 2.33907V5.71975C13.1603 5.90702 13.3106 6.05882 13.5025 6.05882H14.1742ZM3.67803 24.9971C3.30357 24.9971 3 24.6942 3 24.3206C3 21.6924 4.19446 20.6 6.72918 20.6H20.9679C23.5026 20.6 24.6971 21.6924 24.6971 24.3206C24.6971 24.6942 24.3935 24.9971 24.019 24.9971H3.67803Z" fill="white"/>
</mask>
<g mask="url(#mask0_102_7109)">
</g>
</svg>
