<svg width="27" height="27" viewBox="0 0 27 27" fill="none" xmlns="http://www.w3.org/2000/svg">
<path fill-rule="evenodd" clip-rule="evenodd" d="M21.75 4H15.8088C14.7281 4 13.7175 4.57003 13.1706 5.48548L11.5913 8.12388C11.1975 8.77593 10.4756 9.18182 9.71002 9.18182H4.25C3.28314 9.18182 2.5 9.95911 2.5 10.9091V21.2727C2.5 22.2271 3.28314 23 4.25 23H21.75C22.7169 23 23.5 22.2271 23.5 21.2727V5.72727C23.5 4.77729 22.7169 4 21.75 4ZM13 11.3409C14.2075 11.3409 15.1875 12.3125 15.1875 13.5C15.1875 14.6918 14.2075 15.6591 13 15.6591C11.7969 15.6591 10.8125 14.6918 10.8125 13.5C10.8125 12.3125 11.7969 11.3409 13 11.3409ZM15.8581 19.9773C16.1943 19.9773 16.5055 19.7959 16.713 19.4764C16.9133 19.1698 16.9849 18.7769 16.9062 18.4055C16.6416 17.1061 15.9065 16.0278 14.9467 15.3973C14.4872 16.0829 13.7857 16.5228 13.0001 16.5228C12.2145 16.5228 11.513 16.0828 11.0535 15.3972C10.0936 16.0276 9.35848 17.106 9.09382 18.4055C9.01512 18.7769 9.08666 19.1698 9.28698 19.4764C9.49446 19.7959 9.80566 19.9773 10.1419 19.9773H15.8581Z" fill="#6F685D"/>
<mask id="mask0_102_7096" style="mask-type:luminance" maskUnits="userSpaceOnUse" x="2" y="4" width="22" height="19">
<path fill-rule="evenodd" clip-rule="evenodd" d="M21.75 4H15.8088C14.7281 4 13.7175 4.57003 13.1706 5.48548L11.5913 8.12388C11.1975 8.77593 10.4756 9.18182 9.71002 9.18182H4.25C3.28314 9.18182 2.5 9.95911 2.5 10.9091V21.2727C2.5 22.2271 3.28314 23 4.25 23H21.75C22.7169 23 23.5 22.2271 23.5 21.2727V5.72727C23.5 4.77729 22.7169 4 21.75 4ZM13 11.3409C14.2075 11.3409 15.1875 12.3125 15.1875 13.5C15.1875 14.6918 14.2075 15.6591 13 15.6591C11.7969 15.6591 10.8125 14.6918 10.8125 13.5C10.8125 12.3125 11.7969 11.3409 13 11.3409ZM15.8581 19.9773C16.1943 19.9773 16.5055 19.7959 16.713 19.4764C16.9133 19.1698 16.9849 18.7769 16.9062 18.4055C16.6416 17.1061 15.9065 16.0278 14.9467 15.3973C14.4872 16.0829 13.7857 16.5228 13.0001 16.5228C12.2145 16.5228 11.513 16.0828 11.0535 15.3972C10.0936 16.0276 9.35848 17.106 9.09382 18.4055C9.01512 18.7769 9.08666 19.1698 9.28698 19.4764C9.49446 19.7959 9.80566 19.9773 10.1419 19.9773H15.8581Z" fill="white"/>
</mask>
<g mask="url(#mask0_102_7096)">
</g>
<path d="M9.51424 8.22054C9.96147 8.22054 10.3825 7.99599 10.6132 7.63429L11.5 5.8335H4.2025C3.26189 5.8335 2.5 6.94742 2.5 7.82262V8.8335C2.95238 8.45379 3.54816 8.22054 4.20265 8.22054H9.51424Z" fill="#4E4941"/>
<mask id="mask1_102_7096" style="mask-type:luminance" maskUnits="userSpaceOnUse" x="2" y="5" width="10" height="4">
<path d="M9.51424 8.22054C9.96147 8.22054 10.3825 7.99599 10.6132 7.63429L11.5 5.8335H4.2025C3.26189 5.8335 2.5 6.94742 2.5 7.82262V8.8335C2.95238 8.45379 3.54816 8.22054 4.20265 8.22054H9.51424Z" fill="white"/>
</mask>
<g mask="url(#mask1_102_7096)">
</g>
</svg>
