<svg width="27" height="27" viewBox="0 0 27 27" fill="none" xmlns="http://www.w3.org/2000/svg">
<path fill-rule="evenodd" clip-rule="evenodd" d="M13.9948 19.0548C13.9948 16.2659 16.2958 14 19.1278 14C21.9598 14 24.2608 16.2659 24.2608 19.0548C24.2608 21.8436 21.9598 24.1095 19.1278 24.1095C16.2958 24.1095 13.9948 21.8436 13.9948 19.0548ZM19.4818 22.1225V20.3098C20.3668 20.1703 21.0394 19.4034 21.0394 18.4621C21.0394 17.4163 20.1898 16.5797 19.1278 16.5797C18.0658 16.5797 17.2162 17.4163 17.2162 18.4621C17.2162 19.4034 17.8888 20.1354 18.7738 20.3098V22.1225C18.7738 22.2968 18.9508 22.4711 19.1278 22.4711C19.3402 22.4711 19.4818 22.2968 19.4818 22.1225Z" fill="#6F685D"/>
<mask id="mask0_102_7075" style="mask-type:luminance" maskUnits="userSpaceOnUse" x="13" y="14" width="12" height="11">
<path fill-rule="evenodd" clip-rule="evenodd" d="M13.9948 19.0548C13.9948 16.2659 16.2958 14 19.1278 14C21.9598 14 24.2608 16.2659 24.2608 19.0548C24.2608 21.8436 21.9598 24.1095 19.1278 24.1095C16.2958 24.1095 13.9948 21.8436 13.9948 19.0548ZM19.4818 22.1225V20.3098C20.3668 20.1703 21.0394 19.4034 21.0394 18.4621C21.0394 17.4163 20.1898 16.5797 19.1278 16.5797C18.0658 16.5797 17.2162 17.4163 17.2162 18.4621C17.2162 19.4034 17.8888 20.1354 18.7738 20.3098V22.1225C18.7738 22.2968 18.9508 22.4711 19.1278 22.4711C19.3402 22.4711 19.4818 22.2968 19.4818 22.1225Z" fill="white"/>
</mask>
<g mask="url(#mask0_102_7075)">
</g>
<path fill-rule="evenodd" clip-rule="evenodd" d="M11.3003 17.1551L20.3272 4.2567C20.7874 3.59435 20.6104 2.68797 19.9732 2.26965C19.3006 1.7816 18.4156 1.99076 17.9554 2.61825L8.92846 15.4818C9.31786 15.6561 9.70726 15.8652 10.0613 16.1093C10.5215 16.423 10.9463 16.7716 11.3003 17.1551ZM21.5308 5.5814L18.3802 10.1133L17.5306 9.52063L20.6812 4.98877L21.5308 5.5814ZM24.9292 7.32442C25 7.21984 25 7.15012 25 7.04554C25 6.97582 24.9292 6.87123 24.8584 6.83637L23.0884 5.79056C22.7698 5.5814 22.3096 5.65112 22.0972 5.96486L18.7696 10.7059C18.6634 10.8802 18.628 11.0545 18.6634 11.2288C18.6988 11.4031 18.805 11.5774 18.9466 11.682L20.7166 12.7278C20.7874 12.7627 20.8582 12.7975 20.929 12.7975C21.0352 12.7975 21.1768 12.7278 21.2122 12.6232L22.3804 10.9499C22.4512 10.8453 22.4512 10.7756 22.4512 10.671C22.4512 10.6013 22.3804 10.5316 22.3096 10.4619L21.637 10.0087L22.5928 8.61426L23.2654 9.10231C23.4424 9.20689 23.6548 9.17203 23.761 8.99773L24.9292 7.32442ZM9.67186 16.667C7.01687 14.8892 3.93709 15.3772 2.66269 17.2248C1.1759 19.3862 2.34409 22.3144 4.64508 23.8832C7.01687 25.4867 10.2029 25.417 11.6543 23.3254C13.1056 21.2338 12.0083 18.2358 9.67186 16.667ZM9.53026 22.419C8.99926 22.9071 8.22047 23.0814 7.51247 22.8025C6.41508 22.3842 6.41508 21.4429 6.27348 21.4429C5.81328 21.4778 5.35308 21.3732 4.96368 21.1292C3.93709 20.432 3.83089 18.9678 4.78668 18.1312C5.31768 17.6431 6.16728 17.5037 6.80447 17.7826C7.86647 18.2358 7.86647 19.1073 8.00807 19.1073C8.46827 19.0724 8.92847 19.177 9.31786 19.421C10.3091 20.1182 10.4507 21.5475 9.53026 22.419Z" fill="#B2B2B0"/>
<mask id="mask1_102_7075" style="mask-type:luminance" maskUnits="userSpaceOnUse" x="2" y="2" width="23" height="23">
<path fill-rule="evenodd" clip-rule="evenodd" d="M11.3003 17.1551L20.3272 4.2567C20.7874 3.59435 20.6104 2.68797 19.9732 2.26965C19.3006 1.7816 18.4156 1.99076 17.9554 2.61825L8.92846 15.4818C9.31786 15.6561 9.70726 15.8652 10.0613 16.1093C10.5215 16.423 10.9463 16.7716 11.3003 17.1551ZM21.5308 5.5814L18.3802 10.1133L17.5306 9.52063L20.6812 4.98877L21.5308 5.5814ZM24.9292 7.32442C25 7.21984 25 7.15012 25 7.04554C25 6.97582 24.9292 6.87123 24.8584 6.83637L23.0884 5.79056C22.7698 5.5814 22.3096 5.65112 22.0972 5.96486L18.7696 10.7059C18.6634 10.8802 18.628 11.0545 18.6634 11.2288C18.6988 11.4031 18.805 11.5774 18.9466 11.682L20.7166 12.7278C20.7874 12.7627 20.8582 12.7975 20.929 12.7975C21.0352 12.7975 21.1768 12.7278 21.2122 12.6232L22.3804 10.9499C22.4512 10.8453 22.4512 10.7756 22.4512 10.671C22.4512 10.6013 22.3804 10.5316 22.3096 10.4619L21.637 10.0087L22.5928 8.61426L23.2654 9.10231C23.4424 9.20689 23.6548 9.17203 23.761 8.99773L24.9292 7.32442ZM9.67186 16.667C7.01687 14.8892 3.93709 15.3772 2.66269 17.2248C1.1759 19.3862 2.34409 22.3144 4.64508 23.8832C7.01687 25.4867 10.2029 25.417 11.6543 23.3254C13.1056 21.2338 12.0083 18.2358 9.67186 16.667ZM9.53026 22.419C8.99926 22.9071 8.22047 23.0814 7.51247 22.8025C6.41508 22.3842 6.41508 21.4429 6.27348 21.4429C5.81328 21.4778 5.35308 21.3732 4.96368 21.1292C3.93709 20.432 3.83089 18.9678 4.78668 18.1312C5.31768 17.6431 6.16728 17.5037 6.80447 17.7826C7.86647 18.2358 7.86647 19.1073 8.00807 19.1073C8.46827 19.0724 8.92847 19.177 9.31786 19.421C10.3091 20.1182 10.4507 21.5475 9.53026 22.419Z" fill="white"/>
</mask>
<g mask="url(#mask1_102_7075)">
</g>
</svg>
