<svg width="27" height="27" viewBox="0 0 27 27" fill="none" xmlns="http://www.w3.org/2000/svg">
<path fill-rule="evenodd" clip-rule="evenodd" d="M10.9452 3.06179C10.9444 3.06257 10.9427 3.06218 10.9411 3.06179C10.9394 3.0614 10.9378 3.06101 10.937 3.06179L2.16242 11.8175C2.0254 11.9479 1.96949 12.1422 2.01622 12.3255C2.06296 12.5088 2.20505 12.6526 2.38774 12.7014C2.57044 12.7502 2.76522 12.6964 2.89704 12.5607L3.83571 11.6214V21.3409C3.83571 23.359 5.47566 25 7.49247 25H19.5075C21.5243 25 23.1643 23.359 23.1643 21.3409V11.6214L24.103 12.5607C24.2348 12.6964 24.4296 12.7502 24.6123 12.7014C24.795 12.6526 24.937 12.5088 24.9838 12.3255C25.0305 12.1422 24.9746 11.9479 24.8376 11.8175L16.063 3.06179C16.0622 3.06101 16.0606 3.0614 16.0589 3.06179C16.0573 3.06218 16.0556 3.06257 16.0548 3.06179C15.3498 2.35873 14.4247 2 13.5 2C12.5753 2 11.6502 2.35873 10.9452 3.06179ZM7.97435 20.2412L10.2449 17.9665C9.64302 17.1431 9.28383 16.1311 9.28383 15.0332C9.28383 12.2808 11.5145 10.0498 14.2668 10.0498C17.0188 10.0498 19.2498 12.2808 19.2498 15.0332C19.2498 17.7855 17.0188 20.0166 14.2668 20.0166C13.1663 20.0166 12.1527 19.6558 11.3282 19.0513L9.05882 21.3253C8.75943 21.6246 8.27413 21.6246 7.97474 21.3253C7.67535 21.0259 7.67497 20.5406 7.97435 20.2412ZM17.7165 15.033C17.7165 13.1275 16.172 11.583 14.2668 11.583C12.3613 11.583 10.8168 13.1275 10.8168 15.033C10.8168 16.9386 12.3613 18.4831 14.2668 18.4831C16.172 18.4831 17.7165 16.9386 17.7165 15.033Z" fill="#6F685D"/>
<mask id="mask0_102_7064" style="mask-type:luminance" maskUnits="userSpaceOnUse" x="2" y="2" width="23" height="23">
<path fill-rule="evenodd" clip-rule="evenodd" d="M10.9452 3.06179C10.9444 3.06257 10.9427 3.06218 10.9411 3.06179C10.9394 3.0614 10.9378 3.06101 10.937 3.06179L2.16242 11.8175C2.0254 11.9479 1.96949 12.1422 2.01622 12.3255C2.06296 12.5088 2.20505 12.6526 2.38774 12.7014C2.57044 12.7502 2.76522 12.6964 2.89704 12.5607L3.83571 11.6214V21.3409C3.83571 23.359 5.47566 25 7.49247 25H19.5075C21.5243 25 23.1643 23.359 23.1643 21.3409V11.6214L24.103 12.5607C24.2348 12.6964 24.4296 12.7502 24.6123 12.7014C24.795 12.6526 24.937 12.5088 24.9838 12.3255C25.0305 12.1422 24.9746 11.9479 24.8376 11.8175L16.063 3.06179C16.0622 3.06101 16.0606 3.0614 16.0589 3.06179C16.0573 3.06218 16.0556 3.06257 16.0548 3.06179C15.3498 2.35873 14.4247 2 13.5 2C12.5753 2 11.6502 2.35873 10.9452 3.06179ZM7.97435 20.2412L10.2449 17.9665C9.64302 17.1431 9.28383 16.1311 9.28383 15.0332C9.28383 12.2808 11.5145 10.0498 14.2668 10.0498C17.0188 10.0498 19.2498 12.2808 19.2498 15.0332C19.2498 17.7855 17.0188 20.0166 14.2668 20.0166C13.1663 20.0166 12.1527 19.6558 11.3282 19.0513L9.05882 21.3253C8.75943 21.6246 8.27413 21.6246 7.97474 21.3253C7.67535 21.0259 7.67497 20.5406 7.97435 20.2412ZM17.7165 15.033C17.7165 13.1275 16.172 11.583 14.2668 11.583C12.3613 11.583 10.8168 13.1275 10.8168 15.033C10.8168 16.9386 12.3613 18.4831 14.2668 18.4831C16.172 18.4831 17.7165 16.9386 17.7165 15.033Z" fill="white"/>
</mask>
<g mask="url(#mask0_102_7064)">
</g>
</svg>
