<svg width="27" height="27" viewBox="0 0 27 27" fill="none" xmlns="http://www.w3.org/2000/svg">
<path d="M18.1103 21.1555C17.4738 21.535 16.7825 21.8502 16.0482 22.0638L15.7457 24.2265C15.6901 24.6241 15.3512 24.9241 14.9555 24.9357L13.8844 24.9675L12.8133 24.9994C12.7506 25.0013 12.6892 24.9954 12.6301 24.9837C12.2847 24.938 12.0041 24.6792 11.934 24.3302L11.5167 22.2249C10.7075 22.0457 9.94145 21.7548 9.22852 21.3685L7.49079 22.6856C7.16954 22.927 6.72446 22.9015 6.43644 22.6302L5.66131 21.9L4.88617 21.1697C4.62969 20.9283 4.56095 20.5511 4.70496 20.2349C4.72456 20.1889 4.74842 20.144 4.77682 20.1009L5.9658 18.3225C5.64114 17.8042 5.35909 17.2469 5.13953 16.6581C5.06796 16.4678 5.00291 16.2743 4.94497 16.0778L2.78374 15.7756C2.47584 15.7324 2.22731 15.5194 2.12506 15.2419C2.08842 15.153 2.06683 15.0567 2.06399 14.9567L2.03218 13.8856L2.00037 12.8145C1.98844 12.4092 2.26765 12.0629 2.66132 11.9834L4.76404 11.5633C4.94213 10.7371 5.23753 9.95567 5.6312 9.2291L4.31384 7.49165C4.07241 7.17041 4.09769 6.72533 4.36923 6.43731L5.09949 5.66218L5.82974 4.88704C5.91524 4.79615 6.01777 4.72912 6.12855 4.68623C6.37964 4.57063 6.68185 4.58597 6.92669 4.74787L8.71811 5.94167C9.39298 5.52357 10.1326 5.17704 10.9214 4.94754L11.2239 2.78489C11.2778 2.40059 11.596 2.1086 11.9743 2.0785C12.0064 2.07196 12.0388 2.06685 12.0717 2.06401L13.1428 2.0322L14.2139 2.00039C14.6192 1.98817 14.9655 2.26766 15.045 2.66134L15.4657 4.78337C15.6301 4.82086 15.7926 4.86318 15.9534 4.9092C16.6052 5.0907 17.2227 5.34661 17.8004 5.67013L19.5288 4.363C19.85 4.12157 20.2951 4.14713 20.5831 4.41838L21.3583 5.14864L22.1334 5.8789C22.4217 6.15044 22.4734 6.59325 22.2516 6.92813L21.0498 8.73147C21.0859 8.788 21.12 8.84565 21.1546 8.90303C21.2023 8.98199 21.2484 9.06152 21.2932 9.14162C21.2964 9.14702 21.2992 9.15241 21.3023 9.15781C21.3446 9.23365 21.3855 9.31005 21.4256 9.38703C21.4316 9.39839 21.4372 9.40975 21.4432 9.42111C21.4801 9.49326 21.5165 9.56597 21.5514 9.63925C21.5602 9.65771 21.5688 9.67618 21.5776 9.69435C21.6094 9.76196 21.6403 9.82956 21.6704 9.89801C21.6824 9.92499 21.6937 9.95198 21.7051 9.97896C21.7312 10.0403 21.7573 10.1019 21.7823 10.1639C21.7974 10.2016 21.8119 10.2397 21.8264 10.2778C21.8468 10.3309 21.8676 10.3837 21.8872 10.4374C21.9068 10.4914 21.9252 10.5462 21.944 10.6007C21.9573 10.6402 21.9715 10.6791 21.9846 10.7186C22.0158 10.8146 22.0459 10.9112 22.0743 11.0086L24.2177 11.302C24.4335 11.3321 24.6199 11.4463 24.7477 11.6071C24.7514 11.6116 24.7551 11.6159 24.7588 11.6204C24.7625 11.6252 24.7659 11.6303 24.7696 11.6352C24.863 11.7607 24.9232 11.9113 24.936 12.0723L24.9678 13.1434L24.9996 14.2145C25.0036 14.3469 24.976 14.4724 24.9241 14.5849C24.8198 14.8269 24.6023 15.0101 24.3296 15.0649L22.2121 15.4847C22.0473 16.2028 21.8002 16.8861 21.4727 17.5295L19.1615 15.2183C19.1831 15.1464 19.2042 15.0746 19.2232 15.0016C19.2263 14.9902 19.2294 14.9788 19.2323 14.9672C19.2399 14.9371 19.247 14.907 19.2544 14.8766C19.2581 14.861 19.2621 14.8453 19.2655 14.8297C19.272 14.8016 19.278 14.7732 19.2842 14.7448C19.2882 14.7269 19.2919 14.7087 19.2956 14.6908C19.301 14.6638 19.3064 14.6369 19.3115 14.6099C19.3152 14.5903 19.3189 14.5704 19.3226 14.5508C19.3274 14.5247 19.3317 14.4985 19.3359 14.4724C19.3394 14.4514 19.3428 14.4304 19.3462 14.4094C19.3501 14.3841 19.3538 14.3588 19.3575 14.3335C19.3607 14.3111 19.3638 14.2889 19.3666 14.2665C19.3697 14.2421 19.3729 14.2173 19.3757 14.1926C19.3785 14.1693 19.3808 14.1458 19.3834 14.1222C19.3859 14.0983 19.3882 14.0745 19.3905 14.0503C19.3927 14.0259 19.3947 14.0012 19.3967 13.9765C19.3987 13.9532 19.4004 13.9302 19.4021 13.9069C19.4038 13.881 19.4052 13.8549 19.4067 13.8291C19.4078 13.8069 19.4092 13.7848 19.4101 13.7623C19.4112 13.7345 19.4121 13.7064 19.4129 13.6785C19.4135 13.6578 19.4143 13.6373 19.4146 13.6166C19.4152 13.5851 19.4152 13.5536 19.4155 13.522C19.4155 13.5047 19.4158 13.4874 19.4158 13.47C19.4155 13.4223 19.4146 13.3743 19.4132 13.3266C19.4132 13.3255 19.4132 13.3241 19.4132 13.3229C19.4118 13.2738 19.4095 13.2246 19.407 13.1758C19.4061 13.159 19.4047 13.1426 19.4038 13.1261C19.4018 13.094 19.3999 13.0619 19.3973 13.0298C19.3956 13.0096 19.3936 12.9895 19.3919 12.9693C19.3893 12.9412 19.3868 12.9131 19.3839 12.8852C19.3817 12.8631 19.3791 12.8412 19.3766 12.8193C19.3737 12.7935 19.3706 12.7676 19.3675 12.7418C19.3646 12.7188 19.3612 12.6955 19.3581 12.6725C19.3547 12.648 19.3513 12.6239 19.3476 12.5998C19.3439 12.5756 19.3399 12.5518 19.3359 12.5279C19.3323 12.5052 19.3283 12.4822 19.3243 12.4594C19.3198 12.4345 19.3152 12.4095 19.3104 12.3847C19.3064 12.3634 19.3021 12.3421 19.2979 12.3208C19.2928 12.295 19.2874 12.2691 19.2817 12.2433C19.2774 12.2234 19.2729 12.2038 19.2683 12.1839C19.2621 12.1569 19.2561 12.1302 19.2496 12.1035C19.2453 12.0857 19.2408 12.0678 19.2362 12.0499C19.2291 12.0217 19.222 11.9933 19.2144 11.9655C19.2101 11.9499 19.2059 11.9345 19.2016 11.9189C19.1934 11.8888 19.1848 11.8587 19.176 11.8286C19.1726 11.817 19.1689 11.8053 19.1655 11.7937C19.1556 11.7601 19.1454 11.7269 19.1348 11.6937C19.1334 11.6897 19.1323 11.686 19.1309 11.682C19.0766 11.5142 19.0153 11.3494 18.9471 11.1884C18.3021 9.66936 17.0424 8.48124 15.4884 7.92623C15.329 7.86942 15.1666 7.81943 15.0016 7.77597C14.9899 7.77285 14.9785 7.76973 14.9669 7.76689C14.9371 7.75922 14.907 7.75212 14.8769 7.74473C14.8612 7.74104 14.8453 7.73706 14.8297 7.73337C14.8016 7.72684 14.7735 7.72087 14.7451 7.71491C14.7269 7.71093 14.709 7.70695 14.6908 7.70326C14.6641 7.69787 14.6371 7.69247 14.6102 7.68736C14.5903 7.68366 14.5707 7.67997 14.5508 7.67628C14.5249 7.67173 14.4988 7.66719 14.4727 7.66293C14.4517 7.65952 14.4304 7.65611 14.4093 7.6527C14.3843 7.64873 14.3591 7.64503 14.3338 7.64163C14.3113 7.6385 14.2889 7.63538 14.2665 7.63254C14.242 7.62941 14.2176 7.62629 14.1929 7.62345C14.1693 7.62061 14.1458 7.61805 14.1222 7.61578C14.0983 7.61322 14.0745 7.61095 14.0506 7.60868C14.0259 7.60641 14.0012 7.60442 13.9765 7.60243C13.9535 7.60072 13.9302 7.59874 13.9072 7.59703C13.881 7.59533 13.8549 7.59391 13.8288 7.59249C13.8066 7.59135 13.7847 7.58993 13.7626 7.58908C13.7345 7.58794 13.7063 7.58709 13.6779 7.58624C13.6575 7.58567 13.6373 7.58482 13.6169 7.58453C13.5851 7.58397 13.553 7.58397 13.5209 7.58368C13.5041 7.58368 13.4871 7.5834 13.4703 7.5834C13.4215 7.58368 13.3723 7.58453 13.3229 7.58595C12.3532 7.61493 11.4451 7.87539 10.6498 8.31309C10.6081 8.33609 10.5663 8.35967 10.5251 8.38353C10.4428 8.43153 10.3615 8.48152 10.2817 8.53322C10.1221 8.63689 9.96786 8.74795 9.81931 8.86611C9.67076 8.98426 9.52846 9.10924 9.39212 9.24047C9.32395 9.30608 9.25749 9.37339 9.19245 9.44241C9.12769 9.51144 9.06435 9.58159 9.00271 9.65374C8.97203 9.68981 8.94164 9.72588 8.91182 9.76281C8.04437 10.8268 7.54106 12.1961 7.58509 13.676C7.62911 15.1558 8.21309 16.4928 9.14246 17.5031C9.17455 17.538 9.20693 17.5724 9.23988 17.6065C9.30549 17.6746 9.37281 17.7411 9.44183 17.8061C9.51085 17.8709 9.58129 17.9342 9.65315 17.9959C9.79687 18.1189 9.94685 18.2353 10.1019 18.3444C10.257 18.4535 10.4178 18.5551 10.5834 18.6489C10.666 18.6957 10.7501 18.7409 10.8353 18.7838C10.8779 18.8054 10.9208 18.8264 10.964 18.8468C11.7837 19.2363 12.706 19.4425 13.6757 19.4135C13.7248 19.4121 13.7739 19.4098 13.8228 19.4073C13.8398 19.4064 13.8569 19.405 13.8739 19.4038C13.9057 19.4019 13.9373 19.3999 13.9691 19.3973C13.9895 19.3956 14.01 19.3936 14.0304 19.3919C14.0583 19.3894 14.0861 19.3871 14.1137 19.3842C14.1358 19.382 14.158 19.3794 14.1801 19.3769C14.206 19.374 14.2315 19.3709 14.2571 19.3678C14.2804 19.3649 14.3037 19.3615 14.3267 19.3584C14.3508 19.355 14.375 19.3516 14.3991 19.3479C14.4233 19.3442 14.4474 19.3402 14.4715 19.3362C14.4943 19.3326 14.517 19.3286 14.5394 19.3246C14.5644 19.3201 14.5897 19.3155 14.6147 19.3107C14.636 19.3067 14.657 19.3024 14.678 19.2982C14.7042 19.2928 14.73 19.2877 14.7559 19.282C14.7755 19.2777 14.7951 19.2732 14.8147 19.2689C14.8416 19.2627 14.8686 19.2564 14.8956 19.2499C14.9135 19.2456 14.9311 19.2411 14.9487 19.2365C14.9771 19.2294 15.0055 19.2223 15.0336 19.2147C15.049 19.2104 15.0643 19.2062 15.0797 19.2019C15.1101 19.1934 15.1404 19.1851 15.1706 19.1763C15.1819 19.1729 15.1933 19.1695 15.2046 19.1661C15.2384 19.1559 15.272 19.1457 15.3055 19.1351C15.3089 19.134 15.3123 19.1329 15.316 19.1317C15.4847 19.0775 15.65 19.0159 15.8116 18.9471C15.8329 18.938 15.8539 18.9284 15.875 18.9193L18.1103 21.1555Z" fill="#B2B2B0"/>
<path fill-rule="evenodd" clip-rule="evenodd" d="M12.024 16.2694C10.7458 15.4449 10.5805 14.0304 10.5626 13.5416C10.564 13.4782 10.5675 13.4152 10.572 13.353L10.6879 13.1672C10.6879 13.1672 12.1001 14.0753 12.2768 14.1764C12.381 14.2571 12.6011 14.3749 12.8769 14.3749C13.2039 14.3749 13.6089 14.2096 13.9918 13.6214C14.7235 12.5366 14.1188 11.8558 13.9168 11.7294C13.7404 11.6283 12.3279 10.6955 12.3279 10.6955L12.3981 10.5828C12.8744 10.3322 13.4163 10.1899 13.9918 10.1899C14.6238 10.1899 15.2157 10.3615 15.7241 10.6597C15.7748 10.6978 15.8408 10.7432 15.9082 10.7895C16.0032 10.8548 16.1007 10.9219 16.1615 10.9727C17.1457 11.8555 17.1457 12.8391 16.9691 13.6464C16.8543 14.1974 16.9125 14.4763 17.1951 14.851L23.7376 21.3935C24.2762 21.932 24.2762 22.8054 23.7376 23.3439C23.4681 23.6132 23.1153 23.7478 22.7623 23.7478C22.4092 23.7478 22.0561 23.6132 21.7869 23.3439L15.2543 16.8114C14.9623 16.5915 14.7149 16.4865 14.4533 16.4865C14.3377 16.4865 14.2193 16.5072 14.0929 16.5472C13.8745 16.6265 13.6208 16.6748 13.349 16.6748C12.9301 16.6748 12.4677 16.5603 12.024 16.2694ZM22.7623 21.6284C22.5728 21.6284 22.3834 21.7008 22.2388 21.8454C21.9496 22.1345 21.9496 22.6035 22.2385 22.8926C22.3834 23.0372 22.5728 23.1096 22.7623 23.1096C22.952 23.1096 23.1414 23.0372 23.286 22.8926C23.5752 22.6035 23.5752 22.1345 23.286 21.8454C23.1412 21.7008 22.9517 21.6284 22.7623 21.6284Z" fill="#6F685D"/>
<mask id="mask0_102_7054" style="mask-type:luminance" maskUnits="userSpaceOnUse" x="10" y="10" width="15" height="14">
<path fill-rule="evenodd" clip-rule="evenodd" d="M12.024 16.2694C10.7458 15.4449 10.5805 14.0304 10.5626 13.5416C10.564 13.4782 10.5675 13.4152 10.572 13.353L10.6879 13.1672C10.6879 13.1672 12.1001 14.0753 12.2768 14.1764C12.381 14.2571 12.6011 14.3749 12.8769 14.3749C13.2039 14.3749 13.6089 14.2096 13.9918 13.6214C14.7235 12.5366 14.1188 11.8558 13.9168 11.7294C13.7404 11.6283 12.3279 10.6955 12.3279 10.6955L12.3981 10.5828C12.8744 10.3322 13.4163 10.1899 13.9918 10.1899C14.6238 10.1899 15.2157 10.3615 15.7241 10.6597C15.7748 10.6978 15.8408 10.7432 15.9082 10.7895C16.0032 10.8548 16.1007 10.9219 16.1615 10.9727C17.1457 11.8555 17.1457 12.8391 16.9691 13.6464C16.8543 14.1974 16.9125 14.4763 17.1951 14.851L23.7376 21.3935C24.2762 21.932 24.2762 22.8054 23.7376 23.3439C23.4681 23.6132 23.1153 23.7478 22.7623 23.7478C22.4092 23.7478 22.0561 23.6132 21.7869 23.3439L15.2543 16.8114C14.9623 16.5915 14.7149 16.4865 14.4533 16.4865C14.3377 16.4865 14.2193 16.5072 14.0929 16.5472C13.8745 16.6265 13.6208 16.6748 13.349 16.6748C12.9301 16.6748 12.4677 16.5603 12.024 16.2694ZM22.7623 21.6284C22.5728 21.6284 22.3834 21.7008 22.2388 21.8454C21.9496 22.1345 21.9496 22.6035 22.2385 22.8926C22.3834 23.0372 22.5728 23.1096 22.7623 23.1096C22.952 23.1096 23.1414 23.0372 23.286 22.8926C23.5752 22.6035 23.5752 22.1345 23.286 21.8454C23.1412 21.7008 22.9517 21.6284 22.7623 21.6284Z" fill="white"/>
</mask>
<g mask="url(#mask0_102_7054)">
</g>
</svg>
